<svg width="135" height="40" viewBox="0 0 135 40" fill="none" xmlns="http://www.w3.org/2000/svg"><g clip-path="url(#clip0_0_207)"><path d="M5 .5h125a4.501 4.501 0 014.5 4.5v30a4.5 4.5 0 01-4.5 4.5H5A4.5 4.5 0 01.5 35V5A4.5 4.5 0 015 .5z" stroke="#181A1E"/><path d="M47.42 10.24a2.72 2.72 0 01-.75 2 2.902 2.902 0 01-2.2.88 2.999 2.999 0 01-2.21-.9 3.19 3.19 0 010-4.46 3.16 3.16 0 013.44-.65c.361.148.683.378.94.67l-.53.53a2 2 0 00-1.64-.72 2.4 2.4 0 101.68 4.13 1.92 1.92 0 00.5-1.22h-2.18v-.72h2.91c.023.153.037.306.04.46v0zM52 7.74h-2.7v1.9h2.46v.72H49.3v1.9H52V13h-3.48V7H52v.74zM55.28 13h-.77V7.74h-1.68V7H57v.74h-1.72V13zm4.661 0V7h.77v6h-.77zm4.189 0h-.77V7.74h-1.68V7h4.12v.74h-1.67V13zm9.48-.78a3.112 3.112 0 01-4.4 0 3.24 3.24 0 010-4.44 2.93 2.93 0 012.2-.91 3 3 0 012.2.91 3.072 3.072 0 01.88 2.22 3.003 3.003 0 01-.88 2.22v0zm-3.83-.5a2.29 2.29 0 003.26 0 2.54 2.54 0 000-3.44 2.291 2.291 0 00-3.26 0 2.54 2.54 0 000 3.44zm5.8 1.28V7h.93l2.92 4.67V7h.77v6h-.8l-3.05-4.89V13h-.77v0z" fill="#181A1E" stroke="#181A1E" stroke-width=".2" stroke-miterlimit="10"/><path d="M68.14 21.75A4.26 4.26 0 1072.41 26a4.192 4.192 0 00-4.27-4.25zm0 6.83a2.58 2.58 0 112.4-2.58 2.46 2.46 0 01-2.4 2.58zm-9.32-6.83A4.26 4.26 0 1063.09 26a4.192 4.192 0 00-4.27-4.25zm0 6.83a2.58 2.58 0 112.4-2.58 2.46 2.46 0 01-2.4 2.58zm-11.08-5.52v1.8h4.32a3.77 3.77 0 01-1 2.27 4.42 4.42 0 01-3.34 1.32 4.8 4.8 0 110-9.6A4.64 4.64 0 0151 20.14l1.27-1.27a6.3 6.3 0 00-4.53-1.82 6.609 6.609 0 100 13.21 6.07 6.07 0 004.61-1.85 6 6 0 001.56-4.23 6.264 6.264 0 00-.09-1.12h-6.08zm45.31 1.4a4 4 0 00-3.64-2.71 4.002 4.002 0 00-4 4.25 4.23 4.23 0 007.76 2.37l-1.45-1a2.41 2.41 0 01-2.09 1.17 2.15 2.15 0 01-2.06-1.29l5.69-2.35-.21-.44zm-5.8 1.42a2.338 2.338 0 012.23-2.49 1.64 1.64 0 011.57.91l-3.8 1.58zM82.63 30h1.87V17.5h-1.87V30zm-3.06-7.3h-.07a2.941 2.941 0 00-2.24-1 4.26 4.26 0 000 8.51 2.88 2.88 0 002.24-1h.07v.61c0 1.63-.87 2.5-2.27 2.5a2.36 2.36 0 01-2.15-1.51l-1.62.67A4 4 0 0077.3 34c2.19 0 4-1.29 4-4.43V22h-1.73v.7zm-2.15 5.88a2.58 2.58 0 010-5.15A2.389 2.389 0 0179.7 26a2.38 2.38 0 01-2.28 2.58zm24.39-11.08h-4.48V30h1.87v-4.74h2.61a3.889 3.889 0 100-7.76zm0 6H99.2v-4.26h2.65a2.142 2.142 0 011.513 3.653 2.124 2.124 0 01-1.513.627l-.04-.02zm11.54-1.79a3.49 3.49 0 00-3.33 1.91l1.65.69a1.78 1.78 0 011.71-.91 1.802 1.802 0 012 1.61v.12a4.18 4.18 0 00-1.95-.48c-1.78 0-3.6 1-3.6 2.82a2.9 2.9 0 001.969 2.609c.367.123.755.17 1.141.141a2.648 2.648 0 002.38-1.22h.06v1h1.8v-4.81c0-2.19-1.66-3.46-3.79-3.46l-.04-.02zm-.23 6.85c-.61 0-1.46-.31-1.46-1.06 0-1 1.06-1.34 2-1.34a3.321 3.321 0 011.7.42 2.26 2.26 0 01-2.2 2l-.04-.02zM123.74 22l-2.14 5.42h-.06L119.32 22h-2l3.33 7.58-1.9 4.21h1.95L125.82 22h-2.08zm-16.8 8h1.86V17.5h-1.86V30z" fill="#181A1E"/><path d="M10.44 7.54a2 2 0 00-.47 1.4v22.12a1.94 1.94 0 00.47 1.4l.07.08L22.9 20.15v-.3L10.51 7.47l-.07.07z" fill="url(#paint0_linear_0_207)"/><path d="M27 24.28l-4.1-4.13v-.3l4.1-4.13.09.06L32 18.56c1.4.79 1.4 2.09 0 2.89l-4.89 2.78-.11.05z" fill="url(#paint1_linear_0_207)"/><path d="M27.121 24.22L22.901 20l-12.46 12.46a1.62 1.62 0 002.07.07l14.61-8.31z" fill="url(#paint2_linear_0_207)"/><path d="M27.121 15.78l-14.61-8.3a1.61 1.61 0 00-2.07.06L22.901 20l4.22-4.22z" fill="url(#paint3_linear_0_207)"/><path opacity=".2" d="M27.001 24.13l-14.49 8.25a1.66 1.66 0 01-2 0l-.07.07.07.08a1.66 1.66 0 002 0l14.61-8.31-.12-.09z" fill="#000"/><path opacity=".12" d="M10.44 32.32a2 2 0 01-.44-1.41v.15a1.94 1.94 0 00.47 1.4l.07-.07-.1-.07zM32 21.3l-5 2.83.09.09L32 21.44A1.75 1.75 0 0033.06 20 1.86 1.86 0 0132 21.3z" fill="#000"/><path opacity=".25" d="M12.509 7.62l19.49 11.08a1.86 1.86 0 011.06 1.3 1.75 1.75 0 00-1.06-1.44L12.509 7.48c-1.39-.8-2.54-.14-2.54 1.46v.15c.03-1.6 1.15-2.26 2.54-1.47z" fill="#181A1E"/></g><defs><linearGradient id="paint0_linear_0_207" x1="21.799" y1="8.71" x2="5.019" y2="25.49" gradientUnits="userSpaceOnUse"><stop stop-color="#00A0FF"/><stop offset=".01" stop-color="#00A1FF"/><stop offset=".26" stop-color="#00BEFF"/><stop offset=".51" stop-color="#00D2FF"/><stop offset=".76" stop-color="#00DFFF"/><stop offset="1" stop-color="#00E3FF"/></linearGradient><linearGradient id="paint1_linear_0_207" x1="33.83" y1="20" x2="9.64" y2="20" gradientUnits="userSpaceOnUse"><stop stop-color="#FFE000"/><stop offset=".41" stop-color="#FFBD00"/><stop offset=".78" stop-color="orange"/><stop offset="1" stop-color="#FF9C00"/></linearGradient><linearGradient id="paint2_linear_0_207" x1="24.831" y1="22.3" x2="2.071" y2="45.05" gradientUnits="userSpaceOnUse"><stop stop-color="#FF3A44"/><stop offset="1" stop-color="#C31162"/></linearGradient><linearGradient id="paint3_linear_0_207" x1="7.301" y1=".18" x2="17.461" y2="10.34" gradientUnits="userSpaceOnUse"><stop stop-color="#32A071"/><stop offset=".07" stop-color="#2DA771"/><stop offset=".48" stop-color="#15CF74"/><stop offset=".8" stop-color="#06E775"/><stop offset="1" stop-color="#00F076"/></linearGradient><clipPath id="clip0_0_207"><path fill="#fff" d="M0 0h135v40H0z"/></clipPath></defs></svg>