<svg width="135" height="40" viewBox="0 0 135 40" fill="none" xmlns="http://www.w3.org/2000/svg"><g clip-path="url(#clip0_0_91)"><path d="M5 .5h125a4.501 4.501 0 014.5 4.5v30a4.5 4.5 0 01-4.5 4.5H5A4.5 4.5 0 01.5 35V5A4.5 4.5 0 015 .5z" stroke="#fff"/><path d="M32.797 18.863a4.951 4.951 0 012.357-4.151 5.068 5.068 0 00-3.99-2.158c-1.68-.176-3.309 1.005-4.164 1.005-.872 0-2.19-.987-3.609-.958a5.315 5.315 0 00-4.473 2.728c-1.934 3.348-.49 8.27 1.362 10.976.926 1.325 2.01 2.805 3.427 2.753 1.387-.058 1.905-.885 3.58-.885 1.658 0 2.144.885 3.59.852 1.49-.024 2.427-1.332 3.321-2.67a10.966 10.966 0 001.52-3.092 4.781 4.781 0 01-2.92-4.4zm-2.732-8.09a4.872 4.872 0 001.114-3.49 4.957 4.957 0 00-3.207 1.66 4.635 4.635 0 00-1.144 3.361 4.1 4.1 0 003.237-1.53v-.001zm20.265 14.93h-4.733l-1.137 3.356h-2.005l4.483-12.418h2.084l4.483 12.418h-2.04l-1.135-3.356zm-4.243-1.55h3.752l-1.85-5.446h-.05l-1.852 5.446zm17.1.38c0 2.813-1.506 4.621-3.779 4.621a3.07 3.07 0 01-2.848-1.584h-.043v4.484h-1.859V20.006h1.8v1.505h.033a3.211 3.211 0 012.883-1.6c2.298 0 3.813 1.816 3.813 4.622zm-1.91 0c0-1.833-.948-3.038-2.393-3.038-1.42 0-2.375 1.23-2.375 3.038 0 1.824.955 3.046 2.375 3.046 1.445 0 2.393-1.196 2.393-3.046zm11.874 0c0 2.813-1.505 4.621-3.778 4.621a3.07 3.07 0 01-2.849-1.584h-.043v4.484h-1.858V20.006h1.8v1.505h.033a3.212 3.212 0 012.883-1.6c2.298 0 3.812 1.816 3.812 4.622zm-1.91 0c0-1.833-.947-3.038-2.392-3.038-1.42 0-2.375 1.23-2.375 3.038 0 1.824.955 3.046 2.375 3.046 1.445 0 2.392-1.196 2.392-3.046zm8.497 1.066c.138 1.232 1.334 2.04 2.97 2.04 1.566 0 2.692-.808 2.692-1.919 0-.964-.68-1.54-2.289-1.936l-1.609-.388c-2.28-.55-3.339-1.617-3.339-3.348 0-2.142 1.867-3.614 4.52-3.614 2.623 0 4.421 1.472 4.482 3.614H85.29c-.112-1.239-1.137-1.987-2.634-1.987-1.497 0-2.52.757-2.52 1.858 0 .878.653 1.395 2.254 1.79l1.368.336c2.548.603 3.606 1.626 3.606 3.443 0 2.323-1.85 3.778-4.794 3.778-2.754 0-4.613-1.42-4.733-3.667h1.901zm11.637-7.736v2.142h1.722v1.472h-1.722v4.991c0 .776.345 1.137 1.102 1.137.204-.004.408-.018.61-.043v1.463c-.34.064-.685.092-1.03.086-1.834 0-2.549-.689-2.549-2.444v-5.19H88.19v-1.472h1.317v-2.142h1.868zm2.72 6.67c0-2.849 1.677-4.639 4.293-4.639 2.625 0 4.295 1.79 4.295 4.639 0 2.856-1.662 4.638-4.295 4.638s-4.294-1.782-4.294-4.638zm6.694 0c0-1.954-.895-3.108-2.4-3.108-1.507 0-2.4 1.162-2.4 3.108 0 1.962.893 3.106 2.4 3.106 1.504 0 2.4-1.144 2.4-3.106zm3.424-4.528h1.772v1.541h.043a2.158 2.158 0 012.178-1.635c.214-.001.428.022.637.07v1.737a2.6 2.6 0 00-.835-.112 1.87 1.87 0 00-1.937 2.083v5.37h-1.858v-9.054zm13.2 6.395c-.25 1.643-1.851 2.771-3.898 2.771-2.634 0-4.269-1.764-4.269-4.595 0-2.84 1.644-4.682 4.191-4.682 2.504 0 4.08 1.72 4.08 4.466v.637h-6.395v.112a2.356 2.356 0 002.436 2.565 2.05 2.05 0 002.09-1.274h1.765zm-6.282-2.702h4.526a2.177 2.177 0 00-2.22-2.298 2.292 2.292 0 00-2.306 2.298zM45.855 7.293a2.64 2.64 0 012.807 2.966c0 1.906-1.03 3.002-2.807 3.002H43.7V7.293h2.156zm-1.229 5.124h1.125a1.876 1.876 0 001.968-2.146 1.883 1.883 0 00-1.968-2.134h-1.125v4.28zm5.084-1.41a2.133 2.133 0 114.246 0 2.133 2.133 0 11-4.246 0zm3.332 0c0-.976-.438-1.547-1.208-1.547-.772 0-1.207.571-1.207 1.547 0 .984.435 1.55 1.207 1.55.77 0 1.208-.57 1.208-1.55zm6.56 2.254h-.922l-.93-3.317h-.07l-.928 3.317h-.913L54.6 8.758h.9l.807 3.436h.066l.926-3.436h.852l.926 3.436h.07l.803-3.436h.89l-1.237 4.503zm2.278-4.503h.856v.715h.067a1.348 1.348 0 011.344-.802 1.466 1.466 0 011.558 1.675v2.915h-.889v-2.692c0-.724-.314-1.084-.97-1.084a1.034 1.034 0 00-1.076 1.141v2.635h-.89V8.758zM67.121 7h.89v6.26h-.89V7zm2.125 4.007a2.135 2.135 0 114.248 0 2.135 2.135 0 11-4.248 0zm3.333 0c0-.976-.438-1.546-1.208-1.546-.772 0-1.207.57-1.207 1.546 0 .984.435 1.55 1.207 1.55.77 0 1.208-.57 1.208-1.55zm1.851.98c0-.81.603-1.277 1.674-1.344l1.22-.07v-.389c0-.476-.314-.744-.922-.744-.496 0-.84.182-.938.5h-.86c.09-.773.818-1.27 1.84-1.27 1.128 0 1.765.563 1.765 1.514v3.077h-.856v-.633h-.07a1.515 1.515 0 01-1.352.707 1.36 1.36 0 01-1.5-1.348zm2.894-.384v-.377l-1.1.07c-.62.042-.9.253-.9.65 0 .405.35.64.834.64a1.063 1.063 0 001.166-.983zm2.053-.596c0-1.423.731-2.324 1.87-2.324a1.484 1.484 0 011.38.79h.066V7h.89v6.26h-.852v-.71h-.07a1.564 1.564 0 01-1.415.785c-1.145 0-1.869-.901-1.869-2.328zm.918 0c0 .955.45 1.53 1.203 1.53.75 0 1.212-.583 1.212-1.526 0-.938-.468-1.53-1.212-1.53-.748 0-1.203.58-1.203 1.526zm6.963 0a2.133 2.133 0 114.247 0 2.134 2.134 0 11-4.247 0zm3.333 0c0-.976-.438-1.547-1.208-1.547-.772 0-1.207.571-1.207 1.547 0 .984.435 1.55 1.207 1.55.77 0 1.208-.57 1.208-1.55zm2.106-2.249h.856v.715h.066a1.348 1.348 0 011.344-.802 1.466 1.466 0 011.56 1.675v2.915h-.89v-2.692c0-.724-.315-1.084-.97-1.084a1.034 1.034 0 00-1.077 1.141v2.635h-.889V8.758zm8.847-1.121v1.141h.976v.749h-.976v2.315c0 .472.194.678.637.678.113 0 .226-.007.339-.02v.74c-.16.029-.322.044-.484.046-.988 0-1.382-.348-1.382-1.216V9.527h-.715v-.749h.715V7.637h.89zM103.732 7h.881v2.482h.071a1.384 1.384 0 011.373-.807 1.484 1.484 0 011.55 1.678v2.908h-.889v-2.688c0-.72-.335-1.084-.963-1.084a1.048 1.048 0 00-1.075.691 1.06 1.06 0 00-.059.45v2.63h-.889V7zm9.057 5.045a1.831 1.831 0 01-1.951 1.303 2.044 2.044 0 01-2.081-2.324 2.078 2.078 0 012.077-2.353c1.253 0 2.008.856 2.008 2.27v.31h-3.179v.05a1.19 1.19 0 001.199 1.29 1.081 1.081 0 001.071-.546h.856zm-3.126-1.451h2.274a1.083 1.083 0 00-.666-1.084 1.089 1.089 0 00-.442-.083 1.156 1.156 0 00-1.166 1.167z" fill="#fff"/></g><defs><clipPath id="clip0_0_91"><path fill="#fff" d="M0 0h135v40H0z"/></clipPath></defs></svg>