<svg width="183" height="183" viewBox="0 0 183 183" fill="none" xmlns="http://www.w3.org/2000/svg">
<path d="M166.333 100.098L163.51 99.696L163.61 98.6616L165.353 98.8302L165.951 92.6473L164.2 92.5601L164.3 91.5258L167.16 91.5443L167.099 92.1719C167.195 93.0023 169.311 93.1952 171.299 93.3874L174.065 93.6548L173.48 99.6982L166.438 99.0172L166.333 100.098ZM166.55 97.855L172.5 98.4304L172.859 94.723L170.883 94.532C168.873 94.3375 167.656 94.0557 166.958 93.6362L166.55 97.855Z" fill="#F2E0BD"/>
<path d="M172.265 109.069L171.93 110.188L165.767 108.341L170.583 114.684L170.257 115.769L162.428 113.423L162.763 112.304L168.926 114.151L164.111 107.808L164.436 106.723L172.265 109.069Z" fill="#F2E0BD"/>
<path d="M161.497 126.737C160.855 127.169 160.144 127.224 159.376 126.829C158.026 126.136 157.831 124.828 158.663 123.208L160.007 120.59L167.278 124.325L165.976 126.859C165.144 128.479 163.967 129.083 162.628 128.395C161.921 128.032 161.557 127.464 161.497 126.737ZM165.81 124.883L163.556 123.726L162.788 125.221C162.291 126.187 162.414 126.893 163.162 127.278C163.899 127.656 164.545 127.345 165.041 126.379L165.81 124.883ZM159.598 123.688C159.102 124.654 159.225 125.36 159.972 125.744C160.71 126.123 161.355 125.811 161.852 124.846L162.663 123.267L160.409 122.109L159.598 123.688Z" fill="#F2E0BD"/>
<path d="M160.621 136.783L159.907 137.707L154.817 133.772L157.036 141.42L156.343 142.316L149.877 137.318L150.591 136.394L155.681 140.329L153.462 132.68L154.155 131.784L160.621 136.783Z" fill="#F2E0BD"/>
<path d="M145.068 152.617L147.276 150.638L142.553 145.369L143.422 144.59L148.145 149.858L150.354 147.879L151.086 148.696L145.801 153.435L145.068 152.617Z" fill="#F2E0BD"/>
<path d="M139.84 158.472L138.843 159.08L135.49 153.59L134.838 161.527L133.871 162.117L129.611 155.142L130.607 154.533L133.961 160.024L134.613 152.087L135.58 151.496L139.84 158.472Z" fill="#F2E0BD"/>
<path d="M119.292 160.129C121.666 159.278 124.036 160.389 124.855 162.676C125.666 164.94 124.562 167.295 122.265 168.118C120.858 168.622 119.617 168.446 118.745 167.952L118.963 166.621C119.76 167.254 120.788 167.456 121.821 167.086C123.536 166.472 124.292 164.775 123.69 163.093C123.08 161.389 121.396 160.566 119.67 161.184C118.219 161.704 117.55 163.022 117.833 164.471L116.589 164.458C116.302 162.515 117.39 160.81 119.292 160.129Z" fill="#F2E0BD"/>
<path d="M104.419 172.765L103.165 164.688L104.319 164.509L104.871 168.063L108.392 163.877L109.961 163.633L106.479 167.766C108.258 167.502 109.739 168.063 109.972 169.563C110.198 171.017 109.207 172.022 107.269 172.323L104.419 172.765ZM108.783 169.748C108.647 168.871 107.928 168.498 106.693 168.69L105.009 168.951L105.426 171.64L107.111 171.378C108.345 171.187 108.918 170.613 108.783 169.748Z" fill="#F2E0BD"/>
<path d="M84.6003 169.387C83.9622 168.95 83.6487 168.309 83.7319 167.449C83.878 165.938 85.0214 165.275 86.8344 165.45L89.7631 165.733L88.9764 173.869L86.1407 173.594C84.3277 173.419 83.3326 172.549 83.4776 171.049C83.554 170.259 83.9473 169.711 84.6003 169.387ZM87.9154 172.71L88.1593 170.188L86.4857 170.026C85.4049 169.922 84.7938 170.297 84.7129 171.134C84.6331 171.959 85.161 172.444 86.2418 172.548L87.9154 172.71ZM86.7333 166.496C85.6524 166.392 85.0414 166.766 84.9604 167.603C84.8807 168.428 85.4085 168.913 86.4894 169.018L88.2559 169.189L88.4998 166.667L86.7333 166.496Z" fill="#F2E0BD"/>
<path d="M75.3729 172.144L74.2342 171.886L76.0403 163.914L77.1791 164.172L75.3729 172.144Z" fill="#F2E0BD"/>
<path d="M64.0472 161.425L65.1683 158.803L66.1412 159.168L65.5259 160.808L71.3417 162.99L71.8805 161.322L72.8534 161.687L72.093 164.444L71.5027 164.223C70.676 164.1 69.9403 166.093 69.2389 167.963L68.2627 170.564L62.5781 168.431L65.0638 161.807L64.0472 161.425ZM66.157 162.217L64.0568 167.814L67.5441 169.123L68.2414 167.264C68.9511 165.373 69.5389 164.272 70.1253 163.706L66.157 162.217Z" fill="#F2E0BD"/>
<path d="M53.4545 163.17L54.7034 161.073L52.1755 159.567L52.7373 158.624L55.2651 160.13L56.514 158.034L52.8025 155.823L53.3642 154.88L58.0788 157.688L53.8959 164.71L49.1812 161.902L49.743 160.959L53.4545 163.17Z" fill="#F2E0BD"/>
<path d="M45.3022 149.103C47.1251 150.725 47.2854 153.338 45.6786 155.143C44.0717 156.948 41.4584 157.092 39.6355 155.47C37.8126 153.848 37.6523 151.235 39.2591 149.43C40.8659 147.624 43.4792 147.48 45.3022 149.103ZM44.557 149.94C43.2486 148.776 41.3791 148.909 40.1836 150.253C38.9882 151.596 39.0724 153.468 40.3807 154.633C41.689 155.797 43.5586 155.663 44.754 154.32C45.9495 152.977 45.8653 151.105 44.557 149.94Z" fill="#F2E0BD"/>
<path d="M16.7784 96.8145L19.628 96.701L19.7161 97.7365L17.971 97.8849L18.4974 104.074L20.2356 103.844L20.3237 104.88L17.5067 105.377L17.4533 104.749C17.2095 103.949 15.0931 104.141 13.1037 104.31L10.3347 104.546L9.82019 98.4961L16.8705 97.8965L16.7784 96.8145ZM16.9694 99.0599L11.0127 99.5665L11.3284 103.278L13.3062 103.11C15.3189 102.938 16.566 102.996 17.3286 103.283L16.9694 99.0599Z" fill="#F2E0BD"/>
<path d="M9.32732 88.7284L9.45757 87.5681L15.851 88.2857L9.98118 82.9035L10.1075 81.778L18.2298 82.6898L18.0995 83.8501L11.7062 83.1324L17.5759 88.5146L17.4496 89.6401L9.32732 88.7284Z" fill="#F2E0BD"/>
<path d="M16.7283 69.5007C17.2826 68.9614 17.9722 68.7803 18.7989 69.0315C20.2513 69.4727 20.6764 70.7245 20.1469 72.4674L19.2916 75.2827L11.4713 72.9069L12.2994 70.181C12.8289 68.4381 13.8784 67.6343 15.3196 68.0721C16.0793 68.3029 16.5395 68.7966 16.7283 69.5007ZM12.8161 72.0952L15.2405 72.8317L15.7292 71.2229C16.0448 70.1839 15.7978 69.5109 14.9934 69.2665C14.2002 69.0256 13.6205 69.4474 13.3049 70.4864L12.8161 72.0952ZM19.1414 72.1619C19.4571 71.1229 19.21 70.4499 18.4056 70.2055C17.6124 69.9646 17.0328 70.3864 16.7171 71.4254L16.2012 73.1236L18.6256 73.86L19.1414 72.1619Z" fill="#F2E0BD"/>
<path d="M15.6941 59.6157L16.2315 58.5791L21.9433 61.5398L18.3915 54.4119L18.9127 53.4063L26.1691 57.1677L25.6318 58.2043L19.92 55.2436L23.4717 62.3715L22.9505 63.377L15.6941 59.6157Z" fill="#F2E0BD"/>
<path d="M28.1571 41.2119L26.3347 43.5516L31.917 47.8996L31.1995 48.8207L25.6172 44.4728L23.7948 46.8126L22.9289 46.1381L27.2912 40.5375L28.1571 41.2119Z" fill="#F2E0BD"/>
<path d="M32.181 34.5408L33.0532 33.7646L37.3304 38.5705L36.5595 30.6441L37.4055 29.8911L42.8393 35.9966L41.9671 36.7728L37.6899 31.9669L38.4608 39.8934L37.6148 40.6463L32.181 34.5408Z" fill="#F2E0BD"/>
<path d="M51.9197 29.29C49.7388 30.5567 47.2069 29.894 45.9871 27.7939C44.779 25.714 45.4375 23.198 47.5477 21.9723C48.84 21.2217 50.0924 21.1694 51.039 21.4972L51.0659 22.8454C50.1675 22.368 49.1203 22.3552 48.1713 22.9064C46.5962 23.8213 46.16 25.6275 47.0573 27.1722C47.9663 28.7372 49.7715 29.2415 51.3567 28.3207C52.6894 27.5466 53.1081 26.1287 52.5668 24.7552L53.7935 24.5423C54.4279 26.4018 53.6664 28.2754 51.9197 29.29Z" fill="#F2E0BD"/>
<path d="M64.6541 13.9553L67.3231 21.6805L66.2195 22.0618L65.0451 18.6627L62.3238 23.4077L60.8229 23.9263L63.5153 19.2406C61.812 19.8168 60.2543 19.5273 59.7586 18.0926C59.2782 16.7021 60.0741 15.5376 61.9282 14.897L64.6541 13.9553ZM60.8953 17.6999C61.1851 18.5386 61.9594 18.7776 63.1403 18.3696L64.7515 17.8129L63.8631 15.2415L62.2519 15.7982C61.071 16.2062 60.6093 16.8722 60.8953 17.6999Z" fill="#F2E0BD"/>
<path d="M84.2048 13.7889C84.9113 14.1038 85.335 14.6771 85.4083 15.538C85.5369 17.0504 84.5319 17.9093 82.7169 18.0637L79.7851 18.313L79.0925 10.1692L81.9312 9.92771C83.7461 9.77335 84.8818 10.4502 85.0094 11.951C85.0767 12.7421 84.7888 13.3525 84.2048 13.7889ZM80.3449 11.1173L80.5597 13.6419L82.235 13.4994C83.317 13.4074 83.8504 12.9284 83.7792 12.0908C83.7089 11.2647 83.1022 10.8828 82.0203 10.9748L80.3449 11.1173ZM82.6279 17.0166C83.7099 16.9246 84.2433 16.4456 84.1721 15.608C84.1018 14.782 83.4951 14.4 82.4132 14.492L80.6448 14.6424L80.8595 17.167L82.6279 17.0166Z" fill="#F2E0BD"/>
<path d="M93.2471 9.38777L94.4137 9.43732L94.0668 17.6032L92.9002 17.5537L93.2471 9.38777Z" fill="#F2E0BD"/>
<path d="M105.99 17.8232L105.362 20.605L104.339 20.4221L104.647 18.698L98.5323 17.6043L98.3044 19.3427L97.2814 19.1597L97.5302 16.31L98.1509 16.4211C98.9863 16.3926 99.3489 14.2987 99.7005 12.3332L100.19 9.59774L106.167 10.6668L104.921 17.632L105.99 17.8232ZM103.771 17.4264L104.824 11.5416L101.157 10.8858L100.808 12.8397C100.452 14.8281 100.073 16.0177 99.5991 16.6801L103.771 17.4264Z" fill="#F2E0BD"/>
<path d="M116.189 14.157L115.34 16.4449L118.099 17.4683L117.717 18.4973L114.959 17.474L114.11 19.7619L118.16 21.2645L117.779 22.2935L112.633 20.3849L115.476 12.7218L120.621 14.6304L120.239 15.6595L116.189 14.157Z" fill="#F2E0BD"/>
<path d="M126.662 26.4198C124.574 25.1555 123.942 22.6157 125.194 20.5485C126.447 18.4812 128.99 17.8651 131.078 19.1294C133.165 20.3937 133.797 22.9335 132.545 25.0008C131.293 27.0681 128.749 27.6841 126.662 26.4198ZM127.242 25.4611C128.74 26.3685 130.555 25.8975 131.486 24.3595C132.418 22.8216 131.995 20.9956 130.497 20.0882C128.999 19.1808 127.185 19.6517 126.253 21.1897C125.321 22.7277 125.744 24.5537 127.242 25.4611Z" fill="#F2E0BD"/>
</svg>
