<svg width="20" height="20" viewBox="0 0 20 20" fill="none" xmlns="http://www.w3.org/2000/svg">
<path d="M14.4999 1.00375L12.1657 1C9.54338 1 7.8487 2.73869 7.8487 5.42978V7.4722H5.50179C5.29899 7.4722 5.13477 7.63661 5.13477 7.83942V10.7987C5.13477 11.0015 5.29918 11.1657 5.50179 11.1657H7.8487V18.6328C7.8487 18.8356 8.01292 18.9998 8.21572 18.9998H11.2778C11.4806 18.9998 11.6448 18.8354 11.6448 18.6328V11.1657H14.3889C14.5917 11.1657 14.7559 11.0015 14.7559 10.7987L14.757 7.83942C14.757 7.74204 14.7183 7.64879 14.6495 7.57988C14.5808 7.51096 14.4872 7.4722 14.3898 7.4722H11.6448V5.74081C11.6448 4.90864 11.8431 4.48618 12.9271 4.48618L14.4995 4.48562C14.7022 4.48562 14.8664 4.32121 14.8664 4.1186V1.37077C14.8664 1.16835 14.7023 1.00412 14.4999 1.00375Z" fill="#2F2722"/>
</svg>
