<svg width="109" height="108" viewBox="0 0 109 108" fill="none" xmlns="http://www.w3.org/2000/svg">
<g clip-path="url(#clip0_415_947)">
<path d="M55 91.9942C34.0496 91.9942 17 74.9504 17 53.9942C17 33.0381 34.0438 16 55 16C75.9562 16 93 33.0438 93 54C93 74.9562 75.9562 92 55 92V91.9942ZM55 16.5071C34.3262 16.5071 17.5128 33.3262 17.5128 53.9942C17.5128 74.6623 34.3319 91.4814 55 91.4814C75.6681 91.4814 92.4872 74.6623 92.4872 53.9942C92.4872 33.3262 75.6681 16.5071 55 16.5071Z" fill="#ACA28F"/>
<circle cx="55" cy="54" r="35" fill="#ACA28F"/>
<g clip-path="url(#clip1_415_947)">
<path d="M68.8542 67.0833H41.1458C39.1363 67.0833 37.5 65.447 37.5 63.4375V60.5208C37.5 60.1183 37.8267 59.7916 38.2292 59.7916H38.9583C40.5669 59.7916 41.875 58.4835 41.875 56.875C41.875 55.2664 40.5669 53.9583 38.9583 53.9583H38.2292C37.8267 53.9583 37.5 53.6316 37.5 53.2291V50.3125C37.5 48.3029 39.1363 46.6666 41.1458 46.6666H68.8542C70.8638 46.6666 72.5 48.3029 72.5 50.3125V53.2291C72.5 53.6316 72.1733 53.9583 71.7708 53.9583H71.0417C69.4331 53.9583 68.125 55.2664 68.125 56.875C68.125 57.6537 68.4283 58.3858 68.9796 58.937C69.5294 59.4883 70.2615 59.7916 71.0402 59.7916H71.7694C72.1719 59.7916 72.4985 60.1183 72.4985 60.5208V63.4375C72.5 65.447 70.8638 67.0833 68.8542 67.0833ZM38.9583 61.25V63.4375C38.9583 64.6435 39.9398 65.625 41.1458 65.625H68.8542C70.0602 65.625 71.0417 64.6435 71.0417 63.4375V61.25C69.8735 61.25 68.774 60.795 67.9485 59.9695C67.1217 59.1427 66.6667 58.0431 66.6667 56.875C66.6667 54.4629 68.6296 52.5 71.0417 52.5V50.3125C71.0417 49.1064 70.0602 48.125 68.8542 48.125H41.1458C39.9398 48.125 38.9583 49.1064 38.9583 50.3125V52.5C41.3704 52.5 43.3333 54.4629 43.3333 56.875C43.3333 59.287 41.3704 61.25 38.9583 61.25Z" fill="#F3EAD9"/>
<path d="M49.8962 49.5833C49.4937 49.5833 49.167 49.2566 49.167 48.8541V47.3958C49.167 46.9933 49.4937 46.6666 49.8962 46.6666C50.2987 46.6666 50.6253 46.9933 50.6253 47.3958V48.8541C50.6253 49.2566 50.2987 49.5833 49.8962 49.5833Z" fill="#F3EAD9"/>
<path d="M49.8962 61.9223C49.4937 61.9223 49.167 61.5957 49.167 61.1932V58.7271C49.167 58.3246 49.4937 57.998 49.8962 57.998C50.2987 57.998 50.6253 58.3232 50.6253 58.7271V61.1946C50.6253 61.5971 50.2987 61.9223 49.8962 61.9223ZM49.8962 55.7536C49.4937 55.7536 49.167 55.4269 49.167 55.0244V52.5569C49.167 52.1544 49.4937 51.8278 49.8962 51.8278C50.2987 51.8278 50.6253 52.1544 50.6253 52.5569V55.0244C50.6253 55.4269 50.2987 55.7536 49.8962 55.7536Z" fill="#F3EAD9"/>
<path d="M49.8962 67.0834C49.4937 67.0834 49.167 66.7567 49.167 66.3542V64.8959C49.167 64.4934 49.4937 64.1667 49.8962 64.1667C50.2987 64.1667 50.6253 64.4934 50.6253 64.8959V66.3542C50.6253 66.7567 50.2987 67.0834 49.8962 67.0834Z" fill="#F3EAD9"/>
<path d="M41.1461 48.125C40.8501 48.125 40.5716 47.9442 40.4636 47.6511C40.3222 47.2733 40.5132 46.8533 40.8909 46.7133L64.0784 38.0552C65.2057 37.6323 66.5299 38.2652 66.9149 39.4013L69.5443 47.1611C69.6726 47.5431 69.4684 47.9558 69.0878 48.0856C68.7101 48.2154 68.293 48.0098 68.1632 47.6292L65.5338 39.8694C65.4055 39.4902 64.9651 39.2831 64.5874 39.4202L41.3999 48.0783C41.3168 48.1104 41.2307 48.125 41.1461 48.125Z" fill="#F3EAD9"/>
</g>
<path d="M54.0744 11.1819C53.749 6.63267 52.3106 3.43052 48.5148 2.64282C47.2362 4.40658 48.4749 5.41688 49.8562 6.40436C52.6017 8.36789 54.0744 11.1819 54.0744 11.1819Z" fill="#ACA28F"/>
<path d="M53.1099 13.9445C52.4534 12.7344 51.1178 11.062 49.3712 10.8394C46.4487 10.4627 45.8379 14.3098 47.0423 13.5335C49.8963 11.707 53.1099 13.9445 53.1099 13.9445Z" fill="#ACA28F"/>
<path d="M45.6837 6.81526C43.88 6.68969 43.1037 9.87472 46.1175 10.3028C44.896 9.88043 45.6266 6.66115 47.4475 7.32327L46.5742 6.85522L45.6837 6.81526Z" fill="#ACA28F"/>
<path d="M49.2002 7.79702C46.3691 5.71362 40.3358 5.37114 40.5812 3.93274C39.5823 4.61769 39.7136 6.61547 41.66 6.54698C43.6064 6.48419 44.006 6.14171 45.2903 6.49561C46.5746 6.8495 47.6762 7.16344 47.6762 7.16344L48.4924 7.52304L49.1945 7.79131L49.2002 7.79702Z" fill="#ACA28F"/>
<path d="M44.7312 12.4262C44.7312 11.2104 44.0405 9.14408 41.94 9.00138C39.3486 8.83015 38.1842 12.1522 41.1409 12.8143C40.0621 12.135 40.7071 9.83474 42.3966 10.1658C43.0873 10.3028 44.0291 11.0106 44.0291 11.0106L44.343 12.0551L44.7255 12.4204L44.7312 12.4262Z" fill="#ACA28F"/>
<path d="M54.5033 12.4661C50.1653 6.42138 44.0863 5.77638 41.6433 6.34717C38.6523 7.04925 36.7459 9.3838 37.0085 12.0323C37.1169 13.1568 37.6592 14.1671 38.5325 14.8863C39.2973 15.5141 40.2334 15.8452 41.2095 15.8452C41.3465 15.8452 41.4892 15.8395 41.6319 15.8224C43.5212 15.6397 44.9025 13.9502 44.7199 12.0608C44.5658 10.5197 43.1902 9.3838 41.649 9.53791L41.7061 10.1258C42.9276 10.0117 44.0121 10.9021 44.132 12.1179C44.2861 13.6819 43.1388 15.0803 41.5748 15.2344C40.6102 15.3258 39.6627 15.0404 38.9149 14.4239C38.1615 13.8075 37.6991 12.9341 37.6021 11.9695C37.3338 9.21827 39.5085 7.44881 41.786 6.91797C44.0863 6.38142 48.8924 6.37571 54.2407 12.82L53.8298 13.3622L54.509 14.2584L55.1883 13.3622L54.509 12.4661H54.5033Z" fill="#ACA28F"/>
<path d="M53.9723 6.24449C53.3216 3.47043 51.6777 2.0834 51.6777 2.0834C52.3798 1.82654 53.4072 1.70097 53.6869 2.0834C53.5671 1.64389 54.2292 0.097035 54.4975 0V3.53322C54.115 2.69986 53.4929 2.92247 53.7098 3.87569C53.9324 4.83463 53.9666 6.24449 53.9666 6.24449H53.9723Z" fill="#ACA28F"/>
<path d="M54.9248 11.1819C55.2502 6.63267 56.6886 3.43052 60.4843 2.64282C61.7629 4.40658 60.5243 5.41688 59.143 6.40436C56.3975 8.36789 54.9248 11.1819 54.9248 11.1819Z" fill="#ACA28F"/>
<path d="M55.8896 13.9445C56.5461 12.7344 57.8817 11.062 59.6283 10.8394C62.5508 10.4627 63.1616 14.3098 61.9572 13.5335C59.1032 11.707 55.8896 13.9445 55.8896 13.9445Z" fill="#ACA28F"/>
<path d="M63.3155 6.81526C65.1192 6.68969 65.8955 9.87472 62.8817 10.3028C64.1032 9.88043 63.3726 6.66115 61.5518 7.32327L62.4251 6.85522L63.3155 6.81526Z" fill="#ACA28F"/>
<path d="M59.7998 7.79702C62.6309 5.71362 68.6642 5.37114 68.4188 3.93274C69.4177 4.61769 69.2864 6.61547 67.34 6.54698C65.3936 6.48419 64.994 6.14171 63.7097 6.49561C62.4255 6.8495 61.3238 7.16344 61.3238 7.16344L60.5076 7.52304L59.8055 7.79131L59.7998 7.79702Z" fill="#ACA28F"/>
<path d="M64.2695 12.4262C64.2695 11.2104 64.9602 9.14408 67.0607 9.00138C69.6521 8.83015 70.8165 12.1522 67.8598 12.8143C68.9386 12.135 68.2936 9.83474 66.6041 10.1658C65.9134 10.3028 64.9716 11.0106 64.9716 11.0106L64.6577 12.0551L64.2752 12.4204L64.2695 12.4262Z" fill="#ACA28F"/>
<path d="M54.5033 12.4661C58.8413 6.42138 64.9203 5.77638 67.3633 6.34717C70.3543 7.04925 72.2607 9.3838 71.9982 12.0323C71.8897 13.1568 71.3474 14.1671 70.4741 14.8863C69.7093 15.5141 68.7732 15.8452 67.7971 15.8452C67.6601 15.8452 67.5174 15.8395 67.3747 15.8224C65.4854 15.6397 64.1041 13.9502 64.2867 12.0608C64.4408 10.5197 65.8165 9.3838 67.3576 9.53791L67.3005 10.1258C66.079 10.0117 64.9945 10.9021 64.8746 12.1179C64.7205 13.6819 65.8678 15.0803 67.4318 15.2344C68.3964 15.3258 69.344 15.0404 70.0917 14.4239C70.8451 13.8075 71.3075 12.9341 71.4045 11.9695C71.6728 9.21827 69.4981 7.44881 67.2206 6.91797C64.9203 6.38142 60.1142 6.37571 54.7659 12.82L55.1768 13.3622L54.4976 14.2584L53.8184 13.3622L54.4976 12.4661H54.5033Z" fill="#ACA28F"/>
<path d="M55.0281 6.24449C55.6788 3.47043 57.3227 2.0834 57.3227 2.0834C56.6263 1.82654 55.5931 1.70097 55.3135 2.0834C55.4333 1.64389 54.7712 0.097035 54.5029 0V3.53322C54.8854 2.69986 55.5075 2.92247 55.2906 3.87569C55.068 4.83463 55.0338 6.24449 55.0338 6.24449H55.0281Z" fill="#ACA28F"/>
<path d="M23.92 24.0247C20.4724 21.0395 17.1904 19.7894 13.9482 21.9185C14.2964 24.0704 15.8832 23.9106 17.5557 23.6309C20.8891 23.0772 23.9143 24.0247 23.9143 24.0247H23.92Z" fill="#ACA28F"/>
<path d="M25.1921 26.6561C23.8735 26.2622 21.7445 26.0282 20.3517 27.1013C18.0172 28.905 20.3061 32.0558 20.6086 30.6574C21.3335 27.3525 25.1864 26.6561 25.1864 26.6561H25.1921Z" fill="#ACA28F"/>
<path d="M14.901 26.8672C13.5368 28.0545 15.2378 30.8571 17.6751 29.0248C16.5163 29.5899 14.7526 26.793 16.5049 25.9768L15.5574 26.2679L14.901 26.8672Z" fill="#ACA28F"/>
<path d="M18.0809 25.0807C14.6047 25.6115 10.1012 29.6356 9.2564 28.4426C9.03379 29.6356 10.5407 30.9541 11.8706 29.5271C13.2006 28.1059 13.2463 27.5807 14.405 26.9243C15.5637 26.2679 16.5683 25.7085 16.5683 25.7085L17.4016 25.3832L18.0866 25.075L18.0809 25.0807Z" fill="#ACA28F"/>
<path d="M18.1942 31.5136C17.338 30.6574 15.3859 29.6756 13.7991 31.0683C11.847 32.7807 13.3767 35.9543 15.9338 34.3276C14.6895 34.6073 13.5194 32.5296 14.9464 31.5706C15.5343 31.1768 16.6987 31.0113 16.6987 31.0113L17.6576 31.525L18.1885 31.5136H18.1942Z" fill="#ACA28F"/>
<path d="M25.1297 24.6298C17.7893 23.4254 13.0346 27.2611 11.7103 29.3959C10.0893 32.0044 10.3975 35.0068 12.4524 36.6963C13.3257 37.4098 14.4216 37.7466 15.5461 37.6382C16.5278 37.5411 17.4297 37.113 18.1146 36.4281C18.2117 36.331 18.3087 36.2226 18.4 36.1141C19.6044 34.6472 19.3932 32.4782 17.9263 31.2738C16.7276 30.292 14.9524 30.4633 13.9707 31.6619L14.4273 32.0387C15.2093 31.0911 16.6077 30.9542 17.5553 31.7304C18.771 32.7293 18.948 34.5273 17.9491 35.7431C17.3326 36.4909 16.4593 36.9589 15.4947 37.0559C14.53 37.153 13.5825 36.8619 12.8291 36.2454C10.6943 34.4931 10.9797 31.7019 12.2126 29.7155C13.457 27.7063 16.8532 24.3101 25.1925 25.0807L25.2838 25.7542L26.3969 25.9083L26.2427 24.7953L25.1297 24.6412V24.6298Z" fill="#ACA28F"/>
<path d="M20.3575 20.6056C17.9374 19.1044 15.7969 19.2871 15.7969 19.2871C16.1108 18.6078 16.7501 17.7973 17.2182 17.8658C16.8186 17.6375 16.1964 16.0792 16.3163 15.8167L18.8164 18.3167C17.9602 17.9971 17.6691 18.5964 18.5024 19.1158C19.3358 19.6353 20.3575 20.6056 20.3575 20.6056Z" fill="#ACA28F"/>
<path d="M24.5242 23.4197C21.539 19.9721 20.289 16.69 22.418 13.4479C24.5699 13.7961 24.4101 15.3829 24.1304 17.0553C23.5767 20.3887 24.5242 23.4139 24.5242 23.4139V23.4197Z" fill="#ACA28F"/>
<path d="M27.1566 24.6926C26.7627 23.374 26.5287 21.245 27.6018 19.8522C29.4055 17.5177 32.5506 19.8066 31.1578 20.1091C27.8529 20.834 27.1566 24.6869 27.1566 24.6869V24.6926Z" fill="#ACA28F"/>
<path d="M27.367 14.4011C28.5543 13.0369 31.3569 14.7379 29.5246 17.1752C30.0897 16.0165 27.2928 14.2527 26.4766 16.005L26.7677 15.0575L27.367 14.4011Z" fill="#ACA28F"/>
<path d="M25.5809 17.5805C26.1117 14.1044 30.1358 9.60081 28.9429 8.75604C30.1358 8.53343 31.4544 10.0403 30.0274 11.3703C28.6061 12.7002 28.081 12.7459 27.4246 13.9046C26.7682 15.0633 26.2088 16.0679 26.2088 16.0679L25.8834 16.9013L25.5752 17.5862L25.5809 17.5805Z" fill="#ACA28F"/>
<path d="M32.0139 17.6947C31.1577 16.8385 30.176 14.8864 31.5687 13.2996C33.2811 11.3474 36.4547 12.8772 34.8279 15.4343C35.1076 14.19 33.0299 13.0199 32.071 14.4469C31.6772 15.0348 31.5116 16.1992 31.5116 16.1992L32.0253 17.1581L32.0139 17.689V17.6947Z" fill="#ACA28F"/>
<path d="M25.1294 24.6298C23.925 17.2894 27.7607 12.5347 29.8955 11.2104C32.504 9.58939 35.5064 9.89762 37.196 11.9525C37.9095 12.8258 38.2462 13.9217 38.1378 15.0462C38.0408 16.0279 37.6127 16.9298 36.9277 17.6148C36.8307 17.7118 36.7222 17.8088 36.6138 17.9002C35.1468 19.1045 32.9778 18.8933 31.7734 17.4264C30.7917 16.2277 30.9629 14.4526 32.1616 13.4708L32.5383 13.9274C31.5908 14.7094 31.4538 16.1079 32.2301 17.0554C33.229 18.2712 35.027 18.4481 36.2427 17.4492C36.9905 16.8328 37.4585 15.9595 37.5556 14.9948C37.6526 14.0302 37.3615 13.0827 36.745 12.3292C34.9927 10.1944 32.2015 10.4798 30.2152 11.7127C28.206 12.9571 24.8097 16.3533 25.5803 24.6926L26.2538 24.7839L26.408 25.897L25.2949 25.7429L25.1408 24.6298H25.1294Z" fill="#ACA28F"/>
<path d="M21.1054 19.8579C19.6042 17.4377 19.7868 15.2972 19.7868 15.2972C19.1076 15.6112 18.2971 16.2505 18.3656 16.7185C18.1372 16.319 16.579 15.6968 16.3164 15.8167L18.8165 18.3167C18.4968 17.4606 19.0962 17.1694 19.6156 18.0028C20.135 18.8362 21.1054 19.8579 21.1054 19.8579Z" fill="#ACA28F"/>
<path d="M11.6817 54.4253C7.13243 54.7506 3.93027 56.189 3.14258 59.9848C4.90633 61.2634 5.91664 60.0248 6.90411 58.6435C8.86765 55.8979 11.6817 54.4253 11.6817 54.4253Z" fill="#ACA28F"/>
<path d="M14.4446 55.3899C13.2346 56.0463 11.5621 57.382 11.3395 59.1286C10.9628 62.0511 14.81 62.6618 14.0337 61.4574C12.2071 58.6035 14.4446 55.3899 14.4446 55.3899Z" fill="#ACA28F"/>
<path d="M7.31514 62.8159C7.18956 64.6196 10.3746 65.3958 10.8027 62.3763C10.3803 63.5978 7.16102 62.8672 7.82315 61.0464L7.35509 61.9197L7.31514 62.8101V62.8159Z" fill="#ACA28F"/>
<path d="M8.29689 59.2998C6.2135 62.1309 5.87102 68.1642 4.43262 67.9188C5.11757 68.9177 7.11535 68.7864 7.04686 66.84C6.98407 64.8936 6.64159 64.494 6.99548 63.2097C7.34938 61.9255 7.66331 60.8238 7.66331 60.8238L8.02291 60.0076L8.29119 59.3055L8.29689 59.2998Z" fill="#ACA28F"/>
<path d="M12.9263 63.7692C11.7105 63.7692 9.6442 64.4598 9.50151 66.5603C9.33027 69.1518 12.6523 70.3162 13.3144 67.3595C12.6352 68.4383 10.3349 67.7933 10.6659 66.1037C10.8029 65.4131 11.5107 64.4712 11.5107 64.4712L12.5553 64.1573L12.9206 63.7692H12.9263Z" fill="#ACA28F"/>
<path d="M12.9662 54.0028C6.9215 58.3409 6.2765 64.4198 6.8473 66.8628C7.54937 69.8538 9.88392 71.7602 12.5324 71.4977C13.6569 71.3892 14.6672 70.847 15.3864 69.9736C16.0143 69.2088 16.3453 68.2727 16.3453 67.2966C16.3453 67.1596 16.3396 67.0169 16.3225 66.8742C16.1398 64.9849 14.4503 63.6036 12.5609 63.7862C11.0198 63.9404 9.88392 65.316 10.038 66.8571L10.626 66.8C10.5118 65.5785 11.4022 64.494 12.618 64.3742C14.182 64.22 15.5805 65.3673 15.7346 66.9313C15.8259 67.896 15.5405 68.8435 14.924 69.5912C14.3076 70.3447 13.4343 70.807 12.4696 70.904C9.71839 71.1723 7.94893 68.9976 7.41809 66.7201C6.88154 64.4198 6.87584 59.6137 13.3201 54.2654L13.8624 54.6764L14.7585 53.9971L13.8624 53.3179L12.9662 53.9971V54.0028Z" fill="#ACA28F"/>
<path d="M6.74449 54.5279C3.97043 55.1786 2.5834 56.8225 2.5834 56.8225C2.32654 56.1262 2.20097 55.093 2.5834 54.8133C2.14389 54.9332 0.597035 54.2711 0.5 54.0028H4.03322C3.19986 54.3852 3.42247 55.0074 4.37569 54.7905C5.33463 54.5679 6.74449 54.5336 6.74449 54.5336V54.5279Z" fill="#ACA28F"/>
<path d="M11.6817 53.5747C7.13243 53.2494 3.93027 51.811 3.14258 48.0152C4.90633 46.7366 5.91664 47.9752 6.90411 49.3565C8.86765 52.1021 11.6817 53.5747 11.6817 53.5747Z" fill="#ACA28F"/>
<path d="M14.4446 52.6101C13.2346 51.9537 11.5621 50.618 11.3395 48.8714C10.9628 45.9489 14.81 45.3382 14.0337 46.5426C12.2071 49.3965 14.4446 52.6101 14.4446 52.6101Z" fill="#ACA28F"/>
<path d="M7.31514 45.184C7.18956 43.3803 10.3746 42.604 10.8027 45.6235C10.3803 44.402 7.16102 45.1327 7.82315 46.9535L7.35509 46.0802L7.31514 45.1897V45.184Z" fill="#ACA28F"/>
<path d="M8.29689 48.7002C6.2135 45.8691 5.87102 39.8358 4.43262 40.0812C5.11757 39.0823 7.11535 39.2136 7.04686 41.16C6.98407 43.1064 6.64159 43.506 6.99548 44.7903C7.34938 46.0746 7.66331 47.1762 7.66331 47.1762L8.02291 47.9924L8.29119 48.6945L8.29689 48.7002Z" fill="#ACA28F"/>
<path d="M12.9263 44.2308C11.7105 44.2308 9.6442 43.5401 9.50151 41.4396C9.33027 38.8482 12.6523 37.6838 13.3144 40.6405C12.6352 39.5617 10.3349 40.2067 10.6659 41.8963C10.8029 42.5869 11.5107 43.5287 11.5107 43.5287L12.5553 43.8427L12.9206 44.2308H12.9263Z" fill="#ACA28F"/>
<path d="M12.9662 54.0028C6.9215 49.6648 6.2765 43.5858 6.8473 41.1428C7.54937 38.1519 9.88392 36.2454 12.5324 36.508C13.6569 36.6164 14.6672 37.1587 15.3864 38.032C16.0143 38.7969 16.3453 39.733 16.3453 40.709C16.3453 40.846 16.3396 40.9887 16.3225 41.1314C16.1398 43.0207 14.4503 44.4021 12.5609 44.2194C11.0198 44.071 9.88392 42.6897 10.038 41.1485L10.626 41.2056C10.5118 42.4271 11.4022 43.5116 12.618 43.6315C14.182 43.7856 15.5805 42.6383 15.7346 41.0743C15.8259 40.1097 15.5405 39.1622 14.924 38.4144C14.3076 37.661 13.4343 37.1986 12.4696 37.1016C9.71839 36.8333 7.94893 39.0081 7.41809 41.2855C6.88154 43.5858 6.87584 48.3919 13.3201 53.7403L13.8624 53.3293L14.7585 54.0085L13.8624 54.6878L12.9662 54.0085V54.0028Z" fill="#ACA28F"/>
<path d="M6.74449 53.472C3.97043 52.8213 2.5834 51.1774 2.5834 51.1774C2.32654 51.8794 2.20097 52.9069 2.5834 53.1866C2.14389 53.0667 0.597035 53.7288 0.5 53.9971H4.03322C3.19986 53.6147 3.42247 52.9925 4.37569 53.2094C5.33463 53.432 6.74449 53.4663 6.74449 53.4663V53.472Z" fill="#ACA28F"/>
<path d="M24.5242 84.5803C21.539 88.0279 20.289 91.31 22.418 94.5521C24.5699 94.2039 24.4101 92.6171 24.1304 90.9447C23.5767 87.6112 24.5242 84.586 24.5242 84.586V84.5803Z" fill="#ACA28F"/>
<path d="M27.1566 83.3074C26.7627 84.626 26.5287 86.755 27.6018 88.1478C29.4055 90.4823 32.5506 88.1934 31.1578 87.8909C27.8529 87.166 27.1566 83.3131 27.1566 83.3131V83.3074Z" fill="#ACA28F"/>
<path d="M27.367 93.5988C28.5543 94.963 31.3569 93.2621 29.5246 90.8248C30.0897 91.9835 27.2928 93.7472 26.4766 91.9949L26.7677 92.9424L27.367 93.5988Z" fill="#ACA28F"/>
<path d="M25.5809 90.4195C26.1117 93.8957 30.1358 98.3992 28.9429 99.244C30.1358 99.4666 31.4544 97.9597 30.0274 96.6298C28.6061 95.2998 28.081 95.2542 27.4246 94.0954C26.7682 92.9367 26.2088 91.9321 26.2088 91.9321L25.8834 91.0988L25.5752 90.4138L25.5809 90.4195Z" fill="#ACA28F"/>
<path d="M32.0139 90.3054C31.1577 91.1616 30.176 93.1137 31.5687 94.7005C33.2811 96.6526 36.4547 95.1229 34.8279 92.5657C35.1076 93.81 33.0299 94.9802 32.071 93.5532C31.6772 92.9653 31.5116 91.8008 31.5116 91.8008L32.0253 90.8419L32.0139 90.3111V90.3054Z" fill="#ACA28F"/>
<path d="M25.1294 83.3702C23.925 90.7106 27.7607 95.4653 29.8955 96.7896C32.504 98.4106 35.5064 98.1024 37.196 96.0475C37.9095 95.1742 38.2462 94.0783 38.1378 92.9538C38.0408 91.9721 37.6127 91.0702 36.9277 90.3853C36.8307 90.2882 36.7222 90.1912 36.6138 90.0999C35.1468 88.8955 32.9778 89.1067 31.7734 90.5736C30.7917 91.7723 30.9629 93.5475 32.1616 94.5292L32.5383 94.0726C31.5908 93.2906 31.4538 91.8922 32.2301 90.9446C33.229 89.7288 35.027 89.5519 36.2427 90.5508C36.9905 91.1672 37.4585 92.0406 37.5556 93.0052C37.6526 93.9698 37.3615 94.9174 36.745 95.6708C34.9927 97.8056 32.2015 97.5202 30.2152 96.2873C28.206 95.0429 24.8097 91.6467 25.5803 83.3074L26.2538 83.2161L26.408 82.103L25.2949 82.2571L25.1408 83.3702H25.1294Z" fill="#ACA28F"/>
<path d="M21.1054 88.1421C19.6042 90.5623 19.7868 92.7027 19.7868 92.7027C19.1076 92.3888 18.2971 91.7495 18.3656 91.2815C18.1372 91.681 16.579 92.3032 16.3164 92.1833L18.8165 89.6832C18.4968 90.5394 19.0962 90.8305 19.6156 89.9972C20.135 89.1638 21.1054 88.1421 21.1054 88.1421Z" fill="#ACA28F"/>
<path d="M23.92 83.981C20.4724 86.9662 17.1904 88.2163 13.9482 86.0872C14.2964 83.9353 15.8832 84.0951 17.5557 84.3748C20.8891 84.9285 23.9143 83.981 23.9143 83.981H23.92Z" fill="#ACA28F"/>
<path d="M25.1921 81.3439C23.8735 81.7377 21.7445 81.9718 20.3517 80.8987C18.0172 79.0949 20.3061 75.9442 20.6086 77.3426C21.3335 80.6475 25.1864 81.3439 25.1864 81.3439H25.1921Z" fill="#ACA28F"/>
<path d="M14.901 81.1327C13.5368 79.9454 15.2378 77.1428 17.6751 78.9751C16.5163 78.41 14.7526 81.2069 16.5049 82.0231L15.5574 81.732L14.901 81.1327Z" fill="#ACA28F"/>
<path d="M18.0809 82.9193C14.6047 82.3884 10.1012 78.3643 9.2564 79.5573C9.03379 78.3643 10.5407 77.0458 11.8706 78.4728C13.2006 79.8941 13.2463 80.4192 14.405 81.0756C15.5637 81.732 16.5683 82.2914 16.5683 82.2914L17.4016 82.6168L18.0866 82.925L18.0809 82.9193Z" fill="#ACA28F"/>
<path d="M18.1942 76.4864C17.338 77.3426 15.3859 78.3244 13.7991 76.9316C11.847 75.2193 13.3767 72.0457 15.9338 73.6724C14.6895 73.3927 13.5194 75.4704 14.9464 76.4293C15.5343 76.8232 16.6987 76.9887 16.6987 76.9887L17.6576 76.475L18.1885 76.4864H18.1942Z" fill="#ACA28F"/>
<path d="M25.1297 83.3702C17.7893 84.5746 13.0346 80.7388 11.7103 78.6041C10.0893 75.9955 10.3975 72.9932 12.4524 71.3036C13.3257 70.5901 14.4216 70.2533 15.5461 70.3618C16.5278 70.4588 17.4297 70.8869 18.1146 71.5719C18.2117 71.6689 18.3087 71.7774 18.4 71.8858C19.6044 73.3528 19.3932 75.5218 17.9263 76.7262C16.7276 77.7079 14.9524 77.5367 13.9707 76.338L14.4273 75.9613C15.2093 76.9088 16.6077 77.0458 17.5553 76.2695C18.771 75.2706 18.948 73.4726 17.9491 72.2568C17.3326 71.5091 16.4593 71.041 15.4947 70.944C14.53 70.847 13.5825 71.1381 12.8291 71.7545C10.6943 73.5069 10.9797 76.2981 12.2126 78.2844C13.457 80.2936 16.8532 83.6898 25.1925 82.9193L25.2838 82.2457L26.3969 82.0916L26.2427 83.2047L25.1297 83.3588V83.3702Z" fill="#ACA28F"/>
<path d="M20.3575 87.3943C17.9374 88.8955 15.7969 88.7128 15.7969 88.7128C16.1108 89.3921 16.7501 90.2026 17.2182 90.1341C16.8186 90.3624 16.1964 91.9207 16.3163 92.1833L18.8164 89.6832C17.9602 90.0028 17.6691 89.4035 18.5024 88.8841C19.3358 88.3646 20.3575 87.3943 20.3575 87.3943Z" fill="#ACA28F"/>
<path d="M54.9248 96.8181C55.2502 101.367 56.6886 104.57 60.4843 105.357C61.7629 103.593 60.5243 102.583 59.143 101.596C56.3975 99.6321 54.9248 96.8181 54.9248 96.8181Z" fill="#ACA28F"/>
<path d="M55.8896 94.0555C56.5461 95.2656 57.8817 96.938 59.6283 97.1606C62.5508 97.5373 63.1616 93.6902 61.9572 94.4665C59.1032 96.293 55.8896 94.0555 55.8896 94.0555Z" fill="#ACA28F"/>
<path d="M63.3155 101.185C65.1192 101.31 65.8955 98.1252 62.8817 97.6971C64.1032 98.1195 63.3726 101.339 61.5518 100.677L62.4251 101.145L63.3155 101.185Z" fill="#ACA28F"/>
<path d="M59.7998 100.203C62.6309 102.286 68.6642 102.629 68.4188 104.067C69.4177 103.382 69.2864 101.384 67.34 101.453C65.3936 101.516 64.994 101.858 63.7097 101.504C62.4255 101.15 61.3238 100.837 61.3238 100.837L60.5076 100.477L59.8055 100.209L59.7998 100.203Z" fill="#ACA28F"/>
<path d="M64.2695 95.5738C64.2695 96.7896 64.9602 98.8559 67.0607 98.9986C69.6521 99.1698 70.8165 95.8478 67.8598 95.1857C68.9386 95.8649 68.2936 98.1652 66.6041 97.8342C65.9134 97.6972 64.9716 96.9894 64.9716 96.9894L64.6577 95.9448L64.2752 95.5795L64.2695 95.5738Z" fill="#ACA28F"/>
<path d="M54.5033 95.5338C58.8413 101.579 64.9203 102.224 67.3633 101.653C70.3543 100.951 72.2607 98.6161 71.9982 95.9676C71.8897 94.8432 71.3474 93.8329 70.4741 93.1137C69.7093 92.4858 68.7732 92.1547 67.7971 92.1547C67.6601 92.1547 67.5174 92.1604 67.3747 92.1776C65.4854 92.3602 64.1041 94.0498 64.2867 95.9391C64.4408 97.4802 65.8165 98.6161 67.3576 98.462L67.3005 97.8741C66.079 97.9882 64.9945 97.0978 64.8746 95.882C64.7205 94.318 65.8678 92.9196 67.4318 92.7655C68.3964 92.6742 69.344 92.9595 70.0917 93.576C70.8451 94.1925 71.3075 95.0658 71.4045 96.0304C71.6728 98.7817 69.4981 100.551 67.2206 101.082C64.9203 101.618 60.1142 101.624 54.7659 95.1799L55.1768 94.6377L54.4976 93.7415L53.8184 94.6377L54.4976 95.5338H54.5033Z" fill="#ACA28F"/>
<path d="M55.0281 101.755C55.6788 104.53 57.3227 105.917 57.3227 105.917C56.6263 106.173 55.5931 106.299 55.3135 105.917C55.4333 106.356 54.7712 107.903 54.5029 108V104.467C54.8854 105.3 55.5075 105.078 55.2906 104.124C55.068 103.165 55.0338 101.755 55.0338 101.755H55.0281Z" fill="#ACA28F"/>
<path d="M54.0744 96.8181C53.749 101.367 52.3106 104.57 48.5148 105.357C47.2362 103.593 48.4749 102.583 49.8562 101.596C52.6017 99.6321 54.0744 96.8181 54.0744 96.8181Z" fill="#ACA28F"/>
<path d="M53.1099 94.0555C52.4534 95.2656 51.1178 96.938 49.3712 97.1606C46.4487 97.5373 45.8379 93.6902 47.0423 94.4665C49.8963 96.293 53.1099 94.0555 53.1099 94.0555Z" fill="#ACA28F"/>
<path d="M45.6837 101.185C43.88 101.31 43.1037 98.1252 46.1175 97.6971C44.896 98.1195 45.6266 101.339 47.4475 100.677L46.5742 101.145L45.6837 101.185Z" fill="#ACA28F"/>
<path d="M49.2002 100.203C46.3691 102.286 40.3358 102.629 40.5812 104.067C39.5823 103.382 39.7136 101.384 41.66 101.453C43.6064 101.516 44.006 101.858 45.2903 101.504C46.5746 101.15 47.6762 100.837 47.6762 100.837L48.4924 100.477L49.1945 100.209L49.2002 100.203Z" fill="#ACA28F"/>
<path d="M44.7312 95.5738C44.7312 96.7896 44.0405 98.8559 41.94 98.9986C39.3486 99.1698 38.1842 95.8478 41.1409 95.1857C40.0621 95.8649 40.7071 98.1652 42.3966 97.8342C43.0873 97.6972 44.0291 96.9894 44.0291 96.9894L44.343 95.9448L44.7255 95.5795L44.7312 95.5738Z" fill="#ACA28F"/>
<path d="M54.5033 95.5338C50.1653 101.579 44.0863 102.224 41.6433 101.653C38.6523 100.951 36.7459 98.6161 37.0085 95.9676C37.1169 94.8432 37.6592 93.8329 38.5325 93.1137C39.2973 92.4858 40.2334 92.1547 41.2095 92.1547C41.3465 92.1547 41.4892 92.1604 41.6319 92.1776C43.5212 92.3602 44.9025 94.0498 44.7199 95.9391C44.5658 97.4802 43.1902 98.6161 41.649 98.462L41.7061 97.8741C42.9276 97.9882 44.0121 97.0978 44.132 95.882C44.2861 94.318 43.1388 92.9196 41.5748 92.7655C40.6102 92.6742 39.6627 92.9595 38.9149 93.576C38.1615 94.1925 37.6991 95.0658 37.6021 96.0304C37.3338 98.7817 39.5085 100.551 41.786 101.082C44.0863 101.618 48.8924 101.624 54.2407 95.1799L53.8298 94.6377L54.509 93.7415L55.1883 94.6377L54.509 95.5338H54.5033Z" fill="#ACA28F"/>
<path d="M53.9723 101.755C53.3216 104.53 51.6777 105.917 51.6777 105.917C52.3798 106.173 53.4072 106.299 53.6869 105.917C53.5671 106.356 54.2292 107.903 54.4975 108V104.467C54.115 105.3 53.4929 105.078 53.7098 104.124C53.9324 103.165 53.9666 101.755 53.9666 101.755H53.9723Z" fill="#ACA28F"/>
<path d="M85.0801 83.981C88.5277 86.9662 91.8097 88.2163 95.0519 86.0872C94.7037 83.9353 93.1169 84.0951 91.4444 84.3748C88.111 84.9285 85.0858 83.981 85.0858 83.981H85.0801Z" fill="#ACA28F"/>
<path d="M83.8076 81.3439C85.1262 81.7377 87.2552 81.9718 88.648 80.8987C90.9825 79.0949 88.6936 75.9442 88.3911 77.3426C87.6662 80.6475 83.8133 81.3439 83.8133 81.3439H83.8076Z" fill="#ACA28F"/>
<path d="M94.0993 81.1327C95.4635 79.9454 93.7625 77.1428 91.3252 78.9751C92.4839 78.41 94.2477 81.2069 92.4953 82.0231L93.4428 81.732L94.0993 81.1327Z" fill="#ACA28F"/>
<path d="M90.9198 82.9193C94.3959 82.3884 98.8995 78.3643 99.7443 79.5573C99.9669 78.3643 98.46 77.0458 97.13 78.4728C95.8001 79.8941 95.7544 80.4192 94.5957 81.0756C93.437 81.732 92.4324 82.2914 92.4324 82.2914L91.599 82.6168L90.9141 82.925L90.9198 82.9193Z" fill="#ACA28F"/>
<path d="M90.8057 76.4864C91.6619 77.3426 93.614 78.3244 95.2008 76.9316C97.1529 75.2193 95.6232 72.0457 93.066 73.6724C94.3103 73.3927 95.4805 75.4704 94.0535 76.4293C93.4656 76.8232 92.3011 76.9887 92.3011 76.9887L91.3422 76.475L90.8114 76.4864H90.8057Z" fill="#ACA28F"/>
<path d="M83.8707 83.3702C91.2111 84.5746 95.9658 80.7388 97.2901 78.6041C98.9111 75.9955 98.6029 72.9932 96.548 71.3036C95.6747 70.5901 94.5788 70.2533 93.4543 70.3618C92.4726 70.4588 91.5707 70.8869 90.8857 71.5719C90.7887 71.6689 90.6917 71.7774 90.6003 71.8858C89.396 73.3528 89.6072 75.5218 91.0741 76.7262C92.2728 77.7079 94.0479 77.5367 95.0297 76.338L94.5731 75.9613C93.7911 76.9088 92.3926 77.0458 91.4451 76.2695C90.2293 75.2706 90.0524 73.4726 91.0513 72.2568C91.6677 71.5091 92.541 71.041 93.5057 70.944C94.4703 70.847 95.4178 71.1381 96.1713 71.7545C98.3061 73.5069 98.0207 76.2981 96.7878 78.2844C95.5434 80.2936 92.1472 83.6898 83.8079 82.9193L83.7166 82.2457L82.6035 82.0916L82.7576 83.2047L83.8707 83.3588V83.3702Z" fill="#ACA28F"/>
<path d="M88.6416 87.3943C91.0618 88.8955 93.2023 88.7128 93.2023 88.7128C92.8883 89.3921 92.249 90.2026 91.781 90.1341C92.1805 90.3624 92.8027 91.9207 92.6828 92.1833L90.1827 89.6832C91.0389 90.0028 91.33 89.4035 90.4967 88.8841C89.6633 88.3646 88.6416 87.3943 88.6416 87.3943Z" fill="#ACA28F"/>
<path d="M84.4814 84.5803C87.4667 88.0279 88.7167 91.31 86.5877 94.5521C84.4358 94.2039 84.5956 92.6171 84.8753 90.9447C85.429 87.6112 84.4814 84.586 84.4814 84.586V84.5803Z" fill="#ACA28F"/>
<path d="M81.8442 83.3074C82.238 84.626 82.472 86.755 81.399 88.1478C79.5952 90.4823 76.4502 88.1934 77.8429 87.8909C81.1478 87.166 81.8442 83.3131 81.8442 83.3131V83.3074Z" fill="#ACA28F"/>
<path d="M81.6327 93.5988C80.4454 94.963 77.6428 93.2621 79.4751 90.8248C78.91 91.9835 81.7069 93.7472 82.5231 91.9949L82.232 92.9424L81.6327 93.5988Z" fill="#ACA28F"/>
<path d="M83.4192 90.4195C82.8883 93.8957 78.8642 98.3992 80.0572 99.244C78.8642 99.4666 77.5457 97.9597 78.9727 96.6298C80.3939 95.2998 80.9191 95.2542 81.5755 94.0954C82.2319 92.9367 82.7913 91.9321 82.7913 91.9321L83.1166 91.0988L83.4249 90.4138L83.4192 90.4195Z" fill="#ACA28F"/>
<path d="M76.9862 90.3054C77.8424 91.1616 78.8241 93.1137 77.4314 94.7005C75.719 96.6526 72.5454 95.1229 74.1722 92.5657C73.8925 93.81 75.9702 94.9802 76.9291 93.5532C77.323 92.9653 77.4885 91.8008 77.4885 91.8008L76.9748 90.8419L76.9862 90.3111V90.3054Z" fill="#ACA28F"/>
<path d="M83.8701 83.3702C85.0745 90.7106 81.2388 95.4653 79.104 96.7896C76.4955 98.4106 73.4931 98.1024 71.8035 96.0475C71.0901 95.1742 70.7533 94.0783 70.8617 92.9538C70.9588 91.9721 71.3869 91.0702 72.0718 90.3853C72.1689 90.2882 72.2773 90.1912 72.3858 90.0999C73.8527 88.8955 76.0217 89.1067 77.2261 90.5736C78.2079 91.7723 78.0366 93.5475 76.838 94.5292L76.4612 94.0726C77.4087 93.2906 77.5457 91.8922 76.7695 90.9446C75.7706 89.7288 73.9726 89.5519 72.7568 90.5508C72.009 91.1672 71.541 92.0406 71.4439 93.0052C71.3469 93.9698 71.638 94.9174 72.2545 95.6708C74.0068 97.8056 76.798 97.5202 78.7844 96.2873C80.7936 95.0429 84.1898 91.6467 83.4192 83.3074L82.7457 83.2161L82.5916 82.103L83.7046 82.2571L83.8587 83.3702H83.8701Z" fill="#ACA28F"/>
<path d="M87.8945 88.1421C89.3957 90.5623 89.2131 92.7027 89.2131 92.7027C89.8923 92.3888 90.7028 91.7495 90.6343 91.2815C90.8627 91.681 92.4209 92.3032 92.6835 92.1833L90.1834 89.6832C90.5031 90.5394 89.9037 90.8305 89.3843 89.9972C88.8649 89.1638 87.8945 88.1421 87.8945 88.1421Z" fill="#ACA28F"/>
<path d="M97.3184 53.5747C101.868 53.2494 105.07 51.811 105.857 48.0152C104.094 46.7366 103.083 47.9752 102.096 49.3565C100.132 52.1021 97.3184 53.5747 97.3184 53.5747Z" fill="#ACA28F"/>
<path d="M94.5557 52.6101C95.7657 51.9537 97.4382 50.618 97.6608 48.8714C98.0375 45.9489 94.1904 45.3382 94.9666 46.5426C96.7932 49.3965 94.5557 52.6101 94.5557 52.6101Z" fill="#ACA28F"/>
<path d="M101.685 45.184C101.81 43.3803 98.6254 42.604 98.1973 45.6235C98.6197 44.402 101.839 45.1327 101.177 46.9535L101.645 46.0802L101.685 45.1897V45.184Z" fill="#ACA28F"/>
<path d="M100.703 48.7002C102.787 45.8691 103.129 39.8358 104.567 40.0812C103.882 39.0823 101.885 39.2136 101.953 41.16C102.016 43.1064 102.358 43.506 102.005 44.7903C101.651 46.0746 101.337 47.1762 101.337 47.1762L100.977 47.9924L100.709 48.6945L100.703 48.7002Z" fill="#ACA28F"/>
<path d="M96.0737 44.2308C97.2895 44.2308 99.3558 43.5401 99.4985 41.4396C99.6697 38.8482 96.3477 37.6838 95.6855 40.6405C96.3648 39.5617 98.6651 40.2067 98.334 41.8963C98.197 42.5869 97.4893 43.5287 97.4893 43.5287L96.4447 43.8427L96.0794 44.2308H96.0737Z" fill="#ACA28F"/>
<path d="M96.0334 54.0028C102.078 49.6648 102.723 43.5858 102.152 41.1428C101.45 38.1519 99.1157 36.2454 96.4672 36.508C95.3427 36.6164 94.3324 37.1587 93.6132 38.032C92.9854 38.7969 92.6543 39.733 92.6543 40.709C92.6543 40.846 92.66 40.9887 92.6771 41.1314C92.8598 43.0207 94.5493 44.4021 96.4387 44.2194C97.9798 44.071 99.1157 42.6897 98.9616 41.1485L98.3737 41.2056C98.4878 42.4271 97.5974 43.5116 96.3816 43.6315C94.8176 43.7856 93.4192 42.6383 93.2651 41.0743C93.1737 40.1097 93.4591 39.1622 94.0756 38.4144C94.692 37.661 95.5654 37.1986 96.53 37.1016C99.2812 36.8333 101.051 39.0081 101.582 41.2855C102.118 43.5858 102.124 48.3919 95.6795 53.7403L95.1373 53.3293L94.2411 54.0085L95.1373 54.6878L96.0334 54.0085V54.0028Z" fill="#ACA28F"/>
<path d="M102.256 53.472C105.03 52.8213 106.417 51.1774 106.417 51.1774C106.674 51.8794 106.799 52.9069 106.417 53.1866C106.856 53.0667 108.403 53.7288 108.5 53.9971H104.967C105.8 53.6147 105.578 52.9925 104.625 53.2094C103.666 53.432 102.256 53.4663 102.256 53.4663V53.472Z" fill="#ACA28F"/>
<path d="M97.3184 54.4253C101.868 54.7506 105.07 56.189 105.857 59.9848C104.094 61.2634 103.083 60.0248 102.096 58.6435C100.132 55.8979 97.3184 54.4253 97.3184 54.4253Z" fill="#ACA28F"/>
<path d="M94.5557 55.3899C95.7657 56.0463 97.4382 57.382 97.6608 59.1286C98.0375 62.0511 94.1904 62.6618 94.9666 61.4574C96.7932 58.6035 94.5557 55.3899 94.5557 55.3899Z" fill="#ACA28F"/>
<path d="M101.685 62.8159C101.81 64.6196 98.6254 65.3958 98.1973 62.3763C98.6197 63.5978 101.839 62.8672 101.177 61.0464L101.645 61.9197L101.685 62.8101V62.8159Z" fill="#ACA28F"/>
<path d="M100.703 59.2998C102.787 62.1309 103.129 68.1642 104.567 67.9188C103.882 68.9177 101.885 68.7864 101.953 66.84C102.016 64.8936 102.358 64.494 102.005 63.2097C101.651 61.9255 101.337 60.8238 101.337 60.8238L100.977 60.0076L100.709 59.3055L100.703 59.2998Z" fill="#ACA28F"/>
<path d="M96.0737 63.7692C97.2895 63.7692 99.3558 64.4598 99.4985 66.5603C99.6697 69.1518 96.3477 70.3162 95.6855 67.3595C96.3648 68.4383 98.6651 67.7933 98.334 66.1037C98.197 65.4131 97.4893 64.4712 97.4893 64.4712L96.4447 64.1573L96.0794 63.7692H96.0737Z" fill="#ACA28F"/>
<path d="M96.0334 54.0028C102.078 58.3409 102.723 64.4198 102.152 66.8628C101.45 69.8538 99.1157 71.7602 96.4672 71.4977C95.3427 71.3892 94.3324 70.847 93.6132 69.9736C92.9854 69.2088 92.6543 68.2727 92.6543 67.2966C92.6543 67.1596 92.66 67.0169 92.6771 66.8742C92.8598 64.9849 94.5493 63.6036 96.4387 63.7862C97.9798 63.9404 99.1157 65.316 98.9616 66.8571L98.3737 66.8C98.4878 65.5785 97.5974 64.494 96.3816 64.3742C94.8176 64.22 93.4192 65.3673 93.2651 66.9313C93.1737 67.896 93.4591 68.8435 94.0756 69.5912C94.692 70.3447 95.5654 70.807 96.53 70.904C99.2812 71.1723 101.051 68.9976 101.582 66.7201C102.118 64.4198 102.124 59.6137 95.6795 54.2654L95.1373 54.6764L94.2411 53.9971L95.1373 53.3179L96.0334 53.9971V54.0028Z" fill="#ACA28F"/>
<path d="M102.256 54.5279C105.03 55.1786 106.417 56.8225 106.417 56.8225C106.674 56.1262 106.799 55.093 106.417 54.8133C106.856 54.9332 108.403 54.2711 108.5 54.0028H104.967C105.8 54.3852 105.578 55.0074 104.625 54.7905C103.666 54.5679 102.256 54.5336 102.256 54.5336V54.5279Z" fill="#ACA28F"/>
<path d="M84.4814 23.4197C87.4667 19.9721 88.7167 16.69 86.5877 13.4479C84.4358 13.7961 84.5956 15.3829 84.8753 17.0553C85.429 20.3887 84.4814 23.4139 84.4814 23.4139V23.4197Z" fill="#ACA28F"/>
<path d="M81.8442 24.6926C82.238 23.374 82.472 21.245 81.399 19.8522C79.5952 17.5177 76.4502 19.8066 77.8429 20.1091C81.1478 20.834 81.8442 24.6869 81.8442 24.6869V24.6926Z" fill="#ACA28F"/>
<path d="M81.6327 14.4011C80.4454 13.0369 77.6428 14.7379 79.4751 17.1752C78.91 16.0165 81.7069 14.2527 82.5231 16.005L82.232 15.0575L81.6327 14.4011Z" fill="#ACA28F"/>
<path d="M83.4192 17.5805C82.8883 14.1044 78.8642 9.60081 80.0572 8.75604C78.8642 8.53343 77.5457 10.0403 78.9727 11.3703C80.3939 12.7002 80.9191 12.7459 81.5755 13.9046C82.2319 15.0633 82.7913 16.0679 82.7913 16.0679L83.1166 16.9013L83.4249 17.5862L83.4192 17.5805Z" fill="#ACA28F"/>
<path d="M76.9862 17.6947C77.8424 16.8385 78.8241 14.8864 77.4314 13.2996C75.719 11.3474 72.5454 12.8772 74.1722 15.4343C73.8925 14.19 75.9702 13.0199 76.9291 14.4469C77.323 15.0348 77.4885 16.1992 77.4885 16.1992L76.9748 17.1581L76.9862 17.689V17.6947Z" fill="#ACA28F"/>
<path d="M83.8701 24.6298C85.0745 17.2894 81.2388 12.5347 79.104 11.2104C76.4955 9.58939 73.4931 9.89762 71.8035 11.9525C71.0901 12.8258 70.7533 13.9217 70.8617 15.0462C70.9588 16.0279 71.3869 16.9298 72.0718 17.6148C72.1689 17.7118 72.2773 17.8088 72.3858 17.9002C73.8527 19.1045 76.0217 18.8933 77.2261 17.4264C78.2079 16.2277 78.0366 14.4526 76.838 13.4708L76.4612 13.9274C77.4087 14.7094 77.5457 16.1079 76.7695 17.0554C75.7706 18.2712 73.9726 18.4481 72.7568 17.4492C72.009 16.8328 71.541 15.9595 71.4439 14.9948C71.3469 14.0302 71.638 13.0827 72.2545 12.3292C74.0068 10.1944 76.798 10.4798 78.7844 11.7127C80.7936 12.9571 84.1898 16.3533 83.4192 24.6926L82.7457 24.7839L82.5916 25.897L83.7046 25.7429L83.8587 24.6298H83.8701Z" fill="#ACA28F"/>
<path d="M87.8945 19.8579C89.3957 17.4377 89.2131 15.2972 89.2131 15.2972C89.8923 15.6112 90.7028 16.2505 90.6343 16.7185C90.8627 16.319 92.4209 15.6968 92.6835 15.8167L90.1834 18.3167C90.5031 17.4606 89.9037 17.1694 89.3843 18.0028C88.8649 18.8362 87.8945 19.8579 87.8945 19.8579Z" fill="#ACA28F"/>
<path d="M85.0801 24.0247C88.5277 21.0395 91.8097 19.7894 95.0519 21.9185C94.7037 24.0704 93.1169 23.9106 91.4444 23.6309C88.111 23.0772 85.0858 24.0247 85.0858 24.0247H85.0801Z" fill="#ACA28F"/>
<path d="M83.8076 26.6561C85.1262 26.2622 87.2552 26.0282 88.648 27.1013C90.9825 28.905 88.6936 32.0558 88.3911 30.6574C87.6662 27.3525 83.8133 26.6561 83.8133 26.6561H83.8076Z" fill="#ACA28F"/>
<path d="M94.0993 26.8672C95.4635 28.0545 93.7625 30.8571 91.3252 29.0248C92.4839 29.5899 94.2477 26.793 92.4953 25.9768L93.4428 26.2679L94.0993 26.8672Z" fill="#ACA28F"/>
<path d="M90.9198 25.0807C94.3959 25.6115 98.8995 29.6356 99.7443 28.4426C99.9669 29.6356 98.46 30.9541 97.13 29.5271C95.8001 28.1059 95.7544 27.5807 94.5957 26.9243C93.437 26.2679 92.4324 25.7085 92.4324 25.7085L91.599 25.3832L90.9141 25.075L90.9198 25.0807Z" fill="#ACA28F"/>
<path d="M90.8057 31.5136C91.6619 30.6574 93.614 29.6756 95.2008 31.0683C97.1529 32.7807 95.6232 35.9543 93.066 34.3276C94.3103 34.6073 95.4805 32.5296 94.0535 31.5706C93.4656 31.1768 92.3011 31.0113 92.3011 31.0113L91.3422 31.525L90.8114 31.5136H90.8057Z" fill="#ACA28F"/>
<path d="M83.8707 24.6298C91.2111 23.4254 95.9658 27.2611 97.2901 29.3959C98.9111 32.0044 98.6029 35.0068 96.548 36.6963C95.6747 37.4098 94.5788 37.7466 93.4543 37.6382C92.4726 37.5411 91.5707 37.113 90.8857 36.4281C90.7887 36.331 90.6917 36.2226 90.6003 36.1141C89.396 34.6472 89.6072 32.4782 91.0741 31.2738C92.2728 30.292 94.0479 30.4633 95.0297 31.6619L94.5731 32.0387C93.7911 31.0911 92.3926 30.9542 91.4451 31.7304C90.2293 32.7293 90.0524 34.5273 91.0513 35.7431C91.6677 36.4909 92.541 36.9589 93.5057 37.0559C94.4703 37.153 95.4178 36.8619 96.1713 36.2454C98.3061 34.4931 98.0207 31.7019 96.7878 29.7155C95.5434 27.7063 92.1472 24.3101 83.8079 25.0807L83.7166 25.7542L82.6035 25.9083L82.7576 24.7953L83.8707 24.6412V24.6298Z" fill="#ACA28F"/>
<path d="M88.6416 20.6056C91.0618 19.1044 93.2023 19.2871 93.2023 19.2871C92.8883 18.6078 92.249 17.7973 91.781 17.8658C92.1805 17.6375 92.8027 16.0792 92.6828 15.8167L90.1827 18.3167C91.0389 17.9971 91.33 18.5964 90.4967 19.1158C89.6633 19.6353 88.6416 20.6056 88.6416 20.6056Z" fill="#ACA28F"/>
</g>
<defs>
<clipPath id="clip0_415_947">
<rect width="108" height="108" fill="white" transform="translate(0.5)"/>
</clipPath>
<clipPath id="clip1_415_947">
<rect width="35" height="35" fill="white" transform="translate(37.5 35)"/>
</clipPath>
</defs>
</svg>
