<svg width="20" height="20" viewBox="0 0 20 20" fill="none" xmlns="http://www.w3.org/2000/svg">
<path d="M14.0325 1H5.96721C3.22829 1 1 3.2284 1 5.96732V14.0326C1 16.7716 3.22829 18.9999 5.96721 18.9999H14.0325C16.7716 18.9999 18.9999 16.7715 18.9999 14.0326V5.96732C19 3.2284 16.7716 1 14.0325 1ZM17.403 14.0326C17.403 15.891 15.891 17.4029 14.0326 17.4029H5.96721C4.1089 17.403 2.59704 15.891 2.59704 14.0326V5.96732C2.59704 4.10901 4.1089 2.59704 5.96721 2.59704H14.0325C15.8909 2.59704 17.4029 4.10901 17.4029 5.96732V14.0326H17.403Z" fill="#2F2722"/>
<path d="M10.0004 5.36206C7.44293 5.36206 5.3623 7.44268 5.3623 10.0002C5.3623 12.5576 7.44293 14.6381 10.0004 14.6381C12.5579 14.6381 14.6385 12.5576 14.6385 10.0002C14.6385 7.44268 12.5579 5.36206 10.0004 5.36206ZM10.0004 13.0409C8.32364 13.0409 6.95934 11.6769 6.95934 10.0001C6.95934 8.32318 8.32353 6.95899 10.0004 6.95899C11.6773 6.95899 13.0415 8.32318 13.0415 10.0001C13.0415 11.6769 11.6772 13.0409 10.0004 13.0409Z" fill="#2F2722"/>
<path d="M14.8323 4.00781C14.5246 4.00781 14.2223 4.13238 14.005 4.35064C13.7867 4.56784 13.6611 4.87021 13.6611 5.17897C13.6611 5.48678 13.7868 5.78904 14.005 6.0073C14.2222 6.2245 14.5246 6.35013 14.8323 6.35013C15.1411 6.35013 15.4424 6.2245 15.6606 6.0073C15.8789 5.78904 16.0035 5.48667 16.0035 5.17897C16.0035 4.87021 15.8789 4.56784 15.6606 4.35064C15.4434 4.13238 15.1411 4.00781 14.8323 4.00781Z" fill="#2F2722"/>
</svg>
