<svg width="134" height="53" viewBox="0 0 134 53" fill="none" xmlns="http://www.w3.org/2000/svg">
<path d="M6.5 41.5L1 52.5L27.5 47V44.5H44V41.5C44 40.3954 44.8954 39.5 46 39.5C47.1046 39.5 48 40.3954 48 41.5V44.5L53 45.5V47.5L71 52.5L83.5 49L97.5 50L133 47.5V40.5C133 40.5 128.215 40 127 39C126 38.177 125 33.9101 125 30.5V22.946H126.058C126.058 22.946 124.007 18.9241 122.85 16.2751C121.629 13.4788 120 9 120 9C120 9 118.575 13.5034 117.375 16.2751C116.214 18.955 113.995 22.946 113.995 22.946H115.019V25.9915L111.5 28L108 24H97.5V22H99.5C99.5 22 96.6888 17.8156 95.5 15C94.0589 11.5869 93 6 93 6C93 6 91.9347 11.6462 90.5 15C89.2617 17.8948 86.5 22 86.5 22H88.5V26.5L84.5 28.5V24L80 21L74 25H71V27.5H67.5L66.5 29.5H61V27.5H63C63 27.5 60.182 24.7036 59 22.5C57.7446 20.1596 57 16 57 16C57 16 56.1865 20.1239 55 22.5C53.9352 24.6324 51.5 27.5 51.5 27.5H53V29H37V27.5C37 27.5 35.3961 26.7024 34.5 26C33.6306 25.3186 32.5 24 32.5 24C32.5 24 31.1803 25.0273 30.5 25.5C29.6365 26.1001 28.5 26.5 28.5 26.5V31H22.5V29L20.5 27V19.5H23C23 19.5 20.1463 18.1537 18.5 17C16.8002 15.8088 15 13.5 15 13.5C15 13.5 12.54 15.8317 11 17C9.39837 18.215 6.5 19.5 6.5 19.5H8.5V27.5L6.5 29.5V41.5Z" fill="url(#paint0_linear_190_7)"/>
<path d="M6.5 41.5L1 52.5L27.5 47V44.5H44V41.5C44 40.3954 44.8954 39.5 46 39.5C47.1046 39.5 48 40.3954 48 41.5V44.5L53 45.5V47.5L71 52.5L83.5 49L97.5 50L133 47.5V40.5C133 40.5 128.215 40 127 39C126 38.177 125 33.9101 125 30.5V22.946H126.058C126.058 22.946 124.007 18.9241 122.85 16.2751C121.629 13.4788 120 9 120 9C120 9 118.575 13.5034 117.375 16.2751C116.214 18.955 113.995 22.946 113.995 22.946H115.019V25.9915L111.5 28L108 24H97.5V22H99.5C99.5 22 96.6888 17.8156 95.5 15C94.0589 11.5869 93 6 93 6C93 6 91.9347 11.6462 90.5 15C89.2617 17.8948 86.5 22 86.5 22H88.5V26.5L84.5 28.5V24L80 21L74 25H71V27.5H67.5L66.5 29.5H61V27.5H63C63 27.5 60.182 24.7036 59 22.5C57.7446 20.1596 57 16 57 16C57 16 56.1865 20.1239 55 22.5C53.9352 24.6324 51.5 27.5 51.5 27.5H53V29H37V27.5C37 27.5 35.3961 26.7024 34.5 26C33.6306 25.3186 32.5 24 32.5 24C32.5 24 31.1803 25.0273 30.5 25.5C29.6365 26.1001 28.5 26.5 28.5 26.5V31H22.5V29L20.5 27V19.5H23C23 19.5 20.1463 18.1537 18.5 17C16.8002 15.8088 15 13.5 15 13.5C15 13.5 12.54 15.8317 11 17C9.39837 18.215 6.5 19.5 6.5 19.5H8.5V27.5L6.5 29.5V41.5Z" stroke="url(#paint1_linear_190_7)" stroke-width="0.4"/>
<path fill-rule="evenodd" clip-rule="evenodd" d="M40.3696 17.4093C40.3376 17.5188 40.3688 17.7142 40.3989 17.9038C40.4328 18.1183 40.4682 18.3397 40.427 18.5047C40.3362 18.8611 40.1314 19.1632 39.9332 19.4553C39.8586 19.5653 39.7812 19.6793 39.7122 19.7933C39.4469 20.232 39.4516 20.6713 39.728 21.2622C39.8719 21.5707 39.9329 21.8899 39.9919 22.1985C40.0298 22.3962 40.0687 22.6 40.1294 22.7969C40.167 22.7767 40.1973 22.747 40.2216 22.7073C40.2249 22.7017 40.2291 22.6963 40.2338 22.6919C40.6717 22.2593 40.6196 21.8622 40.5539 21.3596C40.5297 21.174 40.5047 20.9822 40.5035 20.7747C40.5019 20.2093 40.8604 19.8817 41.2072 19.565C41.3233 19.4592 41.443 19.3494 41.5471 19.233C41.8394 18.9056 42.4501 17.9631 42.1639 17.6733C42.0429 17.5935 40.8147 17.4087 40.4028 17.4087C40.3894 17.4087 40.3786 17.4087 40.3696 17.4093ZM42.5119 17.6476C42.5511 17.766 42.614 17.8727 42.7001 17.9648C42.7056 17.971 42.7104 17.978 42.714 17.9855C42.9979 18.5876 42.9091 19.1478 42.8234 19.6896C42.7652 20.0559 42.7054 20.4347 42.7563 20.8338C42.8108 21.2526 43.0466 21.6539 43.4205 21.9633C43.455 21.9919 43.5357 22.0745 43.676 22.2184C43.8544 22.4018 44.1798 22.7358 44.2706 22.7938C44.3218 22.7812 44.3588 22.7484 44.3864 22.6919C44.547 22.3617 44.2731 21.4646 44.182 21.3019C43.671 20.3894 43.8185 19.9439 44.1124 19.0566L44.1523 18.9359C44.2152 18.7446 44.4142 17.6229 44.25 17.3944C44.2344 17.3729 44.2232 17.3729 44.2163 17.3729C44.2093 17.3729 44.2018 17.3743 44.1932 17.3768C44.0234 17.4292 43.7595 17.4513 43.4803 17.4745C43.1137 17.5051 42.7017 17.5401 42.5119 17.6476ZM45.0914 17.6381C45.2019 17.7321 45.3258 17.8486 45.4149 18.0029C45.615 18.3495 45.6629 18.7245 45.7094 19.0868C45.7411 19.3346 45.774 19.5911 45.8564 19.8297C46.0292 20.3272 46.3975 20.6414 47.0508 20.848C47.185 20.8906 47.4299 21.0821 47.6668 21.2675C47.7904 21.3644 47.9527 21.4912 48.0309 21.5371C48.0348 21.5234 48.0345 21.5086 48.0301 21.4909C48.0276 21.4814 48.027 21.4713 48.0284 21.4615C48.1253 20.6697 47.8411 20.3883 47.1699 19.9349C46.5453 19.5146 46.6068 18.7455 46.6608 18.0667C46.6736 17.9055 46.6859 17.7531 46.6881 17.6131C46.6898 17.4947 46.5058 16.6009 46.2822 16.373C46.2639 16.3542 46.2369 16.3318 46.2127 16.3318C46.2024 16.3318 46.1909 16.336 46.1781 16.3447C46.0771 16.4133 45.8881 16.5052 45.6693 16.6116C45.3072 16.7874 44.7716 17.0478 44.6405 17.2276C44.6995 17.3099 44.7811 17.383 44.8621 17.4504C44.9467 17.4966 45.0238 17.5597 45.0914 17.6381ZM38.5239 16.613C38.2692 17.2883 38.1728 17.542 37.47 18.0735C36.8192 18.5657 36.5077 18.9336 36.4977 19.6941C36.4955 19.8602 36.5085 20.0234 36.5208 20.1813C36.5528 20.5854 36.5829 20.9673 36.3797 21.38C36.5698 21.3126 37.0063 21.0202 37.0683 20.9522C37.2888 20.7103 37.3431 20.4003 37.4007 20.0721C37.4522 19.779 37.5051 19.476 37.6849 19.2176C37.9772 18.7959 38.4768 18.5738 38.96 18.3591C39.1833 18.2597 39.3943 18.1661 39.5788 18.0555C39.9026 17.8618 40.0671 17.6784 40.0548 17.5252C40.032 17.2421 39.448 17.0108 39.0216 16.842C38.805 16.7563 38.6288 16.6863 38.5239 16.613ZM47.1777 16.4088C47.3781 16.5108 47.6 16.6474 47.7389 16.8854C47.8063 17.0008 47.87 17.1198 47.9371 17.2458C48.1639 17.6697 48.3983 18.1082 48.766 18.3731C49.1429 18.6444 49.6111 18.6878 50.064 18.7298C50.2795 18.75 50.503 18.8289 50.7193 18.9054C50.9205 18.9765 51.1118 19.0442 51.2824 19.0622C51.2821 19.0104 51.2649 18.9636 51.2301 18.918C51.2259 18.9124 51.2223 18.9065 51.2198 18.9C50.9826 18.3325 50.6611 18.0457 50.0726 17.8775C49.2459 17.6383 48.9976 17.0988 48.7374 16.3626C48.7023 16.2627 48.67 16.161 48.6391 16.0627C48.4757 15.5456 48.3212 15.057 47.7564 14.8912C47.7564 14.8912 47.7548 14.8909 47.7514 14.8909C47.6323 14.8909 47.2248 15.1886 46.8579 15.587C46.6179 15.8477 46.5511 15.9838 46.5417 16.0289C46.5818 16.079 46.6372 16.1255 46.7134 16.1733C46.8685 16.1974 47.021 16.2747 47.1777 16.4088ZM33.3472 18.8144C33.3851 18.8253 33.4232 18.8309 33.4614 18.8309C33.4995 18.8309 33.5396 18.8253 33.5791 18.8141L33.5836 18.813C34 18.7208 34.3407 18.4123 34.6252 17.8691C35.0104 17.1343 35.6977 17.0279 36.3195 17.0209C36.9614 17.0134 37.5329 16.7871 37.9287 16.3836C38.0178 16.2926 38.0596 16.2134 38.0568 16.1414C38.0515 16.0188 37.9117 15.8987 37.7639 15.7715C37.666 15.6873 37.5646 15.6002 37.482 15.498L37.4772 15.4921C37.2754 15.2426 37.1535 15.092 37.0856 15.092C37.0335 15.092 36.9436 15.1841 36.8189 15.3115C36.7619 15.3697 36.6973 15.4358 36.6193 15.5114C36.2232 15.8956 35.6868 16.0686 35.168 16.2358C35.0207 16.2831 34.8815 16.3279 34.7451 16.3775C34.233 16.5631 33.9387 16.9355 33.7612 17.6232C33.7289 17.7439 33.7138 17.8598 33.6982 17.9822C33.6927 18.0256 33.6868 18.0695 33.6804 18.1141C33.6596 18.258 33.5744 18.3955 33.4923 18.5285C33.4285 18.6318 33.3673 18.7298 33.3472 18.8144ZM48.4518 14.5829C48.5859 14.5829 48.7421 14.5888 48.8835 14.6314C49.2718 14.7495 49.5577 15.0259 49.8344 15.2933C50.0106 15.4635 50.1926 15.6397 50.3961 15.7673C50.579 15.8821 50.7624 15.9359 50.9731 15.9359C51.1961 15.9359 51.426 15.8749 51.6693 15.8105C51.7211 15.7967 51.7737 15.7827 51.8269 15.7693C51.9176 15.7463 52.1656 15.7293 52.4526 15.7094C52.7223 15.6909 53.109 15.664 53.2635 15.6327L53.2607 15.6315C53.2537 15.6285 53.247 15.6243 53.2409 15.6195C52.6764 15.1457 52.2182 14.9685 51.5505 14.9657C50.9122 14.9632 50.6257 14.6199 50.3226 14.2567C50.1932 14.1016 50.059 13.9409 49.8895 13.7944C49.8772 13.7838 49.86 13.7684 49.8383 13.7496C48.9826 12.9944 48.6093 12.8357 48.447 12.8357C48.3852 12.8357 48.3527 12.8586 48.3343 12.9146C48.29 13.0505 48.2057 13.2397 48.1164 13.4402C47.9513 13.8112 47.7481 14.2674 47.7305 14.5387C47.8511 14.581 47.9986 14.5871 48.1303 14.5871C48.1826 14.5871 48.2358 14.586 48.2887 14.5849C48.3429 14.5838 48.3978 14.5829 48.4518 14.5829ZM31.0658 15.4669C31.1683 15.5873 31.3987 15.6066 31.5351 15.6066C31.8255 15.6066 32.1553 15.5271 32.3065 15.4501C32.4974 15.3529 32.6628 15.1981 32.8223 15.0483C33.1034 14.7845 33.394 14.5118 33.8474 14.5118H33.8602C33.9649 14.5132 34.1734 14.5468 34.4373 14.5894C34.8916 14.6624 35.5137 14.7624 36.0022 14.7624C36.4907 14.7624 36.6463 14.6652 36.6998 14.5835C36.741 14.5208 36.7374 14.4354 36.6892 14.3225C36.636 14.1988 36.5918 14.0419 36.545 13.8759C36.4473 13.5295 36.3259 13.0983 36.1177 13.0983C36.069 13.0983 36.0125 13.1196 35.949 13.1616C35.4825 13.4693 34.9525 13.632 34.4164 13.632C34.2889 13.632 34.1606 13.6225 34.0353 13.6037C33.8867 13.5816 33.7453 13.5704 33.6145 13.5704C33.026 13.5704 32.6093 13.7891 32.3413 14.2394C32.1971 14.4802 32.0362 14.7128 31.863 14.931C31.7912 15.0214 31.6017 15.1337 31.4007 15.2524C31.2888 15.3185 31.1284 15.4134 31.0658 15.4669ZM49.4516 12.2407C49.4892 12.2407 49.5265 12.2426 49.5627 12.2463C49.9276 12.2844 50.2628 12.4213 50.5871 12.5537C50.793 12.6377 51.0063 12.7248 51.2212 12.7833C51.352 12.8186 51.4786 12.8357 51.6081 12.8357C52.029 12.8357 52.4078 12.643 52.7226 12.4549C52.8284 12.3916 52.9392 12.3059 53.0561 12.2155C53.2459 12.0688 53.4419 11.9173 53.6412 11.8442C53.693 11.8251 53.7601 11.8165 53.8313 11.8075C53.8867 11.8005 53.9502 11.7924 54 11.7787C53.9535 11.7369 53.8973 11.7101 53.8305 11.6977C53.8219 11.6961 53.8138 11.6933 53.8063 11.6891C53.5257 11.5328 53.2985 11.4631 53.0692 11.4631C52.8607 11.4631 52.6416 11.518 52.3363 11.6465C52.0646 11.7613 51.811 11.8173 51.5608 11.8173C51.2017 11.8173 50.8529 11.7059 50.4303 11.4558C49.8959 11.1397 49.4758 10.9042 48.9333 10.7552C48.8276 10.7264 48.7376 10.7116 48.6664 10.7116C48.5857 10.7116 48.5294 10.7298 48.4946 10.7673C48.4131 10.8555 48.4281 11.0672 48.444 11.2912C48.4512 11.3937 48.4587 11.4995 48.4587 11.6067C48.4587 11.6535 48.4501 11.7285 48.4395 11.8235C48.4239 11.9596 48.3847 12.3062 48.422 12.4008C48.4395 12.402 48.4576 12.4025 48.4757 12.4025C48.6224 12.4025 48.7716 12.3653 48.9292 12.3258C49.0967 12.2841 49.2701 12.2407 49.4516 12.2407ZM33.0296 11.574C33.3155 11.574 33.5847 11.6633 33.902 11.8632C34.5386 12.2642 34.979 12.5128 35.7244 12.5831C35.7653 12.587 35.8032 12.589 35.8369 12.589C35.9429 12.589 36.0142 12.57 36.0487 12.5322C36.1024 12.4736 36.0916 12.3437 36.0793 12.1934C36.0724 12.1099 36.0646 12.0156 36.0665 11.9176C36.0682 11.8417 36.0796 11.7375 36.093 11.6171C36.1191 11.3797 36.1573 11.0347 36.1077 10.8687C36.0356 10.8955 35.9688 10.9339 35.909 10.9835C35.9012 10.9899 35.8925 10.9947 35.8831 10.9977C35.6846 11.0633 35.4886 11.0952 35.2841 11.0952C34.8223 11.0952 34.3955 10.9269 33.9827 10.7639C33.6643 10.6382 33.3347 10.5083 32.9887 10.4548C32.9678 10.4517 32.9458 10.45 32.923 10.45C32.5959 10.45 32.1595 10.7676 31.9532 10.9555C31.7049 11.1814 31.4079 11.2663 31.1204 11.3483C30.9091 11.4088 30.7081 11.4662 30.5478 11.5762C30.6438 11.7504 30.9645 11.8492 31.4435 11.8492C31.7692 11.8492 32.1007 11.7994 32.233 11.7515C32.4854 11.6594 32.7568 11.574 33.0296 11.574ZM31.2273 7.72112C31.2356 7.74856 31.2515 7.77544 31.2662 7.79644C31.4505 8.06216 32.0824 8.36877 32.2628 8.40097C32.4651 8.43709 32.6561 8.44409 32.8403 8.45109C33.2724 8.46705 33.6802 8.48189 34.096 8.87586C34.26 9.03098 34.4114 9.22502 34.5717 9.43055C34.9536 9.91971 35.3486 10.4257 35.9404 10.4293C35.9694 10.4293 36.0326 10.4128 36.1339 10.3014C36.4153 9.99196 36.6948 9.28858 36.7073 8.97414C36.6333 8.95762 36.5578 8.94922 36.4827 8.94922C36.4423 8.94922 36.4011 8.95174 36.3605 8.9565C36.3574 8.95678 36.3543 8.95706 36.3513 8.95706C36.3465 8.95706 36.3418 8.95678 36.3371 8.95594C35.8564 8.86942 35.4644 8.70337 35.1716 8.46257C35.0438 8.35757 34.9233 8.22036 34.7955 8.07504C34.55 7.7956 34.2962 7.50691 33.9844 7.44531C33.8998 7.42851 33.8104 7.42011 33.7194 7.42011C33.3829 7.42011 33.0474 7.53323 32.7229 7.64243C32.6667 7.66148 32.6107 7.68024 32.555 7.69844C32.4298 7.7396 32.2928 7.75948 32.1367 7.75948C32.0056 7.75948 31.8764 7.74576 31.7514 7.7326C31.6314 7.72 31.5179 7.70796 31.4076 7.70796C31.3417 7.70796 31.2821 7.71216 31.2273 7.72112ZM48.7755 8.46313C48.628 8.46313 48.4946 8.48273 48.3672 8.52305C48.0654 8.61909 47.9031 8.71261 47.8566 8.81762C47.8077 8.92822 47.8781 9.0839 47.9758 9.2995C48.0351 9.43055 48.1022 9.57895 48.1603 9.75535C48.2522 10.0342 48.3176 10.1821 48.3543 10.195C48.3747 10.195 48.4353 10.146 48.4843 10.1065C48.5948 10.0177 48.746 9.89591 48.9862 9.81023C49.4065 9.66043 49.88 9.58455 50.3939 9.58455C50.5576 9.58455 50.7246 9.59267 50.8902 9.60835C50.9667 9.61563 51.0419 9.61955 51.1137 9.61955C51.6551 9.61955 52.0359 9.41543 52.2452 9.0125C52.3872 8.73977 52.5325 8.47489 52.7502 8.23072C52.7905 8.18564 52.8693 8.1316 52.9603 8.06916C53.031 8.02072 53.1351 7.9496 53.1983 7.89192L52.991 7.81604C52.9247 7.80708 52.8601 7.8026 52.7986 7.8026C52.3705 7.8026 52.0896 8.01428 51.7344 8.28253C51.6958 8.31165 51.6565 8.34133 51.6161 8.37129C51.276 8.62441 50.9734 8.73221 50.6046 8.73221C50.3889 8.73221 50.1601 8.69637 49.9051 8.65325C49.7779 8.63197 49.649 8.60285 49.5243 8.57513C49.2782 8.51997 49.0235 8.46313 48.7755 8.46313ZM48.3112 6.34965C47.85 6.34965 47.3779 6.46753 46.982 6.68146C46.6597 6.85562 46.5214 6.97238 46.5049 7.08382C46.491 7.17735 46.5628 7.30055 46.7307 7.47135C46.7337 7.47443 46.7363 7.47751 46.7388 7.48087C46.837 7.61807 46.9486 7.74716 47.0569 7.87204C47.1933 8.02968 47.3344 8.19236 47.4533 8.37689C47.4839 8.42449 47.5059 8.43681 47.5131 8.43681C47.5649 8.43681 47.6643 8.23324 47.6969 8.1666C47.7264 8.10584 47.752 8.05348 47.777 8.02016C48.0966 7.59455 48.5241 7.47303 48.9768 7.34451C49.0884 7.31287 49.2036 7.28011 49.3172 7.24231C49.8717 7.05862 50.2764 6.6725 50.5912 6.02764C50.6619 5.88288 50.6875 5.73056 50.7148 5.56928C50.7485 5.36963 50.7833 5.16327 50.9083 4.96643C50.9417 4.91379 51.0104 4.8449 51.0898 4.7651C51.1766 4.67774 51.3239 4.5299 51.3734 4.43442C51.3603 4.4333 51.3475 4.43274 51.3347 4.43274C51.2521 4.43274 51.1747 4.45374 51.0976 4.49658C51.0917 4.49994 51.0853 4.50246 51.0789 4.50414C50.537 4.64554 50.2216 5.04735 49.9165 5.43627C49.5627 5.88736 49.1967 6.35357 48.4919 6.35357C48.469 6.35357 48.4456 6.35301 48.4223 6.35217C48.3855 6.35077 48.3482 6.34965 48.3112 6.34965ZM33.3759 4.29973C33.4021 5.00367 33.9351 5.22879 34.4982 5.46652C34.9316 5.64936 35.3795 5.83864 35.6161 6.25473C35.7561 6.50113 35.853 6.76938 35.9468 7.02894C36.0871 7.41731 36.2196 7.78412 36.4843 8.0868C36.6628 8.29065 36.8069 8.38949 36.9258 8.38949C37.0847 8.38949 37.2236 8.1988 37.3845 7.97788C37.5131 7.80148 37.6587 7.60127 37.8527 7.44195C37.9852 7.33331 37.9889 7.28039 37.9869 7.26667C37.978 7.20563 37.8143 7.13786 37.6827 7.08326C37.5449 7.02614 37.4026 6.96706 37.2977 6.8797C36.9472 6.58737 36.7485 6.21217 36.5564 5.84928C36.4381 5.62584 36.3156 5.39455 36.1581 5.18259C36.1392 5.15711 35.9802 5.01095 34.7226 4.64918C34.1394 4.48146 33.5827 4.3437 33.3759 4.29973ZM36.4918 1.93677C36.4423 1.99389 36.4172 2.06053 36.4153 2.13922C36.4053 2.58806 37.1374 3.26988 37.3779 3.49388C37.4035 3.51768 37.4249 3.53784 37.4416 3.55352C37.9393 4.03093 37.9062 4.51982 37.8711 5.03727C37.8561 5.25791 37.8408 5.48612 37.8636 5.7286C37.8967 6.08253 38.1225 6.91218 38.4089 6.91218C38.4462 6.91218 38.4863 6.89762 38.5283 6.86878C38.5923 6.8251 38.7593 6.74278 38.9709 6.63834C39.2534 6.49917 39.833 6.21385 39.9137 6.11081C39.8906 6.04053 39.7094 5.842 39.6237 5.7482C39.5357 5.68604 39.4583 5.60092 39.3934 5.49508C39.2323 5.31391 39.0636 5.10923 39.0252 4.95495C38.9709 4.73906 38.9584 4.53102 38.9464 4.32997C38.9261 3.98949 38.9069 3.66776 38.6811 3.36032C38.5553 3.18895 37.2189 2.37862 36.7159 2.07369C36.6076 2.00817 36.5375 1.96589 36.4918 1.93677ZM48.2188 1.93761C48.1453 1.97457 48.0431 2.04849 47.9916 2.08573C47.9569 2.11094 47.9271 2.1325 47.904 2.14706C47.3116 2.52114 47.2379 2.93667 47.126 3.56556C47.1187 3.607 47.1112 3.64928 47.1031 3.6924C46.9865 4.33529 46.3382 4.60354 45.8174 4.81886C45.7553 4.84462 45.6944 4.86982 45.6356 4.89502C45.1496 5.10419 44.8225 5.46231 44.6063 6.0226C44.5971 6.04641 44.6302 6.11641 44.8131 6.22673C44.9717 6.32249 45.1822 6.41293 45.3356 6.47901C45.4349 6.52157 45.5065 6.55237 45.544 6.57533C45.7141 6.67866 45.8831 6.77442 45.9652 6.77442C46.0242 6.77442 46.0568 6.6991 46.1347 6.48321C46.1626 6.40649 46.1937 6.31941 46.2347 6.21917C46.439 5.7146 46.8852 5.40827 47.3169 5.11203C47.4249 5.03783 47.5268 4.96783 47.6248 4.89502C48.1022 4.54054 48.0949 3.95141 48.0161 3.3676C47.9942 3.20295 48.0607 2.85547 48.125 2.51918C48.1631 2.32038 48.2124 2.06193 48.2188 1.93761ZM44.3195 0.603108C43.9023 1.05644 43.9276 1.36556 43.9658 1.83261C43.9766 1.96505 43.9889 2.11514 43.9905 2.27922C43.9994 3.12119 43.6777 3.4838 43.232 3.98557C43.1527 4.07489 43.0706 4.16729 42.9845 4.26893C42.874 4.39914 42.3162 5.36935 42.4189 5.60764C42.4256 5.62276 42.4353 5.63788 42.4763 5.63984C42.6672 5.6488 42.8988 5.71208 43.1438 5.779C43.4085 5.85152 43.6824 5.92628 43.8956 5.92628C43.9452 5.92628 43.9897 5.92208 44.0289 5.91396C44.0406 5.87952 44.0479 5.83668 44.0504 5.78432C44.0111 5.68324 44.0033 5.55864 44.0273 5.41359L44.0262 5.40463C44 5.17335 43.9727 4.93423 44.0348 4.74242C44.1456 4.3997 44.3641 4.12389 44.5754 3.85677C44.7905 3.58488 44.9937 3.32812 45.092 3.00751C45.2423 2.51582 45.0049 2.05745 44.7257 1.63521C44.687 1.57697 44.5706 1.239 44.5002 1.0178C44.4301 0.797712 44.3911 0.654349 44.3705 0.559148L44.3195 0.603108ZM40.2037 5.84284C40.2037 5.84284 40.2494 5.8938 40.5394 5.8938C41.0372 5.8938 41.799 5.74876 42.0223 5.64012C41.9841 5.4724 41.9118 5.33379 41.8358 5.18791C41.7241 4.97399 41.6089 4.75278 41.6089 4.43694C41.6089 4.16813 41.6668 3.90633 41.7227 3.6532C41.7826 3.38216 41.8394 3.12595 41.8321 2.85883C41.8185 2.30526 41.4416 1.91045 41.0232 1.5218C40.9773 1.47896 40.9294 1.43808 40.8788 1.39496C40.7293 1.26728 40.5745 1.13512 40.4743 0.952555C40.4548 0.917274 40.4426 0.852313 40.4206 0.731631C40.4081 0.662469 40.3858 0.540387 40.3627 0.461426C40.334 0.504267 40.3123 0.551027 40.2964 0.602828C40.2956 0.605908 40.2942 0.609268 40.2928 0.612348C40 1.27344 40.2238 1.70521 40.5339 2.3033C40.5545 2.34306 40.5754 2.38366 40.5965 2.42482C40.8632 2.94367 40.6611 3.40596 40.4654 3.85285C40.4273 3.93993 40.388 4.03009 40.3529 4.11857C40.1161 4.71414 39.9268 5.29403 40.2037 5.84284Z" fill="#DAC7A3"/>
<path fill-rule="evenodd" clip-rule="evenodd" d="M42.0678 6.30347C41.9038 6.30347 41.7363 6.30952 41.5692 6.32135C40.3783 6.40631 39.15 7.01422 38.1996 7.98892C37.2304 8.98314 36.6883 10.2347 36.7127 11.4222C36.7463 13.0686 37.3558 14.4775 38.4748 15.497C39.546 16.4728 41.0286 17.0103 42.6489 17.0103C43.376 17.0103 44.1383 16.8057 44.8539 16.4186C45.5419 16.0463 46.1711 15.5162 46.6732 14.8852C47.6411 13.6691 48.0311 12.2314 47.7433 10.9408C47.4314 9.54183 46.7366 8.37027 45.734 7.55202C44.7331 6.73515 43.4651 6.30347 42.0678 6.30347Z" fill="#F4EEE4"/>
<path fill-rule="evenodd" clip-rule="evenodd" d="M42.0678 6.30347C41.9038 6.30347 41.7363 6.30952 41.5692 6.32135C40.3783 6.40631 39.15 7.01422 38.1996 7.98892C37.2304 8.98314 36.6883 10.2347 36.7127 11.4222C36.7463 13.0686 37.3558 14.4775 38.4748 15.497C39.546 16.4728 41.0286 17.0103 42.6489 17.0103C43.376 17.0103 44.1383 16.8057 44.8539 16.4186C45.5419 16.0463 46.1711 15.5162 46.6732 14.8852C47.6411 13.6691 48.0311 12.2314 47.7433 10.9408C47.4314 9.54183 46.7366 8.37027 45.734 7.55202C44.7331 6.73515 43.4651 6.30347 42.0678 6.30347Z" fill="url(#paint2_linear_190_7)"/>
<defs>
<linearGradient id="paint0_linear_190_7" x1="73" y1="23.5" x2="78" y2="54.5" gradientUnits="userSpaceOnUse">
<stop stop-color="#D9C6A3"/>
<stop offset="1" stop-color="#F3F0EA"/>
</linearGradient>
<linearGradient id="paint1_linear_190_7" x1="11" y1="16" x2="84.5" y2="50" gradientUnits="userSpaceOnUse">
<stop stop-color="#F4EEE4"/>
<stop offset="1" stop-color="#FBF8F3"/>
</linearGradient>
<linearGradient id="paint2_linear_190_7" x1="42.2739" y1="8.03038" x2="44.0904" y2="16.5623" gradientUnits="userSpaceOnUse">
<stop stop-color="#D9C6A3"/>
<stop offset="1" stop-color="white"/>
</linearGradient>
</defs>
</svg>
