<svg width="20" height="20" viewBox="0 0 20 20" fill="none" xmlns="http://www.w3.org/2000/svg">
<g clip-path="url(#clip0_360_1222)">
<path d="M19.2954 11.5775C19.8921 6.55502 19.0087 3.38419 17.4154 1.95002L17.4162 1.94919C14.8446 -0.499979 6.15958 -0.86248 3.08291 2.05919C1.70124 3.48835 1.21458 5.58585 1.16124 8.18252C1.10791 10.78 1.04458 15.6459 5.57874 16.9659H5.58291L5.57874 18.9817C5.57874 18.9817 5.54791 19.7984 6.06958 19.9625C6.66624 20.1559 6.93624 19.7767 8.79208 17.56C11.8954 17.8292 14.2787 17.2125 14.5496 17.1225C15.1762 16.9125 18.7221 16.4434 19.2954 11.5775ZM9.09791 16.1417C9.09791 16.1417 7.13374 18.5909 6.52291 19.2267C6.32291 19.4334 6.10374 19.4142 6.10708 19.0042C6.10708 18.735 6.12208 15.6575 6.12208 15.6575C2.27791 14.5559 2.50458 10.4125 2.54624 8.24502C2.58791 6.07669 2.98458 4.30085 4.15458 3.10502C6.85374 0.574187 14.4679 1.14002 16.4079 2.96335C18.7796 5.06585 17.9354 11.0059 17.9404 11.2084C17.4529 15.27 14.5796 15.5275 14.0512 15.7034C13.8254 15.7784 11.7296 16.3175 9.09791 16.1417Z" fill="#2F2722"/>
<path d="M10.185 3.58081C9.86413 3.58081 9.86413 4.08081 10.185 4.08498C12.6741 4.10414 14.7241 5.83914 14.7466 9.02164C14.7466 9.35748 15.2383 9.35331 15.2341 9.01748C15.2075 5.58831 12.9683 3.59998 10.185 3.58081Z" fill="#2F2722"/>
<path d="M13.4585 8.4942C13.451 8.82586 13.9418 8.8417 13.946 8.50586C13.9868 6.61503 12.821 5.05753 10.6301 4.89336C10.3093 4.87003 10.276 5.3742 10.596 5.39753C12.496 5.5417 13.4968 6.83836 13.4585 8.4942Z" fill="#2F2722"/>
<path d="M12.9338 10.645C12.5221 10.4067 12.1029 10.555 11.9296 10.7892L11.5671 11.2583C11.3829 11.4967 11.0388 11.465 11.0388 11.465C8.52711 10.8008 7.85544 8.17251 7.85544 8.17251C7.85544 8.17251 7.82461 7.81667 8.05461 7.62584L8.50794 7.25084C8.73461 7.07084 8.87794 6.63751 8.64711 6.21167C8.03044 5.09751 7.61628 4.71334 7.40544 4.41834C7.18378 4.14084 6.85044 4.07834 6.50378 4.26584H6.49628C5.77544 4.68751 4.98628 5.47667 5.23878 6.28917C5.66961 7.14584 6.46127 9.87667 8.98461 11.94C10.1704 12.9158 12.0471 13.9158 12.8438 14.1467L12.8513 14.1583C13.6363 14.42 14.3996 13.6 14.8071 12.8575V12.8517C14.9879 12.4925 14.9279 12.1525 14.6638 11.93C14.1954 11.4733 13.4888 10.9692 12.9338 10.645Z" fill="#2F2722"/>
<path d="M10.9741 6.75323C11.775 6.7999 12.1633 7.21823 12.205 8.0774C12.22 8.41323 12.7075 8.3899 12.6925 8.05407C12.6391 6.9324 12.0541 6.3074 11.0008 6.24907C10.68 6.2299 10.65 6.73407 10.9741 6.75323Z" fill="#2F2722"/>
</g>
<defs>
<clipPath id="clip0_360_1222">
<rect width="20" height="20" fill="white"/>
</clipPath>
</defs>
</svg>
