<svg width="20" height="20" viewBox="0 0 20 20" fill="none" xmlns="http://www.w3.org/2000/svg">
<path d="M19.2205 4.17066C18.4985 3.31247 17.1656 2.9624 14.6201 2.9624H5.37974C2.77594 2.9624 1.42045 3.33505 0.701226 4.24873C0 5.13956 0 6.45214 0 8.26879V11.7313C0 15.2507 0.832 17.0376 5.37974 17.0376H14.6201C16.8276 17.0376 18.0508 16.7287 18.8422 15.9714C19.6537 15.1947 20 13.9267 20 11.7313V8.26879C20 6.35298 19.9457 5.03266 19.2205 4.17066ZM12.8401 10.4781L8.64406 12.671C8.55026 12.7201 8.44768 12.7444 8.34523 12.7444C8.22923 12.7444 8.11348 12.7132 8.01097 12.6511C7.81793 12.5341 7.70006 12.3249 7.70006 12.0992V7.72737C7.70006 7.50208 7.81761 7.29305 8.01026 7.17602C8.20297 7.05898 8.44265 7.05098 8.64258 7.15485L12.8386 9.33369C13.0521 9.44453 13.1861 9.66492 13.1865 9.90537C13.1867 10.146 13.0532 10.3667 12.8401 10.4781Z" fill="#2F2722"/>
</svg>
