<svg width="16" height="16" viewBox="0 0 16 16" fill="none" xmlns="http://www.w3.org/2000/svg">
<g clip-path="url(#clip0_3_3)">
<path d="M5.50187 14.1984C5.50219 14.395 5.56031 14.5875 5.66937 14.7512L6.20344 15.5541C6.29467 15.6913 6.41841 15.8038 6.56366 15.8817C6.7089 15.9596 6.87114 16.0003 7.03594 16.0003H8.96438C9.12917 16.0003 9.29141 15.9596 9.43665 15.8817C9.5819 15.8038 9.70564 15.6913 9.79688 15.5541L10.3309 14.7512C10.44 14.5875 10.4982 14.3952 10.4984 14.1984L10.4997 13H5.50031L5.50187 14.1984ZM2.5 5.49999C2.5 6.88655 3.01406 8.15155 3.86125 9.11812C4.3775 9.70718 5.185 10.9378 5.49281 11.9759C5.49406 11.9841 5.495 11.9922 5.49625 12.0003H10.5037C10.505 11.9922 10.5059 11.9844 10.5072 11.9759C10.815 10.9378 11.6225 9.70718 12.1388 9.11812C12.9859 8.15155 13.5 6.88655 13.5 5.49999C13.5 2.45655 11.0284 -0.00938269 7.98281 -7.68921e-06C4.795 0.00967981 2.5 2.5928 2.5 5.49999ZM8 2.99999C6.62156 2.99999 5.5 4.12155 5.5 5.49999C5.5 5.77624 5.27625 5.99999 5 5.99999C4.72375 5.99999 4.5 5.77624 4.5 5.49999C4.5 3.56999 6.07 1.99999 8 1.99999C8.27625 1.99999 8.5 2.22374 8.5 2.49999C8.5 2.77624 8.27625 2.99999 8 2.99999Z" fill="#DDE2FF"/>
</g>
<defs>
<clipPath id="clip0_3_3">
<rect width="16" height="16" fill="white"/>
</clipPath>
</defs>
</svg>
