<svg width="16" height="16" viewBox="0 0 16 16" fill="none" xmlns="http://www.w3.org/2000/svg">
<path d="M15.2312 9.86557L13.9 9.09682C14.0344 8.37182 14.0344 7.62807 13.9 6.90307L15.2312 6.13432C15.3844 6.04682 15.4531 5.86557 15.4031 5.69682C15.0562 4.58432 14.4656 3.57807 13.6937 2.74057C13.575 2.61244 13.3812 2.58119 13.2312 2.66869L11.9 3.43744C11.3406 2.95619 10.6969 2.58432 9.99999 2.34057V0.806194C9.99999 0.631194 9.87812 0.478069 9.70624 0.440569C8.55937 0.184319 7.38437 0.196819 6.29375 0.440569C6.12187 0.478069 6 0.631194 6 0.806194V2.34369C5.30625 2.59057 4.6625 2.96244 4.1 3.44057L2.77187 2.67182C2.61875 2.58432 2.42812 2.61244 2.30937 2.74369C1.5375 3.57807 0.946873 4.58432 0.599998 5.69994C0.546873 5.86869 0.618748 6.04994 0.771873 6.13744L2.10312 6.90619C1.96875 7.63119 1.96875 8.37494 2.10312 9.09994L0.771873 9.86869C0.618748 9.95619 0.549998 10.1374 0.599998 10.3062C0.946873 11.4187 1.5375 12.4249 2.30937 13.2624C2.42812 13.3906 2.62187 13.4218 2.77187 13.3343L4.10312 12.5656C4.6625 13.0468 5.30625 13.4187 6.00312 13.6624V15.1999C6.00312 15.3749 6.125 15.5281 6.29687 15.5656C7.44374 15.8218 8.61874 15.8093 9.70937 15.5656C9.88124 15.5281 10.0031 15.3749 10.0031 15.1999V13.6624C10.6969 13.4156 11.3406 13.0437 11.9031 12.5656L13.2344 13.3343C13.3875 13.4218 13.5781 13.3937 13.6969 13.2624C14.4687 12.4281 15.0594 11.4218 15.4062 10.3062C15.4531 10.1343 15.3844 9.95307 15.2312 9.86557V9.86557ZM7.99999 10.4999C6.62187 10.4999 5.5 9.37807 5.5 7.99994C5.5 6.62182 6.62187 5.49994 7.99999 5.49994C9.37812 5.49994 10.5 6.62182 10.5 7.99994C10.5 9.37807 9.37812 10.4999 7.99999 10.4999Z" fill="#DDE2FF"/>
</svg>
