<svg width="19" height="20" viewBox="0 0 19 20" fill="none" xmlns="http://www.w3.org/2000/svg"><path d="M13.185 12.69a4.184 4.184 0 011.95-.48h.003c.072 0 .106-.083.053-.13a8.938 8.938 0 00-2.486-1.543l-.028-.011c1.488-1.057 2.456-2.775 2.456-4.713C15.133 2.602 12.478 0 9.201 0c-3.276 0-5.93 2.602-5.93 5.813 0 1.938.969 3.656 2.46 4.713-.01.005-.02.007-.03.011a8.944 8.944 0 00-2.858 1.89 8.743 8.743 0 00-1.927 2.8 8.592 8.592 0 00-.705 3.237.184.184 0 00.054.136.192.192 0 00.138.056h1.435a.19.19 0 00.192-.183 6.919 6.919 0 012.1-4.788 7.197 7.197 0 015.074-2.06c1.359 0 2.662.368 3.787 1.057a.196.196 0 00.194.007zM9.204 9.843a4.14 4.14 0 01-2.91-1.181A4.008 4.008 0 015.4 7.354a3.968 3.968 0 01.894-4.393 4.128 4.128 0 012.91-1.18c1.1 0 2.13.419 2.91 1.18.383.374.686.819.893 1.308a3.968 3.968 0 01-.894 4.393 4.136 4.136 0 01-2.91 1.18zm8.815 5.578h-2.013v-1.969a.19.19 0 00-.192-.187h-1.342a.19.19 0 00-.192.187v1.969h-2.013a.19.19 0 00-.192.187v1.313a.19.19 0 00.192.187h2.013v1.97a.19.19 0 00.192.187h1.342a.19.19 0 00.192-.188V17.11h2.013a.19.19 0 00.192-.187V15.61a.19.19 0 00-.192-.187z" fill="#fff"/></svg>