<svg width="22" height="24" viewBox="0 0 22 24" fill="none" xmlns="http://www.w3.org/2000/svg"><path d="M9.967 23.518a1.72 1.72 0 001.137-.473c.315-.294.521-.698.583-1.138H8.18c.063.452.279.865.607 1.162a1.72 1.72 0 001.18.449z" fill="#fff"/><path d="M9.967 23.518a1.72 1.72 0 001.137-.473c.315-.294.521-.698.583-1.138H8.18c.063.452.279.865.607 1.162a1.72 1.72 0 001.18.449z" stroke="#fff"/><path d="M19.772 18.415a9.821 9.821 0 01-1.685-2.01 8.808 8.808 0 01-.906-3.298V9.72a7.637 7.637 0 00-.107-1.228 4.928 4.928 0 01-1.504-.576c.179.586.27 1.197.269 1.81v3.388a9.928 9.928 0 001.107 4.012c.464.75 1.013 1.44 1.638 2.057H1.396a11.048 11.048 0 001.638-2.057 9.927 9.927 0 001.107-4.012V9.72a6.15 6.15 0 01.44-2.315A6.047 6.047 0 015.857 5.44 5.9 5.9 0 017.77 4.123a5.797 5.797 0 012.263-.466 5.691 5.691 0 013.194.988 5.24 5.24 0 01-.174-1.2v-.432a6.99 6.99 0 00-2.229-.686v-.864a.926.926 0 00-.262-.647.886.886 0 00-1.267 0 .926.926 0 00-.262.647v.898a7.213 7.213 0 00-4.47 2.486 7.509 7.509 0 00-1.77 4.873v3.387a8.806 8.806 0 01-.906 3.299 9.826 9.826 0 01-1.658 2.009.685.685 0 00-.228.514v.933c0 .182.07.356.197.485.125.128.296.2.474.2H19.33a.664.664 0 00.474-.2.693.693 0 00.197-.485v-.933a.697.697 0 00-.228-.514z" fill="#fff"/><path d="M17.967 7.067c1.84 0 3.333-1.582 3.333-3.534C21.3 1.582 19.808 0 17.967 0c-1.841 0-3.334 1.582-3.334 3.533 0 1.952 1.493 3.534 3.334 3.534z" fill="url(#paint0_linear_1_48)"/><path d="M17.967 7.067c1.84 0 3.333-1.582 3.333-3.534C21.3 1.582 19.808 0 17.967 0c-1.841 0-3.334 1.582-3.334 3.533 0 1.952 1.493 3.534 3.334 3.534z" stroke="#fff"/><defs><linearGradient id="paint0_linear_1_48" x1="17.967" y1="0" x2="17.967" y2="7.067" gradientUnits="userSpaceOnUse"><stop stop-color="#326CFF"/><stop offset="1" stop-color="#26FFF2"/></linearGradient></defs></svg>