<svg width="40" height="40" viewBox="0 0 40 40" fill="none" xmlns="http://www.w3.org/2000/svg">
<path fill-rule="evenodd" clip-rule="evenodd" d="M2.5 20C2.5 19.6685 2.6317 19.3505 2.86612 19.1161C3.10054 18.8817 3.41848 18.75 3.75 18.75L33.2325 18.75L25.365 10.885C25.1303 10.6503 24.9984 10.3319 24.9984 10C24.9984 9.66807 25.1303 9.34972 25.365 9.115C25.5997 8.88029 25.9181 8.74843 26.25 8.74843C26.5819 8.74843 26.9003 8.88029 27.135 9.115L37.135 19.115C37.2514 19.2311 37.3438 19.3691 37.4068 19.5209C37.4698 19.6728 37.5022 19.8356 37.5022 20C37.5022 20.1644 37.4698 20.3272 37.4068 20.4791C37.3438 20.631 37.2514 20.7689 37.135 20.885L27.135 30.885C26.9003 31.1197 26.5819 31.2516 26.25 31.2516C25.9181 31.2516 25.5997 31.1197 25.365 30.885C25.1303 30.6503 24.9984 30.3319 24.9984 30C24.9984 29.6681 25.1303 29.3497 25.365 29.115L33.2325 21.25L3.75 21.25C3.41848 21.25 3.10054 21.1183 2.86612 20.8839C2.6317 20.6495 2.5 20.3315 2.5 20Z" fill="white"/>
</svg>
