<svg width="202" height="60" viewBox="0 0 202 60" fill="none" xmlns="http://www.w3.org/2000/svg">
<g id="logo" clip-path="url(#clip0_2350_19827)">
<path id="Vector" d="M92.755 4.62399V26.9781H87.8048V17.3397H78.5736V26.9781H73.6234V4.62399H78.5736V13.0378H87.8048V4.62399H92.755ZM97.1292 13.0853V26.9781H102.114V11.1613L97.1292 13.0853ZM116.882 16.4292V20.417H107.331V16.4292H116.882ZM136.193 4.62399V8.79921H129.402V26.9781H124.422V8.79921H117.632V4.62399H136.193ZM155.738 4.62399V8.6435H143.714V13.5102H154.756V17.3714H143.714V22.8662H155.962V26.9781H138.796V4.62399H155.738ZM179.534 18.3452C179.281 21.1507 178.286 23.3782 176.552 25.033C174.816 26.6877 172.437 27.5138 169.412 27.5138C166.134 27.5138 163.497 26.4397 161.496 24.2966C159.496 22.151 158.498 19.3085 158.498 15.772C158.498 12.4228 159.509 9.64112 161.528 7.42154C163.55 5.20461 166.241 4.09351 169.604 4.09351C172.29 4.09351 174.544 4.84832 176.363 6.35531C178.182 7.86229 179.188 9.77572 179.377 12.1009H174.523C174.269 10.8657 173.704 9.90768 172.824 9.22676C171.946 8.54585 170.839 8.20803 169.508 8.20803C168.178 8.20803 166.975 8.59071 166.033 9.35344C165.092 10.1162 164.43 11.0531 164.049 12.1616C163.667 13.2727 163.478 14.4841 163.478 15.8037C163.478 18.1051 164.017 19.9419 165.097 21.3143C166.177 22.6867 167.625 23.3703 169.444 23.3703C172.469 23.3703 174.192 21.6944 174.616 18.3479H179.534V18.3452ZM202 4.62399V26.9781H197.05V17.3397H187.819V26.9781H182.868V4.62399H187.819V13.0378H197.05V4.62399H202ZM93.8032 46.7404C93.5499 49.5459 92.555 51.7734 90.8213 53.4282C89.085 55.083 86.7059 55.909 83.6813 55.909C80.4033 55.909 77.7655 54.8349 75.7651 52.6918C73.7647 50.5462 72.7672 47.7038 72.7672 44.1672C72.7672 40.8181 73.7781 38.0363 75.7971 35.8168C77.8188 33.5998 80.51 32.4887 83.8733 32.4887C86.5592 32.4887 88.8129 33.2435 90.632 34.7505C92.451 36.2575 93.4565 38.1709 93.6459 40.4961H88.7916C88.5382 39.2609 87.9728 38.3029 87.0926 37.622C86.2151 36.9411 85.1082 36.6032 83.7773 36.6032C82.4464 36.6032 81.2435 36.9859 80.302 37.7487C79.3605 38.5114 78.699 39.4483 78.3176 40.5568C77.9362 41.6679 77.7468 42.8793 77.7468 44.1989C77.7468 46.5003 78.2856 48.3372 79.3658 49.7095C80.446 51.0793 81.8943 51.7655 83.7133 51.7655C86.7379 51.7655 88.4609 50.0896 88.885 46.7431H93.8032V46.7404ZM113.127 51.1664V55.3733H97.1346V33.0192H102.085V51.1664H113.127ZM135.179 33.0192V46.4554C135.179 49.6594 134.403 52.0189 132.845 53.5364C131.29 55.0539 128.863 55.814 125.564 55.814C122.265 55.814 119.763 55.046 118.187 53.5074C116.61 51.9687 115.823 49.5987 115.823 46.3947V33.0192H120.774V46.3947C120.774 48.2158 121.123 49.5644 121.822 50.4459C122.521 51.3247 123.79 51.7655 125.628 51.7655C127.466 51.7655 128.615 51.3247 129.261 50.4459C129.906 49.5644 130.229 48.2158 130.229 46.3947V33.0192H135.179ZM139.431 33.0192H150.123C152.238 33.0192 153.969 33.4863 155.311 34.418C156.655 35.3496 157.327 36.7563 157.327 38.6407C157.327 39.6858 157.053 40.6122 156.503 41.4198C155.954 42.2248 155.202 42.8371 154.25 43.2567C156.999 44.03 158.376 45.851 158.376 48.7198C158.376 50.8338 157.655 52.4728 156.218 53.634C154.78 54.7953 152.951 55.3759 150.729 55.3759H139.433V33.0218L139.431 33.0192ZM144.253 36.8197V42.0638H148.758C151.254 42.0638 152.5 41.1955 152.5 39.4589C152.5 38.4322 152.161 37.7381 151.486 37.3713C150.809 37.0044 149.899 36.8223 148.758 36.8223H144.253V36.8197ZM144.253 45.3918V51.4831H149.233C150.523 51.4831 151.542 51.2746 152.294 50.855C153.044 50.438 153.42 49.6304 153.42 48.4375C153.42 47.2445 153.023 46.4132 152.23 46.0041C151.436 45.5977 150.353 45.3918 148.979 45.3918H144.25H144.253ZM102.111 4.62399H97.1292V9.55402L102.111 7.63268V4.62399Z" fill="white"/>
<path id="Vector_2" d="M58.6892 29.994L51.7145 17.2145C47.7321 17.2164 43.77 17.2184 40.0386 17.2224C37.7407 17.2224 35.5299 17.2243 33.4567 17.2263H33.4526L33.4486 17.2204L27.7109 7.52613L24.0646 1.36353L9.26685 1.8672H9.23244L9.21421 1.89683L1.36487 14.1509C2.94203 16.8135 4.50906 19.4662 6.02143 22.0181C7.60871 24.7004 9.13121 27.2721 10.5302 29.6345C10.6051 29.7609 10.678 29.8873 10.7529 30.0117V30.0177H10.7489L10.5302 30.389L9.9208 31.4181L8.1675 34.3809V34.3848L7.58847 35.3586C5.61449 38.6927 3.50284 42.2619 1.37904 45.8508L9.20207 58.0654L9.24458 58.1326H9.32759L24.0788 58.6362L31.428 46.2162L33.4526 42.7952H33.4547L33.4587 42.7893H43.9036L51.7307 42.7853L58.6892 30.0019V29.9979V29.994ZM8.64935 20.5348L4.90791 14.2102L10.9533 4.77469L22.3477 4.38755L25.083 9.00753L28.2717 14.3959L29.942 17.2204L29.946 17.2283L30.025 17.3606L30.6081 18.3462L31.6993 20.1871L32.3654 21.313L34.7808 25.3937L35.7242 26.9897L35.8295 27.1675L35.9328 27.3413L36.6717 28.5916H27.7838H27.2473H26.4556L26.4536 28.5896L26.0649 27.9338L25.5 26.9798L24.1598 24.7143L23.2325 23.1479L21.4812 20.1871L20.7807 19.004L19.7239 17.2204L19.0234 16.0293L18.3289 17.2066H18.333L18.3229 17.2184L17.2701 19.002L17.1486 19.2055L16.5675 20.1871L16.4299 20.4202L16.2537 20.7185L15.9379 21.2498L15.8852 21.3406L15.6281 21.7752L15.5512 21.9036L15.3589 22.2295L14.6887 23.3632L14.6745 23.3869L14.302 24.0151L14.1643 24.2481L13.8728 24.7419L13.7959 24.8703L12.5062 27.0489L8.64935 20.5348ZM29.3751 43.7571V43.7611L28.7981 44.7348H28.7961L22.3599 55.6142L10.9655 55.2251L4.92005 45.7896L10.2164 36.838L12.5022 32.9785V32.9745L13.3424 31.5583L14.2575 30.0117L14.2615 30.0177L15.1058 28.5896L16.4299 26.3537L16.444 26.33L16.6445 25.9922L16.9117 25.5379L17.3085 24.8703L17.3834 24.7419L18.0475 23.62L18.1852 23.3869L18.1994 23.3632L18.3633 23.0867L18.5982 22.6917L18.8371 22.2868L19.0254 21.9687L19.9263 23.4916L21.6796 26.4564L22.943 28.5896L23.4167 29.3896L23.7447 29.9446L23.3762 30.5668L23.3661 30.5845L23.2386 30.7998L22.947 31.2936L22.8701 31.422L22.7891 31.5583L18.995 37.9698L18.9829 37.9915L17.8997 39.8206L17.2417 40.9326V40.9365L17.2255 40.9583L16.031 42.7893H29.5816L29.7051 42.7873H29.7335L29.9481 42.7893L29.3751 43.7571ZM49.9045 39.8245L43.9036 39.8285L35.21 39.8324H33.1085L31.6973 39.8344L31.7034 39.8225H31.0616H30.5251H29.7335L29.7314 39.8206H29.5897L27.6238 39.8225H27.1744L26.2208 39.8206H26.071H21.4104L25.5 32.9113L25.5041 32.9054L25.5183 32.8817L25.7187 32.5439L25.8928 32.2457L25.9859 32.0896L26.3038 31.5563H26.4556H27.476H28.0591H28.211H41.9377L40.6258 29.3362L40.1844 28.5896L39.2673 27.041L38.3785 25.5399L38.2914 25.3918L36.5361 22.425L35.7991 21.1826L35.21 20.1852H35.208L40.0386 20.1812H43.3286L45.3917 20.1772H49.8923L55.2514 29.9979L49.9045 39.8225V39.8245Z" fill="white" stroke="white"/>
</g>
<defs>
<clipPath id="clip0_2350_19827">
<rect width="202" height="60" fill="white"/>
</clipPath>
</defs>
</svg>
