<svg width="212" height="45" viewBox="0 0 212 45" fill="none" xmlns="http://www.w3.org/2000/svg">
<g id="logo 4" clip-path="url(#clip0_948_152)">
<path id="Logo" fill-rule="evenodd" clip-rule="evenodd" d="M8.59903 16.1407V17.2377H4.9196V27.0055H3.68V17.2377H0V16.1407H8.59903ZM24.9141 25.4132C24.4181 25.9165 23.8264 26.3162 23.1737 26.5891C22.521 26.8619 21.8203 27.0025 21.1125 27.0025C20.4047 27.0025 19.7039 26.8619 19.0512 26.5891C18.3985 26.3162 17.8068 25.9165 17.3108 25.4132C16.3028 24.3869 15.7383 23.0079 15.7383 21.5717C15.7383 20.1355 16.3028 18.7564 17.3108 17.7301C17.8068 17.2269 18.3985 16.8271 19.0512 16.5543C19.7039 16.2814 20.4047 16.1409 21.1125 16.1409C21.8203 16.1409 22.521 16.2814 23.1737 16.5543C23.8264 16.8271 24.4181 17.2269 24.9141 17.7301C25.4222 18.2319 25.8235 18.8309 26.0937 19.491C26.364 20.1511 26.4977 20.8588 26.4868 21.5717C26.5015 22.2851 26.3696 22.9939 26.0991 23.6546C25.8286 24.3152 25.4254 24.9137 24.9141 25.4132ZM18.1056 24.6794C18.5013 25.0778 18.9723 25.394 19.4914 25.6099C20.0105 25.8257 20.5674 25.9368 21.1298 25.9368C21.6923 25.9368 22.2492 25.8257 22.7683 25.6099C23.2874 25.394 23.7584 25.0778 24.1541 24.6794C24.9427 23.8353 25.3812 22.7248 25.3812 21.5714C25.3812 20.418 24.9427 19.3074 24.1541 18.4633C23.7584 18.065 23.2874 17.7487 22.7683 17.5329C22.2492 17.3171 21.6923 17.206 21.1298 17.206C20.5674 17.206 20.0105 17.3171 19.4914 17.5329C18.9723 17.7487 18.5013 18.065 18.1056 18.4633C17.7033 18.8736 17.3875 19.36 17.1768 19.8939C16.9661 20.4277 16.8648 20.9982 16.8787 21.5717C16.8607 22.1456 16.9602 22.7171 17.1711 23.2514C17.3821 23.7857 17.7 24.2716 18.1056 24.6794ZM55.2753 16.1407V17.2377H51.5959V27.0055H50.3563V17.2377H46.6763V16.1407H55.2753ZM67.2416 16.1407H68.4406V20.9435H74.6386V16.1407H75.8383V27.0055H74.6386V22.0405H68.4406V27.0055H67.2416V16.1407ZM96.407 25.9236V27.0055H87.8062V16.1407H96.2431V17.2377H89.131V20.7986H94.8366V21.8771H89.131V25.9051H96.4053V25.9236H96.407ZM126.799 23.8914L122.567 18.155V26.9847H121.421V16.1407H122.406L126.797 22.0393L131.188 16.1407H132.173V27.0055H131.049V18.1724L126.799 23.8914ZM209.98 16.1407V27.0055H208.998L202.518 18.2451V27.0055H201.381V16.1407H202.36L208.859 24.8988V16.1407H209.98ZM185.852 16.7544C185.776 16.7717 185.705 16.8044 185.642 16.8504C185.579 16.8964 185.527 16.9548 185.487 17.0219C185.448 17.0891 185.423 17.1635 185.414 17.2407C185.405 17.3178 185.412 17.396 185.435 17.4703C186.343 20.8701 186.347 24.4469 185.448 27.849C184.548 31.251 182.776 34.361 180.304 36.8732C177.786 39.3973 174.633 41.1996 171.176 42.0911C167.719 42.9826 164.084 42.9303 160.654 41.9399C160.58 41.9176 160.502 41.911 160.425 41.9206C160.348 41.9301 160.273 41.9555 160.207 41.9952C160.14 42.0349 160.082 42.0881 160.037 42.1512C159.993 42.2143 159.961 42.2861 159.946 42.3619C159.923 42.4363 159.916 42.5145 159.925 42.5917C159.935 42.6688 159.96 42.7433 159.999 42.8105C160.038 42.8776 160.091 42.936 160.153 42.982C160.216 43.028 160.288 43.0606 160.364 43.0778C162.287 43.6279 164.277 43.9121 166.277 43.9224C169.054 43.922 171.804 43.3735 174.367 42.3085C176.931 41.2435 179.257 39.6831 181.213 37.7173C183.833 35.0608 185.714 31.7688 186.668 28.1665C187.622 24.5642 187.617 20.7762 186.653 17.1765C186.629 17.0956 186.59 17.0204 186.536 16.9551C186.483 16.8899 186.417 16.836 186.342 16.7966C186.268 16.7573 186.186 16.7332 186.102 16.726C186.017 16.7188 185.933 16.7284 185.852 16.7544ZM154.014 40.0127C154.125 40.0794 154.249 40.123 154.377 40.1409C154.471 40.1482 154.564 40.1298 154.648 40.0878C154.731 40.0457 154.802 39.9816 154.851 39.9025C154.941 39.7716 154.977 39.6119 154.954 39.4552C154.93 39.2986 154.848 39.1567 154.724 39.0578C153.819 38.396 152.962 37.6722 152.159 36.8917C148.425 33.1065 146.332 28.0106 146.332 22.7021C146.332 17.3936 148.425 12.2976 152.159 8.51247C153.994 6.65076 156.182 5.17203 158.597 4.16261C161.011 3.15318 163.604 2.6333 166.222 2.6333C168.84 2.6333 171.433 3.15318 173.847 4.16261C176.262 5.17203 178.45 6.65076 180.285 8.51247C181.08 9.30605 181.799 10.1724 182.432 11.1001C182.477 11.1656 182.534 11.2212 182.602 11.2636C182.669 11.3059 182.744 11.3339 182.823 11.346C182.901 11.3581 182.981 11.3539 183.058 11.3337C183.135 11.3136 183.207 11.2779 183.269 11.2288C183.34 11.1867 183.399 11.1296 183.445 11.0618C183.49 10.994 183.52 10.917 183.532 10.8363C183.544 10.7557 183.539 10.6734 183.515 10.5952C183.492 10.517 183.451 10.445 183.397 10.3842C182.726 9.39271 181.965 8.46505 181.123 7.61299C179.168 5.64971 176.842 4.09149 174.28 3.02813C171.718 1.96478 168.97 1.41732 166.195 1.41732C163.42 1.41732 160.672 1.96478 158.11 3.02813C155.548 4.09149 153.222 5.64971 151.267 7.61299C147.33 11.6444 145.126 17.0484 145.126 22.6747C145.126 28.3009 147.33 33.7049 151.267 37.7363C152.114 38.5741 153.033 39.3359 154.014 40.0127ZM179.211 3.06017C182.322 1.92226 184.578 1.84778 185.67 2.93201C186.871 4.1444 186.743 6.73199 185.252 10.2202C183.941 13.414 181.612 17.214 178.557 21.1242C178.507 21.187 178.47 21.2593 178.45 21.3367C178.429 21.4141 178.424 21.4949 178.436 21.5742C178.448 21.6534 178.476 21.7293 178.519 21.7972C178.562 21.8651 178.618 21.9235 178.684 21.9689C178.796 22.0355 178.919 22.079 179.048 22.097C179.141 22.1041 179.234 22.0856 179.317 22.0436C179.401 22.0015 179.471 21.9376 179.52 21.8586C182.631 17.8173 185.014 13.9648 186.398 10.6422C188.071 6.60382 188.071 3.64847 186.525 2.08795C185.087 0.582852 182.395 0.582851 178.756 1.90436C178.609 1.96907 178.491 2.085 178.424 2.23035C178.357 2.3757 178.346 2.54044 178.392 2.69357C178.46 2.84443 178.581 2.96518 178.732 3.0328C178.883 3.10042 179.053 3.11016 179.211 3.06017ZM165.602 35.24C165.5 35.1242 165.36 35.0479 165.207 35.0244C165.054 35.0009 164.898 35.0316 164.765 35.1112C160.818 38.2502 157.07 40.5999 153.904 41.9237C150.448 43.374 147.864 43.4825 146.681 42.3463C145.608 41.2632 145.608 38.9129 146.808 35.83C146.861 35.6769 146.853 35.5093 146.785 35.3621C146.718 35.2149 146.596 35.0994 146.445 35.0396C146.292 34.9871 146.124 34.9962 145.978 35.0649C145.832 35.1336 145.719 35.2565 145.662 35.4074C144.279 39.0232 144.352 41.7407 145.844 43.2458C146.274 43.6449 146.782 43.9518 147.337 44.1474C147.891 44.3431 148.48 44.4233 149.066 44.3831C150.884 44.2992 152.668 43.8692 154.323 43.1165C158.339 41.2849 162.095 38.9334 165.494 36.1227C165.563 36.0742 165.62 36.012 165.663 35.9401C165.706 35.8683 165.734 35.7883 165.744 35.7052C165.754 35.6222 165.747 35.5379 165.723 35.4578C165.699 35.3777 165.657 35.3035 165.602 35.24ZM176.877 27.4397C177.175 27.0997 177.417 26.7158 177.596 26.3017L178.076 25.0351C178.163 24.7982 178.181 24.5418 178.128 24.2951C178.076 24.0484 177.955 23.8213 177.78 23.6397C177.606 23.4511 177.382 23.3163 177.134 23.2513C176.886 23.1863 176.624 23.1938 176.38 23.2731L175.054 23.6397C174.611 23.7829 174.198 24.0073 173.837 24.3013L169.967 27.4397C169.883 27.5256 169.777 27.5879 169.66 27.6201C169.544 27.6523 169.421 27.6534 169.304 27.6232L166.042 27.33C165.722 27.2881 165.397 27.3737 165.139 27.5684L164.587 27.9356C164.308 28.1326 164.115 28.4283 164.046 28.7624C163.978 29.0966 164.039 29.4442 164.219 29.7345L165.858 31.6074C165.706 31.7529 165.589 31.9309 165.516 32.128C165.443 32.3251 165.415 32.5361 165.435 32.7453C165.617 33.2561 165.928 33.7113 166.338 34.0668L166.577 34.3053C166.931 34.7484 167.386 35.1009 167.904 35.3335C168.033 35.3335 168.088 35.3883 168.199 35.3883C168.519 35.3813 168.823 35.2495 169.046 35.0211L170.797 36.7098L170.852 36.7676C171.084 36.9287 171.362 37.012 171.644 37.0054C171.84 37.0022 172.034 36.958 172.211 36.8758C172.389 36.7936 172.548 36.6751 172.677 36.528L173.1 36.0511C173.295 35.7919 173.399 35.4757 173.395 35.1516L173.21 31.7737C173.203 31.6531 173.221 31.5324 173.263 31.4189C173.304 31.3054 173.368 31.2014 173.451 31.1132L176.877 27.4397ZM168.217 34.0668C167.933 33.901 167.688 33.6757 167.499 33.4064L167.259 33.1673C167.015 32.9672 166.809 32.7247 166.651 32.4515L169.378 30.7079C169.466 30.6453 169.567 30.6015 169.673 30.5792C169.753 30.5761 169.833 30.591 169.906 30.6228C169.979 30.6546 170.044 30.7024 170.097 30.7628C170.182 30.8603 170.233 30.9826 170.243 31.1114C170.253 31.2402 170.221 31.3687 170.152 31.4781L168.217 34.0668ZM172.639 30.2853C172.45 30.4864 172.304 30.7233 172.209 30.9819C172.115 31.2405 172.073 31.5155 172.087 31.7904L172.216 35.0396V35.0974L171.793 35.5742C171.758 35.6084 171.712 35.6289 171.664 35.632L169.857 33.8878L171.129 32.1437C171.36 31.7992 171.473 31.389 171.449 30.975C171.426 30.5611 171.268 30.166 171 29.8494C170.715 29.5552 170.336 29.37 169.928 29.3264C169.521 29.2827 169.111 29.3832 168.77 29.6104L166.965 30.8228L165.325 28.9505C165.325 28.8957 165.325 28.8224 165.383 28.8224L165.935 28.4552H165.993L169.254 28.749C169.818 28.7977 170.378 28.6265 170.818 28.2716L174.687 25.1326C174.93 24.9563 175.197 24.8141 175.479 24.71L176.806 24.3434C176.839 24.3396 176.872 24.3425 176.904 24.3519C176.936 24.3613 176.965 24.3771 176.991 24.3983C177.013 24.4233 177.029 24.4525 177.039 24.4841C177.049 24.5157 177.052 24.549 177.049 24.5819L176.624 25.8485C176.519 26.1407 176.356 26.409 176.146 26.6377L172.639 30.2853Z" fill="white" stroke="white" stroke-width="0.5"/>
</g>
<defs>
<clipPath id="clip0_948_152">
<rect width="211.186" height="43.4441" fill="white" transform="translate(0 0.938965)"/>
</clipPath>
</defs>
</svg>
