<svg width="133" height="29" viewBox="0 0 133 29" fill="none" xmlns="http://www.w3.org/2000/svg">
<g id="Asset 1 1" clip-path="url(#clip0_837_126)">
<g id="Layer 2">
<g id="Layer 1">
<path id="Vector" d="M20.451 28.9898H14.1935L13.1156 10.667L8.88608 28.9898H2.62096L0.610168 0.0270996H5.6257L6.46131 21.455L11.452 0.0270996H16.624L17.8889 21.5232L22.5839 0.0270996H27.5098L20.451 28.9898ZM39.9103 24.788H31.9739L32.7256 16.1389H39.0403L39.4066 11.9371H33.0919L33.7615 4.22891H41.3926L41.7684 0.0270996H29.2363L26.7161 28.9898H39.5554L39.9103 24.788ZM122.385 24.788L123.03 17.2454C122.877 17.2734 122.723 17.2903 122.568 17.296C122.526 17.296 122.482 17.296 122.439 17.296C121.657 17.3049 120.901 17.008 120.327 16.4662C120.183 16.705 119.981 16.9021 119.742 17.0385C119.502 17.175 119.231 17.2462 118.957 17.2454C118.833 17.245 118.71 17.2307 118.589 17.2025C118.433 17.1658 118.284 17.1047 118.146 17.0214L117.122 28.9781H129.967L130.339 24.788H122.385ZM119.611 0.0270996L118.848 8.94305C118.911 8.94305 118.976 8.94305 119.039 8.94305C119.102 8.94305 119.214 8.94305 119.302 8.95474C120.519 9.05214 121.513 9.82549 121.807 10.8501C122.013 10.7434 122.239 10.6834 122.469 10.6743C122.7 10.6652 122.929 10.7073 123.143 10.7975C123.301 10.8637 123.448 10.9551 123.578 11.0683L124.163 4.23671H131.794L132.149 0.0270996H119.611ZM106.537 11.5865L106.526 11.5728V11.5865L106.511 11.6196L106.547 11.5884L106.537 11.5865ZM57.7003 1.21537C56.9925 0.436177 55.8631 0.0270996 54.3426 0.0270996H50.0444C47.1026 0.0270996 45.418 1.53679 45.1738 4.39449L44.5614 11.5456L44.0769 12.0404H44.5175H45.0899L49.0008 12.0131H49.5293H49.9261L49.4816 11.4657C49.4816 11.4248 49.4816 11.3819 49.4816 11.3352L50.0215 5.10161C50.0749 4.49384 50.2122 4.36917 50.2122 4.36527C50.2122 4.36138 50.403 4.22891 50.9906 4.22891H52.8316C53.0237 4.22388 53.2158 4.24153 53.404 4.28151C53.4537 4.29043 53.5015 4.30823 53.5451 4.33411C53.5451 4.33411 53.6348 4.47826 53.589 5.0198L53.2456 9.01902H58.1486L58.5301 4.47436C58.658 3.06596 58.3756 1.97509 57.7003 1.21537ZM57.7823 13.7585L57.0802 13.7332H56.8303C51.8377 13.5637 47.5681 13.4156 45.1643 13.3319L44.5805 13.3124L44.1837 13.2988L44.6797 13.8052C44.8071 14.289 45.0451 14.735 45.3741 15.1065C46.0686 15.8857 47.1655 16.2753 48.6345 16.2753H51.8777C52.4024 16.2753 52.5416 16.3629 52.5455 16.3629C52.5493 16.3629 52.6294 16.5305 52.5836 17.0662L51.996 23.9172C51.9445 24.5348 51.8167 24.6614 51.8052 24.6672C51.7938 24.6731 51.6679 24.7899 51.0631 24.7899H49.2393C49.0472 24.7951 48.8551 24.7775 48.667 24.7374C48.6171 24.729 48.5692 24.7112 48.5258 24.6848C48.5258 24.6848 48.4342 24.5426 48.4819 23.9991L48.8234 19.9998H43.9166L43.535 24.5445C43.4149 25.9529 43.6953 27.0496 44.3726 27.8035C45.0784 28.5827 46.2097 28.9918 47.7302 28.9918H51.9846C54.955 28.9918 56.6529 27.4821 56.899 24.6244L57.5896 16.5655C57.6829 15.7757 57.5914 14.9746 57.3225 14.2279L57.7823 13.7585ZM68.7005 14.1228L68.1911 14.1072L67.737 14.0916L63.7994 13.9611L63.3434 13.9455L62.836 13.928L63.2957 14.4851L62.0538 28.9898H66.9167L68.1453 14.5922L68.6928 14.1189L68.7005 14.1228ZM59.9304 0.0270996L59.5718 4.22891H64.1752L63.559 11.4365L63.0115 11.9098H63.5132H63.9482L67.945 11.8806H68.3857H68.876L68.4296 11.3254L69.0381 4.23086H73.6435L74.0022 0.0270996H59.9304ZM88.3562 1.21537C87.6504 0.436177 86.5191 0.0270996 84.9986 0.0270996H75.5856L74.6127 11.38L74.0956 11.8261H74.5745H75.0114L78.0867 11.8046H78.5217H79.0158L78.5694 11.2631L79.2485 3.31141H83.5277C84.1935 3.31141 84.6227 3.43219 84.8803 3.70101C85.1378 3.96983 85.2466 4.42761 85.1855 5.12499L84.6571 11.3079L84.1172 11.7754H84.617H85.0405L88.1349 11.715H88.568H89.0678L88.6157 11.1677L89.188 4.47436C89.3082 3.06596 89.0278 1.97509 88.3505 1.21537H88.3562ZM97.38 15.1338L96.8783 15.1104L96.4032 15.0851C95.0315 15.0149 93.7228 14.9526 92.5018 14.8903L92.0363 14.8688L91.5308 14.8474L91.9925 15.4162L90.8287 28.9918H95.6916L96.8363 15.611L97.3838 15.1396L97.38 15.1338ZM110.78 16.3902L111.314 15.9285L110.616 15.8876L110.347 15.872C107.358 15.6948 104.28 15.5175 101.323 15.3558L100.846 15.3305L100.343 15.3032L100.801 15.8584L99.6751 28.9996H104.54L105.631 16.2558L109.62 28.9996H114.886L110.78 16.3902ZM111.988 11.0001L117.44 0.0270996H112.16L106.747 11.119L106.398 11.4189L106.078 11.0293L107.02 0.0270996H102.157L101.203 11.156L100.656 11.6274H101.161H101.589L105.595 11.5962H106.511V11.5826L106.522 11.5962H107.115L111.503 11.5631H111.694H112.436L111.976 11.0079L111.988 11.0001ZM106.537 11.5962L106.526 11.5826V11.5962L106.511 11.6293L106.547 11.5982L106.537 11.5962ZM106.537 11.5962L106.526 11.5826V11.5962L106.511 11.6293L106.547 11.5982L106.537 11.5962ZM98.1641 0.0270996H93.3012L92.3473 11.2261L91.8017 11.6956H92.3053H92.7289L96.7466 11.6663H97.1721H97.6776L97.2198 11.1112L98.1641 0.0270996ZM85.2905 17.4577C86.1075 17.2658 86.8429 16.8118 87.389 16.1623C87.6268 15.8671 87.8227 15.5393 87.9709 15.1883L88.5051 14.7266L88.1502 14.713L87.5645 14.6955L87.0742 14.6818C84.9165 14.6253 81.9099 14.5357 78.4683 14.4286H78.2927L74.8225 14.3214L74.3665 14.3078L73.861 14.2922L74.3208 14.8494L74.2406 15.7785L73.1055 28.9898H77.9684L78.9395 17.6603H80.3245L83.4762 28.9898H88.6882L85.2905 17.4577ZM106.537 11.5865H106.518L106.503 11.6196L106.539 11.5884L106.537 11.5865ZM123.206 12.5624C123.206 12.5624 123.206 12.5761 123.206 12.5858C123.206 12.5988 123.206 12.6118 123.206 12.6248C123.175 12.9481 123.144 13.2695 123.118 13.5987C123.082 14.0137 123.047 14.4305 123.017 14.8455C123.001 15.0227 122.935 15.0773 122.767 15.0773C121.576 15.0773 120.384 15.0773 119.193 15.0773H118.949C118.904 15.0805 118.858 15.0765 118.814 15.0656C118.794 15.0578 118.777 15.0458 118.763 15.0303C118.749 15.0148 118.738 14.9962 118.732 14.976C118.703 14.9039 118.625 14.9058 118.581 14.976C118.537 15.0461 118.448 15.0714 118.364 15.0714C118.28 15.0714 118.154 15.0714 118.051 15.0714H118.007C117.967 15.076 117.927 15.0717 117.889 15.0589C117.851 15.0461 117.817 15.0252 117.787 14.9974C117.832 14.4779 117.876 13.9526 117.921 13.4215C117.95 13.0845 117.98 12.7475 118.009 12.4105C118.2 12.2858 118.667 12.3111 118.8 12.4494C118.848 12.4981 118.913 12.5098 118.949 12.4377C118.969 12.3952 119.005 12.3623 119.048 12.3462C119.092 12.3402 119.136 12.3402 119.18 12.3462H122.996C123.16 12.3326 123.221 12.3832 123.206 12.5624ZM125.926 13.6474C125.926 13.6845 125.926 13.7195 125.926 13.7565C125.572 14.1814 125.122 14.5117 124.615 14.7188C124.246 14.8688 123.851 14.9398 123.454 14.9273C123.345 14.9273 123.291 14.8844 123.301 14.7675C123.345 14.263 123.387 13.7585 123.431 13.254C123.446 13.0845 123.459 12.915 123.475 12.7455C123.475 12.7085 123.475 12.6735 123.475 12.6364C123.475 12.6192 123.479 12.6021 123.484 12.5858C123.505 12.5079 123.562 12.4825 123.64 12.4787H123.671C123.953 12.4748 124.233 12.5116 124.505 12.5877C125.071 12.7513 125.562 13.1152 125.89 13.6143C125.9 13.6269 125.913 13.638 125.926 13.6474Z" fill="white"/>
</g>
</g>
</g>
<defs>
<clipPath id="clip0_837_126">
<rect width="131.539" height="28.9627" fill="white" transform="translate(0.610168 0.0270996)"/>
</clipPath>
</defs>
</svg>
