<svg width="174" height="35" viewBox="0 0 174 35" fill="none" xmlns="http://www.w3.org/2000/svg">
<g id="logo 3" clip-path="url(#clip0_844_2)">
<path id="Vector" fill-rule="evenodd" clip-rule="evenodd" d="M24.3101 11.0674H10.103V13.5468H24.3101V11.0674ZM24.3101 16.281H10.103V18.7605H24.3101V16.281ZM10.103 21.4947H24.3101V23.9742H10.103V21.4947Z" fill="white"/>
<path id="Vector_2" d="M17.1669 0.613525C7.72111 0.613525 0.0609741 8.17917 0.0609741 17.5084C0.0609741 26.8377 7.72111 34.4034 17.1669 34.4034C26.6127 34.4034 34.2728 26.8377 34.2728 17.5084C34.2728 8.17917 26.6127 0.613525 17.1669 0.613525ZM18.435 31.873V27.9367H15.9247V31.873C8.44571 31.234 2.57122 25.0485 2.57122 17.5084C2.57122 9.96835 8.44571 3.78292 15.9247 3.14393V7.05455H18.435V3.14393C25.888 3.78292 31.7884 9.96835 31.7884 17.5084C31.7625 25.0485 25.888 31.234 18.435 31.873Z" fill="white"/>
<path id="Vector_3" fill-rule="evenodd" clip-rule="evenodd" d="M75.5772 6.90137L84.8924 27.9366H80.9597L78.8107 22.9273H71.9784L73.3508 19.6816H77.4144L73.7897 11.2974L66.6474 27.9366H62.8439L72.1352 6.90137H75.5772ZM88.3861 7.05444H91.8281L103.163 21.4956V7.05444H106.812V27.9366H103.706L92.0347 13.0866V27.9366H88.3861V7.05444ZM56.4763 17.0748C58.0553 16.2572 59.5051 14.9281 59.5051 12.423V12.3717C59.5051 10.9665 59.0126 9.84184 58.0811 8.92157C56.8655 7.7199 54.9767 7.08102 52.5436 7.08102H43.0458V10.3267H52.0511C54.4325 10.3267 55.779 11.3497 55.779 12.9849V13.0362C55.779 14.9538 54.1743 15.8731 51.7929 15.8731H43.0716V27.9632H52.8536C57.5646 27.9632 60.6691 25.9695 60.6691 22.238V22.1868C60.6691 19.3242 58.9352 17.9181 56.4763 17.0748ZM56.943 21.8292C56.943 23.7202 55.3898 24.6918 52.8536 24.6918H46.6944V18.9667H52.5953C55.5189 18.9667 56.943 20.0144 56.943 21.7779V21.8292ZM116.929 7.05444H113.203V27.9366H116.929V21.8787L120.217 18.5303L127.436 27.9366H131.939L122.753 16.0262L131.552 7.05444H126.997L116.929 17.5597V7.05444ZM161.751 17.3297L154.349 7.05444H158.722L163.976 14.5431L169.256 7.05444H173.525L166.151 17.2526L173.837 27.9366H169.463L163.899 20.0391L158.31 27.9366H154.039L161.751 17.3297ZM151.401 7.05444H134.942V10.3258H151.401V7.05444ZM138.281 19.0409V24.6643H151.557V27.9357H134.942V15.7695H147.727V19.0409H138.281Z" fill="white"/>
</g>
<defs>
<clipPath id="clip0_844_2">
<rect width="173.776" height="33.7898" fill="white" transform="translate(0.0609741 0.613525)"/>
</clipPath>
</defs>
</svg>
