<svg width="106" height="36" viewBox="0 0 106 36" fill="none" xmlns="http://www.w3.org/2000/svg">
<g id="serpresult_1 1" clip-path="url(#clip0_856_3)">
<g id="Layer 2">
<g id="Layer 1">
<path id="Vector" d="M0.628026 29.7662C0.582498 29.7874 0.532422 29.7969 0.482322 29.7938C0.432221 29.7908 0.383674 29.7752 0.341064 29.7486C0.44765 29.6817 0.550722 29.6335 0.628026 29.7662Z" fill="white"/>
<path id="Vector_2" d="M0.174744 29.7547C0.155928 29.7654 0.133976 29.7693 0.112622 29.7657C0.0912673 29.762 0.0718303 29.7511 0.0576172 29.7347C0.104468 29.7112 0.146634 29.7089 0.174744 29.7547Z" fill="white"/>
<path id="Vector_3" d="M21.4614 14.6047C22.7498 15.3247 23.859 16.249 24.6801 17.4823C25.8513 19.237 26.2847 21.2406 26.1945 23.417C26.1068 25.5722 25.4066 27.6574 24.1764 29.4269C22.546 31.824 20.3358 33.4648 17.6911 34.503C15.6524 35.301 13.4709 35.6665 11.2842 35.5765C7.65331 35.4462 4.56232 34.1836 1.98084 31.8428C1.31454 31.2383 0.709561 30.5691 0.174744 29.845C0.378545 29.7945 0.550722 29.899 0.735782 29.845C0.749864 29.8616 0.769314 29.8727 0.790728 29.8763C0.812142 29.88 0.834154 29.876 0.852909 29.865L1.01806 29.8591C1.06037 29.8859 1.10875 29.9016 1.1587 29.9046C1.20866 29.9077 1.25858 29.8981 1.30385 29.8767H1.41043C1.92111 29.9824 2.45169 29.9378 2.97408 29.9213C4.56211 29.8808 6.13932 29.6465 7.67088 29.2237C8.69574 28.9371 9.696 28.5789 10.6213 27.9987C10.979 27.7979 11.2656 27.4905 11.4412 27.119C11.6356 26.6703 11.6052 26.6198 11.1472 26.5834C11.1382 26.5839 11.1292 26.5839 11.1203 26.5834C10.2207 26.5447 9.37742 26.3109 8.54347 26.0326C8.52356 26.0103 8.42634 25.988 8.52707 25.9598C8.62738 25.9435 8.7294 25.9407 8.83043 25.9515C10.1879 25.9363 11.5443 25.8541 12.8549 25.2927C14.0613 24.7771 14.9035 23.9432 15.119 22.6113C15.1745 22.2357 15.1713 21.8537 15.1096 21.4791C15.1096 21.4556 15.1002 21.4121 15.092 21.4121C15.0812 21.4108 15.0703 21.412 15.0599 21.4155C15.0496 21.4191 15.0402 21.4249 15.0325 21.4326C15.0247 21.4402 15.0188 21.4496 15.0151 21.4598C15.0114 21.4701 15.0101 21.4811 15.0112 21.492C14.3823 22.1849 13.5776 22.4821 12.7202 22.6289C11.5796 22.8106 10.4144 22.7639 9.29191 22.4915C8.54581 22.3247 7.85359 22.0334 7.15317 21.7598L6.97983 21.6693C6.97163 21.64 6.95523 21.6224 6.92009 21.6353C5.64458 20.9306 4.55412 20.0109 3.73306 18.8024C2.57468 17.0982 2.12491 15.1415 2.17762 13.018C2.23384 10.7172 2.953 8.57605 4.33861 6.61934C6.01236 4.25156 8.25651 2.65777 10.9059 1.64887C12.6832 0.983427 14.5653 0.643687 16.4624 0.645855C19.5874 0.625888 22.4019 1.468 24.8804 3.17807C26.1548 4.06421 27.2801 5.14859 28.2138 6.39031C28.0268 6.42548 27.835 6.42548 27.6481 6.39031C27.6339 6.37392 27.6144 6.36298 27.5931 6.35934C27.5717 6.3557 27.5498 6.35959 27.5309 6.37035H27.367C27.3243 6.34384 27.2758 6.32836 27.2257 6.32529C27.1756 6.32221 27.1256 6.33164 27.08 6.35273H26.9734C26.4534 6.2482 25.9134 6.29401 25.3817 6.31045C23.8118 6.35018 22.2526 6.57969 20.7376 6.99401C19.6928 7.28293 18.675 7.6482 17.7344 8.24015C17.3883 8.4396 17.1121 8.74154 16.9438 9.10457C16.7506 9.55558 16.7798 9.60491 17.239 9.64015C17.248 9.64071 17.257 9.64071 17.2659 9.64015C18.1655 9.6789 19.0076 9.9138 19.8369 10.191C19.8369 10.2732 19.8369 10.2802 19.7432 10.2779C19.2053 10.2662 18.6672 10.2851 18.1315 10.3343C17.2261 10.4118 16.3289 10.5692 15.4715 10.9509C13.8587 11.6662 13.0119 12.9792 13.2707 14.7445C13.2707 14.768 13.2813 14.8126 13.2883 14.8115C13.3351 14.8115 13.3715 14.788 13.3691 14.7328C13.9981 14.0386 14.8027 13.7438 15.6601 13.5958C16.8015 13.4144 17.9674 13.4611 19.0908 13.7333C19.838 13.9012 20.5303 14.1913 21.2307 14.4661L21.404 14.5554C21.4111 14.6012 21.4263 14.6224 21.4614 14.6047Z" fill="white"/>
<path id="Vector_4" d="M19.8345 10.2085C19.0053 9.9313 18.1631 9.6964 17.2636 9.65764C17.2546 9.6582 17.2456 9.6582 17.2366 9.65764C16.7775 9.62241 16.7482 9.57308 16.9415 9.12207C17.1098 8.75904 17.3859 8.4571 17.7321 8.25764C18.6691 7.67039 19.6904 7.30043 20.7352 7.0115C22.2502 6.59719 23.8095 6.36768 25.3793 6.32794C25.9111 6.3115 26.451 6.2657 26.9711 6.37023C26.7825 6.50412 26.5717 6.46536 26.3761 6.47358C25.5148 6.51459 24.6571 6.61228 23.8086 6.76603C22.8845 6.91549 21.9763 7.15142 21.096 7.47073C20.2403 7.77501 19.4434 8.22519 18.7405 8.80143C18.5953 8.91888 18.5531 8.9964 18.73 9.11502C19.0932 9.37279 19.4253 9.67193 19.7197 10.0065C19.7736 10.064 19.8427 10.1122 19.8345 10.2085Z" fill="white"/>
<path id="Vector_5" d="M8.54698 26.0278C9.37624 26.3062 10.2196 26.5399 11.1238 26.5787C11.1327 26.5791 11.1417 26.5791 11.1507 26.5787C11.6087 26.6151 11.6391 26.6656 11.4447 27.1142C11.2691 27.4857 10.9825 27.7932 10.6248 27.9939C9.69951 28.5741 8.69925 28.9335 7.67439 29.2189C6.14144 29.6401 4.56305 29.8724 2.97408 29.9107C2.45169 29.9272 1.91993 29.9718 1.41043 29.8661C1.60955 29.7287 1.82975 29.7686 2.03472 29.7604C3.11213 29.7075 4.18346 29.5669 5.23814 29.3399C6.28302 29.1368 7.29748 28.7997 8.25651 28.3369C8.75125 28.0929 9.21489 27.79 9.63743 27.4349C9.7815 27.3174 9.82601 27.2399 9.64797 27.1201C9.278 26.8571 8.93959 26.552 8.63951 26.2111C8.59383 26.1582 8.53878 26.1124 8.54698 26.0278Z" fill="white"/>
<path id="Vector_6" d="M7.15318 21.7563C7.85594 22.03 8.54582 22.3212 9.29192 22.488C10.4152 22.7608 11.5812 22.8075 12.7226 22.6254C13.5799 22.4786 14.3846 22.1815 15.0136 21.4885C14.7231 22.4469 14.0859 23.067 13.1395 23.3595C12.1358 23.666 11.1847 23.5016 10.2477 23.2444C9.20117 22.9411 8.20215 22.4924 7.27968 21.9113C7.2176 21.8738 7.14849 21.8467 7.15318 21.7563Z" fill="white"/>
<path id="Vector_7" d="M21.2295 14.4814C20.5268 14.2066 19.8369 13.9165 19.0896 13.7485C17.9663 13.4764 16.8004 13.4297 15.659 13.6111C14.8016 13.7591 13.9969 14.0539 13.368 14.748C13.4935 14.3009 13.732 13.8938 14.0603 13.5661C14.3885 13.2384 14.7956 13.001 15.242 12.8771C16.2762 12.5599 17.2542 12.7467 18.2123 13.0168C19.2301 13.3199 20.2021 13.7601 21.1019 14.3252C21.1651 14.3628 21.233 14.3875 21.2295 14.4814Z" fill="white"/>
<path id="Vector_8" d="M27.0777 6.36322C27.1232 6.34213 27.1733 6.3327 27.2234 6.33577C27.2734 6.33885 27.322 6.35433 27.3646 6.38084C27.258 6.44896 27.155 6.49476 27.0777 6.36322Z" fill="white"/>
<path id="Vector_9" d="M13.3675 14.7505C13.3675 14.8057 13.3333 14.828 13.2861 14.8292C13.279 14.8292 13.2743 14.7857 13.2684 14.7622L13.3675 14.7505Z" fill="white"/>
<path id="Vector_10" d="M15.0147 21.4874C15.0136 21.4765 15.0149 21.4655 15.0186 21.4552C15.0223 21.4449 15.0283 21.4356 15.0362 21.4279C15.044 21.4203 15.0534 21.4144 15.0638 21.4109C15.0742 21.4074 15.0853 21.4062 15.0962 21.4075C15.1045 21.4075 15.108 21.451 15.1139 21.4744L15.0147 21.4874Z" fill="white"/>
<path id="Vector_11" d="M27.5286 6.37513C27.5474 6.36437 27.5694 6.36048 27.5907 6.36412C27.6121 6.36776 27.6315 6.37871 27.6457 6.3951C27.6012 6.41859 27.5591 6.42094 27.5286 6.37513Z" fill="white"/>
<path id="Vector_12" d="M21.4619 14.6046C21.4265 14.6187 21.4111 14.6046 21.4029 14.5706C21.4371 14.5588 21.4572 14.5706 21.4619 14.6046Z" fill="white"/>
<path id="Vector_13" d="M6.9201 21.6319C6.95552 21.619 6.97205 21.6319 6.98031 21.6659C6.94726 21.6753 6.92719 21.6695 6.9201 21.6319Z" fill="white"/>
<path id="Vector_14" d="M52.1967 3.05835L51.5607 10.3461H37.6074L37.1869 15.2097H50.1201L49.4853 22.4916H36.5474L36.1234 27.3493H50.0767L49.4419 34.637H27.4935L30.2483 3.05835H52.1967ZM51.6216 34.6382L54.3765 3.05835H69.8373C72.4211 3.05835 74.6465 4.00578 76.5135 5.90063C78.3805 7.79549 79.1641 10.4757 78.8642 13.9412C78.6518 16.3685 77.9565 18.4172 76.7782 20.0874C75.6612 21.7024 74.1459 22.9997 72.3801 23.8528L77.7855 34.6382H68.577L63.7115 24.8734H60.4671L59.6156 34.6382H51.6216ZM67.2499 17.0995C68.123 17.11 68.9746 16.8281 69.6698 16.2984C70.378 15.7637 70.7778 14.9779 70.8691 13.9412C70.9605 12.9045 70.6974 12.1274 70.0797 11.6099C69.4621 11.0923 68.7011 10.8331 67.7969 10.8323H61.6922L61.1453 17.0995H67.2499ZM79.2355 34.6382L81.9927 3.05835H96.9639C99.5477 3.05835 101.773 4.00578 103.64 5.90063C105.507 7.79549 106.291 10.4757 105.991 13.9412C105.689 17.4083 104.437 20.0968 102.235 22.0065C100.033 23.9162 97.6397 24.8719 95.0559 24.8734H88.0845L87.2318 34.6382H79.2355ZM88.7603 17.0995H94.2864C95.1774 17.1045 96.0454 16.8156 96.7566 16.2773C97.4976 15.7292 97.9126 14.9517 98.0016 13.9448C98.0914 12.9089 97.8279 12.1317 97.211 11.6134C96.5942 11.095 95.834 10.8347 94.9306 10.8323H89.3085L88.7603 17.0995Z" fill="white"/>
</g>
</g>
</g>
<defs>
<clipPath id="clip0_856_3">
<rect width="106" height="35" fill="white" transform="translate(0 0.5)"/>
</clipPath>
</defs>
</svg>
