<svg width="108" height="100" viewBox="0 0 108 100" fill="none" xmlns="http://www.w3.org/2000/svg">
<g id="Asset 1 1" clip-path="url(#clip0_948_92)">
<g id="Layer 2">
<g id="1">
<path id="Vector" d="M94.907 59.3973C94.3841 58.9501 93.7585 58.6418 93.0872 58.5006C92.211 58.2512 91.3572 57.9277 90.5349 57.5336C89.4917 57.012 88.404 56.5863 87.2849 56.2619C84.9492 55.592 82.5154 55.3381 80.093 55.5117C77.6074 55.7393 75.184 56.4225 72.9419 57.5278C71.0416 58.4339 69.2261 59.5108 67.5174 60.7453C66.4884 61.4778 65.5233 62.3042 64.4884 63.0192L64.3837 63.0895C64.3314 63.0942 64.2802 63.1081 64.2326 63.1305H64.0174H63.6454H63.4302C63.1811 63.0868 62.9361 63.0221 62.6977 62.9371L62.593 62.8961H62.5523L62.2849 62.732C62.2405 62.6846 62.1919 62.6414 62.1395 62.6031L61.7558 62.2339C61.4826 61.9877 61.2093 61.7416 60.9302 61.5013C59.2216 59.9936 57.3212 58.7223 55.2791 57.7212C53.9235 57.045 52.4844 56.5542 51 56.2619C50.2672 56.1147 49.5202 56.0518 48.7733 56.0743H48.6802C48.4794 56.0815 48.2834 56.1388 48.1099 56.2411C47.9364 56.3434 47.7908 56.4874 47.6861 56.6604C47.584 56.8386 47.5303 57.0407 47.5303 57.2465C47.5303 57.4522 47.584 57.6543 47.6861 57.8325C48.593 59.2098 49.6512 60.4815 50.6802 61.7591L51.4651 62.7379L51.7791 63.1423L51.9709 63.3825V63.4236L52.064 63.5466C52.5399 64.1622 52.9842 64.8018 53.3954 65.4631C53.5465 65.7092 53.6919 65.9671 53.8198 66.2308C53.8547 66.2953 53.8837 66.3656 53.9186 66.4301V66.4594C53.9716 66.5826 54.0144 66.71 54.0465 66.8403C54.0509 66.8988 54.0509 66.9576 54.0465 67.0161C54.0465 67.0161 54.0872 67.0161 54.0814 67.0923V67.1509C54.0787 67.1605 54.0787 67.1707 54.0814 67.1802C54.0814 67.1802 54.0814 67.1802 54.0814 67.2154C54.0785 67.2368 54.0785 67.2585 54.0814 67.2799C54.0788 67.2643 54.0788 67.2485 54.0814 67.233C54.0799 67.2525 54.0799 67.2721 54.0814 67.2916C54.0814 67.2916 54.0814 67.2506 54.0814 67.2271L53.843 67.4029C53.5175 67.6374 53.1861 67.8718 52.8488 68.1003C52.093 68.6161 51.3198 69.1025 50.5233 69.5714C48.8909 70.5546 47.2084 71.4506 45.4826 72.2555C43.7889 73.062 42.0403 73.7455 40.25 74.3009C39.4128 74.5529 38.564 74.7756 37.7035 74.9514L37.1221 75.0628L36.8198 75.1097H36.6861C36.314 75.1566 35.9477 75.1917 35.5756 75.2152C34.6735 75.2563 33.7697 75.2269 32.8721 75.1273H32.5872H32.3837L31.7616 75.0276C31.2791 74.9456 30.8023 74.8401 30.3256 74.7229C29.3244 74.4734 28.3398 74.1602 27.3779 73.7852C26.4244 73.4159 25.5756 73.035 24.5581 72.5368C22.2733 71.4175 20.064 70.1516 17.8488 68.9033C15.6337 67.6549 13.2326 66.5121 10.6395 66.2367C9.29271 66.0953 7.93143 66.2431 6.64536 66.6704C5.29157 67.1364 4.05808 67.9013 3.03489 68.9091C1.98016 70.0017 1.0284 71.1906 0.191871 72.4607C0.103894 72.6152 0.0520163 72.7879 0.0401786 72.9656C0.0283408 73.1434 0.056855 73.3215 0.123554 73.4865C0.190253 73.6515 0.293382 73.799 0.425104 73.9177C0.556826 74.0365 0.713675 74.1235 0.883731 74.172C2.04241 74.4848 3.23654 74.6444 4.43606 74.6467C5.06461 74.6587 5.69203 74.5877 6.30234 74.4357C6.8029 74.2729 7.29232 74.0771 7.76745 73.8496C8.5716 73.5133 9.39707 73.2314 10.2384 73.0057H10.3256H10.3954L10.5698 73.1053C10.6242 73.1351 10.6766 73.1684 10.7268 73.205C10.814 73.287 10.907 73.3573 10.9884 73.4452C11.0703 73.527 11.148 73.6131 11.2209 73.7031L11.2558 73.7441L11.3198 73.8321C11.4593 74.0313 11.5872 74.2423 11.7151 74.4533C12.2442 75.3558 12.7268 76.2935 13.2907 77.1726C13.6683 77.8077 14.1855 78.3471 14.8023 78.7491C15.0587 78.9225 15.3583 79.0195 15.6669 79.0288C15.9754 79.0382 16.2804 78.9595 16.5465 78.8019C16.9174 78.5429 17.1965 78.1712 17.343 77.7411C17.4759 77.3229 17.5369 76.8848 17.5233 76.4459C17.5233 76.3873 17.5233 76.3228 17.5233 76.2584C18.9466 78.0552 20.5202 79.7258 22.2268 81.2516C24.9968 83.7593 28.0789 85.8929 31.3954 87.5987C34.6634 89.2471 38.1166 90.4926 41.6802 91.3085H41.7151H41.8256L42.8721 91.537C47.0805 92.384 51.3765 92.7049 55.6628 92.4923L56.6221 92.4337L54 95.9501L53.9477 96.0263L53.8605 96.1376C53.7849 96.2582 53.7372 96.3944 53.7209 96.5361C53.6832 96.7 53.6832 96.8704 53.7209 97.0343C53.8062 97.3262 53.9971 97.5751 54.2558 97.7317C54.3886 97.8079 54.5351 97.8569 54.6867 97.8761C54.8383 97.8952 54.9922 97.8839 55.1395 97.8431C58.5116 97.0753 62.2907 96.4189 64.6337 93.5882C65.2914 92.7899 65.805 91.8814 66.1512 90.9041C66.8779 90.6931 67.6047 90.4704 68.314 90.1949C68.5291 90.1129 68.7384 90.0133 68.9535 89.9254C68.88 90.8584 69.009 91.7963 69.3314 92.674C69.5068 93.149 69.7475 93.5969 70.0465 94.0043C70.224 94.2391 70.4184 94.4604 70.6279 94.6666C70.7093 94.7545 70.7965 94.8307 70.8721 94.9186L70.8314 94.8541C70.8314 94.901 70.9012 94.9421 70.9302 94.9889C71.0343 95.1616 71.1294 95.3396 71.2151 95.5223C71.0291 95.153 71.2151 95.4929 71.2151 95.5984C71.2151 95.7039 71.2791 95.8036 71.3082 95.9091C71.4092 96.3204 71.4868 96.7371 71.5407 97.1574C71.5656 97.9614 71.8424 98.7369 72.3314 99.3727C73.064 100.146 74.1919 100.035 75.0756 99.6306C76.5291 98.9742 77.3023 97.2863 77.7558 95.8387C78.3255 93.8673 78.594 91.82 78.5523 89.7671C78.5466 88.1822 78.4124 86.6005 78.1512 85.0376C81.7763 82.5102 85.0783 79.5419 87.9826 76.1997C90.5833 73.3307 92.727 70.0726 94.3372 66.5414C95.0125 65.055 95.4614 63.4744 95.6686 61.8529C95.6948 61.7536 95.7066 61.6509 95.7035 61.5482C95.7153 61.4587 95.7153 61.368 95.7035 61.2786C95.6605 60.5778 95.3792 59.9134 94.907 59.3973ZM15.064 75.7485C14.5698 74.9163 14.1047 74.0665 13.6105 73.2401C13.5175 73.0819 13.4186 72.9354 13.3198 72.7889C13.4477 72.7889 13.5698 72.7889 13.6977 72.824H13.7675H13.8547C14.1915 72.8789 14.5253 72.9512 14.8547 73.0409V73.1815C14.8895 73.4746 14.9302 73.7676 14.9709 74.0489V74.1544C14.9709 74.2775 15.0058 74.3947 15.0175 74.5177C15.0756 74.9866 15.1279 75.4554 15.1512 75.9302L15.064 75.7485ZM13.6337 72.8182C13.6781 72.8124 13.7231 72.8124 13.7675 72.8182H13.6337ZM63.1861 91.748L63.0872 91.8828C62.8219 92.2166 62.5281 92.5265 62.2093 92.8088C62.1318 92.8817 62.0503 92.9502 61.9651 93.0139C61.7791 93.1546 61.593 93.2835 61.3837 93.4066C61.0251 93.6233 60.6543 93.819 60.2733 93.9926L60.0407 94.104L59.9186 94.1567L59.843 94.1919L59.9012 94.1626L59.3198 94.3853C58.7384 94.5846 58.157 94.7486 57.6105 94.901L59.6512 92.1465C60.4767 92.0469 61.3023 91.9355 62.1221 91.8008L63.25 91.5956C63.2235 91.642 63.2021 91.6911 63.1861 91.7421V91.748ZM68.7907 87.5518L68.4302 87.71L68.3547 87.7452L68.2442 87.7921L67.5058 88.0792C67.0116 88.2609 66.5116 88.4309 66.0058 88.5833C65.0116 88.8856 64.0025 89.136 62.9826 89.3334C62.4768 89.4331 61.9768 89.5268 61.4709 89.6089L60.6861 89.7319L60.3488 89.7788H60.2791H60.1221L58.9942 89.9078H58.8779C58.343 89.9664 57.8081 90.0133 57.2733 90.0543L57.3837 89.984C57.9161 89.6366 58.3522 89.1587 58.6512 88.595C58.9863 87.9154 59.0427 87.1301 58.8081 86.409C58.0407 84.2054 55.5233 83.4787 53.4477 83.3146H53.2384H53.1105C52.9244 83.3146 52.7384 83.2559 52.5291 83.2266C52.1686 83.1563 51.814 83.0801 51.4651 82.9864C50.8217 82.8216 50.1903 82.6121 49.5756 82.3593L49.3779 82.2714L48.9709 82.0721C48.7209 81.9432 48.4709 81.8025 48.2326 81.656C47.9942 81.5095 47.8081 81.3747 47.6105 81.2282L47.5116 81.1461C47.4164 81.0688 47.3252 80.9867 47.2384 80.9C47.0885 80.7617 46.9486 80.6129 46.8198 80.4546V80.4135C46.7674 80.3315 46.7151 80.2553 46.6686 80.1733L46.5814 80.0033V79.9564C46.5814 79.8978 46.5814 79.8451 46.5407 79.7865V79.7044L46.593 79.6165V79.5872L46.6802 79.5051L46.7849 79.4407C46.8715 79.3838 46.9629 79.3347 47.0582 79.2942H47.1105L47.4768 79.177C47.7352 79.1077 47.9972 79.0529 48.2616 79.0129H48.4651L48.9709 78.9718C49.343 78.9718 49.7209 78.9718 50.093 78.9718C51.6802 78.9718 53.2616 78.8956 54.843 78.9308C55.2326 78.9308 55.6221 78.9308 56.0058 78.9835L56.5465 79.0304L56.7965 79.0597H56.9768C57.7136 79.1639 58.4382 79.3425 59.1395 79.5931L59.3721 79.681C59.3892 79.686 59.4073 79.686 59.4244 79.681C59.5814 79.7572 59.7326 79.8275 59.8837 79.9095C60.2285 80.0907 60.559 80.2984 60.8721 80.5308H60.9244L61.1802 80.7417C61.3372 80.8765 61.4884 81.0172 61.6395 81.1578C61.9067 81.4144 62.1609 81.6843 62.4012 81.9666L62.7093 82.3417L62.7442 82.3886L62.8895 82.5761L63.4709 83.3966C63.9618 84.0794 64.4938 84.7312 65.064 85.3482C66.1185 86.4312 67.4788 87.1598 68.9593 87.4346C68.9008 87.4681 68.8445 87.5053 68.7907 87.5459V87.5518ZM56.1337 86.5438L56.0465 86.4793C56.0465 86.4793 56.0872 86.5027 56.1337 86.5379V86.5438ZM46.5116 79.763C46.5088 79.7475 46.5088 79.7316 46.5116 79.7161C46.5116 79.7161 46.5116 79.7454 46.5116 79.763ZM73.9942 97.8372V97.8079C73.9942 97.8372 74.0349 97.8724 74.0581 97.9193C74.0405 97.8892 74.019 97.8616 73.9942 97.8372ZM74.6454 97.0753C74.7151 96.9874 74.7791 96.8819 74.6454 97.0753V97.0753ZM76.1744 91.496C76.1744 91.7421 76.1395 91.9942 76.1163 92.2403C76.1163 92.3692 76.1163 92.4982 76.0756 92.633C76.0728 92.6876 76.0728 92.7424 76.0756 92.7971C75.9606 93.69 75.766 94.5707 75.4942 95.4285C75.4361 95.6102 75.3721 95.786 75.3023 95.9618L75.3372 95.8798L75.2907 95.9852C75.2907 96.0497 75.2209 96.1493 75.2907 96.0497L75.1861 96.2783C75.0413 96.5585 74.8782 96.8287 74.6977 97.087L74.6628 97.1339L74.5291 97.2804C74.4777 97.3342 74.4233 97.3851 74.3663 97.4328C74.2767 97.495 74.1835 97.5518 74.0872 97.6028L73.9942 97.6379C73.8023 96.9171 73.7849 96.1611 73.6047 95.4402C73.4897 94.9522 73.3077 94.4827 73.064 94.0454C72.7801 93.6229 72.4548 93.2302 72.093 92.8732C72.0233 92.7971 71.843 92.5216 72.0582 92.8732C72 92.7853 71.9302 92.6974 71.8721 92.6037C71.8201 92.527 71.7734 92.4467 71.7326 92.3634C71.6563 92.2605 71.5974 92.1456 71.5582 92.0235C71.5582 92.0235 71.6744 92.3165 71.6105 92.1465L71.5523 91.9883C71.5174 91.8828 71.4826 91.7773 71.4535 91.6718L71.3837 91.3964C71.3837 91.3319 71.3488 91.1385 71.3372 91.0858C71.3081 90.6741 71.3081 90.2608 71.3372 89.8492L71.3721 89.4917C71.3721 89.4389 71.3721 89.3745 71.3721 89.3217C71.4128 89.0287 71.4709 88.7356 71.5349 88.4543C71.6686 87.8683 71.843 87.2822 72.0291 86.6961C72.0662 86.5769 72.08 86.4515 72.0698 86.3269C72.0725 86.3154 72.0725 86.3033 72.0698 86.2918C72.0758 86.247 72.0758 86.2017 72.0698 86.157C72.0698 86.157 72.0698 86.1042 72.0698 86.0808C72.0698 86.0456 72.0698 86.0104 72.0233 85.9694C72.0121 85.939 71.9985 85.9096 71.9826 85.8815C71.9673 85.851 71.9498 85.8216 71.9302 85.7936L71.8488 85.6705L71.814 85.6295L71.6977 85.5182C71.6574 85.4855 71.6146 85.4561 71.5698 85.4302C71.4854 85.3769 71.3932 85.3374 71.2965 85.313C71.1311 85.2838 70.9619 85.2838 70.7965 85.313H70.6861C71.0349 85.2603 70.7151 85.313 70.6279 85.313H70.3314C70.2307 85.319 70.1298 85.319 70.0291 85.313H69.8837H69.814C69.9942 85.313 69.814 85.313 69.7791 85.313L69.6337 85.2837C69.5337 85.2659 69.4347 85.2424 69.3372 85.2134C69.1404 85.1607 68.9464 85.0981 68.7558 85.0259L68.6802 84.9966H68.6221C68.5465 84.9966 68.564 84.9614 68.6221 84.9966L68.4477 84.9262C68.2674 84.8383 68.0872 84.7387 67.9128 84.6332C67.7384 84.5277 67.5988 84.4339 67.4535 84.3284L67.2151 84.1233C66.9163 83.8358 66.6348 83.5305 66.3721 83.2091C66.2558 83.0743 66.1454 82.9336 66.0291 82.7871L65.9651 82.705L65.8023 82.4882C65.3488 81.8728 64.9128 81.2457 64.4302 80.6538C63.3166 79.2833 61.882 78.2138 60.2558 77.5418C58.6571 76.8961 56.9547 76.5505 55.2326 76.5221C53.6047 76.4635 51.9709 76.5631 50.3372 76.5572C48.9798 76.4612 47.6169 76.6344 46.3256 77.0671C45.8309 77.22 45.3831 77.4979 45.0249 77.8744C44.6668 78.2508 44.41 78.7133 44.2791 79.218C44.2138 79.7413 44.2661 80.2726 44.4322 80.7728C44.5982 81.2729 44.8738 81.729 45.2384 82.1073C45.9878 82.9516 46.8997 83.6335 47.9186 84.1116C49.2346 84.7705 50.6389 85.2325 52.0872 85.483C52.5407 85.565 53 85.6295 53.4593 85.6764L53.7093 85.7057H53.8488H54.0175C54.2558 85.7467 54.4884 85.7995 54.7209 85.8639C54.9179 85.9113 55.112 85.97 55.3023 86.0397C55.3954 86.0749 55.7035 86.239 55.3663 86.0397C55.4535 86.0866 55.5465 86.1218 55.6279 86.1687C55.7842 86.2439 55.9339 86.3321 56.0756 86.4324L56.1744 86.4969L56.2907 86.6024L56.4186 86.7372V86.7665C56.4186 86.7665 56.4186 86.7313 56.3837 86.7079L56.4302 86.7782C56.4578 86.8091 56.4795 86.8449 56.4942 86.8837L56.593 87.0419C56.593 87.0419 56.593 87.1005 56.593 87.1298C56.593 87.1591 56.593 87.1298 56.593 87.1709C56.5958 87.2138 56.5958 87.2569 56.593 87.2998V87.2412V87.3467C56.5905 87.3602 56.5905 87.3741 56.593 87.3877C56.5899 87.3782 56.5899 87.3679 56.593 87.3584C56.593 87.3584 56.593 87.3936 56.593 87.417C56.5941 87.4326 56.5941 87.4483 56.593 87.4639V87.5049C56.593 87.5049 56.593 87.5518 56.593 87.5811C56.593 87.6104 56.593 87.5342 56.593 87.5108L56.5581 87.5752L56.5058 87.6514C56.4421 87.7294 56.3721 87.8019 56.2965 87.8683C56.2683 87.8987 56.2371 87.9262 56.2035 87.9503C55.9994 88.0957 55.7857 88.2268 55.564 88.343L55.1977 88.5188L54.9535 88.6126C54.2943 88.8488 53.6178 89.033 52.9302 89.1635C52.5581 89.2397 52.1861 89.3041 51.8081 89.3569H51.7384H51.4535L50.8081 89.4213C49.9361 89.4975 49.064 89.5327 48.1744 89.5327C47.1512 89.5327 46.1337 89.4799 45.1163 89.3862C44.8605 89.3627 44.6047 89.3334 44.3488 89.2983L44 89.2572C44.3954 89.2983 43.907 89.2572 43.8198 89.2279C43.3605 89.1576 42.9012 89.0756 42.4477 88.9818C41.2326 88.7063 40.0291 88.3957 38.843 88.0206C37.8624 87.712 36.8934 87.3701 35.9361 86.995L35.3547 86.7606L35.0407 86.6317L34.9593 86.5965C34.5465 86.4148 34.1395 86.2332 33.7326 86.0397C32.1122 85.2813 30.5412 84.42 29.0291 83.4611C28.2791 82.9805 27.5407 82.4823 26.8198 81.9549L26.3081 81.5798L26.0407 81.3747C25.9709 81.3219 25.6686 81.0992 25.9012 81.2692C25.5523 81.0113 25.2151 80.7242 24.8779 80.4428C23.4842 79.3226 22.1654 78.1107 20.9302 76.8151C20.3256 76.1548 19.7442 75.4711 19.1861 74.7639L18.9768 74.5002L18.8721 74.3595C18.7907 74.2599 18.9186 74.424 18.9186 74.4298C18.7527 74.2509 18.6065 74.0544 18.4826 73.8438C18.2209 73.4863 17.9651 73.1229 17.7209 72.7596C17.4768 72.3962 17.2093 71.9977 16.9651 71.5874C16.9004 71.4888 16.8221 71.4 16.7326 71.3237C16.7105 71.3027 16.6872 71.2832 16.6628 71.2651C16.5539 71.1812 16.4322 71.1159 16.3023 71.0717C14.3371 70.3998 12.2293 70.2703 10.1977 70.6966C9.37506 70.8819 8.56677 71.1267 7.77908 71.4292C7.30815 71.605 6.84885 71.8101 6.37792 72.0153C6.14969 72.1076 5.91681 72.1878 5.68024 72.2555C5.55234 72.2907 5.42443 72.3141 5.29652 72.3376H5.23257C5.13373 72.3376 5.15117 72.3376 5.19187 72.3376H5.01164C4.39338 72.3767 3.77295 72.3629 3.15699 72.2966C3.19187 72.2555 3.22094 72.2087 3.26164 72.1676C3.30815 72.109 3.35466 72.0446 3.40699 71.986L3.65117 71.6871C3.86629 71.4292 4.08722 71.1772 4.31396 70.9369C4.54071 70.6966 4.70931 70.5384 4.89536 70.3508C5.00582 70.2453 5.1221 70.1457 5.23838 70.0519L5.29652 70.0051L5.2442 70.0461C5.2442 69.9992 5.38373 69.9406 5.42443 69.9113C5.67355 69.7308 5.93376 69.5663 6.2035 69.419C6.31396 69.3545 6.43024 69.2959 6.54652 69.2373L6.76164 69.1377L6.82559 69.1084C7.40192 68.886 8.00033 68.7268 8.61048 68.6337C8.66664 68.6308 8.72291 68.6308 8.77908 68.6337L9.30234 68.5692C9.61411 68.5516 9.92661 68.5516 10.2384 68.5692C10.3954 68.5692 10.5465 68.5692 10.7035 68.6102L10.9244 68.6454C11.2209 68.6981 11.5058 68.7685 11.7965 68.8447C12.3105 68.9774 12.817 69.1378 13.314 69.3252L13.6802 69.4659L13.8547 69.5362H13.8954C14.1744 69.6593 14.4768 69.7882 14.7209 69.923C15.3779 70.2395 16.0175 70.5853 16.6628 70.931C20.4942 73.0877 24.3605 75.4086 28.593 76.6862C30.5072 77.2662 32.4901 77.5836 34.4884 77.6297C36.2806 77.6346 38.0649 77.3901 39.7907 76.903C43.6905 75.8034 47.4299 74.1915 50.9128 72.109C52.4854 71.2284 54.0019 70.2498 55.4535 69.1787C56.7384 68.2 56.5698 66.7055 55.9826 65.3693C55.2678 63.9529 54.3832 62.6302 53.3488 61.4309C52.814 60.7453 52.2675 60.0713 51.7268 59.3973C51.5349 59.1629 51.343 58.9226 51.1454 58.6823H51.2384C51.9162 58.8489 52.5824 59.0603 53.2326 59.3153L53.5175 59.4325H53.5523L54.1977 59.7255C54.6105 59.9306 55.0233 60.1416 55.4244 60.3702C56.3728 60.9134 57.2837 61.5204 58.1512 62.187C58.5523 62.4859 59.0814 62.9313 59.5233 63.3181C60.0033 63.7982 60.512 64.2484 61.0465 64.666C61.9835 65.2561 63.0853 65.5235 64.1861 65.4279C64.7541 65.4079 65.304 65.2204 65.7674 64.8887C66.1919 64.5781 66.5988 64.2499 67.0174 63.9334C68.4268 62.8369 69.9004 61.8271 71.4302 60.9094C72.3716 60.346 73.3419 59.8334 74.3372 59.3739L74.7384 59.198H74.7791L74.9244 59.1394C75.2209 59.0164 75.5058 58.905 75.8082 58.7937C76.3488 58.6003 76.8895 58.4186 77.4419 58.2662C78.4998 57.9734 79.5893 57.812 80.6861 57.7856C81.2675 57.7856 81.8488 57.7856 82.4768 57.7856C82.7558 57.7856 83.0291 57.8208 83.3081 57.8442L83.75 57.8911H83.9419H83.9942H84.0756C85.1942 58.057 86.297 58.3178 87.3721 58.6706C87.6105 58.7468 87.8547 58.8347 88.093 58.9226L88.4651 59.0691L88.5872 59.116L88.657 59.1512C89.1802 59.3914 89.6919 59.6552 90.2151 59.8779C91.0464 60.2184 91.8944 60.5157 92.7558 60.7687H92.8372L92.3779 60.9797C91.6016 61.3515 90.8483 61.7703 90.1221 62.2339C88.3385 63.3418 86.6486 64.5964 85.0698 65.9847C84.657 66.348 84.2616 66.7231 83.907 67.1216L83.6861 66.981C82.7613 66.4325 81.6706 66.2409 80.6163 66.4418C79.4578 66.7425 78.4337 67.4279 77.7093 68.3875C77.0679 69.1403 76.5355 69.9809 76.1279 70.8841C74.6221 74.2716 74.5698 78.122 75.1105 81.738C75.1977 82.3241 75.3082 82.9102 75.4419 83.4962C75.5756 84.0823 75.6802 84.5277 75.7733 85.0493C75.8198 85.3189 75.8663 85.5885 75.907 85.8581C75.907 85.9929 75.907 86.1277 75.9651 86.2625C75.9651 86.3386 75.9651 86.409 75.9651 86.4852C76.0941 87.5958 76.1562 88.7133 76.1512 89.8316C76.2268 90.4294 76.2093 90.9627 76.1628 91.496H76.1744ZM92.4419 65.2228C92.4419 65.2872 92.3895 65.3517 92.3605 65.4103C92.3474 65.4465 92.3319 65.4818 92.314 65.5158C92.2326 65.7034 92.1512 65.8909 92.064 66.1019C91.8895 66.477 91.7035 66.852 91.4826 67.2154C91.0678 67.9968 90.6221 68.7685 90.1454 69.5303C89.6337 70.3508 89.0872 71.142 88.5175 71.9215L88.1163 72.4548L87.9942 72.6189L87.7384 72.9412C87.4244 73.3398 87.1047 73.7324 86.7791 74.1134C85.3622 75.7907 83.8417 77.3762 82.2268 78.8605C81.2907 79.7278 80.3198 80.5601 79.3198 81.3571L78.9128 81.6794L78.6977 81.8494L77.9477 82.4355L77.6221 82.664C77.5174 82.1893 77.4302 81.7146 77.3605 81.234C77.3605 81.1637 77.3605 81.0934 77.3605 81.023V80.9937L77.2907 80.4077C77.25 80.0033 77.2209 79.5931 77.1977 79.1887C77.1483 78.3142 77.1483 77.4376 77.1977 76.5631C77.1977 76.3521 77.2268 76.1353 77.25 75.9243L77.2849 75.602C77.2878 75.5669 77.2878 75.5316 77.2849 75.4965C77.3488 75.0452 77.4361 74.5939 77.5407 74.1544C77.6428 73.7102 77.769 73.2719 77.9186 72.8416C77.9884 72.6365 78.0756 72.4372 78.1512 72.2555C78.0058 72.6423 78.1512 72.2555 78.1977 72.15L78.3488 71.8336C78.5617 71.4102 78.8046 71.0028 79.0756 70.6146L79.25 70.3743C79.0233 70.7025 79.25 70.3743 79.3256 70.2805C79.4845 70.1008 79.6473 69.925 79.814 69.753C79.8837 69.6769 79.9535 69.6065 80.0291 69.5362L80.1802 69.4014L80.25 69.3428C80.3488 69.2608 80.3314 69.2725 80.2093 69.3428C80.3019 69.2542 80.4079 69.181 80.5233 69.126L80.7151 69.0205H80.7791C80.8663 69.0205 80.9709 68.9501 81.0582 68.9267L81.2093 68.8915H81.2384C81.2789 68.8863 81.3199 68.8863 81.3605 68.8915H81.6628H81.5872H81.6628C81.7558 68.8915 81.8605 68.9326 81.7326 68.8915C81.8723 68.9177 82.0102 68.9529 82.1454 68.997L82.2326 69.0263L82.4477 69.1377C82.5814 69.2139 82.7151 69.2959 82.843 69.3838C82.8082 69.3838 82.8721 69.3838 82.9302 69.4424C82.9606 69.471 82.9937 69.4966 83.0291 69.5186L82.9477 69.46C83.0423 69.5359 83.1316 69.6181 83.2151 69.7062C83.3389 69.8332 83.4913 69.9284 83.6593 69.9834C83.8273 70.0385 84.006 70.052 84.1802 70.0226C84.3518 69.9975 84.516 69.9352 84.6615 69.8401C84.807 69.745 84.9304 69.6194 85.0233 69.4717C85.0233 69.5069 84.8198 69.7296 84.9361 69.5889L85.0058 69.4952L85.1744 69.2959C85.2965 69.1553 85.4244 69.0146 85.5582 68.8798C85.843 68.5868 86.1395 68.2937 86.4419 68.0242C86.7442 67.7546 87.1454 67.4381 87.5058 67.1099C87.6919 66.9575 87.8779 66.8051 88.0872 66.6586L88.1861 66.5824L88.4942 66.348C89.9097 65.2539 91.4152 64.2834 92.9942 63.447C92.8394 64.0478 92.6551 64.6405 92.4419 65.2228Z" fill="white"/>
<path id="Vector_2" d="M51.3198 38.6801C51.1748 38.6818 51.0311 38.6538 50.8972 38.5977C50.7633 38.5417 50.6421 38.4588 50.541 38.3542C50.4398 38.2495 50.3609 38.1252 50.3089 37.9888C50.2568 37.8524 50.2329 37.7067 50.2384 37.5607V34.8707C50.2458 34.7456 50.2271 34.6203 50.1835 34.5028C50.1399 34.3854 50.0724 34.2786 49.9853 34.1891C49.8982 34.0996 49.7934 34.0296 49.6778 33.9834C49.5622 33.9373 49.4382 33.9161 49.314 33.9213C49.1907 33.9168 49.0678 33.9386 48.9535 33.9852C48.8391 34.0318 48.7357 34.1022 48.6501 34.1918C48.5646 34.2814 48.4987 34.3882 48.4568 34.5051C48.4149 34.6221 48.3979 34.7467 48.407 34.8707V37.5373C48.407 37.8264 48.2931 38.1037 48.0903 38.3081C47.8875 38.5125 47.6124 38.6274 47.3256 38.6274C47.0388 38.6274 46.7637 38.5125 46.5609 38.3081C46.3581 38.1037 46.2442 37.8264 46.2442 37.5373V29.8423C46.2442 29.5532 46.3581 29.2759 46.5609 29.0715C46.7637 28.867 47.0388 28.7522 47.3256 28.7522C47.6124 28.7522 47.8875 28.867 48.0903 29.0715C48.2931 29.2759 48.407 29.5532 48.407 29.8423V32.5323C48.8642 32.1417 49.4474 31.9332 50.0465 31.9462C51.4593 31.9462 52.3721 32.9953 52.3721 34.5601V37.549C52.3791 37.6935 52.3573 37.838 52.3078 37.9738C52.2582 38.1096 52.1821 38.234 52.0839 38.3395C51.9857 38.4451 51.8675 38.5296 51.7362 38.5881C51.6049 38.6466 51.4633 38.6779 51.3198 38.6801Z" fill="white"/>
<path id="Vector_3" d="M37.7907 27.6852C37.6458 27.6877 37.5019 27.6604 37.3677 27.6051C37.2336 27.5498 37.112 27.4676 37.0103 27.3635C36.9086 27.2593 36.829 27.1354 36.7763 26.9993C36.7235 26.8632 36.6988 26.7178 36.7035 26.5717V20.0254C36.6926 19.8751 36.7125 19.7242 36.7621 19.5821C36.8116 19.4399 36.8897 19.3096 36.9915 19.1992C37.0932 19.0888 37.2165 19.0008 37.3535 18.9406C37.4905 18.8804 37.6384 18.8494 37.7878 18.8494C37.9373 18.8494 38.0852 18.8804 38.2222 18.9406C38.3592 19.0008 38.4824 19.0888 38.5842 19.1992C38.686 19.3096 38.764 19.4399 38.8136 19.5821C38.8631 19.7242 38.8831 19.8751 38.8721 20.0254V26.5717C38.8769 26.7173 38.8523 26.8622 38.7999 26.998C38.7475 27.1337 38.6684 27.2573 38.5674 27.3613C38.4663 27.4654 38.3454 27.5477 38.2119 27.6034C38.0785 27.6591 37.9352 27.6869 37.7907 27.6852Z" fill="white"/>
<path id="Vector_4" d="M28.9012 41.0243H26.7442C26.5978 41.0202 26.4521 41.0465 26.3162 41.1014C26.1802 41.1563 26.0569 41.2389 25.9539 41.3438C25.8509 41.4487 25.7704 41.5739 25.7173 41.7115C25.6642 41.8491 25.6397 41.9962 25.6454 42.1437V48.5318C25.6344 48.6821 25.6544 48.833 25.7039 48.9752C25.7535 49.1173 25.8315 49.2476 25.9333 49.358C26.0351 49.4684 26.1583 49.5564 26.2953 49.6166C26.4323 49.6768 26.5802 49.7079 26.7297 49.7079C26.8791 49.7079 27.027 49.6768 27.164 49.6166C27.301 49.5564 27.4243 49.4684 27.526 49.358C27.6278 49.2476 27.7059 49.1173 27.7554 48.9752C27.805 48.833 27.8249 48.6821 27.814 48.5318V46.844H28.907C30.7849 46.844 32.1221 45.6191 32.1221 43.9136C32.1221 42.2082 30.814 41.0243 28.9012 41.0243ZM28.9012 44.9393H27.8082V42.9291H28.9186C29.0544 42.9185 29.1909 42.9364 29.3195 42.9816C29.4481 43.0267 29.566 43.0982 29.6659 43.1914C29.7659 43.2847 29.8456 43.3978 29.9001 43.5236C29.9546 43.6494 29.9827 43.7852 29.9827 43.9224C29.9827 44.0597 29.9546 44.1955 29.9001 44.3213C29.8456 44.4471 29.7659 44.5602 29.6659 44.6534C29.566 44.7467 29.4481 44.8182 29.3195 44.8633C29.1909 44.9085 29.0544 44.9263 28.9186 44.9158L28.9012 44.9393Z" fill="white"/>
<path id="Vector_5" d="M47.5116 22.0769V26.572C47.5226 26.7223 47.5026 26.8732 47.4531 27.0154C47.4035 27.1575 47.3255 27.2879 47.2237 27.3982C47.1219 27.5086 46.9987 27.5966 46.8617 27.6568C46.7247 27.717 46.5768 27.7481 46.4273 27.7481C46.2779 27.7481 46.13 27.717 45.993 27.6568C45.856 27.5966 45.7327 27.5086 45.631 27.3982C45.5292 27.2879 45.4511 27.1575 45.4016 27.0154C45.352 26.8732 45.3321 26.7223 45.343 26.572V22.0769C45.3366 21.931 45.36 21.7852 45.4118 21.6488C45.4636 21.5123 45.5426 21.388 45.644 21.2836C45.7454 21.1792 45.867 21.0969 46.0012 21.0418C46.1355 20.9868 46.2795 20.9601 46.4244 20.9634C46.5693 20.961 46.7133 20.9882 46.8474 21.0435C46.9816 21.0988 47.1032 21.1811 47.2049 21.2852C47.3065 21.3893 47.3862 21.5132 47.4389 21.6493C47.4916 21.7854 47.5164 21.9309 47.5116 22.0769Z" fill="white"/>
<path id="Vector_6" d="M36.1454 42.8997C35.4899 42.9193 34.8546 43.1331 34.319 43.5145C33.7834 43.8958 33.371 44.4278 33.1335 45.0439C32.896 45.6601 32.8439 46.3331 32.9836 46.979C33.1233 47.6248 33.4487 48.2149 33.9191 48.6754C34.3895 49.136 34.9841 49.4466 35.6286 49.5686C36.2731 49.6905 36.939 49.6183 37.5431 49.361C38.1471 49.1037 38.6626 48.6728 39.0251 48.1219C39.3876 47.5711 39.5811 46.9248 39.5814 46.2638C39.5808 45.8137 39.4908 45.3683 39.3166 44.9539C39.1425 44.5395 38.8878 44.1645 38.5675 43.8509C38.2472 43.5374 37.8679 43.2917 37.4519 43.1283C37.0359 42.9649 36.5916 42.8872 36.1454 42.8997ZM36.1454 47.5883C35.8152 47.557 35.5085 47.4028 35.2852 47.1556C35.062 46.9085 34.9382 46.5863 34.9382 46.252C34.9382 45.9178 35.062 45.5955 35.2852 45.3484C35.5085 45.1013 35.8152 44.947 36.1454 44.9158C36.4755 44.947 36.7822 45.1013 37.0055 45.3484C37.2287 45.5955 37.3525 45.9178 37.3525 46.252C37.3525 46.5863 37.2287 46.9085 37.0055 47.1556C36.7822 47.4028 36.4755 47.557 36.1454 47.5883Z" fill="white"/>
<path id="Vector_7" d="M47.7094 18.8416C47.7175 19.1002 47.6489 19.3554 47.5123 19.5746C47.3758 19.7937 47.1775 19.9669 46.9428 20.0718C46.7081 20.1768 46.4478 20.2088 46.1949 20.1638C45.9421 20.1188 45.7083 19.9988 45.5235 19.8192C45.3387 19.6396 45.2112 19.4085 45.1574 19.1554C45.1035 18.9024 45.1258 18.6389 45.2212 18.3987C45.3167 18.1585 45.4811 17.9524 45.6934 17.8068C45.9057 17.6613 46.1562 17.5828 46.4129 17.5815C46.5801 17.5784 46.7463 17.6085 46.902 17.6702C47.0576 17.7318 47.1997 17.8238 47.3201 17.9408C47.4405 18.0578 47.5369 18.1976 47.6037 18.3521C47.6705 18.5067 47.7064 18.673 47.7094 18.8416Z" fill="white"/>
<path id="Vector_8" d="M46.0814 39.6939C45.9365 39.6905 45.7925 39.7172 45.6582 39.7723C45.524 39.8274 45.4024 39.9097 45.301 40.0141C45.1996 40.1185 45.1206 40.2428 45.0688 40.3792C45.017 40.5157 44.9936 40.6614 45 40.8074V43.4916C44.7823 43.2912 44.5274 43.1362 44.25 43.0356C43.9726 42.935 43.6782 42.8908 43.3837 42.9055C41.6395 42.9055 40.3605 44.3179 40.3605 46.2812C40.3605 48.2446 41.6221 49.6335 43.3837 49.6335C43.7104 49.6516 44.0369 49.595 44.3389 49.4682C44.6409 49.3414 44.9106 49.1475 45.1279 48.9009C45.1931 49.1148 45.3251 49.3017 45.5043 49.4337C45.6835 49.5657 45.9002 49.6358 46.1221 49.6335C46.264 49.6337 46.4045 49.6048 46.535 49.5485C46.6656 49.4922 46.7833 49.4098 46.8812 49.3061C46.9791 49.2025 47.0551 49.0799 47.1045 48.9458C47.1539 48.8116 47.1757 48.6688 47.1686 48.5259V40.8074C47.1734 40.6614 47.1486 40.5159 47.0959 40.3798C47.0432 40.2437 46.9635 40.1198 46.8619 40.0157C46.7602 39.9115 46.6386 39.8293 46.5044 39.774C46.3702 39.7187 46.2263 39.6914 46.0814 39.6939ZM43.814 47.6233C43.6418 47.6241 43.4715 47.5885 43.3138 47.5189C43.1561 47.4493 43.0147 47.3471 42.8986 47.219C42.7825 47.0909 42.6943 46.9397 42.6396 46.7752C42.585 46.6106 42.5652 46.4364 42.5814 46.2637C42.5647 46.0912 42.584 45.917 42.6381 45.7525C42.6922 45.588 42.7798 45.4366 42.8953 45.3083C43.0108 45.1799 43.1517 45.0773 43.309 45.0071C43.4662 44.9369 43.6362 44.9007 43.8081 44.9007C43.9801 44.9007 44.1501 44.9369 44.3073 45.0071C44.4646 45.0773 44.6055 45.1799 44.721 45.3083C44.8365 45.4366 44.9241 45.588 44.9782 45.7525C45.0323 45.917 45.0516 46.0912 45.0349 46.2637C45.0538 46.436 45.0363 46.6103 44.9834 46.7753C44.9305 46.9402 44.8434 47.092 44.728 47.2205C44.6126 47.349 44.4715 47.4514 44.3139 47.5208C44.1563 47.5903 43.9859 47.6252 43.814 47.6233Z" fill="white"/>
<path id="Vector_9" d="M54.6512 18.8711V26.572C54.6621 26.7222 54.6422 26.8732 54.5926 27.0153C54.5431 27.1575 54.465 27.2878 54.3633 27.3982C54.2615 27.5085 54.1383 27.5965 54.0012 27.6567C53.8642 27.7169 53.7164 27.748 53.5669 27.748C53.4174 27.748 53.2696 27.7169 53.1325 27.6567C52.9955 27.5965 52.8723 27.5085 52.7705 27.3982C52.6688 27.2878 52.5907 27.1575 52.5411 27.0153C52.4916 26.8732 52.4717 26.7222 52.4826 26.572V18.8711C52.4717 18.7208 52.4916 18.5699 52.5411 18.4278C52.5907 18.2856 52.6688 18.1553 52.7705 18.0449C52.8723 17.9346 52.9955 17.8465 53.1325 17.7863C53.2696 17.7261 53.4174 17.6951 53.5669 17.6951C53.7164 17.6951 53.8642 17.7261 54.0012 17.7863C54.1383 17.8465 54.2615 17.9346 54.3633 18.0449C54.465 18.1553 54.5431 18.2856 54.5926 18.4278C54.6422 18.5699 54.6621 18.7208 54.6512 18.8711Z" fill="white"/>
<path id="Vector_10" d="M36.6861 34.7943L38.0698 30.6919C38.133 30.4538 38.2724 30.2435 38.4664 30.0934C38.6603 29.9434 38.898 29.8621 39.1424 29.8621C39.3869 29.8621 39.6246 29.9434 39.8185 30.0934C40.0125 30.2435 40.1519 30.4538 40.2151 30.6919L41.5988 34.7943L43.0988 30.6099C43.1675 30.3968 43.3023 30.2116 43.4835 30.0818C43.6646 29.9519 43.8824 29.8843 44.1047 29.889C44.39 29.889 44.6639 30.002 44.8673 30.2037C45.0707 30.4055 45.1873 30.6797 45.1919 30.9674C45.1875 31.1397 45.1479 31.3093 45.0756 31.4655L42.6221 37.9122C42.5625 38.1355 42.4306 38.3324 42.2473 38.4715C42.064 38.6106 41.8399 38.684 41.6105 38.6799C41.3866 38.6834 41.1678 38.6124 40.9881 38.4778C40.8084 38.3433 40.6777 38.1527 40.6163 37.9356L39.1454 33.8684L37.6686 37.9356C37.6072 38.1527 37.4765 38.3433 37.2968 38.4778C37.1171 38.6124 36.8983 38.6834 36.6744 38.6799C36.4481 38.6854 36.2262 38.6154 36.0434 38.4808C35.8605 38.3462 35.7267 38.1546 35.6628 37.9356L33.2093 31.4889C33.1346 31.3336 33.0949 31.1635 33.093 30.9908C33.0923 30.8464 33.1198 30.7032 33.1741 30.5696C33.2284 30.436 33.3084 30.3144 33.4094 30.2121C33.5104 30.1097 33.6306 30.0284 33.7628 29.973C33.8951 29.9175 34.037 29.889 34.1802 29.889C34.3977 29.8812 34.6119 29.9442 34.791 30.0688C34.9701 30.1934 35.1045 30.3728 35.1744 30.5806L36.6861 34.7943Z" fill="white"/>
<path id="Vector_11" d="M50 27.6855C49.8556 27.6872 49.7123 27.6593 49.5788 27.6036C49.4453 27.548 49.3244 27.4656 49.2234 27.3616C49.1223 27.2575 49.0432 27.1339 48.9908 26.9982C48.9385 26.8625 48.9139 26.7175 48.9186 26.572V18.8711C48.9077 18.7208 48.9276 18.5699 48.9772 18.4278C49.0267 18.2856 49.1048 18.1553 49.2066 18.0449C49.3083 17.9346 49.4315 17.8465 49.5686 17.7863C49.7056 17.7261 49.8534 17.6951 50.0029 17.6951C50.1524 17.6951 50.3003 17.7261 50.4373 17.7863C50.5743 17.8465 50.6975 17.9346 50.7993 18.0449C50.901 18.1553 50.9791 18.2856 51.0287 18.4278C51.0782 18.5699 51.0981 18.7208 51.0872 18.8711V26.572C51.092 26.718 51.0672 26.8635 51.0145 26.9996C50.9618 27.1357 50.8821 27.2596 50.7805 27.3637C50.6788 27.4678 50.5572 27.5501 50.423 27.6054C50.2889 27.6607 50.1449 27.688 50 27.6855Z" fill="white"/>
<path id="Vector_12" d="M43.6336 20.641L41.5929 23.0908L43.8197 26.0211C43.9667 26.1995 44.0506 26.4222 44.0581 26.6541C44.0478 26.9263 43.9352 27.1845 43.7429 27.3761C43.5507 27.5676 43.2934 27.6783 43.0232 27.6855C42.8548 27.683 42.6893 27.6409 42.5399 27.5626C42.3906 27.4842 42.2614 27.3718 42.1627 27.2343L39.5348 23.7999C39.3618 23.5957 39.2669 23.3359 39.2674 23.0673C39.274 22.8195 39.3689 22.5823 39.5348 22.3992L42.1511 19.2404C42.2454 19.1296 42.3636 19.0419 42.4966 18.984C42.6295 18.9261 42.7738 18.8996 42.9185 18.9063C43.1828 18.9124 43.4342 19.0226 43.6189 19.2131C43.8036 19.4037 43.907 19.6596 43.9069 19.926C43.9063 20.1902 43.809 20.4448 43.6336 20.641Z" fill="white"/>
<path id="Vector_13" d="M62.1279 24.0285C62.136 23.6233 62.0622 23.2207 61.9109 22.8452C61.7595 22.4698 61.5339 22.1294 61.2477 21.8447C60.9615 21.5601 60.6208 21.3372 60.2464 21.1897C59.8719 21.0422 59.4716 20.9732 59.0698 20.9868C58.6307 20.9779 58.1944 21.0589 57.7872 21.2247C57.38 21.3906 57.0104 21.6379 56.7007 21.9518C56.3909 22.2656 56.1475 22.6395 55.9851 23.0508C55.8228 23.4621 55.7447 23.9024 55.7558 24.3449C55.7589 24.8028 55.8546 25.2552 56.0369 25.6746C56.2192 26.094 56.4845 26.4715 56.8163 26.7841C57.1482 27.0967 57.5398 27.3379 57.9673 27.4928C58.3947 27.6478 58.8489 27.7134 59.3023 27.6855C59.9584 27.6927 60.6052 27.5292 61.1802 27.2108C61.3418 27.1381 61.4789 27.0196 61.5749 26.8698C61.6709 26.7199 61.7217 26.5452 61.7209 26.3669C61.7225 26.2533 61.7015 26.1405 61.6591 26.0353C61.6167 25.9301 61.5538 25.8345 61.4741 25.7542C61.3944 25.6738 61.2996 25.6104 61.1952 25.5677C61.0908 25.525 60.979 25.5038 60.8663 25.5053C60.7291 25.5105 60.5944 25.5444 60.4709 25.605C60.1243 25.7496 59.7531 25.8252 59.3779 25.8277C59.0983 25.8624 58.8148 25.811 58.5647 25.6803C58.3146 25.5495 58.1096 25.3455 57.9768 25.0951H61C61.1447 25.1047 61.2899 25.0843 61.4264 25.035C61.5629 24.9857 61.688 24.9087 61.7938 24.8087C61.8995 24.7087 61.9838 24.5878 62.0413 24.4536C62.0987 24.3193 62.1282 24.1747 62.1279 24.0285ZM57.8954 23.6592C57.9437 23.3851 58.0872 23.1373 58.3003 22.9601C58.5133 22.7829 58.782 22.6879 59.0582 22.6922C59.1902 22.6851 59.3222 22.7047 59.4467 22.7497C59.5711 22.7946 59.6854 22.8642 59.7828 22.9542C59.8803 23.0443 59.9589 23.153 60.0142 23.2741C60.0695 23.3951 60.1002 23.5261 60.1047 23.6592H57.8954Z" fill="white"/>
<path id="Vector_14" d="M54.0116 45.2498C53.9918 45.5578 54.0365 45.8666 54.1426 46.1561C54.2488 46.4456 54.4141 46.7095 54.6279 46.9305C54.8417 47.1515 55.0991 47.3248 55.3836 47.4391C55.668 47.5534 55.9731 47.6062 56.2791 47.594C56.5981 47.5958 56.9138 47.5293 57.2055 47.399C57.4971 47.2686 57.758 47.0774 57.9709 46.838C58.0737 46.7148 58.2006 46.6143 58.3437 46.5427C58.4867 46.4711 58.6428 46.43 58.8023 46.4219C59.066 46.4219 59.3189 46.5275 59.5053 46.7154C59.6918 46.9034 59.7965 47.1583 59.7965 47.4241C59.7821 47.7139 59.6715 47.9905 59.4826 48.2094C59.0814 48.664 58.5873 49.0256 58.0343 49.2695C57.4814 49.5133 56.8825 49.6335 56.2791 49.6218C55.1226 49.6218 54.0135 49.1587 53.1958 48.3344C52.378 47.5101 51.9186 46.3921 51.9186 45.2263C51.9186 44.0606 52.378 42.9426 53.1958 42.1183C54.0135 41.2939 55.1226 40.8309 56.2791 40.8309C56.8825 40.8192 57.4814 40.9394 58.0343 41.1832C58.5873 41.427 59.0814 41.7887 59.4826 42.2433C59.6793 42.455 59.7911 42.7327 59.7965 43.0227C59.7973 43.1546 59.7721 43.2852 59.7224 43.4072C59.6727 43.5291 59.5995 43.6399 59.507 43.7331C59.4146 43.8263 59.3047 43.9001 59.1837 43.9502C59.0627 44.0003 58.9331 44.0257 58.8023 44.0249C58.6433 44.0175 58.4874 43.9773 58.3444 43.9068C58.2014 43.8362 58.0743 43.7368 57.9709 43.6147C57.6579 43.2644 57.2456 43.0198 56.79 42.9138C56.3343 42.8079 55.8574 42.8458 55.4238 43.0224C54.9902 43.199 54.6211 43.5057 54.3664 43.9011C54.1117 44.2964 53.9838 44.7611 54 45.2322L54.0116 45.2498Z" fill="white"/>
<path id="Vector_15" d="M53.7733 33.4699C53.7725 33.5896 53.7955 33.7083 53.8409 33.8189C53.8863 33.9296 53.9533 34.0299 54.0378 34.114C54.1224 34.1982 54.2228 34.2644 54.3331 34.3087C54.4434 34.3531 54.5615 34.3748 54.6802 34.3724C54.8929 34.364 55.0971 34.2858 55.2616 34.1497C55.5533 33.9445 55.9002 33.8341 56.2558 33.8332C56.8721 33.8332 57.2267 34.1263 57.2267 34.6537V34.7534H55.9012C54.3547 34.7534 53.4302 35.4742 53.4302 36.6815C53.4302 37.8888 54.314 38.68 55.6105 38.68C56.2513 38.6919 56.8734 38.4619 57.3547 38.0353C57.4542 38.2583 57.6272 38.4397 57.8442 38.5489C58.0612 38.658 58.309 38.6883 58.5456 38.6346C58.7822 38.5808 58.9931 38.4463 59.1427 38.2538C59.2922 38.0613 59.3712 37.8226 59.3663 37.5782V34.7827C59.3663 32.96 58.3372 31.9344 56.4593 31.9344C55.6527 31.8973 54.8575 32.137 54.2035 32.6142C54.0721 32.7146 53.9651 32.8438 53.8906 32.9921C53.816 33.1403 53.7759 33.3037 53.7733 33.4699ZM57.2267 36.1541C57.2311 36.2809 57.209 36.4072 57.1619 36.5249C57.1149 36.6426 57.0438 36.7491 56.9535 36.8374C56.8631 36.9258 56.7553 36.994 56.6372 37.0379C56.519 37.0817 56.3931 37.1 56.2674 37.0918C55.8663 37.0918 55.6221 36.9101 55.6221 36.5877C55.6221 36.2654 55.8372 36.1013 56.2035 36.1013H57.2267V36.1541Z" fill="white"/>
<path id="Vector_16" d="M62.9187 29.8422V37.5372C62.9297 37.6875 62.9097 37.8384 62.8602 37.9806C62.8106 38.1227 62.7326 38.253 62.6308 38.3634C62.529 38.4738 62.4058 38.5618 62.2688 38.622C62.1318 38.6822 61.9839 38.7133 61.8344 38.7133C61.685 38.7133 61.5371 38.6822 61.4001 38.622C61.2631 38.5618 61.1398 38.4738 61.0381 38.3634C60.9363 38.253 60.8582 38.1227 60.8087 37.9806C60.7591 37.8384 60.7392 37.6875 60.7501 37.5372V29.8422C60.7429 29.6955 60.7657 29.5489 60.8171 29.4114C60.8684 29.2739 60.9472 29.1486 61.0486 29.0431C61.15 28.9376 61.2718 28.8542 61.4065 28.7981C61.5412 28.742 61.6858 28.7144 61.8315 28.717C61.9772 28.7153 62.1218 28.7434 62.2564 28.7998C62.3909 28.8561 62.5128 28.9394 62.6144 29.0446C62.7161 29.1499 62.7955 29.2748 62.8478 29.4119C62.9001 29.549 62.9243 29.6954 62.9187 29.8422Z" fill="white"/>
<path id="Vector_17" d="M64.3081 27.6854C64.1632 27.6879 64.0193 27.6606 63.8851 27.6053C63.751 27.55 63.6294 27.4678 63.5277 27.3637C63.426 27.2595 63.3464 27.1356 63.2937 26.9995C63.2409 26.8634 63.2162 26.718 63.2209 26.5719V22.0768C63.2138 21.9326 63.236 21.7885 63.286 21.6533C63.3361 21.518 63.413 21.3945 63.512 21.2903C63.6111 21.186 63.7302 21.1033 63.8621 21.047C63.994 20.9908 64.1359 20.9623 64.2791 20.9633C64.5009 20.957 64.7188 21.0241 64.8993 21.1543C65.0798 21.2844 65.2132 21.4705 65.2791 21.6841C65.4323 21.4751 65.6308 21.3042 65.8595 21.1843C66.0883 21.0645 66.3411 20.9989 66.5988 20.9926C66.7272 20.9873 66.8552 21.0094 66.9745 21.0574C67.0938 21.1054 67.2017 21.1783 67.2911 21.2712C67.3806 21.3642 67.4496 21.4751 67.4936 21.5967C67.5376 21.7184 67.5556 21.848 67.5465 21.9772C67.5529 22.2521 67.4526 22.5186 67.2669 22.7201C67.0812 22.9215 66.8248 23.0419 66.5523 23.0555C65.7674 23.1727 65.3895 23.6416 65.3895 24.5852V26.5485C65.3975 26.6959 65.3754 26.8435 65.3244 26.9819C65.2735 27.1204 65.1949 27.2469 65.0936 27.3535C64.9922 27.4601 64.8701 27.5445 64.735 27.6016C64.5999 27.6587 64.4546 27.6873 64.3081 27.6854Z" fill="white"/>
<path id="Vector_18" d="M72.8779 47.471C72.8779 48.8189 71.7674 49.6042 70.2733 49.6042C69.4274 49.6214 68.6031 49.3348 67.9477 48.7955C67.8042 48.6782 67.7008 48.5185 67.652 48.3389C67.6032 48.1593 67.6114 47.9688 67.6756 47.7942C67.7397 47.6195 67.8566 47.4696 68.0097 47.3654C68.1628 47.2611 68.3444 47.2079 68.5291 47.2131C68.7426 47.2174 68.948 47.2961 69.1105 47.4358C69.4669 47.6955 69.8919 47.8424 70.3314 47.8578C70.6337 47.8578 70.8837 47.7933 70.8837 47.5765C70.8837 47.3596 70.7616 47.3538 70.5233 47.2541L69.814 46.9611C68.6512 46.4864 67.9884 45.9589 67.9884 44.8923C67.9884 43.6088 68.9826 42.8645 70.4302 42.8645C71.1331 42.8644 71.8213 43.0678 72.4128 43.4506C72.5381 43.5339 72.6413 43.6469 72.7132 43.7797C72.7852 43.9125 72.8238 44.0611 72.8256 44.2125C72.8295 44.3321 72.8093 44.4513 72.7663 44.5629C72.7232 44.6744 72.6581 44.776 72.5749 44.8615C72.4918 44.947 72.3923 45.0145 72.2825 45.0601C72.1726 45.1057 72.0548 45.1284 71.936 45.1267C71.7552 45.1178 71.5802 45.059 71.4302 44.9568C71.1274 44.7677 70.7805 44.6626 70.4244 44.652C70.1453 44.652 69.9826 44.7165 69.9826 44.8981C69.9826 45.0798 70.1221 45.1267 70.407 45.2439L71.0407 45.4959C72.1628 45.9413 72.8779 46.4161 72.8779 47.471Z" fill="white"/>
<path id="Vector_19" d="M69.9709 37.3319C69.9717 37.2183 69.9499 37.1058 69.9068 37.0008C69.8637 36.8959 69.8002 36.8007 69.72 36.7209C69.6398 36.6411 69.5445 36.5784 69.4398 36.5364C69.3351 36.4944 69.2231 36.4739 69.1105 36.4763C68.9752 36.4822 68.8426 36.5162 68.7209 36.5759C68.3735 36.7174 68.0026 36.791 67.6279 36.7928C67.3488 36.8297 67.0651 36.7799 66.8147 36.6501C66.5643 36.5202 66.3592 36.3165 66.2268 36.066H69.25C69.3975 36.0808 69.5464 36.0642 69.6872 36.0172C69.8279 35.9703 69.9572 35.8941 70.0668 35.7935C70.1765 35.693 70.2639 35.5703 70.3235 35.4335C70.3831 35.2967 70.4135 35.1488 70.4128 34.9994C70.4201 34.5947 70.3457 34.1928 70.194 33.818C70.0423 33.4432 69.8165 33.1035 69.5304 32.8195C69.2444 32.5355 68.9039 32.3132 68.5299 32.166C68.1558 32.0189 67.756 31.95 67.3547 31.9636C66.9156 31.9547 66.4793 32.0357 66.0721 32.2015C65.6649 32.3674 65.2953 32.6147 64.9856 32.9286C64.6758 33.2424 64.4324 33.6163 64.27 34.0276C64.1076 34.4389 64.0296 34.8792 64.0407 35.3217C64.0417 35.778 64.1346 36.2292 64.3137 36.6482C64.4929 37.0671 64.7546 37.4451 65.0829 37.7591C65.4113 38.0731 65.7994 38.3166 66.2239 38.4749C66.6484 38.6331 67.1003 38.7029 67.5523 38.6799C68.208 38.6835 68.8539 38.5202 69.4302 38.2052C69.5964 38.1305 69.7367 38.0075 69.8331 37.8519C69.9294 37.6963 69.9774 37.5152 69.9709 37.3319ZM67.2849 33.6632C67.4164 33.6561 67.5481 33.6754 67.6721 33.72C67.7962 33.7647 67.9102 33.8337 68.0076 33.9231C68.1049 34.0125 68.1837 34.1206 68.2393 34.241C68.2949 34.3613 68.3262 34.4916 68.3314 34.6243H66.1512C66.1998 34.3562 66.3396 34.1136 66.5465 33.9382C66.7535 33.7628 67.0145 33.6655 67.2849 33.6632Z" fill="white"/>
<path id="Vector_20" d="M92.843 40.989C93.0281 43.1188 93.0882 45.2578 93.0233 47.3947C93.0287 49.1896 92.8671 50.981 92.5407 52.7454C92.5246 52.9144 92.4723 53.0779 92.3874 53.2244C92.3025 53.371 92.187 53.4973 92.0489 53.5945C91.9108 53.6916 91.7535 53.7574 91.5877 53.7873C91.4219 53.8171 91.2517 53.8103 91.0888 53.7673C90.9259 53.7243 90.7742 53.6462 90.6442 53.5383C90.5142 53.4304 90.409 53.2953 90.3358 53.1424C90.2627 52.9895 90.2234 52.8224 90.2206 52.6527C90.2178 52.4829 90.2517 52.3146 90.3198 52.1594C90.3547 51.9894 90.3896 51.8195 90.4128 51.6495C90.4361 51.4795 90.4419 51.4678 90.4593 51.3799C90.5116 50.9228 90.5582 50.4657 90.5872 50.0144C90.7343 47.9236 90.7711 45.8265 90.6977 43.7318C90.6628 42.7179 90.6105 41.6982 90.5116 40.6901C90.5116 40.4616 90.4651 40.233 90.4361 40.0044C90.4361 39.9693 90.4361 39.9341 90.4361 39.8989L90.4012 39.6528C90.343 39.2836 90.2733 38.9202 90.1861 38.5569C90.1074 38.2593 90.1481 37.9424 90.2993 37.6748C90.4505 37.4073 90.7001 37.2104 90.9942 37.1269C91.2886 37.0473 91.6023 37.0875 91.8676 37.2388C92.1329 37.3901 92.3287 37.6403 92.4128 37.9356C92.6312 38.9412 92.775 39.9619 92.843 40.989Z" fill="white"/>
<path id="Vector_21" d="M78.4477 48.5609C78.4537 48.733 78.4116 48.9033 78.3263 49.0525C78.241 49.2017 78.1159 49.3238 77.9651 49.4049C77.6764 49.562 77.3513 49.6389 77.0233 49.6276C75.221 49.6276 74.25 48.7133 74.25 47.0196V44.9039H74.0756C73.953 44.9057 73.8314 44.882 73.7183 44.8345C73.6051 44.7869 73.5029 44.7165 73.4178 44.6275C73.3328 44.5385 73.2668 44.4328 73.2239 44.317C73.1811 44.2013 73.1623 44.0779 73.1686 43.9545C73.1646 43.833 73.1853 43.7121 73.2294 43.599C73.2735 43.4859 73.34 43.3831 73.425 43.2969C73.5099 43.2108 73.6115 43.143 73.7234 43.0978C73.8353 43.0527 73.9551 43.0311 74.0756 43.0343H74.25V42.4483C74.2436 42.3023 74.267 42.1566 74.3188 42.0201C74.3706 41.8836 74.4496 41.7594 74.551 41.6549C74.6524 41.5505 74.774 41.4683 74.9082 41.4132C75.0425 41.3581 75.1865 41.3314 75.3314 41.3348C75.4764 41.3323 75.6203 41.3595 75.7544 41.4149C75.8886 41.4702 76.0102 41.5524 76.1119 41.6565C76.2135 41.7607 76.2932 41.8846 76.3459 42.0207C76.3986 42.1568 76.4234 42.3022 76.4186 42.4483V43.0343H77.3256C77.4465 43.0293 77.5672 43.0497 77.6799 43.0943C77.7926 43.1388 77.8948 43.2065 77.9801 43.2931C78.0654 43.3796 78.1319 43.4831 78.1754 43.597C78.2189 43.7108 78.2383 43.8326 78.2326 43.9545C78.2407 44.0783 78.2231 44.2024 78.1809 44.319C78.1387 44.4356 78.0728 44.5419 77.9874 44.6313C77.902 44.7207 77.799 44.7911 77.685 44.8381C77.5711 44.885 77.4487 44.9074 77.3256 44.9039H76.4186V46.8027C76.4186 47.3888 76.7035 47.6467 77.4361 47.6467H77.4884C77.6126 47.6359 77.7377 47.6517 77.8555 47.6931C77.9732 47.7345 78.0809 47.8005 78.1715 47.8869C78.2621 47.9732 78.3336 48.0779 78.3812 48.1941C78.4288 48.3103 78.4514 48.4353 78.4477 48.5609Z" fill="white"/>
<path id="Vector_22" d="M97.7907 39.4184C98.0813 42.0391 98.1979 44.6764 98.1396 47.3127C98.15 49.7096 97.9319 52.1019 97.4884 54.4568C97.4723 54.6258 97.42 54.7892 97.3351 54.9358C97.2502 55.0824 97.1347 55.2086 96.9966 55.3058C96.8585 55.403 96.7011 55.4688 96.5354 55.4986C96.3696 55.5285 96.1994 55.5216 96.0365 55.4787C95.8735 55.4357 95.7218 55.3575 95.5918 55.2496C95.4618 55.1417 95.3566 55.0067 95.2835 54.8537C95.2104 54.7008 95.1711 54.5337 95.1683 54.364C95.1655 54.1943 95.1994 54.026 95.2675 53.8707C95.3198 53.6129 95.3663 53.355 95.4128 53.0971C95.4128 52.9565 95.4535 52.8217 95.4768 52.681C95.5 52.5404 95.4768 52.5521 95.4768 52.4935C95.5582 51.8664 95.6221 51.2393 95.6686 50.6064C95.8612 48.0029 95.8922 45.3898 95.7617 42.7824C95.6977 41.54 95.5989 40.2916 95.4419 39.055C95.4394 39.0141 95.4394 38.973 95.4419 38.932C95.4419 38.932 95.4419 38.8675 95.4419 38.8499C95.4419 38.721 95.407 38.5862 95.3837 38.4573C95.343 38.1935 95.3023 37.9298 95.25 37.6661C95.1686 37.1972 95.064 36.7284 94.9419 36.2595C94.9155 35.9824 94.9878 35.7048 95.1459 35.4765C95.3041 35.2482 95.5377 35.0841 95.8049 35.0136C96.0721 34.943 96.3555 34.9707 96.6043 35.0916C96.8531 35.2125 97.0511 35.4188 97.1628 35.6735C97.4613 36.9049 97.6711 38.1565 97.7907 39.4184Z" fill="white"/>
<path id="Vector_23" d="M102.994 40.3385C103.204 42.5412 103.284 44.7546 103.233 46.9669C103.248 48.9319 103.081 50.894 102.733 52.8275C102.716 52.9965 102.664 53.1599 102.579 53.3065C102.494 53.4531 102.379 53.5794 102.241 53.6765C102.103 53.7737 101.945 53.8395 101.78 53.8693C101.614 53.8992 101.444 53.8924 101.281 53.8494C101.118 53.8064 100.966 53.7283 100.836 53.6204C100.706 53.5125 100.601 53.3774 100.528 53.2245C100.455 53.0716 100.415 52.9045 100.412 52.7347C100.41 52.565 100.444 52.3967 100.512 52.2415C100.55 52.0422 100.585 51.8468 100.616 51.6554C100.616 51.5616 100.645 51.4679 100.657 51.3741V51.2334C100.715 50.7294 100.762 50.2254 100.797 49.7155C100.939 47.5364 100.962 45.3509 100.866 43.1692C100.82 42.126 100.75 41.0828 100.64 40.0455C100.64 39.9224 100.64 39.7993 100.599 39.6763C100.596 39.6235 100.596 39.5707 100.599 39.518C100.597 39.4907 100.597 39.4633 100.599 39.436C100.602 39.3872 100.602 39.3382 100.599 39.2895C100.599 39.184 100.57 39.0843 100.552 38.9788C100.497 38.6159 100.423 38.256 100.331 37.9005C100.287 37.6162 100.348 37.3255 100.503 37.0836C100.657 36.8417 100.895 36.6656 101.17 36.5889C101.445 36.5121 101.739 36.54 101.995 36.6674C102.251 36.7947 102.451 37.0125 102.558 37.2793C102.775 38.2874 102.921 39.3097 102.994 40.3385Z" fill="white"/>
<path id="Vector_24" d="M108 42.8352V47.8519C108 48.1628 107.878 48.4609 107.659 48.6807C107.441 48.9006 107.146 49.024 106.837 49.024C106.529 49.024 106.233 48.9006 106.015 48.6807C105.797 48.4609 105.674 48.1628 105.674 47.8519V42.8352C105.674 42.5243 105.797 42.2262 106.015 42.0064C106.233 41.7866 106.529 41.6631 106.837 41.6631C107.146 41.6631 107.441 41.7866 107.659 42.0064C107.878 42.2262 108 42.5243 108 42.8352Z" fill="white"/>
<path id="Vector_25" d="M88.2908 43.3215V48.3382C88.2908 48.6491 88.1683 48.9472 87.9503 49.1671C87.7322 49.3869 87.4364 49.5104 87.1281 49.5104C86.8197 49.5104 86.5239 49.3869 86.3058 49.1671C86.0878 48.9472 85.9653 48.6491 85.9653 48.3382V43.3215C85.9653 43.0107 86.0878 42.7125 86.3058 42.4927C86.5239 42.2729 86.8197 42.1494 87.1281 42.1494C87.4364 42.1494 87.7322 42.2729 87.9503 42.4927C88.1683 42.7125 88.2908 43.0107 88.2908 43.3215Z" fill="white"/>
<path id="Vector_26" d="M95.2093 31.1844C95.0676 31.3169 94.8954 31.4118 94.7082 31.4604C94.5209 31.509 94.3247 31.5097 94.1371 31.4626C93.9495 31.4155 93.7765 31.322 93.6338 31.1905C93.4911 31.059 93.3832 30.8938 93.3198 30.7097C89.3178 19.8908 81.2575 11.0911 70.8774 6.20863C60.4973 1.32616 48.6293 0.752179 37.8332 4.61049C27.0371 8.46881 18.1781 16.4502 13.167 26.8332C8.1559 37.2161 7.39432 49.1686 11.0465 60.1125C11.1042 60.2739 11.126 60.4462 11.1104 60.6171C11.0948 60.7879 11.0422 60.9533 10.9562 61.1014C10.8703 61.2495 10.7531 61.3768 10.613 61.4743C10.4729 61.5718 10.3132 61.6371 10.1454 61.6655C9.86084 61.7268 9.56389 61.6783 9.31311 61.5297C9.06232 61.381 8.87592 61.143 8.7907 60.8626C4.97536 49.3303 5.8 36.7495 11.0874 25.8234C16.3748 14.8974 25.7031 6.49803 37.0678 2.43019C48.4325 -1.63765 60.9267 -1.04936 71.8658 4.06865C82.8048 9.18665 91.3158 18.4259 95.5698 29.8013C95.6553 30.0311 95.67 30.2817 95.6119 30.5201C95.5538 30.7585 95.4256 30.9737 95.2442 31.1375L95.2093 31.1844Z" fill="white"/>
<path id="Vector_27" d="M63.8721 42.8998C63.0698 42.8681 62.28 43.1074 61.6279 43.5796C61.49 43.6776 61.3763 43.8062 61.2956 43.9556C61.2149 44.105 61.1695 44.2711 61.1628 44.4411C61.162 44.5606 61.185 44.679 61.2305 44.7893C61.276 44.8996 61.3431 44.9996 61.4277 45.0833C61.5123 45.1669 61.6128 45.2326 61.7231 45.2763C61.8334 45.32 61.9513 45.3409 62.0698 45.3378C62.2824 45.3342 62.4874 45.2577 62.6512 45.1209C62.9421 44.9137 63.2891 44.8012 63.6454 44.7986C64.2616 44.7986 64.6163 45.0975 64.6163 45.6191V45.7129H63.2907C61.7442 45.7129 60.8256 46.4337 60.8256 47.6352C60.8256 48.8366 61.7035 49.6161 63.0058 49.6161C63.6467 49.6285 64.269 49.3985 64.75 48.9714C64.8475 49.1987 65.0208 49.3845 65.2399 49.4965C65.4589 49.6085 65.71 49.6398 65.9495 49.5848C66.1891 49.5298 66.402 49.3921 66.5514 49.1955C66.7008 48.9989 66.7772 48.7558 66.7674 48.5084V45.748C66.7733 43.9547 65.7384 42.8998 63.8721 42.8998ZM64.6047 47.1253C64.6099 47.2524 64.5884 47.3791 64.5417 47.4972C64.4949 47.6154 64.4239 47.7222 64.3334 47.8107C64.2428 47.8993 64.1347 47.9675 64.0161 48.011C63.8975 48.0545 63.7712 48.0722 63.6454 48.063C63.2442 48.063 63.0058 47.8813 63.0058 47.559C63.0058 47.2366 63.2209 47.0725 63.5872 47.0725H64.6105L64.6047 47.1253Z" fill="white"/>
<path id="Vector_28" d="M76.0582 68.0651C76.0768 68.028 76.0905 67.9886 76.0988 67.9479C76.189 67.618 76.2108 67.2728 76.1628 66.934C76.1148 66.5952 75.998 66.27 75.8198 65.9787C75.4634 65.482 74.9546 65.1174 74.3721 64.9414C73.9221 64.8026 73.4579 64.7161 72.9884 64.6835C72.3783 64.6216 71.7622 64.6692 71.1686 64.8242C70.5042 64.9901 69.8997 65.3415 69.4244 65.8381C69.2791 65.9963 69.1454 66.178 69.0174 66.3479C68.9247 66.4462 68.8429 66.5543 68.7733 66.6703C68.7415 66.7121 68.7065 66.7513 68.6686 66.7875C68.6298 66.8249 68.5891 66.8601 68.5465 66.893L68.4884 66.9281L68.3605 66.975L68.1628 67.0219C68.064 67.0219 67.9593 67.0219 67.8663 67.0219H67.3663C66.6871 67.0321 66.0183 67.1921 65.407 67.4908C64.8991 67.7973 64.461 68.2084 64.1214 68.6971C63.7817 69.1859 63.5482 69.7414 63.4361 70.3273C63.2559 70.9985 63.2261 71.7016 63.3488 72.3858C63.4714 73.07 63.7435 73.7181 64.1454 74.2832C64.6313 74.8378 65.2617 75.2439 65.9651 75.4554C66.529 75.6716 67.1135 75.8287 67.7093 75.9242C68.4465 76.0562 69.2028 76.0322 69.9302 75.8539C70.6478 75.6523 71.3023 75.2689 71.8314 74.7404C72.8605 73.7441 73.3605 72.3961 74.064 71.1771C74.1395 71.0423 74.2268 70.9075 74.314 70.7727L74.4477 70.5735L74.4884 70.5149L75.0698 69.835C75.5437 69.3397 75.8839 68.7304 76.0582 68.0651ZM68.843 66.6117C68.843 66.5765 68.8837 66.5707 68.843 66.6117V66.6117ZM68.0988 73.6796H68.2035H68.0988ZM69.5349 73.5858H69.5988C69.578 73.5922 69.5557 73.5922 69.5349 73.5858ZM70.5523 72.7536L70.593 72.695L70.5523 72.7536ZM73.564 68.0651L73.4361 68.2175C73.0342 68.6518 72.6632 69.1139 72.3256 69.6006C71.7442 70.4973 71.3547 71.517 70.7674 72.4196L70.6047 72.654L70.5523 72.7185L70.4535 72.8357C70.3779 72.9236 70.2907 73.0115 70.2035 73.0994L70.0465 73.2459C69.9458 73.3021 69.8487 73.3648 69.7558 73.4334C69.6918 73.4721 69.6258 73.5073 69.5581 73.5389H69.5174L69.2558 73.6034L69.0698 73.6444H69.0349C68.7775 73.6649 68.519 73.6649 68.2616 73.6444H68.2267H68.0988C67.9477 73.6444 67.7907 73.5858 67.6337 73.5448C67.3779 73.4803 67.1221 73.4041 66.8721 73.3162L66.5058 73.1873L66.3721 73.1346L66.0407 72.9529C66.0058 72.9177 65.9709 72.8884 65.9361 72.8474L65.8779 72.7595L65.7907 72.5954C65.7558 72.4782 65.7209 72.3668 65.6919 72.2437C65.6886 72.1989 65.6886 72.1538 65.6919 72.1089C65.6919 72.1089 65.6919 72.1089 65.6919 72.0738C65.6919 72.0386 65.6919 72.0328 65.6919 72.0152C65.6919 71.9976 65.6919 71.939 65.6919 71.9566C65.6869 71.8961 65.6869 71.8353 65.6919 71.7749C65.6919 71.646 65.6919 71.517 65.6919 71.3881C65.6919 71.2592 65.7616 70.9134 65.6919 71.3119C65.6919 71.2005 65.7267 71.0951 65.75 70.9896C65.7965 70.7786 65.8779 70.5852 65.9361 70.4035L66.0058 70.2687C66.0525 70.1756 66.1049 70.0856 66.1628 69.9991C66.1894 69.9684 66.2128 69.9351 66.2326 69.8995L66.4186 69.7061C66.4186 69.7061 66.4186 69.7061 66.4593 69.6651L66.5581 69.583L66.5 69.6358L66.7267 69.5068H66.7965C66.9302 69.4658 67.0698 69.4482 67.2093 69.4189C66.8488 69.501 67.2093 69.4189 67.3256 69.4189H67.686C68.0247 69.4031 68.3624 69.3699 68.6977 69.3193C69.3293 69.2341 69.9177 68.9489 70.3779 68.5047C70.5937 68.2812 70.7884 68.0379 70.9593 67.7779L71.0465 67.6607C71.0767 67.6281 71.1039 67.5928 71.1279 67.5552L71.2965 67.3794L71.3779 67.315H71.4186L71.593 67.2153C71.7035 67.2153 71.8372 67.1274 71.9419 67.0981L72.1047 67.0629C72.2226 67.0748 72.3414 67.0748 72.4593 67.0629C72.5872 67.0629 72.7151 67.0629 72.843 67.0629C72.9709 67.0629 73.4244 67.1509 72.9942 67.0629L73.2674 67.104C73.4348 67.1359 73.5999 67.179 73.7616 67.2329C73.6395 67.186 73.7616 67.2329 73.8314 67.2329H73.8837C73.843 67.1802 73.8837 67.1802 73.8837 67.2329V67.2915C73.8752 67.3616 73.8752 67.4324 73.8837 67.5025C73.8809 67.5356 73.8809 67.569 73.8837 67.6021C73.9186 67.2329 73.8837 67.6021 73.843 67.6842L73.7965 67.7779C73.7053 67.8724 73.6271 67.9789 73.564 68.0944V68.0651Z" fill="white"/>
</g>
</g>
</g>
<defs>
<clipPath id="clip0_948_92">
<rect width="108" height="100" fill="white"/>
</clipPath>
</defs>
</svg>
