<svg width="134" height="47" viewBox="0 0 134 47" fill="none" xmlns="http://www.w3.org/2000/svg">
<g id="levens-logo 1" clip-path="url(#clip0_948_124)">
<g id="Layer 2">
<g id="Layer 1">
<path id="Vector" d="M2.86976 43.8841V5.4165C2.86914 4.99996 2.76754 4.5918 2.57629 4.23751C2.38504 3.88322 2.11165 3.59672 1.78659 3.40995L0.615677 2.74803C0.602721 2.74156 0.591695 2.7309 0.583951 2.71735C0.576207 2.70381 0.572083 2.68797 0.572083 2.67179C0.572083 2.6556 0.576207 2.63976 0.583951 2.62622C0.591695 2.61267 0.602721 2.60201 0.615677 2.59554C2.02561 2.12423 2.54904 1.95442 4.02252 1.45884L8.32191 -0.000156251C8.36298 -0.0119118 8.40574 -0.0136676 8.44743 -0.00531027C8.48912 0.00304704 8.52882 0.0213315 8.56396 0.0483615C8.59863 0.0783138 8.62678 0.117052 8.6462 0.161543C8.66562 0.206034 8.67579 0.25507 8.67591 0.304812V43.8841C8.67686 44.0656 8.71926 44.2436 8.79888 44.4004C8.8785 44.5573 8.99257 44.6875 9.12975 44.7783L9.64713 45.1248C9.66109 45.1336 9.67212 45.1475 9.67852 45.1642C9.68492 45.181 9.68634 45.1996 9.68256 45.2174C9.67877 45.2351 9.66999 45.2509 9.65757 45.2624C9.64515 45.2738 9.62979 45.2803 9.61385 45.2808H1.93484C1.91865 45.2811 1.90283 45.2752 1.8899 45.264C1.87697 45.2528 1.86768 45.237 1.86351 45.219C1.85934 45.2011 1.86052 45.1821 1.86686 45.165C1.87321 45.1479 1.88436 45.1338 1.89854 45.1248L2.41592 44.7783C2.5531 44.6875 2.66717 44.5573 2.74679 44.4004C2.82641 44.2436 2.8688 44.0656 2.86976 43.8841Z" fill="white"/>
<path id="Vector_2" d="M34.1606 28.8438C34.4883 28.8429 34.8022 28.6931 35.0337 28.4274C35.2651 28.1617 35.395 27.8017 35.395 27.4264V27.111C35.4137 25.442 35.1761 23.7821 34.6931 22.2073C34.2582 20.7903 33.5604 19.498 32.6478 18.4194C31.7142 17.3494 30.5904 16.522 29.3529 15.9935C27.9366 15.3906 26.4342 15.0967 24.9234 15.1271C23.1321 15.0947 21.3546 15.4901 19.7042 16.2881C18.1842 17.038 16.8207 18.1497 15.7043 19.5492C14.5704 20.9895 13.6946 22.671 13.1265 24.498C12.5048 26.4865 12.1975 28.5859 12.2188 30.6979C12.1927 32.8535 12.4664 35.0001 13.0297 37.0572C13.5172 38.8382 14.3264 40.4818 15.4048 41.8812C16.4718 43.2301 17.7931 44.2825 19.2685 44.9586C20.9269 45.7058 22.6968 46.0743 24.4786 46.0433C25.869 46.0666 27.2542 45.8421 28.5844 45.378C29.7225 44.9736 30.7904 44.345 31.7401 43.5204C32.6294 42.7422 33.3854 41.7822 33.97 40.6891C34.5187 39.6619 34.9326 38.548 35.1984 37.3829C35.2013 37.3565 35.2013 37.3297 35.1984 37.3032C35.1978 37.2442 35.1831 37.1865 35.1559 37.1364C35.1287 37.0863 35.09 37.0457 35.0441 37.019C34.9811 36.9826 34.9083 36.9753 34.8408 36.9985C34.7732 37.0217 34.716 37.0737 34.681 37.1438C34.3678 37.7467 34.004 38.3131 33.5948 38.835C33.1152 39.4446 32.5607 39.9711 31.9489 40.398C31.2703 40.8606 30.5379 41.2107 29.7734 41.4376C28.852 41.7118 27.9025 41.8423 26.9505 41.8258C25.7061 41.852 24.473 41.5496 23.347 40.942C22.3123 40.3666 21.4113 39.5187 20.7178 38.4676C19.9677 37.3035 19.4183 35.9862 19.0991 34.5862C18.715 32.9362 18.5287 31.234 18.5454 29.5265V28.8334L34.1606 28.8438ZM19.2473 22.9038C19.5269 21.6816 19.9634 20.5137 20.5423 19.4383C21.0244 18.5392 21.6744 17.7735 22.4454 17.1961C23.1772 16.6699 24.0261 16.3967 24.8901 16.4094C25.7204 16.3843 26.5415 16.614 27.2682 17.0748C27.9318 17.5161 28.4956 18.1298 28.9142 18.8665C29.3654 19.6687 29.69 20.5555 29.8733 21.4864C30.0798 22.5161 30.1813 23.5698 30.1758 24.6262C30.208 25.3284 30.0775 26.0278 29.7976 26.6536C29.6691 26.8918 29.4862 27.0852 29.2686 27.2128C29.051 27.3405 28.8071 27.3976 28.5632 27.3779H18.5968C18.6872 25.866 18.905 24.3677 19.2473 22.9038Z" fill="white"/>
<path id="Vector_3" d="M83.7806 37.019C83.7177 36.9826 83.6449 36.9752 83.5774 36.9985C83.5098 37.0217 83.4526 37.0737 83.4176 37.1438C83.1054 37.7474 82.7415 38.3139 82.3314 38.835C81.8524 39.4454 81.2979 39.972 80.6854 40.398C80.0072 40.8613 79.2746 41.2113 78.51 41.4376C77.5895 41.7114 76.641 41.842 75.6901 41.8258C74.4447 41.8523 73.2106 41.5499 72.0836 40.942C71.041 40.3654 70.1334 39.5124 69.4362 38.4538C68.6871 37.2889 68.1379 35.9718 67.8175 34.5724C67.4334 32.9224 67.2472 31.2202 67.2638 29.5127V28.8195H82.6037C83.0049 28.8195 83.3897 28.637 83.6734 28.312C83.9571 27.9871 84.1165 27.5463 84.1165 27.0868C84.1352 25.4177 83.8976 23.7579 83.4145 22.183C82.9753 20.7731 82.2744 19.4891 81.3601 18.4194C80.4271 17.3486 79.3032 16.5211 78.0652 15.9935C76.6489 15.3906 75.1465 15.0967 73.6357 15.1271C71.8505 15.0968 70.0793 15.4921 68.4347 16.2881C66.9079 17.0349 65.538 18.1468 64.4167 19.5492C63.2828 20.9895 62.4069 22.671 61.8389 24.498C61.2172 26.4865 60.9098 28.5859 60.9312 30.6979C60.9051 32.8535 61.1788 35.0001 61.742 37.0572C62.2286 38.8379 63.0368 40.4815 64.1141 41.8812C65.1811 43.23 66.5025 44.2825 67.9778 44.9586C69.6448 45.7096 71.4242 46.0781 73.2152 46.0433C74.6056 46.0666 75.9907 45.8421 77.3209 45.378C78.4602 44.9739 79.5291 44.3453 80.4797 43.5204C81.369 42.7422 82.125 41.7822 82.7096 40.6891C83.2595 39.6626 83.6735 38.5485 83.938 37.3829C83.9409 37.3565 83.9409 37.3297 83.938 37.3032C83.9371 37.2438 83.922 37.1859 83.8943 37.1357C83.8665 37.0856 83.8272 37.0452 83.7806 37.019ZM67.9748 22.9038C68.2544 21.6816 68.6908 20.5137 69.2698 19.4383C69.753 18.539 70.4039 17.7733 71.1759 17.1961C71.9067 16.67 72.7545 16.3968 73.6176 16.4094C74.448 16.3838 75.2692 16.6135 75.9957 17.0748C76.6599 17.5152 77.2239 18.1291 77.6417 18.8665C78.0929 19.6687 78.4175 20.5555 78.6008 21.4864C78.8087 22.5158 78.9103 23.5697 78.9033 24.6262C78.9355 25.3284 78.805 26.0278 78.5251 26.6536C78.3969 26.892 78.214 27.0857 77.9963 27.2134C77.7787 27.3411 77.5346 27.398 77.2907 27.3779H67.3273C67.4153 25.8659 67.6322 24.3674 67.9748 22.9038Z" fill="white"/>
<path id="Vector_4" d="M87.8894 23.5865V40.2593C87.8894 40.8588 87.8894 42.8377 87.8894 43.8843C87.8887 44.0654 87.8468 44.2431 87.7677 44.4C87.6887 44.5568 87.5752 44.6872 87.4386 44.7784L86.9273 45.1249C86.9131 45.1339 86.9019 45.1481 86.8956 45.1651C86.8892 45.1822 86.8881 45.2012 86.8922 45.2192C86.8964 45.2371 86.9057 45.2529 86.9186 45.2641C86.9315 45.2753 86.9474 45.2812 86.9636 45.2809H94.6365C94.6525 45.2804 94.6678 45.274 94.6802 45.2625C94.6927 45.2511 94.7014 45.2352 94.7052 45.2175C94.709 45.1998 94.7076 45.1811 94.7012 45.1644C94.6948 45.1476 94.6838 45.1338 94.6698 45.1249L94.1585 44.7784C94.0193 44.688 93.9034 44.557 93.8227 44.3988C93.7419 44.2405 93.6991 44.0606 93.6986 43.8773V23.3543C93.6996 23.2833 93.7197 23.2143 93.7561 23.1568C94.0868 22.6766 94.4667 22.2438 94.8876 21.8676C95.3517 21.4489 95.8491 21.0811 96.3732 20.769C96.8932 20.4602 97.4411 20.2174 98.0071 20.0447C98.548 19.8725 99.1067 19.7839 99.6681 19.7814C100.308 19.7649 100.946 19.8643 101.559 20.0759C102.061 20.2564 102.512 20.5865 102.866 21.0324C103.245 21.5395 103.51 22.1451 103.638 22.7964C103.813 23.6841 103.894 24.5929 103.88 25.503V40.2593C103.88 40.7895 103.88 41.7842 103.88 42.3109C103.88 42.5951 103.88 43.4615 103.88 43.7457V43.8773C103.88 44.0603 103.837 44.24 103.757 44.3982C103.677 44.5564 103.562 44.6875 103.423 44.7784L102.909 45.1249C102.894 45.1339 102.883 45.1481 102.877 45.1651C102.871 45.1822 102.869 45.2012 102.874 45.2192C102.878 45.2371 102.887 45.2529 102.9 45.2641C102.913 45.2753 102.929 45.2812 102.945 45.2809H110.578C110.595 45.2812 110.611 45.2753 110.623 45.2641C110.636 45.2529 110.646 45.2371 110.65 45.2192C110.654 45.2012 110.653 45.1822 110.646 45.1651C110.64 45.1481 110.629 45.1339 110.615 45.1249L110.11 44.8026C109.968 44.7125 109.851 44.5809 109.769 44.4212C109.687 44.2616 109.644 44.0798 109.644 43.8947V23.3197C109.607 22.275 109.446 21.2408 109.166 20.2457C108.872 19.1897 108.384 18.2182 107.734 17.3971C107.108 16.6224 106.33 16.0286 105.465 15.6643C104.509 15.2702 103.498 15.0765 102.482 15.0925C101.423 15.0777 100.37 15.2881 99.3777 15.7128C97.6195 16.4661 96.0866 17.7806 94.9603 19.5006C94.4745 20.192 94.0536 20.9401 93.7046 21.7325V15.4945C93.7043 15.4445 93.6938 15.3953 93.6738 15.3508C93.6538 15.3063 93.625 15.2679 93.5897 15.2385C93.5543 15.2092 93.5135 15.1898 93.4704 15.1819C93.4273 15.1739 93.3831 15.1777 93.3416 15.193L85.6444 17.7644C85.6305 17.7703 85.6185 17.7809 85.61 17.7949C85.6016 17.8088 85.597 17.8254 85.597 17.8424C85.597 17.8594 85.6016 17.8759 85.61 17.8899C85.6185 17.9038 85.6305 17.9144 85.6444 17.9204L86.7941 18.5684C87.1284 18.7564 87.4099 19.0479 87.6067 19.41C87.8035 19.772 87.9078 20.1901 87.9076 20.6166L87.8894 23.5865Z" fill="white"/>
<path id="Vector_5" d="M126.654 17.9378C125.965 17.2941 125.174 16.8103 124.324 16.5134C123.627 16.2922 122.898 16.2345 122.182 16.3436C121.571 16.4203 120.976 16.6135 120.421 16.9154C119.911 17.1887 119.457 17.5805 119.087 18.066C118.728 18.5458 118.464 19.1084 118.312 19.7156C118.147 20.3799 118.105 21.0763 118.188 21.7603C118.243 22.4094 118.402 23.0414 118.657 23.6248C118.88 24.1158 119.181 24.5552 119.543 24.9209C119.916 25.2893 120.338 25.5876 120.793 25.8046C121.271 26.0356 121.793 26.2597 122.36 26.4769L127.08 28.1577C127.739 28.3979 128.386 28.6767 129.02 28.9929C129.703 29.3367 130.338 29.7945 130.905 30.3514C131.514 30.9589 132.026 31.6837 132.417 32.4931C132.88 33.48 133.166 34.5628 133.259 35.6779C133.42 37.0042 133.292 38.3556 132.886 39.6113C132.491 40.7977 131.864 41.8646 131.053 42.7303C130.174 43.6551 129.155 44.3879 128.045 44.8928C126.85 45.4634 125.59 45.8379 124.303 46.0053C123.379 46.135 122.449 46.1964 121.519 46.189C120.692 46.1788 119.867 46.1117 119.047 45.988C118.301 45.8778 117.561 45.7158 116.832 45.5028C115.842 45.149 114.884 44.6847 113.973 44.1166C113.834 44.0259 113.717 43.8943 113.637 43.7354C113.556 43.5765 113.513 43.3959 113.513 43.2121V37.3206C113.514 37.2891 113.522 37.2583 113.537 37.2319C113.552 37.2055 113.573 37.1845 113.598 37.1715C113.623 37.1584 113.651 37.1537 113.678 37.1581C113.706 37.1624 113.731 37.1755 113.752 37.1959C114.194 37.6256 114.935 38.9286 116.309 40.6337C117.329 41.8882 117.438 42.0754 118.527 42.9868C119.45 43.7029 120.473 44.2338 121.552 44.5567C122.491 44.8438 123.469 44.9192 124.433 44.7785C125.09 44.696 125.731 44.4862 126.327 44.1582C126.865 43.8645 127.348 43.4537 127.749 42.9487C128.126 42.4695 128.41 41.9035 128.581 41.2887C128.752 40.6532 128.801 39.983 128.726 39.3237C128.669 38.6205 128.48 37.9396 128.172 37.3275C127.899 36.8053 127.541 36.3468 127.12 35.976C126.678 35.5974 126.192 35.2929 125.676 35.0715C125.136 34.8404 124.564 34.6186 123.961 34.4061L119.725 32.909C118.971 32.6503 118.235 32.3247 117.525 31.9351C116.794 31.5406 116.113 31.0334 115.501 30.4276C114.13 29.076 113.27 27.1678 113.102 25.1045C112.932 23.7982 113.045 22.4641 113.432 21.2197C113.807 20.0818 114.418 19.0659 115.214 18.2601C116.092 17.382 117.102 16.6928 118.194 16.2258C119.468 15.6118 120.805 15.1833 122.173 14.9505C123.629 14.778 125.098 14.8211 126.545 15.0787C127.587 15.2507 128.615 15.5255 129.616 15.9C129.799 15.9676 129.958 16.1 130.071 16.2781C130.184 16.4562 130.245 16.6709 130.245 16.8912V23.2193C130.246 23.2429 130.241 23.2664 130.23 23.2863C130.219 23.3062 130.203 23.3216 130.183 23.3301C130.164 23.3386 130.143 23.3398 130.123 23.3336C130.103 23.3274 130.085 23.314 130.073 23.2955C130.073 23.2955 129.719 22.4222 129.271 21.5627C128.593 20.186 127.707 18.9585 126.654 17.9378Z" fill="white"/>
<path id="Vector_6" d="M41.2768 15.7822C40.3964 14.7425 40.3691 14.6455 40.0938 14.6074C39.2739 14.5069 39.1317 16.0698 39.7519 17.7992C39.8971 18.2012 40.2451 18.9636 40.1422 19.0398C40.0393 19.1161 39.8971 18.7591 39.6914 18.7868C39.3737 18.8319 39.0863 19.7433 39.1317 20.5612C39.2133 22.1935 40.5779 23.1846 40.3933 23.4653C40.2088 23.746 39.1831 22.6786 38.5477 23.0668C37.8216 23.5069 37.7974 25.6868 38.5477 27.2566C39.2981 28.8265 41.7397 28.8335 41.6943 29.6583C41.658 30.2821 39.7459 29.6271 39.1619 30.6979C38.6839 31.5678 38.9471 32.6352 39.2981 33.5847C39.5418 34.2131 39.9144 34.7647 40.3843 35.1925C40.8543 35.6203 41.4075 35.9117 41.9969 36.0418C42.9349 36.177 44.4174 35.8512 44.375 35.8824C44.0725 36.073 42.8622 36.2671 42.121 36.7731C41.8009 36.9969 41.5631 37.3469 41.4523 37.7573C41.183 38.887 42.4023 40.4292 43.6731 41.0149C45.2646 41.7496 46.7865 40.9248 47.1435 40.7307C47.8047 40.3618 48.3959 39.8472 48.8832 39.2163C48.8832 39.2163 48.7592 40.0792 47.4702 40.904C46.1813 41.7288 46.4083 42.7303 46.4446 42.9833C46.5474 43.7076 47.2796 43.9571 48.0754 43.9987C49.4127 44.068 50.0118 43.2259 50.3779 43.5655C50.5836 43.7561 50.2568 44.2136 50.4686 44.5809C50.8801 45.2983 52.3203 44.2621 53.9269 45.0211C54.6107 45.3399 54.7196 45.4057 55.7029 45.9013C56.6863 46.3969 57.6272 46.6707 57.6212 46.4801C57.6212 46.2305 56.653 46.0088 55.7211 45.3884C54.411 44.5116 54.0146 44.172 53.9057 43.1012C53.7575 41.656 53.6032 40.1658 53.2552 40.3079C52.8014 40.4881 53.0374 39.2683 52.5866 39.088C52.2295 38.9564 51.7757 39.3791 51.6456 39.1851C51.5155 38.991 51.7394 38.1004 51.7696 37.3483C51.7999 36.5963 51.6305 35.2413 51.3824 34.77C50.7772 33.6159 48.9921 34.867 49.1132 34.6833C49.2342 34.4997 49.9391 33.4738 50.039 32.5104C50.0571 32.3267 50.272 30.9093 49.5549 29.835C49.3342 29.5462 49.0785 29.2953 48.7955 29.0899C47.1344 27.52 47.8878 24.2381 46.7229 23.947C46.5131 23.8707 46.2862 23.8842 46.0845 23.9852C45.6942 24.2208 45.0951 25.4719 44.9378 25.7526C44.7402 26.1494 44.4698 26.4923 44.1451 26.7576C44.4628 25.9987 46.0815 22.9732 45.7214 20.7899C45.5671 19.8612 45.074 18.8527 44.5687 18.8354C44.0634 18.818 43.7548 19.7607 43.0982 19.6532C42.9526 19.643 42.815 19.5729 42.711 19.4557C42.3176 18.9844 43.0135 18.1457 42.7654 17.2759C42.5869 16.5931 42.0605 16.7144 41.2768 15.7822Z" fill="white"/>
<path id="Vector_7" d="M54.6561 27.5893C54.6288 27.6586 54.6198 27.7244 54.6046 27.7591C54.3656 28.5735 54.7317 29.2042 54.9556 29.8904C54.9798 29.9632 55.0978 29.984 55.122 29.9112C55.3701 29.1314 55.6969 28.0848 56.069 26.8442C56.3716 25.8496 57.2278 22.9628 58.3866 19.719C58.7103 18.7046 59.2842 17.8197 60.0386 17.1718C60.6626 16.6418 61.3479 16.2137 62.0749 15.9C62.208 15.8133 62.2201 15.5049 62.2201 15.5049H53.5396C53.5396 15.5049 53.5396 15.8029 53.6546 15.8757C54.0739 16.0699 54.5034 16.2343 54.9405 16.3678C55.8784 16.7144 56.656 17.1406 56.9888 17.9273C57.1043 18.1855 57.1685 18.4698 57.1769 18.7598C57.1853 19.0497 57.1376 19.3382 57.0372 19.6046L54.6561 27.5893Z" fill="white"/>
</g>
</g>
</g>
<defs>
<clipPath id="clip0_948_124">
<rect width="132.746" height="46.525" fill="white" transform="translate(0.576263)"/>
</clipPath>
</defs>
</svg>
