<svg width="217" height="41" viewBox="0 0 217 41" fill="none" xmlns="http://www.w3.org/2000/svg">
<g id="logo 5" clip-path="url(#clip0_884_3)">
<g id="&#208;&#161;&#208;&#163;&#208;&#159;&#208;&#149;&#208;&#160;&#208;&#157;&#208;&#158;&#208;&#146;&#208;&#144;">
<g id="&#208;&#164;&#208;&#184;&#208;&#189;&#208;&#176;&#208;&#187;&#209;&#140;&#208;&#189;&#209;&#139;&#208;&#185;-&#208;&#188;&#208;&#176;&#208;&#186;&#208;&#181;&#209;&#130;">
<g id="Page-1">
<path id="Fill-1" fill-rule="evenodd" clip-rule="evenodd" d="M116.375 15.673L113.591 19.6101L112.262 14.9851C112.074 14.307 112.218 13.5985 112.656 13.0409C113.095 12.4834 113.761 12.1634 114.482 12.1634C115.352 12.1634 116.113 12.6112 116.517 13.3609C116.922 14.111 116.869 14.9755 116.375 15.673ZM102.942 19.6101L100.158 15.673C99.6647 14.9755 99.6115 14.111 100.016 13.3609H100.016C100.421 12.6112 101.181 12.1634 102.052 12.1634C102.773 12.1634 103.439 12.4834 103.877 13.0413C104.316 13.5989 104.46 14.3059 104.274 14.9786L102.942 19.6101ZM117.984 12.6104C117.311 11.3626 116.064 10.601 114.629 10.5522C113.459 10.5126 112.315 10.9793 111.537 11.8301C110.631 12.8198 110.313 14.1457 110.665 15.4137L112.368 21.3396L108.267 27.1377L104.166 21.3396L105.871 15.4065C106.22 14.1465 105.904 12.8251 105.002 11.8359C104.226 10.9839 103.083 10.5148 101.914 10.5518C100.475 10.5976 99.2242 11.3595 98.5497 12.6108C97.8535 13.9009 97.9448 15.3882 98.7936 16.5887L102.361 21.6328L99.9967 29.8617C99.9266 30.105 100.115 30.3464 100.374 30.3464H101.28C101.456 30.3464 101.611 30.2324 101.658 30.0676L103.585 23.3627L108.105 29.7542C108.183 29.8644 108.35 29.8644 108.428 29.7542L112.949 23.3627L114.876 30.0676C114.923 30.2324 115.077 30.3464 115.253 30.3464H116.159C116.419 30.3464 116.606 30.105 116.537 29.8617L114.172 21.6328L117.74 16.5887C118.589 15.3882 118.68 13.9009 117.984 12.6104Z" fill="white" stroke="white" stroke-width="0.5"/>
<g id="Group-5">
<mask id="mask0_884_3" style="mask-type:alpha" maskUnits="userSpaceOnUse" x="87" y="0" width="42" height="41">
<g id="mask-2">
<path id="Vector" d="M88.2333 40.0579H128.171V1.15747H88.2333V40.0579Z" fill="white" stroke="white" stroke-width="0.5"/>
</g>
</mask>
<g mask="url(#mask0_884_3)">
<path id="Fill-3" fill-rule="evenodd" clip-rule="evenodd" d="M108.202 2.5732C97.9927 2.5732 89.687 10.6636 89.687 20.6074C89.687 30.5516 97.9927 38.6421 108.202 38.6421C118.411 38.6421 126.717 30.5516 126.717 20.6074C126.717 10.6636 118.411 2.5732 108.202 2.5732ZM108.202 40.058C97.1913 40.058 88.2333 31.3327 88.2333 20.6074C88.2333 9.88261 97.1913 1.15723 108.202 1.15723C119.213 1.15723 128.171 9.88261 128.171 20.6074C128.171 31.3327 119.213 40.058 108.202 40.058Z" fill="white" stroke="white" stroke-width="0.5"/>
</g>
</g>
<path id="Fill-6" fill-rule="evenodd" clip-rule="evenodd" d="M19.4959 13.0527V29.9746H17.7337V16.4369L10.9087 27.8234H10.0404L3.21502 16.5093V29.9746H1.45319V13.0527H2.96719L10.5117 25.5993L17.9819 13.0527H19.4959Z" fill="white" stroke="white" stroke-width="0.5"/>
<path id="Fill-8" fill-rule="evenodd" clip-rule="evenodd" d="M37.1812 24.0035L33.0119 14.9143L28.8422 24.0035H37.1812ZM37.8515 25.4541H28.1723L26.0875 29.9743H24.1765L32.1181 13.0525H33.93L41.872 29.9743H39.9359L37.8515 25.4541Z" fill="white" stroke="white" stroke-width="0.5"/>
<path id="Fill-10" fill-rule="evenodd" clip-rule="evenodd" d="M56.9639 21.973C57.8738 21.232 58.3287 20.1921 58.3287 18.8543C58.3287 17.4848 57.8738 16.4334 56.9639 15.6997C56.0536 14.9668 54.7385 14.5999 53.0178 14.5999H48.4018V23.085H53.0178C54.7385 23.085 56.0536 22.7143 56.9639 21.973ZM58.4282 29.9746L54.4574 24.5353C54.0107 24.5837 53.5471 24.6078 53.0675 24.6078H48.4018V29.9746H46.5652V13.0527H53.0675C55.2843 13.0527 57.0218 13.5687 58.2794 14.5999C59.5366 15.6315 60.1657 17.0501 60.1657 18.8543C60.1657 20.1761 59.822 21.2927 59.1357 22.2026C58.4489 23.1132 57.4686 23.7703 56.1946 24.1726L60.4386 29.9746H58.4282Z" fill="white" stroke="white" stroke-width="0.5"/>
<path id="Fill-12" fill-rule="evenodd" clip-rule="evenodd" d="M71.5419 22.021L67.9928 25.5265V29.9742H66.1566V13.0527H67.9928V23.278L78.1934 13.0527H80.3029L72.7831 20.7157L80.8241 29.9742H78.6402L71.5419 22.021Z" fill="white" stroke="white" stroke-width="0.5"/>
<path id="Fill-14" fill-rule="evenodd" clip-rule="evenodd" d="M154.578 13.0527V29.9746H152.816V16.4369L145.991 27.8234H145.122L138.297 16.5093V29.9746H136.535V13.0527H138.049L145.593 25.5993L153.064 13.0527H154.578Z" fill="white" stroke="white" stroke-width="0.5"/>
<path id="Fill-16" fill-rule="evenodd" clip-rule="evenodd" d="M171.707 27.6177C172.816 27.0132 173.684 26.1754 174.313 25.1038C174.942 24.0322 175.256 22.8355 175.256 21.5137C175.256 20.1923 174.942 18.9957 174.313 17.924C173.684 16.8524 172.816 16.0142 171.707 15.4098C170.599 14.8057 169.358 14.5033 167.985 14.5033C166.611 14.5033 165.366 14.8057 164.249 15.4098C163.132 16.0142 162.255 16.8524 161.619 17.924C160.981 18.9957 160.663 20.1923 160.663 21.5137C160.663 22.8355 160.981 24.0322 161.619 25.1038C162.255 26.1754 163.132 27.0132 164.249 27.6177C165.366 28.2221 166.611 28.5242 167.985 28.5242C169.358 28.5242 170.599 28.2221 171.707 27.6177ZM163.306 28.9955C161.908 28.2462 160.816 27.2188 160.03 25.9134C159.244 24.608 158.851 23.1414 158.851 21.5137C158.851 19.8865 159.244 18.4194 160.03 17.1141C160.816 15.8087 161.908 14.7809 163.306 14.0316C164.704 13.2826 166.264 12.9077 167.985 12.9077C169.705 12.9077 171.256 13.2788 172.638 14.0197C174.019 14.7611 175.108 15.7885 175.902 17.1022C176.696 18.416 177.093 19.8865 177.093 21.5137C177.093 23.1414 176.696 24.6119 175.902 25.9256C175.108 27.2394 174.019 28.2668 172.638 29.0077C171.256 29.7491 169.705 30.1198 167.985 30.1198C166.264 30.1198 164.704 29.7453 163.306 28.9955Z" fill="white" stroke="white" stroke-width="0.5"/>
<path id="Fill-18" fill-rule="evenodd" clip-rule="evenodd" d="M188.301 28.4274C189.822 28.4274 191.155 28.1334 192.296 27.545C193.438 26.9569 194.323 26.1431 194.952 25.1035C195.581 24.064 195.895 22.8673 195.895 21.5135C195.895 20.16 195.581 18.9633 194.952 17.9238C194.323 16.8842 193.438 16.0708 192.296 15.4823C191.155 14.8943 189.822 14.5999 188.301 14.5999H183.163V28.4274H188.301ZM181.327 13.0527H188.4C190.236 13.0527 191.858 13.4116 193.264 14.1285C194.67 14.8459 195.762 15.845 196.541 17.126C197.318 18.4073 197.707 19.8698 197.707 21.5135C197.707 23.1575 197.318 24.62 196.541 25.9009C195.762 27.1823 194.67 28.1818 193.264 28.8988C191.858 29.6161 190.236 29.9746 188.4 29.9746H181.327V13.0527Z" fill="white" stroke="white" stroke-width="0.5"/>
<g id="Group-22">
<mask id="mask1_884_3" style="mask-type:alpha" maskUnits="userSpaceOnUse" x="198" y="12" width="19" height="19">
<g id="mask-4">
<path id="Vector_2" d="M216.298 29.9743V13.0525H198.602V29.9743H216.298Z" fill="white" stroke="white" stroke-width="0.5"/>
</g>
</mask>
<g mask="url(#mask1_884_3)">
<path id="Fill-20" fill-rule="evenodd" clip-rule="evenodd" d="M211.607 24.0035L207.438 14.9143L203.268 24.0035H211.607ZM212.278 25.4541H202.598L200.514 29.9743H198.602L206.544 13.0525H208.356L216.298 29.9743H214.362L212.278 25.4541Z" fill="white" stroke="white" stroke-width="0.5"/>
</g>
</g>
</g>
</g>
</g>
</g>
<defs>
<clipPath id="clip0_884_3">
<rect width="216.014" height="39.8237" fill="white" transform="translate(0.647461 0.352539)"/>
</clipPath>
</defs>
</svg>
