<svg width="151" height="58" viewBox="0 0 151 58" fill="none" xmlns="http://www.w3.org/2000/svg">
<g id="Logo">
<rect id="Rectangle 93" width="8.13205" height="28.9792" transform="matrix(0.863492 0.504363 -2.1776e-08 1 24.7647 0)" fill="#CECECE"/>
<rect id="Rectangle 94" width="8.13186" height="28.7144" transform="matrix(0.863392 0.504533 -0.863392 0.504533 24.792 28.9749)" fill="#E6E6E6"/>
<rect id="Rectangle 92" width="8.13186" height="27.7802" transform="matrix(0.863392 0.504533 -2.17662e-08 1 0 15.6914)" fill="white"/>
<rect id="Rectangle 91" width="8.13205" height="27.4799" transform="matrix(0.863492 0.504363 -0.863492 0.504363 24.792 0.020752)" fill="white"/>
<rect id="Rectangle 93_2" width="8.13186" height="28.9792" transform="matrix(0.863392 0.504533 -2.17662e-08 1 33.7971 5.21216)" fill="#CECECE"/>
<rect id="Rectangle 94_2" width="8.13186" height="28.7144" transform="matrix(0.863392 0.504533 -0.863392 0.504533 33.8246 34.1875)" fill="#E6E6E6"/>
<rect id="Rectangle 92_2" width="8.13186" height="28.9747" transform="matrix(0.863392 0.504533 -2.17662e-08 1 9.03247 19.7104)" fill="white"/>
<rect id="Rectangle 91_2" width="8.13186" height="28.7144" transform="matrix(0.863392 0.504533 -0.863392 0.504533 33.8242 5.23291)" fill="white"/>
<rect id="Rectangle 93_3" width="8.13186" height="43.3475" transform="matrix(0.863392 0.504533 -2.17662e-08 1 42.7697 10.4255)" fill="#CECECE"/>
<rect id="Rectangle 94_3" width="8.13186" height="28.7144" transform="matrix(0.863392 0.504533 -0.863392 0.504533 42.7976 39.3999)" fill="#E6E6E6"/>
<rect id="Rectangle 92_3" width="8.13186" height="28.9747" transform="matrix(0.863392 0.504533 -2.17662e-08 1 18.0054 24.9229)" fill="white"/>
<rect id="Rectangle 91_3" width="8.13186" height="28.7144" transform="matrix(0.863392 0.504533 -0.863392 0.504533 42.7976 10.4453)" fill="white"/>
<g id="qube">
<path d="M82.5194 20.4542V54.3771L78.7079 51.7761V37.3834C78.1405 38.1824 77.3017 38.9066 76.1916 39.5558C75.1061 40.205 73.885 40.5296 72.5281 40.5296C70.8013 40.5296 69.2471 40.0926 67.8656 39.2187C66.4841 38.3447 65.3863 37.1337 64.5722 35.5856C63.7581 34.0375 63.351 32.2772 63.351 30.3046C63.351 28.3071 63.7457 26.5468 64.5352 25.0236C65.3493 23.4755 66.4347 22.2645 67.7916 21.3906C69.1731 20.5167 70.7149 20.0797 72.4171 20.0797C73.774 20.0797 74.9951 20.3669 76.0806 20.9411C77.1907 21.4905 78.0665 22.1522 78.7079 22.9262V20.4542H82.5194ZM72.9352 36.9714C74.1193 36.9714 75.1555 36.6843 76.0436 36.11C76.9317 35.5107 77.6224 34.7117 78.1158 33.7129C78.6092 32.7142 78.8559 31.5781 78.8559 30.3046C78.8559 29.0312 78.6092 27.8951 78.1158 26.8963C77.6224 25.8726 76.9317 25.0736 76.0436 24.4993C75.1555 23.9 74.1193 23.6004 72.9352 23.6004C71.7757 23.6004 70.7519 23.9 69.8638 24.4993C68.9757 25.0736 68.2726 25.8726 67.7546 26.8963C67.2612 27.8951 67.0145 29.0312 67.0145 30.3046C67.0145 31.5781 67.2612 32.7142 67.7546 33.7129C68.2726 34.7117 68.9757 35.5107 69.8638 36.11C70.7519 36.6843 71.7757 36.9714 72.9352 36.9714Z" fill="white"/>
<path d="M100.577 32.3271V20.4917H104.389V40.155H100.577V37.0089C100.01 37.9327 99.1712 38.7567 98.0611 39.4809C96.9756 40.18 95.6681 40.5296 94.1386 40.5296C92.1157 40.5296 90.4751 39.8304 89.217 38.4321C87.9588 37.0339 87.3297 35.0987 87.3297 32.6268V20.4917H91.1412V31.5781C91.1412 32.5768 91.2892 33.5007 91.5853 34.3497C91.906 35.1986 92.3994 35.8853 93.0655 36.4096C93.7562 36.909 94.632 37.1587 95.6928 37.1587C97.0249 37.1587 98.1721 36.7342 99.1342 35.8853C100.096 35.0363 100.577 33.8503 100.577 32.3271Z" fill="white"/>
<path d="M119.837 20.0797C121.564 20.0797 123.106 20.5167 124.463 21.3906C125.844 22.2396 126.93 23.4381 127.719 24.9862C128.509 26.5093 128.903 28.2696 128.903 30.2672C128.903 32.2647 128.509 34.0375 127.719 35.5856C126.93 37.1337 125.857 38.3447 124.5 39.2187C123.143 40.0926 121.626 40.5296 119.948 40.5296C118.567 40.5296 117.308 40.2299 116.174 39.6307C115.064 39.0064 114.188 38.3073 113.546 37.5332V40.0427H109.735V9.83813L113.546 12.4391V23.3382C114.114 22.5142 114.965 21.7651 116.1 21.091C117.234 20.4168 118.48 20.0797 119.837 20.0797ZM119.319 23.6004C118.16 23.6004 117.123 23.8875 116.211 24.4618C115.323 25.0361 114.619 25.8351 114.101 26.8589C113.608 27.8576 113.361 28.9937 113.361 30.2672C113.361 31.5406 113.608 32.6892 114.101 33.7129C114.619 34.7117 115.323 35.5107 116.211 36.11C117.123 36.7093 118.16 37.0089 119.319 37.0089C120.479 37.0089 121.502 36.7093 122.39 36.11C123.279 35.5107 123.969 34.7117 124.463 33.7129C124.981 32.6892 125.24 31.5406 125.24 30.2672C125.24 28.9937 124.981 27.8576 124.463 26.8589C123.969 25.8351 123.279 25.0361 122.39 24.4618C121.502 23.8875 120.479 23.6004 119.319 23.6004Z" fill="white"/>
<path d="M149.732 37.5707H149.695C148.906 38.3447 147.821 39.0314 146.439 39.6307C145.058 40.2299 143.614 40.5296 142.11 40.5296C140.087 40.5296 138.298 40.1051 136.744 39.2561C135.214 38.3822 134.018 37.1962 133.154 35.698C132.291 34.1749 131.859 32.452 131.859 30.5294C131.859 28.3321 132.316 26.4594 133.228 24.9113C134.141 23.3382 135.35 22.1397 136.855 21.3157C138.36 20.4667 140 20.0423 141.776 20.0423C143.405 20.0423 144.885 20.4542 146.217 21.2782C147.549 22.0772 148.61 23.1884 149.399 24.6116C150.189 26.0349 150.584 27.6953 150.584 29.593L150.547 31.241H135.671C135.893 33.0138 136.608 34.4246 137.817 35.4733C139.05 36.497 140.605 37.0089 142.48 37.0089C143.836 37.0089 144.934 36.7592 145.773 36.2598C146.612 35.7355 147.302 35.2361 147.845 34.7617L149.732 37.5707ZM141.776 23.6004C140.321 23.6004 139.05 23.9499 137.965 24.6491C136.88 25.3233 136.164 26.4968 135.819 28.1698H146.698V27.9076C146.624 27.0586 146.34 26.3095 145.847 25.6603C145.378 25.0111 144.786 24.5118 144.071 24.1622C143.355 23.7876 142.591 23.6004 141.776 23.6004Z" fill="white"/>
</g>
</g>
</svg>
