<svg width="120" height="38" viewBox="0 0 120 38" fill="none" xmlns="http://www.w3.org/2000/svg">
<g id="logo 1" clip-path="url(#clip0_826_18)">
<g id="Layer 2">
<g id="Layer 1">
<path id="Vector" d="M4.15948 28.7385V4.23157H8.31591V28.7385H4.15948ZM22.6826 29.2188C20.9064 29.2526 19.1533 28.8049 17.6035 27.9215C16.1374 27.0745 14.9326 25.8283 14.1245 24.323C13.2594 22.6604 12.8288 20.7995 12.8739 18.9189C12.8314 17.0216 13.2527 15.1432 14.1 13.4525C14.8889 11.9208 16.0875 10.6473 17.5575 9.77908C19.1293 8.87599 20.9116 8.42135 22.7163 8.46314C24.4635 8.41915 26.1886 8.86814 27.7003 9.76037C29.081 10.5923 30.2185 11.7839 30.9954 13.2124C31.7886 14.6643 32.1984 16.3006 32.1847 17.9616C32.1847 18.2266 32.1847 18.5135 32.1633 18.8191C32.1418 19.1247 32.1326 19.4646 32.105 19.8388H16.9476C17.0804 21.7535 17.7016 23.2087 18.8112 24.2045C19.8694 25.1835 21.2523 25.7193 22.6826 25.7044C23.7288 25.7412 24.7617 25.4565 25.6466 24.8874C26.4427 24.3429 27.0632 23.5717 27.4306 22.6703H31.5717C31.0536 24.5305 29.9592 26.171 28.4513 27.3478C26.9023 28.5951 24.9794 29.2188 22.6826 29.2188ZM22.6826 11.9338C21.3534 11.9165 20.0574 12.356 19.0043 13.1812C17.9315 14.0127 17.2776 15.2705 17.0426 16.9544H28.013C27.9333 15.4222 27.3969 14.2009 26.4037 13.2903C25.3775 12.3741 24.0472 11.8892 22.6826 11.9338ZM42.9528 22.6703C41.9993 22.6794 41.0488 22.5588 40.1267 22.3117L38.4408 23.9893C38.7709 24.1955 39.1265 24.356 39.4983 24.4664C40.0765 24.6344 40.6669 24.7553 41.2639 24.8282C42.0241 24.9342 43.0581 25.0381 44.3659 25.14C46.9529 25.3791 48.8227 26.011 49.9752 27.0359C50.5441 27.5442 50.9942 28.1752 51.2928 28.883C51.5914 29.5909 51.7308 30.3576 51.7009 31.1272C51.7009 32.3031 51.3827 33.4564 50.7814 34.4607C50.0933 35.5787 49.0979 36.4667 47.9185 37.0146C46.6249 37.6674 44.9707 37.9938 42.9559 37.9938C40.234 37.9938 38.0301 37.4678 36.3442 36.4159C34.6583 35.364 33.8144 33.7736 33.8123 31.6448C33.8222 30.7842 34.0458 29.94 34.4622 29.1907C34.9774 28.283 35.6802 27.5 36.522 26.8956C36.0213 26.6824 35.541 26.4225 35.0875 26.1191C34.7073 25.8586 34.3457 25.571 34.0055 25.2585V24.323L37.3772 20.8117C35.8609 19.4813 35.1028 17.7381 35.1028 15.5823C35.0885 14.3287 35.4062 13.0944 36.0224 12.0087C36.6595 10.9095 37.5908 10.0173 38.7075 9.43606C40.021 8.76534 41.4776 8.43641 42.9467 8.47874C43.987 8.46868 45.0221 8.62979 46.0119 8.95584H53.2703V11.7623L49.8189 11.9619C50.4498 13.064 50.775 14.3195 50.7599 15.5948C50.7798 16.855 50.4619 18.0968 49.8403 19.1871C49.2009 20.2731 48.2777 21.1572 47.1736 21.741C45.8647 22.4036 44.4139 22.723 42.9528 22.6703ZM37.742 31.2519C37.7239 31.7813 37.8548 32.3049 38.1192 32.7612C38.3836 33.2175 38.7706 33.5875 39.2347 33.8277C40.3834 34.4365 41.6676 34.732 42.962 34.6852C44.3924 34.6852 45.5562 34.3734 46.4533 33.7497C46.8675 33.4855 47.2079 33.1172 47.4414 32.6802C47.675 32.2432 47.7939 31.7524 47.7867 31.255C47.7886 30.8788 47.7089 30.5068 47.5531 30.1655C47.3973 29.8243 47.1693 29.5223 46.8855 29.2811C46.2724 28.7365 45.1342 28.3966 43.4708 28.2614C42.2161 28.1845 41.1045 28.065 40.1359 27.9028C39.2163 28.408 38.6033 28.9537 38.2538 29.54C37.9314 30.0523 37.7513 30.6439 37.7328 31.2519H37.742ZM42.9528 19.3586C44.0118 19.4088 45.0518 19.0602 45.874 18.3794C46.6219 17.7288 46.9948 16.8047 46.9928 15.6072C46.9907 14.4098 46.6178 13.4743 45.874 12.8007C45.0449 12.1357 44.0074 11.7979 42.9528 11.8497C41.7267 11.8497 40.7387 12.1688 39.9888 12.807C39.2388 13.4452 38.8669 14.3807 38.873 15.6135C38.873 16.8109 39.2449 17.735 39.9888 18.3857C40.7326 19.0364 41.7206 19.3607 42.9528 19.3586ZM62.0552 29.2188C60.4102 29.2188 59.0503 28.9392 57.9754 28.3799C56.9815 27.8949 56.1492 27.1241 55.5815 26.1628C55.0604 25.2479 54.7895 24.2078 54.7968 23.1505C54.7679 22.2669 54.9533 21.3896 55.3366 20.5961C55.7198 19.8027 56.2893 19.1174 56.9946 18.6008C58.4597 17.4824 60.5522 16.9232 63.2721 16.9232H68.3726V16.5646C68.3726 15.022 67.9639 13.8641 67.1465 13.0907C66.2676 12.2998 65.122 11.8852 63.9495 11.9338C62.885 11.9046 61.8364 12.2012 60.9395 12.7852C60.5178 13.0703 60.1611 13.4442 59.8936 13.8815C59.626 14.3189 59.4538 14.8095 59.3885 15.3204H55.229C55.3274 13.9705 55.8266 12.683 56.6604 11.6283C57.5005 10.5929 58.5786 9.78419 59.7992 9.27391C61.1245 8.71763 62.5466 8.43972 63.9802 8.45691C66.7 8.45691 68.8048 9.18452 70.2945 10.6397C71.7842 12.095 72.5301 14.0699 72.5321 16.5646V28.7261H68.9213L68.5688 25.3458C68.0082 26.4518 67.1854 27.3982 66.1749 28.0993C65.1286 28.8456 63.7554 29.2188 62.0552 29.2188ZM62.8798 25.7886C63.8886 25.8221 64.8827 25.5355 65.7243 24.9685C66.5039 24.4146 67.1265 23.6618 67.5297 22.7856C67.9713 21.8447 68.2433 20.8308 68.3328 19.792H63.7043C62.0552 19.792 60.8843 20.0841 60.1916 20.6683C59.8655 20.9268 59.6023 21.2581 59.4221 21.6366C59.2419 22.0151 59.1497 22.4306 59.1525 22.8511C59.1361 23.2633 59.2189 23.6732 59.3935 24.0455C59.5682 24.4177 59.8295 24.741 60.1548 24.9872C60.8199 25.5267 61.7303 25.7855 62.8798 25.7855V25.7886ZM85.3539 29.2188C83.5618 29.2494 81.7939 28.7941 80.2319 27.8997C78.7455 27.0383 77.5231 25.7743 76.7008 24.2481C75.8258 22.5873 75.3866 20.7249 75.4257 18.841C75.3867 16.956 75.8258 15.0927 76.7008 13.4306C77.5238 11.9051 78.746 10.6412 80.2319 9.77908C81.7942 8.88577 83.562 8.43158 85.3539 8.46314C87.7611 8.46314 89.7811 9.10136 91.4138 10.3778C93.0523 11.6591 94.1757 13.5037 94.5741 15.5667H90.2184C89.9883 14.5209 89.37 13.606 88.4927 13.0128C87.606 12.4369 86.5812 12.1193 85.5295 12.0945C84.4778 12.0698 83.4396 12.3389 82.5278 12.8725C81.6395 13.4187 80.9195 14.2073 80.4496 15.1489C79.8927 16.2949 79.6232 17.5633 79.6649 18.841C79.6236 20.1186 79.8931 21.3869 80.4496 22.5331C80.9233 23.4768 81.6421 24.2705 82.5278 24.8282C83.3788 25.3557 84.3573 25.6321 85.3539 25.6264C86.4696 25.6487 87.5652 25.3222 88.4927 24.6909C89.3775 24.0872 89.9965 23.1566 90.2184 22.0965H94.5741C94.1818 24.1496 93.0655 25.9861 91.4353 27.2605C89.7862 28.5681 87.7591 29.2208 85.3539 29.2188ZM99.9596 37.5198L104.628 27.1014H103.491L95.8001 8.94025H100.312L106.277 23.5964L112.515 8.94025H116.907L104.34 37.5198H99.9596ZM117.919 24.5007C117.367 24.5016 116.839 24.725 116.449 25.122C116.059 25.519 115.84 26.0571 115.84 26.6181C115.841 27.1786 116.061 27.7158 116.45 28.1122C116.84 28.5085 117.368 28.7315 117.919 28.7323C118.47 28.7323 118.999 28.5097 119.389 28.1133C119.78 27.7168 119.999 27.1791 120 26.6181C119.998 26.0576 119.778 25.5206 119.388 25.1249C118.998 24.7292 118.47 24.507 117.919 24.507V24.5007ZM10.0232 24.5007H8.31591V28.7385H10.0232V24.5007Z" fill="white"/>
</g>
</g>
<rect id="Rectangle 4" width="4" height="4" fill="#E5B080"/>
</g>
<defs>
<clipPath id="clip0_826_18">
<rect width="120" height="38" fill="white"/>
</clipPath>
</defs>
</svg>
