<svg version="1.1" id="Layer_1" xmlns="http://www.w3.org/2000/svg" x="0" y="0" viewBox="0 0 506.2 555.8" xml:space="preserve"><style>.st0{fill:#fff}</style><g><path class="st0" d="M396.7 305.9v56h-.1l-47.8 28-47.8 28-23.9 14-24 14-23.9-14-23.9-14-47.8-28-47.9-28v-56l47.9-27.9v55.9l47.8 28 23.9 14 23.9 14 24-14 23.9-14 47.8-28v-56l47.8 28z"/><path class="st0" d="M396.7 193.9v56h-.1l-47.8-28-47.8-28-23.9-14v140l-24 14-23.9-14V180l-23.9 13.9-47.8 28v.1l-47.9 27.9v-56l47.9-27.9 47.8-28 23.9-14 23.9-14 24 14 23.9 14 47.8 28 47.8 27.9z"/></g></svg>