<svg xmlns="http://www.w3.org/2000/svg" viewBox="0 0 109.3 110.1"><g id="Layer_1"><g id="icon_04" fill="none" stroke="#1F65D9" stroke-width="6" stroke-miterlimit="10"><path d="M82.2 67.8C74 83.6 54.5 89.7 38.7 81.5c-5.2-2.7-9.4-6.7-12.3-11.3m11.3-32.8V44m29.9-6.6V44M19 93.3c-4.5-4.1-8.2-9-11-14.4"/><path d="M106.3 56.2c-.6 28.2-23.7 50.9-52 50.9-7.4 0-14.5-1.6-20.9-4.4m58.8-83.3c1.6 1.7 3.1 3.5 4.4 5.4M74.5 7.1c2.7 1.1 5.2 2.5 7.6 4M3 46.3C7.1 21.7 28.5 3 54.3 3c4.6 0 9.1.6 13.3 1.7"/></g></g></svg>