<svg xmlns="http://www.w3.org/2000/svg" viewBox="0 0 110 110"><g id="Layer_1"><g id="icon_01" fill="none" stroke="#1F65D9" stroke-width="6" stroke-miterlimit="10"><path d="M102.6 75.9c-2.3 5.2-5.5 10-9.3 14.2M43.8 4.2C47.4 3.4 51.2 3 55 3c28.7 0 52 23.3 52 52 0 2.6-.2 5.2-.6 7.6M11.3 26.7c1.1-1.7 2.3-3.3 3.6-4.9m55.3 82.9c-4.8 1.5-9.9 2.3-15.2 2.3-28.7 0-52-23.3-52-52 0-5.4.8-10.6 2.3-15.5"/><path d="M17.7 55c0-20.6 16.7-37.3 37.3-37.3 6.8 0 13.2 1.8 18.7 5M29.1 81.9c-1.9-1.8-3.6-3.8-5-6M92.3 55c0 20.6-16.7 37.3-37.3 37.3-6.8 0-13.2-1.8-18.7-5m44.6-59.2c1.9 1.8 3.6 3.8 5 6M71.5 45.4L55 35.8l-16.5 9.6v19.2L55 74.2l16.5-9.6z"/></g></g></svg>