<svg width="238" height="278" viewBox="0 0 238 278" fill="none" xmlns="http://www.w3.org/2000/svg"><path d="M169.533 0H36.283v122.25h17.934V17.931H151.6v68.457h68.536v173.75H151.6V278H238V68.457v.07L169.533 0zm-.069 68.457V25.298l43.235 43.16h-43.235zM0 139v139h133.666V139H0zm115.733 116.204l-33.156-33.152L59.5 245.127l-13.971-13.97-27.735 27.731V156.931h97.87v98.273h.069zm-16.404-58.589c0 5.282-4.31 9.592-9.592 9.592-5.283 0-9.593-4.31-9.593-9.592 0-5.282 4.31-9.59 9.593-9.59 5.282.069 9.592 4.308 9.592 9.59z" fill="#fff"/></svg>