<svg width="103" height="66" viewBox="0 0 103 66" fill="none" xmlns="http://www.w3.org/2000/svg">
<path fill-rule="evenodd" clip-rule="evenodd" d="M31.4079 53.2094L31.2136 53.3876C29.9542 54.7849 28.4232 55.9145 26.7128 56.7081C25.0025 57.5018 23.1481 57.9433 21.2615 58.0059C13.8647 58.0059 8.48521 52.4818 8.48521 44.864C8.48521 37.2461 13.8647 31.7369 21.2615 31.7369C23.1481 31.7995 25.0025 32.241 26.7128 33.0347C28.4232 33.8283 29.9542 34.9578 31.2136 36.3551L31.4079 36.5482L36.1598 30.8163L36.0402 30.6678C34.3128 28.4811 32.1006 26.7203 29.5761 25.5226C27.0516 24.3249 24.2829 23.7227 21.4857 23.7627C15.9473 23.6524 10.5682 25.6072 6.40812 29.2422C2.29999 33.4203 0 39.0299 0 44.8714C0 50.7129 2.29999 56.3225 6.40812 60.5006C10.5591 64.1524 15.9431 66.1143 21.4857 65.9949C24.2845 66.0355 27.0547 65.4319 29.5797 64.2315C32.1047 63.031 34.3159 61.2661 36.0402 59.075L36.1598 58.9414L31.4079 53.2094Z" fill="white"/>
<path fill-rule="evenodd" clip-rule="evenodd" d="M40.9716 65.208H49.3845V24.4163H40.9716V65.208Z" fill="white"/>
<path fill-rule="evenodd" clip-rule="evenodd" d="M82.3339 56.3429C80.486 57.5711 78.3379 58.2792 76.1176 58.3921C73.398 58.3921 72.1726 56.9071 72.1726 53.7887V32.138H80.735V24.535H72.1726V11.7644L63.9241 16.2193V24.535H56.8261V32.2123H63.9241V55.244C63.9241 61.5105 67.6748 65.802 73.2485 65.9059C75.871 66.0358 78.4727 65.3843 80.72 64.0349H80.7948L82.827 56.1646L82.3339 56.4616V56.3429Z" fill="white"/>
<path fill-rule="evenodd" clip-rule="evenodd" d="M89.2824 65.208H97.7103V24.4163H89.2824V65.208Z" fill="white"/>
<path fill-rule="evenodd" clip-rule="evenodd" d="M102.612 17.2589C98.8454 11.9279 93.843 7.57644 88.0273 4.57238C82.2115 1.56832 75.7533 0 69.1988 0C62.6443 0 56.1862 1.56832 50.3704 4.57238C44.5546 7.57644 39.5522 11.9279 35.7862 17.2589L35.3827 17.8232H45.0658L45.1704 17.7043C48.254 14.4469 51.976 11.8511 56.1071 10.0768C60.2381 8.30241 64.6909 7.38708 69.1914 7.38708C73.6918 7.38708 78.1446 8.30241 82.2757 10.0768C86.4068 11.8511 90.1287 14.4469 93.2123 17.7043L93.3319 17.8232H103L102.612 17.2589Z" fill="#E40520"/>
</svg>
