<svg width="595" height="62" viewBox="0 0 595 62" fill="none" xmlns="http://www.w3.org/2000/svg"><g clip-path="url(#clip0_1613_6657)"><path d="M0 .5c3.136 0 6.222.12 9.338 0 1.53-.028 3.059.057 4.574.252h.77c1.128-.767 2.277-.057 3.415-.057.889.272 1.818-.28 2.697.122C22.092.163 23.03.761 24.14.583c.223.117.473.182.729.187C27.086.266 29.333.65 31.57.555c.345-.055.7.008.999.178.327.287.755.453 1.203.467a1.93 1.93 0 001.234-.392c.24-.16.42-.505.789-.355 1.997.822 4.055.112 6.052.214a144.89 144.89 0 0016.879 0c4.145 0 8.31 0 12.454-.224.56 0 1.308 0 1.398.449-.08.355.54.448.87.159C74.785-.136 76.522.61 78.12.49a30.463 30.463 0 014.345.093c1.248.084 2.617.103 3.915.271.38.047.719.187 1.049-.093.2-.171.442-.296.704-.364.262-.068.537-.078.804-.029.282-.023.566-.023.849 0 1.153.187 2.332.187 3.485 0 .999.44 2.497-.644 3.306.739 2.837.355 5.623-.29 8.459-.402 5.493-.215 10.987.215 16.47.233 3.385 0 6.761-.439 10.207-.168 1.738.14 3.995 1.066 5.663.28 1.128-.513 1.657-1 2.377-.467.399-.177.908.056 1.278-.28-.569 1.626 1.688.168 1.488.159.779 0 1.588.374 2.337-.047 1.818-.093 4.175-.112 6.272-.093 6.252.056 12.624-.14 18.677 0 1.629-.04 3.256.152 4.824.57 2.307.495 4.664-.496 6.991-.28 4.214.392 8.439 0 12.654.12 2.714.05 5.429-.053 8.129-.308a55.915 55.915 0 0111.925.057c3.336.439 6.712 0 10.068.074 5.782.112 11.545-.532 17.338-.14 3.186.224 6.402.047 9.598.084a117.2 117.2 0 0012.684-.093c1.048-.309 2.157 0 3.216-.215 1.108.15 2.097.607 3.196.121h.759A43.751 43.751 0 01275.183.2c.079.477.359.57.878.505a4.475 4.475 0 011.588-.57c.3.056.66 0 .829.336a.66.66 0 00.127.29.703.703 0 00.253.206c.221.057.449.092.679.102a5.803 5.803 0 003.076-.57 1.56 1.56 0 01.51 0 2.347 2.347 0 001.707-.13c.25-.02.5-.02.749 0 .55.177 1.109.317 1.638.523.62.532 1.229-.57 1.838 0 .336.206.727.322 1.129.333.402.012.799-.08 1.148-.268 1.388-1.01 3.146-.196 4.654-.72l.55.047c.638.09 1.268.222 1.887.393.48.215.919.626 1.518.233.1-.084.14-.457.24-.551.1-.093.21.206.28.122.07-.085.319-.28.469-.28 4.195.149 8.349 0 12.544 0 5.373 0 10.757.494 16.14.214 1.548-.075 3.276-.299 4.614.224.999.384 1.308.785 1.948 0 .469-.57 1.448-.458 1.997-.299 1.468.42 2.846.094 4.285.103.759-.467 1.538-.047 2.297.178.619.046 1.098-.673 1.817-.402 1.648.607 3.366.084 4.994.075 4.155 0 8.27-.066 12.424-.16 3.846-.074 7.591.076 11.436 0a94.874 94.874 0 019.608.169c.559 0 .909.523 1.398.336 2.697-.084 10.237 0 10.237 0v1.365H0V.499z" fill="#F2E8D9" fill-opacity=".5"/></g><g clip-path="url(#clip1_1613_6657)"><path d="M392.404.495c1.616 0 3.206.122 4.812 0a8.503 8.503 0 012.357.253h.396c.581-.767 1.173-.056 1.76-.056.458.27.936-.28 1.389.121.669-.654 1.153-.056 1.724-.234a.566.566 0 00.376.187c1.142-.504 2.3-.121 3.453-.215.177-.055.36.008.514.178.169.287.389.453.62.467.231.014.457-.126.636-.392.123-.16.216-.505.407-.355 1.029.822 2.089.112 3.118.215a38.66 38.66 0 008.697 0c2.135 0 4.281 0 6.417-.225.288 0 .674 0 .72.449-.041.355.278.448.448.159.689-1.187 1.585-.44 2.408-.561a8.134 8.134 0 012.239.093c.643.085 1.348.103 2.017.271.195.047.37.187.54-.093a.943.943 0 01.363-.364.51.51 0 01.414-.029c.146-.023.292-.023.438 0a2.948 2.948 0 001.796 0c.514.44 1.286-.644 1.703.739 1.461.355 2.897-.29 4.359-.402 2.83-.215 5.66.215 8.485.234 1.745 0 3.484-.44 5.26-.169.895.14 2.058 1.066 2.917.28.582-.513.855-1 1.225-.467.206-.177.468.057.659-.28-.294 1.626.869.168.766.159.402 0 .819.374 1.205-.047.936-.093 2.151-.112 3.231-.093 3.222.056 6.505-.14 9.623 0 .84-.04 1.678.152 2.486.57 1.189.495 2.403-.495 3.602-.28 2.172.392 4.348 0 6.52.121 1.398.05 2.797-.054 4.189-.308a14.961 14.961 0 016.144.056c1.719.439 3.458 0 5.187.074 2.98.113 5.949-.532 8.934-.14 1.641.225 3.298.047 4.945.084 2.178.198 4.36.167 6.535-.093.541-.309 1.112 0 1.657-.215.572.15 1.081.607 1.647.121h.391a11.68 11.68 0 012.059-.112c.041.477.185.57.452.505.249-.287.528-.481.819-.57.154.056.339 0 .427.336.009.105.031.204.065.29a.577.577 0 00.13.206.972.972 0 00.35.102c.548.095 1.099-.103 1.585-.57a.423.423 0 01.263 0 .669.669 0 00.447.096.811.811 0 00.433-.227 1.34 1.34 0 01.386 0c.283.178.571.318.844.524.319.533.632-.57.946 0 .174.206.375.322.582.334.207.011.412-.082.592-.269.715-1.01 1.621-.196 2.398-.72l.283.047c.328.091.653.222.972.393.247.215.474.626.783.234.051-.085.072-.458.123-.552.051-.093.108.206.144.122.036-.084.165-.28.242-.28 2.161.149 4.302 0 6.463 0 2.769 0 5.543.495 8.316.214.798-.075 1.688-.299 2.378.225.514.383.674.785 1.003 0 .242-.57.746-.458 1.029-.3.757.421 1.467.094 2.208.103.391-.467.792-.046 1.184.178.319.047.566-.673.936-.402.849.607 1.734.084 2.573.075 2.141 0 4.261-.066 6.402-.16 1.981-.074 3.911.076 5.892 0 1.65-.105 3.303-.05 4.95.17.288 0 .469.522.721.336 1.389-.085 5.274 0 5.274 0V2H392.404V.495z" fill="#F2E8D9" fill-opacity=".5"/></g><g clip-path="url(#clip2_1613_6657)"><path d="M0 61.5c3.136 0 6.222-.12 9.338 0a31.52 31.52 0 004.574-.252h.77c1.128.767 2.277.056 3.415.056.889-.27 1.818.28 2.697-.121 1.298.654 2.237.056 3.346.234.223-.117.473-.181.729-.187 2.217.504 4.464.121 6.701.215.345.055.7-.008.999-.178a1.915 1.915 0 011.203-.467 1.93 1.93 0 011.234.392c.24.16.42.505.789.355 1.997-.822 4.055-.112 6.052-.214a145.28 145.28 0 0116.879 0c4.145 0 8.31 0 12.454.224.56 0 1.308 0 1.398-.449-.08-.355.54-.448.87-.159 1.338 1.187 3.075.44 4.673.561 1.449.072 2.901.041 4.345-.093 1.248-.084 2.617-.103 3.915-.271.38-.047.719-.187 1.049.093.2.171.442.296.704.364.262.068.537.078.804.029.282.023.566.023.849 0a10.91 10.91 0 013.485 0c.999-.44 2.497.645 3.306-.739 2.837-.355 5.623.29 8.459.402 5.493.215 10.987-.215 16.47-.233 3.385 0 6.761.439 10.207.168 1.738-.14 3.995-1.066 5.663-.28 1.128.513 1.657 1 2.377.467.399.177.908-.056 1.278.28-.569-1.626 1.688-.168 1.488-.159.779 0 1.588-.374 2.337.047 1.818.093 4.175.112 6.272.093 6.252-.056 12.624.14 18.677 0 1.629.04 3.256-.152 4.824-.57 2.307-.495 4.664.496 6.991.28 4.214-.392 8.439 0 12.654-.12 2.714-.05 5.429.053 8.129.307a55.86 55.86 0 0011.925-.056c3.336-.439 6.712 0 10.068-.074 5.782-.112 11.545.532 17.338.14 3.186-.224 6.402-.047 9.598-.084 4.226-.198 8.461-.167 12.684.093 1.048.309 2.157 0 3.216.215 1.108-.15 2.097-.607 3.196-.121h.759a43.75 43.75 0 003.995.112c.079-.477.359-.57.878-.505a4.477 4.477 0 001.588.57c.3-.056.66 0 .829-.336a.66.66 0 01.127-.29.704.704 0 01.253-.206 3.29 3.29 0 01.679-.102 5.803 5.803 0 013.076.57c.169.028.341.028.51 0a2.344 2.344 0 011.707.13c.25.02.5.02.749 0 .55-.177 1.109-.317 1.638-.523.62-.532 1.229.57 1.838 0a2.283 2.283 0 011.129-.333c.402-.012.799.08 1.148.268 1.388 1.01 3.146.196 4.654.72l.55-.047c.638-.09 1.268-.222 1.887-.393.48-.215.919-.626 1.518-.233.1.084.14.457.24.551.1.093.21-.206.28-.121.07.084.319.28.469.28 4.195-.15 8.349 0 12.544 0 5.373 0 10.757-.495 16.14-.215 1.548.075 3.276.299 4.614-.224.999-.384 1.308-.785 1.948 0 .469.57 1.448.458 1.997.299 1.468-.42 2.846-.094 4.285-.103.759.467 1.538.047 2.297-.178.619-.046 1.098.673 1.817.402 1.648-.607 3.366-.084 4.994-.075 4.155 0 8.27.066 12.424.16 3.846.074 7.591-.075 11.436 0 3.203.105 6.411.05 9.608-.169.559 0 .909-.523 1.398-.336 2.697.084 10.237 0 10.237 0v-1.365H0v1.505z" fill="#F2E8D9" fill-opacity=".5"/></g><g clip-path="url(#clip3_1613_6657)"><path d="M392.404 61.505c1.616 0 3.206-.122 4.812 0a8.502 8.502 0 002.357-.253h.396c.581.767 1.173.056 1.76.056.458-.27.936.28 1.389-.121.669.654 1.153.056 1.724.234a.566.566 0 01.376-.187c1.142.504 2.3.121 3.453.215.177.055.36-.008.514-.178.169-.287.389-.453.62-.467.231-.014.457.126.636.392.123.16.216.505.407.355 1.029-.822 2.089-.112 3.118-.215a38.662 38.662 0 018.697 0c2.135 0 4.281 0 6.417.225.288 0 .674 0 .72-.449-.041-.355.278-.448.448-.159.689 1.187 1.585.44 2.408.561a8.135 8.135 0 002.239-.093c.643-.085 1.348-.103 2.017-.271.195-.047.37-.187.54.093a.943.943 0 00.363.364.51.51 0 00.414.029c.146.023.292.023.438 0a2.948 2.948 0 011.796 0c.514-.44 1.286.644 1.703-.739 1.461-.355 2.897.29 4.359.402 2.83.215 5.66-.215 8.485-.234 1.745 0 3.484.44 5.26.169.895-.14 2.058-1.066 2.917-.28.582.513.855 1 1.225.467.206.177.468-.056.659.28-.294-1.626.869-.168.766-.159.402 0 .819-.374 1.205.047.936.093 2.151.112 3.231.093 3.222-.056 6.505.14 9.623 0 .84.04 1.678-.152 2.486-.57 1.189-.495 2.403.495 3.602.28 2.172-.392 4.348 0 6.52-.121 1.398-.05 2.797.054 4.189.308a14.96 14.96 0 006.144-.056c1.719-.439 3.458 0 5.187-.074 2.98-.113 5.949.532 8.934.14 1.641-.224 3.298-.047 4.945-.084a31.174 31.174 0 016.535.093c.541.309 1.112 0 1.657.215.572-.15 1.081-.607 1.647-.121h.391c.695.102 1.359.13 2.059.112.041-.477.185-.57.452-.505.249.288.528.481.819.57.154-.056.339 0 .427-.336a1.04 1.04 0 01.065-.29.577.577 0 01.13-.206.972.972 0 01.35-.102c.548-.095 1.099.103 1.585.57a.424.424 0 00.263 0 .668.668 0 01.447-.096.81.81 0 01.433.227c.128.018.257.018.386 0 .283-.178.571-.318.844-.524.319-.533.632.57.946 0 .174-.206.375-.322.582-.334.207-.011.412.082.592.269.715 1.01 1.621.196 2.398.72l.283-.047c.328-.091.653-.222.972-.393.247-.215.474-.626.783-.233.051.084.072.457.123.55.051.094.108-.205.144-.12.036.084.165.28.242.28 2.161-.15 4.302 0 6.463 0 2.769 0 5.543-.496 8.316-.215.798.075 1.688.299 2.378-.224.514-.384.674-.786 1.003 0 .242.57.746.457 1.029.299.757-.421 1.467-.094 2.208-.103.391.467.792.047 1.184-.178.319-.047.566.673.936.402.849-.607 1.734-.084 2.573-.075 2.141 0 4.261.066 6.402.16 1.981.074 3.911-.076 5.892 0 1.65.105 3.303.05 4.95-.17.288 0 .469-.522.721-.336 1.389.085 5.274 0 5.274 0V60H392.404v1.505z" fill="#F2E8D9" fill-opacity=".5"/></g><path d="M.435.419c0 .472.126.936 0 1.404-.028.23.06.46.262.688v.116c-.797.17-.058.342-.058.514.282.133-.292.273.126.405-.68.196-.058.337-.243.503.122.034.189.072.195.11-.525.334-.127.671-.224 1.008-.058.052.008.105.185.15.299.05.471.114.486.181.014.068-.131.134-.408.186-.166.036-.525.063-.37.118.856.3.117.61.224.91.34.846.34 1.694 0 2.539 0 .623 0 1.25-.234 1.873 0 .084 0 .197.467.21.37-.012.467.081.165.131-1.234.201-.457.463-.583.703-.075.218-.043.436.097.653.088.188.107.394.282.59.049.056.195.107-.097.157-.178.03-.308.066-.379.106-.07.04-.08.08-.03.12a.121.121 0 000 .128c.195.174.195.351 0 .525.458.15-.67.375.769.497.37.426-.302.845-.418 1.272-.224.826.223 1.652.243 2.477 0 .509-.457 1.017-.175 1.535.146.261 1.108.6.291.852-.534.17-1.04.249-.486.357-.184.06.059.137-.291.192 1.691-.085.175.254.165.224 0 .117.389.239-.049.352-.097.273-.116.628-.097.943.058.94-.146 1.899 0 2.809-.041.245.159.49.593.725.515.347-.515.702-.292 1.052.409.633 0 1.269.127 1.903.051.408-.056.816-.321 1.222-.423.597-.403 1.198.058 1.794.457.502 0 1.01.078 1.514.117.87-.554 1.736-.146 2.608.234.479.049.962.088 1.443a2.645 2.645 0 01-.097 1.907c-.321.158 0 .325-.224.484.156.167.632.316.126.48v.115a1.027 1.027 0 00-.116.6c.496.013.593.055.525.133-.3.073-.5.154-.593.239.058.045 0 .099.35.124.109.003.212.01.301.02.09.01.163.023.214.038.06.033.096.067.107.102.098.16-.108.32-.593.462-.03.026-.03.052 0 .077.09.042.123.086.1.13-.024.045-.104.088-.236.127a.116.116 0 000 .112c.184.083.33.167.544.247.554.093-.593.184 0 .276.215.05.335.11.347.17.012.06-.084.12-.279.173-1.05.208-.204.473-.748.7l.048.082c.094.096.23.191.409.284.223.072.65.138.243.228-.088.015-.477.021-.574.036-.097.016.214.032.126.042-.087.011-.291.049-.291.071.155.63 0 1.256 0 1.887 0 .808.515 1.617.223 2.427-.077.233-.31.493.234.694.398.15.816.197 0 .293-.593.07-.477.218-.311.3.437.221.097.428.106.645-.486.114-.048.23.185.345.049.093-.7.165-.418.273.632.248.088.507.078.752 0 .624-.068 1.243-.165 1.868-.078.578.077 1.142 0 1.72-.11.482-.052.964.175 1.445 0 .084.544.136.35.21-.088.406 0 1.54 0 1.54H2V.419H.435zM594.582 61c0-.482-.122-.957 0-1.436.027-.235-.058-.47-.252-.703v-.119c.765-.173.056-.35.056-.525-.271-.137.28-.28-.122-.415.654-.2.056-.344.234-.514-.117-.034-.181-.073-.187-.112.504-.341.121-.687.215-1.03.055-.054-.008-.108-.178-.154-.287-.05-.453-.117-.466-.185-.014-.07.125-.137.392-.19.158-.037.504-.065.354-.121-.821-.308-.112-.624-.214-.931a3.556 3.556 0 010-2.596c0-.637 0-1.278.224-1.915 0-.086 0-.201-.449-.215-.354.012-.448-.083-.158-.134 1.186-.206.439-.473.56-.718a.78.78 0 00-.093-.669c-.084-.192-.103-.402-.271-.602-.047-.058-.187-.11.093-.161a1.2 1.2 0 00.364-.108c.068-.04.078-.083.028-.124a.127.127 0 000-.13c-.186-.178-.186-.36 0-.536-.438-.154.645-.384-.737-.509-.355-.436.289-.865.401-1.3.215-.845-.215-1.69-.233-2.533 0-.521.439-1.04.168-1.57-.14-.267-1.065-.614-.28-.87.513-.174.999-.256.467-.366.177-.062-.056-.14.28-.197-1.625.088-.168-.26-.159-.229 0-.12-.373-.244.047-.36.093-.279.112-.641.093-.964-.056-.961.14-1.941 0-2.872.04-.25-.152-.5-.57-.742-.494-.354.495-.717.281-1.075-.393-.648 0-1.297-.122-1.946-.049-.417.054-.834.308-1.25.407-.61.388-1.225-.056-1.834-.439-.513 0-1.032-.074-1.548-.112-.89.532-1.775.14-2.666-.224-.49-.047-.985-.084-1.476a2.864 2.864 0 01.093-1.95c.308-.162 0-.332.215-.495-.15-.17-.607-.323-.121-.492v-.116a1.12 1.12 0 00.112-.615c-.477-.012-.57-.055-.505-.135.287-.074.481-.157.57-.244-.056-.046 0-.101-.336-.128a3.212 3.212 0 01-.29-.019 1.182 1.182 0 01-.205-.039c-.058-.034-.092-.069-.103-.104-.094-.164.104-.328.57-.473.028-.026.028-.053 0-.079-.086-.043-.119-.088-.096-.133.022-.045.099-.09.226-.13a.124.124 0 000-.115c-.177-.084-.317-.17-.523-.251-.532-.096.57-.19 0-.283-.206-.052-.321-.112-.333-.174-.011-.061.081-.123.268-.176 1.009-.214.196-.484.719-.716l-.046-.084a1.59 1.59 0 00-.393-.29c-.215-.074-.625-.142-.233-.234.084-.015.457-.022.551-.037.093-.015-.206-.032-.122-.043.084-.01.281-.05.281-.072-.15-.645 0-1.284 0-1.93 0-.825-.495-1.653-.215-2.481.074-.238.299-.504-.224-.71-.383-.153-.785-.201 0-.3.569-.071.457-.222.298-.306-.42-.226-.093-.438-.102-.66.467-.116.046-.236-.178-.353-.046-.095.673-.169.402-.28-.607-.253-.084-.517-.075-.767 0-.639.066-1.272.159-1.91.075-.592-.075-1.168 0-1.76.106-.492.05-.985-.168-1.477 0-.086-.523-.14-.336-.215.084-.414 0-1.574 0-1.574h-1.364v61h1.504z" fill="#F2E8D9" fill-opacity=".5"/><defs><clipPath id="clip0_1613_6657"><path fill="#fff" transform="matrix(1 0 0 -1 0 2.004)" d="M0 0h396.719v2H0z"/></clipPath><clipPath id="clip1_1613_6657"><path fill="#fff" transform="matrix(1 0 0 -1 395.719 2)" d="M0 0h198.859v2H0z"/></clipPath><clipPath id="clip2_1613_6657"><path fill="#fff" transform="translate(0 59.996)" d="M0 0h396.719v2H0z"/></clipPath><clipPath id="clip3_1613_6657"><path fill="#fff" transform="translate(395.719 60)" d="M0 0h198.859v2H0z"/></clipPath></defs></svg>