<svg version="1.1" id="Layer_2" xmlns="http://www.w3.org/2000/svg" x="0" y="0" viewBox="0 0 1250 100" xml:space="preserve"><path d="M0 70.7h3.2l1.9.3-.2-3s1.3.8 1.4 1c.1.2 1.5 1.6 1.5 1.6v2.2L7.5 74l2.2.6 3.4.6H20s5.2.2 5.6.2c.3 0 2.9-.3 3.5-.3s2.3-1 2.3-1l.2-2.4 2.3 1s2.8 1.3 3.1 1.5c.2.2 3.1 2 3.1 2s2.3 1.5 2.9 1.9c.6.4 3.4 1.4 3.4 1.4l4.7.3s4.5-.6 4.9-.7 4.1-1 4.3-1.1c.2 0 2.3-.7 2.6-.8.3 0 2.1-.2 2.1-.2l1.8.6 2 1.3H72s2.2-.6 2.3-.6c.2 0 3.4-1 4.1-1.2.7-.2 2.2-.7 2.4-.9.1-.2 1.2-1.2 1.6-1.4.4-.1 2.2-.7 2.8-.9.6-.1 2.8 1.2 2.8 1.2s.8.6.9 1.4.5 1.8.7 2c.2.1 4.7.5 4.7.5l8.5-.8s3.3-1.2 4.1-1.2 5.4-1.2 6-1.2 4.8-.6 5.7-.4 4.9 1 4.9 1 3.2.7 3.9.7c.7 0 3.2-.2 3.9-.3.7-.1 5.7-2 5.7-2l8.1.2 7.4 2 7.6 1.8 5.8.3s7.4-.5 7.6-.5c.3 0 3.8-.7 4.4-.8.6-.1 6.6-1.6 6.6-1.6l3.4-.7 3.9.4 4.2 2.2 2.6 2s2.7.4 2.9.5c.2.1 7 .3 7.6.4.6.1 7.1-.3 7.1-.3s3-1.2 3.3-1.8c.3-.7.8-3.7.8-3.7l2-3.4 2.7-.7 2.3.4 2.3 2.6V77s.7 1.6 1 2c.4.3 5.9 1.8 5.9 1.8s3.5.5 4 .5 5.5.2 6.3 0c.8-.2 5-.5 5.7-.5s2-.1 2.7-.5 4-3.5 4.8-4c.7-.5 1.2-.8 2.2-1.5 1-.8 3-1.2 3-1.2l2.1.8 1.8 1 .5-2.4-1.4-2.3h2.1s.9 1.6 1 2 1.1 2.2 1.1 2.2l2.6 1.7s3.2.8 3.8.8c.6 0 5.3-.1 5.3-.1l1.4-.3-1.7-1.5-.6-2.1v-1.6l1.3-.6 1.4 1.4s1 1.6 1.1 1.9c.1.3 2.4.8 2.4.8s2.3-.5 3.1-.6c.8-.1 3.3-.8 3.3-.8s2-1.1 2.2-1.2 2.5-1.6 2.5-1.6l.7-.7.5 2.1s.3 4 .4 4.4.8.8.8.8 2.2.7 2.7.8c.5.1 4.6.1 5.7.1 1 0 5.6-.3 6.1-.3s7.8-.5 7.8-.5l1.7-.5.8-2.1-.5-2 .9-.1 1.6.9.7 1.2.9-.7.8-1.3.8-.3s.5 1.2.5 1.6v1.3s1.5-.3 1.8-.3c.3 0 4.4-.9 4.4-.9l1.4-.6-.3 1.9-1.9 1.9-.2 1.5 2.9.6 3-1.6 3.3-1.9 2.4-.7 3.4 2.4 7 1.4 3.8-.1-.5-2.1-5.2-1.6-1.2-1.4 3-.6 2.5-.5 1.3-1.9 1.7 1.8 3.1 2.3 2.1-.7-.6 1.3.3 1.4 4.1.3h5.5c.3 0 4.4-.6 4.6-.6s1.8-1.2 1.8-1.2l1.2-1s1.2-.1 1.4.1c.2.2 1.7 1.2 2.1 1.5.4.3 2.2 1 2.2 1l1.2.1-.6-1.4-.3-1 2.5 2.4s1.1.8 2.4 1.1 5.7.5 6.2.5 8.2.4 8.5.4 6.3-.3 6.3-.3 3.5-.2 3.7-.3c.2-.1 3.3-1.8 3.3-1.8l.8-1 .7.4 2.5-.1.5 1.9s.3 2 .6 2.2c.3.2 3.2 0 3.4 0 .2 0 4.6-1 4.6-1l2.4-1 3.2-.7 1.5-1.5 1.6-3.1 4.2 2.3s6.4 1.1 6.8 1.2c.5.1 6.2 1 6.5 1s9.8 1.6 9.8 1.6l2.2-.6v-3.7l2.9-.1 1.5.5s.2.8.3 1V78l-1.2.6-.4 1s3.4 0 3.6-.1c.2 0 3.9-.8 3.9-.8l1.8-.4-2.1 2.2s2.4-.4 2.5-.4c.1 0 5.6-2.1 5.6-2.1l6.2-2.3L508 73l2.6-1.7h2.8l1.5 1.5s1.4 1.6 1.6 1.8c.1.2 3.2 0 3.2 0s-.5-1.2-.8-1.2-1.9-.7-1.9-.9c0-.2-.2-1.3.2-1.5s2.6-1.2 2.6-1.2l2.1-1.1 5.7 4.8s4.9 2 5.5 2.2c.6.3 5.1 1.5 5.6 1.6.4.1 2.2.5 2.2.5s-.5-2.2-.5-2.4.3-1.8.5-2.2 1.5-2.1 1.5-2.1l1.5-.6-.5 1.9s0 1.5.1 1.8c.1.3.7 1.2.7 1.2l.6-.5s.3-1.1.3-1.3c0-.2.3-2 .3-2.2v-1.5l1.7 1.2s.5 1.3.5 1.8-.2 1.1-.3 1.4c-.1.3-.4 1-.7 1.5-.3.5-.7 2.1-.7 2.1l5.2.4 10.1.3h6.3c.6 0 6.3.1 6.3.1l.4-1.5s-2-2-2-2.3.3-3.6.3-3.6l2.2.9s2 1.6 2.2 1.9c.2.3 1.3 2.1 1.5 2.2.1.1 2 1.6 2.4 1.9s2.9 2 3.5 2.4c.6.4 8.9.9 8.9.9l5.8-.5 3.1-2.9 1-3.9 2.2-2 1.8-1.6 3.3-1 2.5.1 2.3 1 .5 1.4 2.2 1 1.8-1.2 2.2-1.1-.7 2-1.2 1.4 2.9-1.4s1.6-2.2 2.1-2.4c.5-.2 4.2-1 4.3-1 .2-.1.9-3.3.9-3.3l.5-1.6s4.4.8 4.7.8c.3.1 4.6.2 4.6.2l-.4 2.2-4.8.8h-2.2l-1.4 2.6s1.4 1.1 1.7 1.2c.3.1 3 0 3.3-.2.3-.2 1.6-1.2 2-1.3s2.5-.1 2.7 0c.2.1.3 2-.5 2.4-.8.5-1.3.6-2.9 1.2-1.6.6-5.9 1.3-5.9 1.3s-1.5.3-.7 1.4 1 1.2 3.7 1.2 8.2-.5 8.2-.5 2.9-.7 3.3-.8 3.3-.7 3.3-.7l-3.8-.5-.3-1s3.6-.3 4.1-.4 2.4-1.1 3-1.5c.6-.4 3.2-1.5 3.2-1.5s-.8 1.6-1 1.8c-.2.3 4.7.5 5.3.5.6 0 5.5-.1 6.8-.2 1.3-.1 5.3-.3 5.3-.3l-.7 1.6s1.9 1.7 2.5 2c.7.3 2 .6 2.5.8.6.3 6.1 1.1 6.1 1.1l14.1 1.6h7.3l2.3.2v-2.2l-.5-1.6 2 .8 1.4 2.2.7 1.8h6.5s7.8-1.3 8.3-1.4c.5-.1 4.7-1.1 5.3-1.3.6-.2 3.4-1.8 3.4-1.8l1.5-1.3-1.1-2.1-.3-1.6.7.9s.8.9 1.1 1.1c.4.2 1.8.3 2.1.2.4-.1 2.5-1.3 3.1-1.6.6-.4 1.6-1.5 2.2-1.7.5-.2 2.6-.1 3 0 .4.1 2.7 1.9 2.7 1.9l1.9.8s1.5 1.3 1.9 1.8 2.2 3.3 2.2 3.3 2.7.2 3.7 0 4.9-1.2 5.6-1.5 2.9-1.9 3.4-2.1c.4-.1 3.1-.8 3.6-.6.5.2 3.7 1.4 3.9 1.6.2.1 2.5 1 2.8 1.1s.8-2.3.8-2.5c0-.2 1.9-1.1 2.2-.9s1.5 1.8 1.8 2.3c.3.5 2.2 2.4 2.3 2.5.1 0 9.7.8 9.8.9s3.3.3 3.5.2.9-2.4.9-2.4 0-1.8.9-1.5c.9.3 3.3 1.7 3.3 1.7l2.3-.4s.5-1.4.7-1.2c.2.1 1.7 2.4 1.7 2.4s1.8.4 2.2-.1c.4-.5.4-1.7.7-1.7h7.7s1.4.5 2.1 1c.7.5 5.1.9 5.4.8s1.8-2.2 1.8-2.2l2.2 2.1s1.9 1 2.2 1.5 4.4 1.8 4.4 1.8l18.8-.5 6.1-1.8 1.6-.9 3.3-.3 3.2.4 2.9-1.6 7.4-.4 2.2.9 4 .5 4.4-.8 2-.3.9 3s3 .6 3.8.5 8.6-1 9.3-1c.7 0 4-1.8 4-1.8l1.1-2.8 1.6.6v2.4l6.5-.5 3.1-1.9 5.1 1.7s3.5 1.5 4 1.5h5.4s1.9-.6 2.2-.9c.3-.3 2.5-3.2 2.5-3.2l4.7-2.7 3.2-.3 4.7 2.3 2.3 1.8-.6 2.5h2.5l6.2 2.1 10.1 1.8s2.8-.1 3.5 0c.7.1 3.2 0 3.2 0l1-3.6h2.1l1.5 3.6s10.9-.8 11.2-.8c.3 0 17.6-2.4 17.6-2.4l5.4-2.7v-3.1l12.5 1.4 5-.4.9-2s1.8 1.8 2.9 2.2c1 .4 4.6 1.2 4.6 1.2l-3.8.7s6 2 6.7 2c.7 0 8.7.3 9.1.3.4 0 3.1-.3 3.1-.3l-4-1.8-6.5-1.7-1.8-1.8 2.5-2 3.9.4 1.7 2.3s2.3-.6 2.3-1.1c0-.5-.1-2.2-.7-2.7-.5-.5-3.5-2-3.5-2l-3.1-.8-.4-2.2 3.9 1.9 3.1-.8 2.6-.5.9 4.3 2.9 2.2 1.8.4 2.1 1.2 2.2 1.5v-3.4l1.4.6 1.3 1.3h1.3s1.6-1.8 1.6-2c0-.1.7-1.4 1.3-1.2l2.7.9s1.2.6 1.4 1-.1 1.5 0 1.7c.1.2 1.2 0 1.4-.2.2-.2.3-.8 1-1 .6-.1 1-.4 1.6.1s1.6 1.6 1.6 1.8c0 .2.3 0 .4 1.3.1 1.2.2 2.3.4 3.1.2.8 1.6 2.6 2 2.8.3.2 12.5 0 12.5 0s3.7-1.1 4-1.1 3.7-1.8 3.9-1.9 2.3-1.7 2.8-1.8 1.9-2 2-2.3c.1-.3 1.3-2 1.6-2 .3 0 1.3.2 1.3.2s.4 2.3 0 2.7c-.4.4-1.7 1.7-1.8 1.9-.1.2 2.2 2 2.2 2l14.3-.5h11.1v-2.3l-1.7-3.2 1.7-1.9s1.4-1.7 1.8-1c.4.7 2.3.5 2.7.7.4.1 1.6.9 1.6 2.3s1.3 1.9 0 3c-1.3 1-1.6 1.8-1.6 1.8l6.1-.5 6.8-2.9 5.7-2.6 2.9-2.2s4.3 1.2 4.8 1.2 2.9-.3 3.9 0 7.6 2.9 8.1 3.1c.5.3 3 1 3.8 1.6s8.5 2.9 9 3 1.4.1 2.5.1h2.7c.4 0 3.1-2 3.5-2 .4 0 1.4-.5 2.3-.5.9 0 2.6.5 2.5.9-.1.4-.9 1.3-.5 1.6.4.3 9.4-.4 9.4-.4s10.7-2 11.7-2.3c1-.4 5-1.6 5.5-1.6s4.4.4 4.7.8 4.4 2 4.4 2l1.5.3V0H0v70.7z" fill="#1c191e"/></svg>