<svg width="634" height="369" viewBox="0 0 634 369" fill="none" xmlns="http://www.w3.org/2000/svg"><path fill-rule="evenodd" clip-rule="evenodd" d="M5.005.751c0 .383 1.237 2.021 2.75 3.641l2.75 2.945L5.92 4.698C3.398 3.247 1.036 2.359.67 2.724c-1.09 1.09-.764 43.942.356 46.889.697 1.832.696 3.08-.004 3.922-.69.833-.943 37.104-.77 111.081L.504 274.46l4.5 1.162c4.523 1.168 4.42 1.388-1.5 3.188l-3 .912-.282 42.303c-.257 38.528-.132 42.469 1.405 44.167 1.424 1.573 3.191 1.864 11.331 1.864h9.644l1.266-3.5c1.594-4.408 3.318-4.622 2.066-.257-.51 1.784-.93 3.359-.93 3.5 0 .142 4.05.257 9 .257 5.988 0 9-.376 9-1.122 0-.806.4-.791 1.415.051 1.044.867 10.02 1.06 34.25.736 41.267-.551 55.082-.555 89.137-.026l27.302.424-1.188-2.281-1.187-2.282 2.45 2.25c1.858 1.707 3.657 2.25 7.45 2.25 4.784 0 5.08-.162 6.843-3.75l1.842-3.75 1.593 3.745 1.593 3.745 16.3.005c11.557.004 17.085-.382 19-1.326 1.485-.732 4.5-1.156 6.7-.942 2.2.214 6.475.634 9.5.935 3.025.3 19.25.736 36.056.969l30.555.424 1.631-3.278 1.63-3.277.064 3.236.064 3.236 87.139.006 87.138.005-4.388-3.119c-7.134-5.072-6.864-5.168 3.611-1.292 5.5 2.035 10.788 3.642 11.75 3.571.962-.071 3.888-.078 6.5-.017 2.612.062 17.913.297 34 .522 25.763.362 29.25.229 29.25-1.118 0-.842.45-1.53 1-1.53s1 .675 1 1.5c0 1.861 6.658 2.069 10.48.327 1.969-.897 2.85-.897 3.747 0 1.264 1.264 20.773 1.713 20.773.478 0-.383-1.238-2.035-2.75-3.673l-2.75-2.977 4.618 2.637c2.54 1.451 4.903 2.354 5.25 2.006.348-.347.632-7.926.632-16.843 0-12.147-.376-17.111-1.5-19.801-1.872-4.48-1.872-5.011 0-4.292 1.251.48 1.5-.665 1.5-6.893 0-5.024-.382-7.469-1.167-7.469-.641 0-.873-.293-.515-.651.358-.358-.098-1.199-1.014-1.868-1.519-1.111-1.473-1.32.527-2.39l2.191-1.173-.035-111.623-.035-111.623-2.781 2.664c-4.294 4.114-4.64 3.159-.717-1.98l3.546-4.644V40.006l-2.75-1.168-2.75-1.168 2.75-.373 2.75-.374v-8.54c0-7.211-.235-8.451-1.512-7.961-1.349.518-1.349.266 0-2.343 1.825-3.529 2.039-15.096.312-16.823-.775-.775-4.778-1.2-11.299-1.2h-10.099l-1.266 3.5c-.696 1.925-1.713 3.5-2.26 3.5-.547 0-.729-.429-.404-.954.324-.525.302-2.097-.048-3.493l-.637-2.54-46.144.357c-55.41.428-57.581.428-102.893-.006-33.417-.321-35.753-.23-35.795 1.396-.025.957-.667 3.09-1.426 4.74-1.356 2.946-1.371 2.914-.819-1.75l.562-4.75H402.59c-12.673 0-17.364.351-19.509 1.46-1.553.803-3.046 1.237-3.319.965-.949-.949-18.446-1.704-48.454-2.091L301.112 0l-4.174 5.528c-2.295 3.04-4.352 5.528-4.57 5.528-.218 0 .736-2.235 2.12-4.967 1.384-2.731 2.517-5.216 2.517-5.522 0-.423-178.824-.005-191 .447-1.375.051-16.338-.196-33.25-.548-27.908-.582-30.75-.492-30.75.975 0 .888-.45 1.615-1 1.615s-1-.675-1-1.5c0-1.81-6.366-2.072-10.664-.438-1.972.75-2.899.75-3.149 0C25.8-.06 5.005-.42 5.005.751z" fill="#000"/></svg>