<svg width="290" height="2" viewBox="0 0 290 2" fill="none" xmlns="http://www.w3.org/2000/svg"><path d="M281.448.82c.741 0 .185-.04.933-.172a2.74 2.74 0 011.111-.07c2.071.434 4.041.055 6.16.241 0 0 .452.209.326.307-1.853.165-3.83.49-5.673.404-1.245-.055-1.19.116-2.464-.193a1.883 1.883 0 00-.436-.043l.043-.475zm-6.756.306c-2.876.226-4.944.658-7.831.554-.273 0-.487-.19-.796-.117-.686.163-1.375 0-2.071-.046-.543-.045-1.199-.232-1.625-.055a1.93 1.93 0 01-1.391-.04 1.593 1.593 0 00-.829-.128 7.325 7.325 0 01-3.199 0c-.208-.037-.429-.049-.498-.236l.576-.633a.19.19 0 010 .088c.626-.007 1.252-.05 1.872-.131 2.598-.358 5.211-.267 7.831-.23 1.889.025 6.076.698 7.961.667v.307zm-25.355.266c-.108-.168-.218-.343-.469-.242-.672.266-1.371.132-2.064.123-.244 0-.53-.074-.65.223a.337.337 0 01-.127.135l-.435.018a1.084 1.084 0 01-.459-.233c-.364-.404-1.95-.514-2.451-.199-.097.307-.504-.104-.53.169-.052.526-.451.327-.725.34-.88.049-1.765-.545-2.649-.515-.376.087-.76.141-1.147.163-.472 0-.959.235-1.424-.028h-.293c-.452.061-.884.306-1.365.129-.875-.187-1.765-.114-2.65-.105-.364 0 .17.41-.188.334-1.271-.278-2.581-.257-3.865-.306-1.58-.073-3.17-.23-4.766-.12-1.664.117-3.345.074-5.003.233-1.04.098-2.083.141-3.124.187-1.43.058-2.873-.095-4.294.015-1.609.123-3.234.123-4.86.123-2.643 0-5.292-.113-7.938-.162-1.265-.022-2.523-.147-3.797-.086-1.086.052-2.185-.12-3.251-.046-1.066.073-2.11-.227-3.199-.116-1.089.11-2.168-.059-3.25-.105a.413.413 0 01-.221-.198h-.69a1.813 1.813 0 01-1.059.352c-2.081.052-4.155-.282-6.239.021-.843.09-1.693.127-2.542.11-1.95.037-3.868.162-5.815.055-1.317-.07-2.601-.29-3.992-.073-1.469.26-2.964.363-4.457.306a1.136 1.136 0 00-.601-.058c-1.301 0-2.585.156-3.885-.03-.608-.09-1.261-.212-1.889 0a1.893 1.893 0 00-1.027.051c-.19.02-.382.014-.569-.021a4.323 4.323 0 00-1.19-.101c-.156 0-.211.046-.36.046-5.249-.023-10.5-.041-15.754-.055-1.518 0-3.033.04-4.551.07-1.849.037-3.702.162-5.549.104-2.903-.089-5.802-.306-8.712-.288h-5.26c-.152-.257-.325-.306-.49-.021-.862-.022-1.727-.05-2.601-.067-1.375-.025-2.744.306-4.112.116a11.729 11.729 0 00-2.893-.11c-.9.076-1.803.098-2.705.067-1.898 0-3.8-.037-5.695.028-2.045.067-4.09-.07-6.138.11-1.388.12-2.818-.254-4.193.257-.075.027-.192-.022-.28-.055-1.2-.417-2.45-.334-3.686-.306-.446 0-.888.217-1.174-.282-.071-.125-.156-.092-.204 0-.153.306-.469.248-.722.251-1.684.025-3.358-.15-5.045-.165-3.378-.03-6.755-.205-10.133-.07-1.365.051-2.73-.184-4.102.018-.371.052-.768.56-1.174.052-.358-.055-.718-.233-1.07.024-.442.227-.903-.26-1.3 0-.27.178-.439.227-.65-.036-.16-.206-.38-.166-.598-.102a7.881 7.881 0 00-1.08.26c-1.205.393-2.457.307-3.699.307a.189.189 0 01-.133-.05c-.42-.667-1.05-.363-1.625-.305a1.31 1.31 0 01-.51.033c-1.44-.4-2.926-.208-4.37-.153l-4.2.15c-2.89.104-5.783.123-8.676.209-2.012.06-4.024.333-6.02-.172-.784-.199-1.401.135-2.195.113-.855-.021-1.723-.49-2.6 0-.407.23-.956.04-1.512.062-3.228.113-6.453.244-9.68.08C4.053 1.3 0 2.193 0 1.712V.49C1.651.489 4.327.25 5.978.464c.219.038.444.017.65-.06.855-.426 1.733 0 2.6-.08 1.067-.105 2.189.052 3.284.073 3.485.067 6.973-.453 10.455.055.325-.22.76.306 1.053-.138.364-.208.702.05 1.053.052 2.045 0 4.086-.046 6.131.074s4.05-.138 6.082 0c1.177.073 2.364-.03 3.55 0 2.718.1 5.435-.11 8.156-.034.741.022 1.564.285 2.208.025.76-.306 1.469-.052 2.158-.062.894 0 1.788.157 2.711 0 .325-.058.826-.147 1.102.334.163.288.504.429.67-.055.104-.306.325-.125.48-.125 1.363 0 2.725-.065 4.08-.025 1.255.04 2.487-.205 3.736-.174 1.047.056 2.096.056 3.143 0 2.403-.215 4.792.073 7.188.091 1.71 0 3.42.129 5.133.077 1.3-.04 2.616-.279 3.9-.187 2.344.165 4.682.107 7.025.169 1.447.04 2.884-.086 4.32-.175a49.484 49.484 0 014.766 0c1.626.055 3.251.242 4.876.12a81.77 81.77 0 015.257-.19c2.071 0 4.151.22 6.215.125 2.195-.1 4.392.015 6.57-.162 1.626-.135 3.306.514 4.909-.184a.188.188 0 01.146.016c.673.38 1.427.11 2.129.235 1.047.184 2.13-.159 3.118 0 1.862.328 3.696-.125 5.542.068.539.015 1.076.07 1.606.165.361.361.728.398 1.102.018.761-.174 1.538-.588 2.24.129a.293.293 0 00.178.114.308.308 0 00.212-.032c.384-.19.826-.125 1.222-.26.755-.428 1.538.11 2.292-.058a.689.689 0 01.461.035.631.631 0 01.319.314c.735.113 1.476.276 2.123-.257.852-.092 1.7-.178 2.529.132.452.306.842.073 1.235-.129a.184.184 0 00.127-.028c.28-.159.607-.23.933-.202h3.456c1.966 0 3.933.15 5.9-.046h.396c.914.062 1.795.463 2.738.23.126-.034.325-.034.325.08 0 .486.364.202.442.153.325-.211.627-.098.975-.04s.731-.03 1.109.04h.448c.156-.03.325.202.478.067.153-.135.325-.257.374-.067h1.736c-.28-.144-.65.12-.566-.306h.218c.676.046 1.352.171 2.028 0l8.267-.043c1.242.037 2.48-.086 3.725-.061 1.824.033 3.648.03 5.475.064 1.723.034 3.449.19 5.175.037l8.276.107c2.926.033 5.832.021 8.745-.153 1.648-.101 3.296-.227 4.941-.2 5.081.08 10.159.132 15.236.337 4.103.166 8.212-.272 12.321-.015l.166.94z" fill="#EE991A"/></svg>