<svg width="366" height="16" viewBox="0 0 366 16" fill="none" xmlns="http://www.w3.org/2000/svg"><path opacity=".6" d="M161.002 8.99a.505.505 0 00.218-.182C161.462 8.52 162.5 8 162.5 8s-1.038-.52-1.28-.808a.505.505 0 00-.218-.183.58.58 0 00-.293-.047l-.512.23h-1.536c-.326 0-2.047-.23-2.047-.23-.076.12-.162.236-.256.346-.154.178-.341-.051-.768 0-.684 0-1.368-.039-2.047-.116h-.512a8.042 8.042 0 00-1.536-.346c-.563-.028-.512 0-.512 0a2.3 2.3 0 01-.767.346c-.428.095-1.536 0-1.536 0v-.23s-1.431.135-1.535.346c-.105.21-.768 0-.768 0l-1.792-.231s-1.579-.075-2.047-.115c-.468-.04-.512-.231-.512-.231l-1.791-.231.256.346s-.101.124-.256.346c-.156.223-.768 0-.768 0l-1.792-.115-.512.23h-1.535s-.683-.115-.768-.23a1.202 1.202 0 00-.256-.23h-1.791l-.512.23-1.024-.346-1.791.346L.5 8l128.986.923 1.791.346 1.024-.346.512.23h1.791c.097-.065.184-.142.256-.23.085-.115.768-.23.768-.23h1.535l.512.23 1.792-.115s.612-.223.768 0c.155.222.256.346.256.346l-.256.346 1.791-.23s.044-.191.512-.232c.468-.04 2.047-.115 2.047-.115l1.792-.23s.663-.21.768 0c.104.21 1.535.345 1.535.345v-.23s1.108-.095 1.536 0a2.3 2.3 0 01.767.346s-.051.028.512 0a8.043 8.043 0 001.536-.346h.512a18.309 18.309 0 012.047-.116c.427.051.614-.178.768 0 .094.11.18.226.256.346 0 0 1.721-.23 2.047-.23h1.536l.512.23a.58.58 0 00.293-.047z" fill="#F2E8D9"/><g clip-path="url(#clip0_3859_19866)" fill-rule="evenodd" clip-rule="evenodd"><path d="M180.969 1.23a2.41 2.41 0 01.858-.9c.357-.216.761-.33 1.173-.33.411 0 .816.114 1.172.33.356.216.652.526.858.9l6.008 10.924c.206.374.314.798.314 1.23 0 .433-.108.857-.314 1.231a2.411 2.411 0 01-.858.901c-.357.216-.761.33-1.173.33h-12.015a2.26 2.26 0 01-1.172-.33 2.396 2.396 0 01-.858-.9 2.555 2.555 0 010-2.462l6.007-10.923z" fill="#EE991A"/><path d="M181.344 2.482a2.01 2.01 0 01.715-.751 1.882 1.882 0 011.955 0c.297.18.544.44.715.751l5.064 9.213c.172.312.262.666.262 1.026s-.09.714-.262 1.026a2 2 0 01-.715.75c-.297.18-.634.275-.977.275h-10.128c-.343 0-.68-.095-.977-.275a2.01 2.01 0 01-.716-.75 2.135 2.135 0 01-.261-1.026c0-.36.09-.714.261-1.026l5.064-9.213z" fill="#FFA92D"/><path d="M178.953 9.512h2.467c-.014.3.052.596.192.857.14.26.347.474.598.616l-1.224 2.306s-.153.461-.612.064c-.5-.42-.921-.934-1.243-1.516a6.028 6.028 0 01-.533-1.964.32.32 0 01.084-.282.294.294 0 01.126-.076.282.282 0 01.145-.005zM183 8.485a.94.94 0 01.549.158c.164.11.293.267.371.454a1.066 1.066 0 01-.193 1.125.966.966 0 01-.499.288.93.93 0 01-.567-.053.983.983 0 01-.442-.377 1.055 1.055 0 01-.167-.572 1.039 1.039 0 01.273-.717.938.938 0 01.675-.306zm1.58 1.023h2.467a.281.281 0 01.271.08.327.327 0 01.085.282 6.012 6.012 0 01-.534 1.962 5.378 5.378 0 01-1.244 1.514c-.458.397-.612-.064-.612-.064l-1.224-2.303a1.54 1.54 0 00.598-.615c.14-.26.207-.557.192-.856h.001zm-.79-1.492a1.456 1.456 0 00-.79-.235 1.46 1.46 0 00-.79.235l-1.205-2.26a.353.353 0 01-.078-.309.361.361 0 01.07-.147.33.33 0 01.127-.097 3.948 3.948 0 011.876-.47 4.539 4.539 0 011.895.47.377.377 0 01.174.25.4.4 0 01-.056.303c-.055.112-1.224 2.26-1.224 2.26h.001z" fill="#060605"/></g><path opacity=".6" fill-rule="evenodd" clip-rule="evenodd" d="M236.514 8.923l-1.791.346-1.024-.346-.512.23h-1.791a1.202 1.202 0 01-.256-.23c-.085-.115-.768-.23-.768-.23h-1.536l-.511.23-1.792-.115s-.613-.223-.768 0c-.155.222-.256.346-.256.346l.256.346-1.791-.23s-.044-.191-.512-.232c-.468-.04-2.047-.115-2.047-.115l-1.792-.23s-.663-.21-.768 0c-.104.21-1.535.345-1.535.345v-.23s-1.109-.095-1.536 0a2.302 2.302 0 00-.767.346s.051.028-.512 0a8.043 8.043 0 01-1.536-.346h-.512a18.309 18.309 0 00-2.047-.116c-.427.051-.614-.178-.768 0-.094.11-.18.226-.256.346 0 0-1.722-.23-2.047-.23h-1.536l-.512.23a.58.58 0 01-.293-.047.51.51 0 01-.218-.183C204.538 8.52 203.5 8 203.5 8s1.038-.52 1.28-.808a.51.51 0 01.218-.183.58.58 0 01.293-.047l.512.23h1.536c.326 0 2.047-.23 2.047-.23.076.12.162.236.256.346.154.178.341-.051.768 0 .684 0 1.368-.039 2.047-.116h.512a8.042 8.042 0 011.536-.346c.563-.028.512 0 .512 0a2.3 2.3 0 00.767.346c.427.095 1.536 0 1.536 0v-.23s1.431.135 1.535.346c.105.21.768 0 .768 0l1.792-.231s1.579-.075 2.047-.115c.468-.04.512-.231.512-.231l1.791-.231-.256.346s.101.124.256.346c.155.223.768 0 .768 0l1.792-.115.511.23h1.536s.683-.115.768-.23c.072-.088.159-.165.256-.23h1.791l.512.23 1.024-.346 1.791.346L365.5 8l-128.986.923z" fill="#F2E8D9"/><defs><clipPath id="clip0_3859_19866"><path fill="#fff" transform="translate(174.5)" d="M0 0h17v16H0z"/></clipPath></defs></svg>