<svg width="14" height="40" viewBox="0 0 14 40" fill="none" xmlns="http://www.w3.org/2000/svg"><path fill-rule="evenodd" clip-rule="evenodd" d="M4.667 40H0V0h.39L.5.144c.308.413.571.764 1.089.562.918-.36 2.76-.6 3.653-.534a.582.582 0 01.22-.144c.108-.043.294.018.502.135.053-.047.113-.103.178-.163h5.048c.204.166.369.44.582.884.298.617.446 1.596.33 2.173-.172.85-.065 1.116.555 1.388.687.302 1.142.805 1.343 1.462v3.709l-.092.001c-1.183 0-1.858.658-1.191 1.161.3.227.601.705.67 1.061.16.846.528 5.245.491 5.888-.016.274.006 1.622.048 2.994.128 4.185-.025 5.67-.624 6.093-.327.23-.106 1.138.17 2.277.242.989.524 2.151.528 3.195v1.888c-.046.683-.193 1.217-.614 1.255-.624.055-1.294.126-1.315.571-.005.092.045.265.106.478.165.581.418 1.46-.106 1.808-.631.418-1.22.209-1.584.08-.29-.103-.438-.155-.346.205.261 1.026-1.523 1.143-2.251 1.143-.573 0-3.977-2.025-3.977-2.387 0-.144-.268-.262-.596-.262-.912 0-.716.544.543 1.502.876.667 1.065.995.817 1.415l-.01.018zm5.612-10.359c0-.82.958-.59 1.12.27.07.366-.035.666-.232.666-.6 0-.888-.303-.888-.936z" fill="#F2E8D9"/></svg>