<svg width="28" height="28" viewBox="0 0 28 28" fill="none" xmlns="http://www.w3.org/2000/svg">
<path d="M9.59 3.5H18.41C21.77 3.5 24.5 6.23 24.5 9.59V18.41C24.5 20.0252 23.8584 21.5742 22.7163 22.7163C21.5742 23.8584 20.0252 24.5 18.41 24.5H9.59C6.23 24.5 3.5 21.77 3.5 18.41V9.59C3.5 7.97483 4.14162 6.42582 5.28372 5.28372C6.42582 4.14162 7.97483 3.5 9.59 3.5ZM9.38 5.6C8.37748 5.6 7.41602 5.99825 6.70714 6.70714C5.99825 7.41602 5.6 8.37748 5.6 9.38V18.62C5.6 20.7095 7.2905 22.4 9.38 22.4H18.62C19.6225 22.4 20.584 22.0018 21.2929 21.2929C22.0018 20.584 22.4 19.6225 22.4 18.62V9.38C22.4 7.2905 20.7095 5.6 18.62 5.6H9.38ZM19.5125 7.175C19.8606 7.175 20.1944 7.31328 20.4406 7.55942C20.6867 7.80556 20.825 8.1394 20.825 8.4875C20.825 8.8356 20.6867 9.16944 20.4406 9.41558C20.1944 9.66172 19.8606 9.8 19.5125 9.8C19.1644 9.8 18.8306 9.66172 18.5844 9.41558C18.3383 9.16944 18.2 8.8356 18.2 8.4875C18.2 8.1394 18.3383 7.80556 18.5844 7.55942C18.8306 7.31328 19.1644 7.175 19.5125 7.175ZM14 8.75C15.3924 8.75 16.7277 9.30312 17.7123 10.2877C18.6969 11.2723 19.25 12.6076 19.25 14C19.25 15.3924 18.6969 16.7277 17.7123 17.7123C16.7277 18.6969 15.3924 19.25 14 19.25C12.6076 19.25 11.2723 18.6969 10.2877 17.7123C9.30312 16.7277 8.75 15.3924 8.75 14C8.75 12.6076 9.30312 11.2723 10.2877 10.2877C11.2723 9.30312 12.6076 8.75 14 8.75ZM14 10.85C13.1646 10.85 12.3634 11.1819 11.7726 11.7726C11.1819 12.3634 10.85 13.1646 10.85 14C10.85 14.8354 11.1819 15.6366 11.7726 16.2274C12.3634 16.8181 13.1646 17.15 14 17.15C14.8354 17.15 15.6366 16.8181 16.2274 16.2274C16.8181 15.6366 17.15 14.8354 17.15 14C17.15 13.1646 16.8181 12.3634 16.2274 11.7726C15.6366 11.1819 14.8354 10.85 14 10.85Z" fill="white"/>
</svg>
