<svg width="28" height="28" viewBox="0 0 28 28" fill="none" xmlns="http://www.w3.org/2000/svg">
<path d="M24.5 3.5C25.1623 3.49979 25.8001 3.74991 26.2857 4.20021C26.7713 4.65052 27.0688 5.26773 27.1184 5.92813L27.125 6.125V21.875C27.1252 22.5373 26.8751 23.1751 26.4248 23.6607C25.9745 24.1463 25.3573 24.4438 24.6969 24.4934L24.5 24.5H3.5C2.83774 24.5002 2.19988 24.2501 1.71428 23.7998C1.22868 23.3495 0.931232 22.7323 0.881563 22.0719L0.875 21.875V6.125C0.874791 5.46274 1.12491 4.82488 1.57521 4.33928C2.02552 3.85368 2.64273 3.55623 3.30313 3.50656L3.5 3.5H24.5ZM24.5 7.98088L15.3913 17.0896C15.0221 17.4583 14.5217 17.6654 14 17.6654C13.4783 17.6654 12.9779 17.4583 12.6087 17.0896L3.5 7.98088V21.875H24.5V7.98088ZM22.6441 6.125H5.35588L14 14.7691L22.6441 6.125Z" fill="white"/>
</svg>
