<svg width="28" height="28" viewBox="0 0 28 28" fill="none" xmlns="http://www.w3.org/2000/svg">
<path d="M3.73176 12.61C10.1243 9.78776 14.386 7.92701 16.5168 7.02806C22.6079 4.46107 23.872 4.01524 24.6976 4.00013C24.8792 3.99718 25.2834 4.04267 25.5472 4.25881C25.7664 4.4411 25.8281 4.68763 25.8589 4.86072C25.8863 5.03363 25.924 5.42773 25.8932 5.73536C25.5643 9.24923 24.1358 17.7762 23.4095 21.712C23.1046 23.3772 22.4982 23.9356 21.9124 23.9901C20.638 24.1088 19.672 23.1373 18.4387 22.3182C16.51 21.0359 15.4206 20.238 13.5466 18.987C11.3815 17.5412 12.7861 16.7464 14.0194 15.4478C14.3414 15.1079 19.9529 9.93603 20.0591 9.46693C20.0728 9.40825 20.0865 9.1895 19.9563 9.07423C19.8295 8.9586 19.6411 8.99819 19.5041 9.02944C19.3088 9.07388 16.229 11.1391 10.2545 15.2249C9.38089 15.8339 8.58953 16.1308 7.87696 16.1151C7.09588 16.0981 5.58854 15.6665 4.4683 15.2978C3.09799 14.8454 2.00516 14.6061 2.10108 13.8377C2.14904 13.4377 2.69374 13.0284 3.73176 12.61Z" fill="white"/>
</svg>
