<svg width="28" height="28" viewBox="0 0 28 28" fill="none" xmlns="http://www.w3.org/2000/svg">
<path d="M26.9212 5.97059C25.97 6.40294 24.9447 6.68706 23.8824 6.82294C24.9694 6.16824 25.8094 5.13059 26.2047 3.88294C25.1794 4.50059 24.043 4.93294 22.8447 5.18C21.8689 4.11765 20.4977 3.5 18.9412 3.5C16.0383 3.5 13.6665 5.87176 13.6665 8.79941C13.6665 9.21941 13.7159 9.62706 13.8024 10.01C9.40474 9.78765 5.48886 7.67529 2.88239 4.47588C2.42533 5.25412 2.16592 6.16824 2.16592 7.13176C2.16592 8.97235 3.09239 10.6029 4.52533 11.5294C3.64827 11.5294 2.83298 11.2824 2.1165 10.9118V10.9488C2.1165 13.5182 3.94474 15.6676 6.36592 16.1494C5.58858 16.3621 4.7725 16.3917 3.9818 16.2359C4.31731 17.2889 4.9744 18.2104 5.8607 18.8707C6.747 19.531 7.81794 19.8969 8.92297 19.9171C7.04981 21.4 4.72791 22.2015 2.33886 22.19C1.91886 22.19 1.49886 22.1653 1.07886 22.1159C3.42592 23.6229 6.21768 24.5 9.20709 24.5C18.9412 24.5 24.29 16.4212 24.29 9.41706C24.29 9.18235 24.29 8.96 24.2777 8.72529C25.3153 7.98412 26.2047 7.04529 26.9212 5.97059Z" fill="white"/>
</svg>
