<svg width="101" height="17" viewBox="0 0 101 17" fill="none" xmlns="http://www.w3.org/2000/svg"><path fill-rule="evenodd" clip-rule="evenodd" d="M60.183.834l-1.472.618v2.787h-2.255l.03 1.329.03 1.328 1.098.03 1.097.03V9.79c.002 3.228.08 3.897.576 4.923.351.726 1.456 2.03 1.72 2.03.073 0 .465-.408.872-.905 1.16-1.42 1.098-1.238.597-1.736-.751-.747-.767-.835-.767-4.182V6.948h2.14V4.24h-2.136l-.029-2.011-.029-2.012-1.472.618zM6.144 1.943C3.294 2.333.92 4.372.185 7.06c-.224.821-.25 2.528-.05 3.327.078.315.337.97.575 1.457.359.733.598 1.043 1.408 1.827 1.506 1.458 2.9 2.025 4.983 2.029 1.592.002 2.933-.418 4.196-1.314.273-.194.526-.352.562-.352.036 0 .56.353 1.163.785l1.098.785.029-3.45c.015-1.897.015-4.967 0-6.82l-.029-3.372-1.146.834-1.146.834-.505-.375C9.939 2.227 7.88 1.705 6.144 1.943zm9.636 6.874v6.884h2.783v-4.286c0-2.984.039-4.41.126-4.695.165-.535.878-1.315 1.422-1.556 1-.441 2.534-.131 3.21.65.598.69.595.66.595 5.455v4.432h2.891l-.002-4.142c-.001-2.278-.05-4.47-.11-4.871-.244-1.664-1.438-3.234-3.01-3.959-1.78-.82-3.949-.672-5.514.376-.312.209-.519.285-.603.224a92.066 92.066 0 01-.959-.745l-.83-.65v6.883zM33.606 2.22c-1.208.285-2.159.833-3.224 1.861-.765.738-1.06 1.11-1.364 1.722-.535 1.076-.742 1.946-.742 3.126 0 1.887.593 3.32 1.949 4.713.956.983 1.83 1.534 3.006 1.896a7.168 7.168 0 007.218-1.77c.519-.512 1.306-1.622 1.378-1.942.012-.055-.315-.287-.727-.516-.413-.229-.95-.53-1.195-.668l-.446-.252-.335.578a4.567 4.567 0 01-1.908 1.768c-.793.383-2.228.48-3.167.214-.332-.094-.604-.209-.604-.255 0-.067 6.945-6.09 7.894-6.845.267-.213.268-.217.081-.574-.327-.622-1.85-1.99-2.697-2.42-1.494-.76-3.518-1.012-5.117-.636zm59.471 6.76v6.93h2.998V7.094l.282-.551a2.437 2.437 0 012.847-1.222c.306.087.565.15.575.138.087-.1 1.221-2.385 1.221-2.46 0-.055-.277-.206-.616-.335-.502-.193-.832-.237-1.793-.242-1.328-.007-1.87.13-2.89.727l-.614.36-.94-.729c-.516-.4-.968-.729-1.004-.729-.036 0-.066 3.118-.066 6.93zm-50.64-6.77c0 .031.772 1.365 1.714 2.964.942 1.6 1.713 2.929 1.713 2.955 0 .045-3.979 6.852-4.412 7.549l-.213.341 1.69-.029 1.688-.028 1.377-2.345a716.64 716.64 0 011.465-2.49c.062-.1.532.614 1.559 2.371l1.47 2.516h1.655c.91 0 1.636-.035 1.612-.079-.024-.043-1.05-1.81-2.281-3.926-1.231-2.117-2.229-3.878-2.218-3.913.01-.036.745-1.312 1.632-2.837.887-1.525 1.643-2.848 1.68-2.94.059-.152-.1-.166-1.58-.14l-1.645.028-.866 1.486c-.477.817-.887 1.506-.912 1.53-.025.024-.454-.655-.954-1.51l-.908-1.556H44.07c-.898-.001-1.632.023-1.632.054zm28.26.2c-1.33.122-1.354.129-2.233.638-1.73 1-2.901 2.151-2.901 2.851 0 .176-.04.32-.088.32-.142 0-.447 1.075-.447 1.577 0 .256-.053.516-.117.578-.186.182-.242 1.3-.103 2.077.333 1.868 1.3 3.291 2.995 4.411.535.354.808.464 1.23.496.297.023.623.114.723.203.1.088.228.133.283.1.055-.033.234.06.398.208l.297.268 1.842-.051c1.013-.028 1.933-.097 2.045-.153a26 26 0 01.88-.398c.372-.163.885-.485 1.141-.716.256-.231.638-.551.849-.711.211-.16.384-.352.384-.427 0-.075.1-.224.222-.332.272-.239.78-1.255.694-1.39-.034-.053.012-.168.103-.256.237-.232.423-1.288.26-1.48-.117-.136-.067-.193.14-.16.244.037-.026-2.211-.337-2.802a3.65 3.65 0 01-.262-.644c-.04-.154-.167-.31-.285-.346-.145-.045-.214-.158-.214-.352a.774.774 0 00-.213-.488c-.565-.537-.636-.583-.761-.508-.092.055-.112.028-.066-.089.043-.11-.045-.26-.258-.434-.178-.145-.36-.265-.404-.265-.044 0-.241-.14-.44-.313-.197-.171-.41-.312-.474-.312s-.346-.12-.628-.266c-.477-.247-.535-.255-.828-.112-.18.087-.342.111-.376.057-.034-.053-.01-.096.052-.096.063 0 .114-.035.113-.078 0-.111-.657-.142-.795-.038-.063.048-.548.115-1.078.148-.868.055-.93.047-.63-.079.456-.19 1.047-.833.71-.772-.044.008-.685.07-1.424.137zm9.856 4.408c.002 2.278.05 4.47.11 4.872.541 3.686 4.969 5.694 8.279 3.754.346-.202.676-.368.734-.368.058 0 .474.295.924.657.45.36.878.692.952.735.106.063.134-1.335.134-6.856V2.676h-2.998l-.001 4.35c-.001 4.346-.001 4.351-.252 4.876-.436.91-1.23 1.403-2.263 1.403-.738 0-1.269-.209-1.806-.709-.825-.768-.812-.678-.814-5.57l-.003-4.35h-2.998l.002 4.142zm-9.637-3.58c0 .021-.119.061-.264.088-.146.028-.24.01-.208-.04.055-.086.472-.13.472-.049zm-.75.168a.106.106 0 01-.107.104.106.106 0 01-.107-.104c0-.058.049-.104.107-.104.06 0 .108.046.108.104zm-1.445.75c-.177.123-.598.495-.937.827-.338.332-.615.563-.615.514 0-.05.12-.2.266-.335.146-.135.266-.3.267-.365.003-.204.592-.744.865-.794.467-.086.48-.073.154.153zM8.897 5.01c.825.369 1.744 1.276 2.148 2.119.254.529.289.729.287 1.644-.001.842-.049 1.157-.248 1.645-.346.843-1.233 1.75-2.137 2.182-.674.323-.773.34-1.89.339-1.083-.003-1.233-.028-1.823-.307-3.491-1.651-3.163-6.673.513-7.828.282-.09.832-.133 1.468-.117.858.021 1.121.072 1.682.323zm28.161.062c.31.13.559.265.555.301-.004.036-1.387 1.252-3.072 2.703l-3.064 2.637-.16-.293c-.212-.39-.288-1.9-.129-2.59.279-1.211 1.479-2.459 2.762-2.872.852-.274 2.313-.22 3.108.114zm36.531.167c2.691.778 4.024 3.77 2.785 6.254-.855 1.714-2.981 2.794-4.837 2.459-3.628-.657-5.125-4.782-2.692-7.416 1.164-1.26 3.07-1.78 4.744-1.297zm-6.148 7.76c.098.156-.016.24-.22.164-.096-.035-.143-.112-.106-.17.087-.136.237-.133.326.007z" fill="#001E41"/></svg>