<svg width="81" height="22" viewBox="0 0 81 22" fill="none" xmlns="http://www.w3.org/2000/svg"><path fill-rule="evenodd" clip-rule="evenodd" d="M.034 8.762L0 17.28h17.83V.244H.068L.034 8.762zm13.776 0v4.663H4.085V4.099h9.725v4.663zm38.415-3.48c-2.388.498-4.444 2.316-5.038 4.456-.209.75-.23 2.274-.044 3.051.453 1.885 2.17 3.664 4.24 4.394 1.087.384 3.655.38 4.754-.007 1.05-.37 1.853-.887 2.7-1.738 1.203-1.21 1.65-2.33 1.653-4.145.002-1.395-.334-2.452-1.096-3.444-1.645-2.144-4.424-3.138-7.169-2.567zm-23.217.12c-.928.2-1.553.531-2.031 1.076l-.33.376V5.467h-3.63v16.165h3.63l.003-2.954.002-2.953.268.402c.395.591 1.65 1.144 2.807 1.238 2.565.206 4.793-1.004 5.916-3.212 1.438-2.828.548-6.22-2.09-7.961-1.2-.792-3.051-1.114-4.545-.79zM43.916 5.4c-.73.222-1.506.744-1.833 1.232l-.26.389-.002-.777-.002-.777h-3.631v11.688h3.632V14.07c0-3.563.092-4.07.87-4.795.638-.593 1.471-.847 2.659-.81l.944.029V5.28l-.907-.025c-.5-.014-1.16.051-1.469.145zm24.081-.01c-.74.253-1.368.673-1.658 1.107l-.267.4-.002-.715-.003-.715h-3.63v11.688h3.63l.003-3.575c.003-3.925.048-4.186.834-4.88.297-.263.477-.311 1.17-.311.636 0 .884.056 1.11.249.605.517.644.807.644 4.783v3.734h3.616l.04-3.637c.037-3.405.057-3.669.31-4.134.369-.678.981-1.057 1.706-1.057.751 0 1.274.308 1.592.938.238.471.257.775.257 4.2v3.69H81l-.044-4.32-.044-4.322-.335-.765c-.805-1.838-2.236-2.639-4.453-2.494-1.455.096-2.2.377-2.978 1.123-.441.423-.665.564-.705.445-.148-.443-1.147-1.21-1.827-1.404-.838-.238-1.968-.25-2.617-.028zM55.076 8.532c1.167.567 1.82 1.56 1.828 2.779.02 2.65-3.119 4.064-5.174 2.33-.78-.66-1.087-1.301-1.09-2.284-.005-1.118.42-1.936 1.323-2.553.843-.576 2.238-.698 3.113-.272zm-24.246.1c1.414.567 2.142 1.985 1.775 3.456-.127.506-.306.783-.833 1.288-.564.541-.789.668-1.407.79-2.424.483-4.457-1.457-3.8-3.626.24-.788.894-1.505 1.693-1.853.648-.282 1.936-.31 2.572-.054z" fill="#001E41"/></svg>