<svg width="48" height="48" viewBox="0 0 48 48" fill="none" xmlns="http://www.w3.org/2000/svg">
<path fill-rule="evenodd" clip-rule="evenodd" d="M38.322 24.011L33.2553 30.1637L18.7258 47.9514C20.2949 47.9856 22.0434 48 24 48C37.44 48 41.0376 47.3406 44.1891 44.1891C47.3406 41.0376 48 37.44 48 24C48 10.56 47.3212 6.94303 44.1891 3.81091C41.057 0.678788 37.44 0 24 0C22.0524 0 20.3111 0.0138467 18.7476 0.0471169L38.322 24.011ZM4.44262 3.21674L21.7679 23.995L4.43945 44.7771C4.22605 44.5915 4.01742 44.3956 3.81091 44.1891C0.678788 41.057 0 37.44 0 24C0 10.56 0.678788 6.96242 3.81091 3.81091C4.01845 3.60209 4.22811 3.40421 4.44262 3.21674Z" fill="url(#paint0_linear_3_2784)"/>
<defs>
<linearGradient id="paint0_linear_3_2784" x1="0" y1="48" x2="57.6488" y2="28.4449" gradientUnits="userSpaceOnUse">
<stop stop-color="#FF7A00"/>
<stop offset="0.2" stop-color="#FFBD00"/>
<stop offset="0.416667" stop-color="#FFBD00"/>
<stop offset="0.661458" stop-color="#FF8256"/>
<stop offset="1" stop-color="#FF00B8"/>
</linearGradient>
</defs>
</svg>
