<svg width="30" height="21" viewBox="0 0 30 21" fill="none" xmlns="http://www.w3.org/2000/svg">
<path d="M29.37 3.28003C29.03 1.99003 28.01 0.969883 26.72 0.629883C24.38 -0.000117183 15 0 15 0C15 0 5.62003 -0.000117183 3.28003 0.629883C1.99003 0.969883 0.970005 1.99003 0.630005 3.28003C4.88758e-06 5.62003 0 10.5 0 10.5C0 10.5 4.88758e-06 15.38 0.630005 17.72C0.970005 19.01 1.99003 20.0301 3.28003 20.3701C5.62003 21.0001 15 21 15 21C15 21 24.38 21.0001 26.72 20.3701C28.01 20.0301 29.03 19.01 29.37 17.72C30 15.38 30 10.5 30 10.5C30 10.5 30 5.62003 29.37 3.28003ZM11.9301 14.9299V6.07007L19.77 10.5L11.9301 14.9299Z" fill="#003595"/>
</svg>
