<svg width="29" height="25" viewBox="0 0 29 25" fill="none" xmlns="http://www.w3.org/2000/svg">
<path id="Vector" fill-rule="evenodd" clip-rule="evenodd" d="M2.00006 11.22C9.72006 7.84997 14.87 5.64006 17.45 4.56006C24.81 1.50006 26.34 0.969951 27.33 0.949951C27.55 0.949951 28.04 1.00001 28.36 1.26001C28.63 1.48001 28.7001 1.76998 28.7401 1.97998C28.7701 2.18998 28.8201 2.65002 28.7801 3.02002C28.3801 7.21002 26.6601 17.3801 25.7801 22.0701C25.4101 24.0601 24.68 24.73 23.97 24.79C22.43 24.93 21.2601 23.77 19.7701 22.8C17.4401 21.27 16.12 20.3201 13.86 18.8201C11.24 17.1001 12.9401 16.1501 14.4301 14.6001C14.8201 14.2001 21.6 8.02997 21.73 7.46997C21.75 7.39997 21.76 7.14 21.61 7C21.45 6.87 21.2201 6.90995 21.0601 6.94995C20.8201 6.99995 17.1001 9.47009 9.88007 14.3401C8.82007 15.0601 7.86007 15.4199 7.01007 15.3999C6.06007 15.3799 4.24008 14.8599 2.89008 14.4299C1.23008 13.8899 -0.0899185 13.5999 0.0200815 12.6799C0.0800815 12.2099 0.740062 11.72 2.00006 11.22Z" fill="#003595"/>
</svg>
