<svg width="24" height="19" viewBox="0 0 24 19" fill="none" xmlns="http://www.w3.org/2000/svg">
<path id="Vector" d="M7.93005 18.79C16.5801 18.79 21.3101 11.6199 21.3101 5.40991C21.3101 5.19991 21.31 5.00005 21.3 4.80005C22.22 4.14005 23.02 3.31012 23.65 2.37012C22.81 2.74012 21.9 2.99011 20.95 3.11011C21.92 2.52011 22.66 1.61001 23.02 0.51001C22.11 1.04001 21.1 1.4299 20.03 1.6499C19.17 0.729902 17.95 0.159912 16.6 0.159912C14.01 0.159912 11.9 2.27011 11.9 4.86011C11.9 5.23011 11.94 5.58994 12.03 5.93994C8.12003 5.73994 4.65997 3.87002 2.33997 1.02002C1.93997 1.71002 1.69995 2.51988 1.69995 3.37988C1.69995 5.00988 2.53005 6.45004 3.80005 7.29004C3.03005 7.27004 2.31004 7.05996 1.67004 6.70996C1.67004 6.72996 1.67004 6.75001 1.67004 6.76001C1.67004 9.05001 3.28995 10.9399 5.44995 11.3799C5.05995 11.4799 4.63996 11.54 4.20996 11.54C3.90996 11.54 3.60995 11.51 3.31995 11.45C3.90995 13.33 5.64996 14.68 7.70996 14.72C6.09996 15.98 4.07 16.73 1.87 16.73C1.49 16.73 1.12 16.7099 0.75 16.6599C2.8 18.0099 5.28005 18.79 7.93005 18.79Z" fill="#003595"/>
</svg>
