<svg width="27" height="27" viewBox="0 0 27 27" fill="none" xmlns="http://www.w3.org/2000/svg">
<path d="M27 0H0V27H27V0Z" fill="#003595"/>
<path d="M6.3501 3.1001C7.5901 3.1001 8.61011 4.12012 8.61011 5.37012C8.61011 6.67012 7.53009 7.65012 6.34009 7.62012C5.14009 7.64012 4.08008 6.64011 4.08008 5.36011C4.08008 4.11011 5.1001 3.1001 6.3501 3.1001Z" fill="white"/>
<path d="M7.67041 21.8999H5.02039C4.68039 21.8999 4.40039 21.62 4.40039 21.27V9.96997C4.40039 9.62997 4.68039 9.3501 5.02039 9.3501H7.67041C8.01041 9.3501 8.29041 9.62997 8.29041 9.96997V21.27C8.29041 21.62 8.01041 21.8999 7.67041 21.8999Z" fill="white"/>
<path d="M22.92 13.3201C22.92 10.9501 21 9.03003 18.63 9.03003H17.95C16.65 9.03003 15.5099 9.66991 14.8199 10.6599C14.7499 10.7699 14.68 10.88 14.61 11C14.59 11 14.58 10.99 14.58 10.99V9.61011C14.58 9.46011 14.4599 9.3501 14.3199 9.3501H11.01C10.87 9.3501 10.75 9.46011 10.75 9.61011V21.6399C10.75 21.7799 10.87 21.8999 11.01 21.8999H14.39C14.53 21.8999 14.65 21.7799 14.65 21.6399V14.6899C14.65 13.4899 15.6101 12.49 16.8101 12.48C17.4201 12.47 17.98 12.7101 18.38 13.1201C18.77 13.5101 19.02 14.0599 19.02 14.6599V21.6399C19.02 21.7799 19.13 21.8999 19.28 21.8999H22.66C22.81 21.8999 22.92 21.7799 22.92 21.6399V13.3201Z" fill="white"/>
</svg>
