<svg width="44" height="45" viewBox="0 0 44 45" fill="none" xmlns="http://www.w3.org/2000/svg">
<path d="M12.9259 16.5901C16.9991 12.5356 24.6331 13.3771 31.1656 18.1711C32.1647 14.0656 31.5498 10.1897 29.0393 7.69069C24.3257 2.99874 14.7959 4.86022 7.77672 11.8471C0.757496 18.834 -1.11259 28.3199 3.60105 33.0119C6.21404 35.6128 10.3385 36.1993 14.6679 35.0008C9.69804 28.4474 8.80142 20.6955 12.9259 16.5901Z" stroke="#00284F" stroke-miterlimit="10" stroke-linejoin="round"/>
<path d="M14.6938 35.0004C15.4111 35.9439 16.2309 36.8619 17.1019 37.7544C24.1211 44.7413 33.6509 46.6028 38.3645 41.9109C43.0781 37.2189 41.2081 27.733 34.1888 20.7461C33.2154 19.7771 32.2163 18.9356 31.166 18.1706" stroke="#00284F" stroke-miterlimit="10" stroke-linejoin="round"/>
<path d="M31.1656 18.1714C24.6331 13.3775 16.9991 12.536 12.9259 16.5904C8.80146 20.6959 9.69807 28.4478 14.6935 35.0012" stroke="#00284F" stroke-miterlimit="10" stroke-linejoin="round"/>
<path d="M39.2864 7.71667L39.3376 7.89517C40.0805 10.4706 41.7457 12.4851 43.8719 13.4031L44 13.4541C41.7713 14.3466 40.0037 16.4631 39.2608 19.1915L39.2095 19.013C38.4666 16.4376 36.8015 14.4231 34.6752 13.5051L34.5471 13.4541C36.7759 12.5361 38.5435 10.4196 39.2864 7.71667Z" fill="#69C522"/>
<path d="M34.4191 0.5L34.4447 0.601999C34.8546 1.97898 35.7512 3.07547 36.8784 3.55996L36.9552 3.58546C35.7512 4.06996 34.829 5.21744 34.4191 6.64542L34.3935 6.54343C33.9836 5.19194 33.087 4.09546 31.9598 3.61096L31.8829 3.58546C33.087 3.10097 34.0092 1.95348 34.4191 0.5Z" fill="#69C522"/>
</svg>
