<svg width="23" height="23" viewBox="0 0 23 23" fill="none" xmlns="http://www.w3.org/2000/svg">
<path d="M7.10158 8.0451C9.18558 6.01788 13.0914 6.43862 16.4337 8.83559M7.10158 8.0451C4.99137 10.0978 5.45011 13.9738 7.99285 17.2505C5.77778 17.8497 3.66757 17.5565 2.33067 16.256C-0.0809996 13.91 0.875804 9.16709 4.46709 5.67363C8.05838 2.18018 12.9341 1.24944 15.3458 3.59541C16.6303 4.84489 16.9449 6.78287 16.4337 8.83559M7.10158 8.0451C4.99137 10.0978 5.45035 13.9735 8.0062 17.2502C8.37319 17.722 8.79261 18.181 9.23825 18.6272C12.8295 22.1207 17.7053 23.0514 20.117 20.7054C22.5286 18.3595 21.5718 13.6165 17.9805 10.1231C17.4825 9.63859 16.9711 9.21808 16.4337 8.83559" stroke="white" stroke-width="0.98" stroke-miterlimit="10" stroke-linejoin="round"/>
<path d="M20.5877 3.60837L20.614 3.69762C20.9941 4.98535 21.846 5.99259 22.9339 6.45158L22.9994 6.47708C21.8591 6.92332 20.9547 7.98156 20.5746 9.34579L20.5484 9.25654C20.1683 7.96881 19.3164 6.96157 18.2285 6.50258L18.163 6.47708C19.3033 6.01809 20.2076 4.95985 20.5877 3.60837Z" fill="#F5FF85"/>
<path d="M18.0983 0L18.1114 0.0509993C18.3212 0.73949 18.7799 1.28773 19.3566 1.52998L19.3959 1.54273C18.7799 1.78498 18.308 2.35872 18.0983 3.07271L18.0852 3.02171C17.8755 2.34597 17.4168 1.79773 16.8401 1.55548L16.8008 1.54273C17.4168 1.30048 17.8886 0.72674 18.0983 0Z" fill="#F5FF85"/>
</svg>
