<svg width="56" height="36" viewBox="0 0 56 36" fill="none" xmlns="http://www.w3.org/2000/svg">
<path d="M50.6117 9.14878C48.5711 7.69799 46.7635 7.93086 43.1021 7.93086C43.1021 7.93086 43.1966 4 39.858 4H5.63043C5.40205 3.9997 5.17585 4.04491 4.9648 4.13304C4.75374 4.22117 4.56197 4.35049 4.40048 4.51359C4.23899 4.6767 4.11094 4.87039 4.02369 5.08355C3.93643 5.29672 3.89166 5.52518 3.89197 5.75585C3.89197 5.98632 3.93695 6.21453 4.02435 6.42743C4.11174 6.64033 4.23984 6.83374 4.4013 6.9966C4.56276 7.15946 4.75442 7.28857 4.96533 7.37656C5.17624 7.46454 5.40224 7.50967 5.63043 7.50937H9.6861C10.1284 7.50998 10.5524 7.68789 10.865 8.004C11.1775 8.32012 11.3531 8.7486 11.3531 9.19535C11.3531 9.6421 11.1775 10.0706 10.865 10.3867C10.5524 10.7028 10.1284 10.8807 9.6861 10.8813H7.90152C7.64275 10.881 7.38646 10.9322 7.1473 11.032C6.90814 11.1319 6.69079 11.2783 6.50771 11.463C6.32462 11.6477 6.17938 11.867 6.08028 12.1085C5.98118 12.3499 5.93018 12.6087 5.93018 12.8701C5.93018 13.1314 5.98118 13.3902 6.08028 13.6316C6.17938 13.8731 6.32462 14.0924 6.50771 14.2771C6.69079 14.4618 6.90814 14.6083 7.1473 14.7081C7.38646 14.8079 7.64275 14.8591 7.90152 14.8588H9.19961C9.73427 14.8594 10.2468 15.0743 10.6247 15.4564C11.0025 15.8385 11.2148 16.3564 11.2148 16.8964C11.2148 17.1637 11.1626 17.4283 11.0614 17.6753C10.9601 17.9222 10.8117 18.1466 10.6245 18.3356C10.4374 18.5246 10.2153 18.6745 9.97078 18.7768C9.72629 18.879 9.46425 18.9317 9.19961 18.9317H1.78228C1.54803 18.9317 1.31608 18.9783 1.0997 19.0689C0.883309 19.1595 0.686741 19.2923 0.521211 19.4597C0.355681 19.6271 0.224447 19.8259 0.135015 20.0445C0.0455824 20.2632 -0.000301544 20.4975 1.49127e-06 20.7341C1.09657e-06 21.2117 0.18771 21.6698 0.521886 22.0078C0.856062 22.3457 1.30937 22.5359 1.78228 22.5365H9.39097C9.8765 22.5365 10.3422 22.7313 10.6855 23.0781C11.0288 23.4248 11.2217 23.8951 11.2217 24.3855C11.2181 24.8748 11.024 25.3429 10.6815 25.6889C10.3389 26.0349 9.87538 26.2309 9.39097 26.2345H7.29051C6.79642 26.2345 6.32258 26.4328 5.9732 26.7856C5.62382 27.1385 5.42755 27.6171 5.42755 28.1161C5.42785 28.3635 5.47639 28.6084 5.57041 28.8369C5.66443 29.0653 5.80207 29.2728 5.97549 29.4476C6.14892 29.6223 6.35472 29.7608 6.58114 29.8552C6.80756 29.9496 7.05018 29.998 7.29513 29.9977L14.581 29.9861C14.7984 29.0269 15.2046 28.1217 15.7754 27.3243C17.1057 25.4614 19.167 24.3506 21.2905 24.3506C22.4892 24.3428 23.6596 24.7186 24.6337 25.4241C25.3417 25.9524 25.9223 26.6355 26.3323 27.4222C26.7424 28.2089 26.9712 29.0789 27.0016 29.9674L38.0873 29.9511C38.3068 29.0051 38.7096 28.1124 39.2724 27.3243C40.6028 25.4614 42.664 24.3506 44.7875 24.3506C45.9863 24.3428 47.1566 24.7186 48.1308 25.4241C48.8382 25.9514 49.4186 26.6332 49.8286 27.4187C50.2386 28.2042 50.4677 29.073 50.4987 29.9604C50.8699 30.035 52.1127 30.1514 53.4961 28.7612C55.1423 27.1008 56 20.9903 56 18.6965C56 16.4027 52.6476 10.5996 50.6117 9.14878ZM20.0339 11.7453C19.8615 11.8872 19.6454 11.9638 19.4229 11.9619H17.1334L16.9028 13.7643H18.9779C19.1483 13.762 19.3132 13.8253 19.4391 13.9413C19.5046 13.9989 19.5565 14.0707 19.5908 14.1513C19.6251 14.2319 19.641 14.3193 19.6374 14.407C19.6377 14.5118 19.6151 14.6154 19.5713 14.7104C19.5275 14.8054 19.4634 14.8894 19.3837 14.9566C19.2188 15.1101 19.0016 15.1935 18.7773 15.1894H16.7022L16.3379 17.8046C16.3045 18.0032 16.1983 18.1819 16.0405 18.3053C15.8807 18.4417 15.6779 18.516 15.4687 18.5148C15.3726 18.5183 15.2768 18.5014 15.1874 18.4653C15.0981 18.4292 15.0172 18.3747 14.9499 18.3053C14.8867 18.2401 14.8398 18.1608 14.8129 18.0737C14.7861 17.9867 14.7801 17.8944 14.7955 17.8046L15.6878 11.3541C15.7292 11.1419 15.8425 10.9508 16.0082 10.8138C16.1816 10.6511 16.4102 10.5618 16.6469 10.5646H19.6304C19.7199 10.5621 19.8089 10.5779 19.8921 10.6112C19.9754 10.6444 20.0511 10.6943 20.1146 10.7579C20.1768 10.8153 20.2266 10.885 20.2607 10.9628C20.2948 11.0406 20.3126 11.1246 20.3129 11.2097C20.3108 11.315 20.2842 11.4183 20.2354 11.5113C20.1865 11.6043 20.1167 11.6845 20.0316 11.7453H20.0339ZM26.1347 14.1695C25.7793 14.5954 25.3054 14.9037 24.7744 15.0544L25.9641 17.3458C26.0362 17.4719 26.0577 17.6211 26.024 17.7627C25.9932 17.8975 25.9307 18.0229 25.8419 18.1283C25.7533 18.2374 25.6434 18.327 25.5191 18.3914C25.4018 18.4543 25.2715 18.4886 25.1387 18.4916C25.0152 18.5007 24.8919 18.4728 24.784 18.4115C24.6762 18.3503 24.5886 18.2582 24.5323 18.1469L23.0889 15.2197H22.3419L21.9891 17.7673C21.9534 17.9701 21.8451 18.1524 21.6848 18.2796C21.5264 18.423 21.321 18.5018 21.1084 18.5009C21.0134 18.5038 20.9188 18.486 20.8313 18.4486C20.7437 18.4112 20.6652 18.3552 20.6011 18.2843C20.5369 18.2165 20.4894 18.1343 20.4626 18.0445C20.4358 17.9547 20.4303 17.8597 20.4466 17.7673L21.3389 11.3611C21.3729 11.1391 21.4891 10.9385 21.664 10.7998C21.837 10.6489 22.058 10.5662 22.2866 10.567H24.2026C24.5938 10.557 24.9838 10.6153 25.3554 10.7393C25.6364 10.8391 25.8934 10.9978 26.1094 11.205C26.2959 11.3856 26.436 11.6094 26.5175 11.8571C26.5976 12.1004 26.6381 12.3552 26.6374 12.6116C26.6552 13.1746 26.4765 13.7261 26.1324 14.1695H26.1347ZM32.36 11.7569C32.1902 11.9003 31.9749 11.9771 31.7536 11.9735H29.4641L29.2105 13.7643H31.2856C31.4596 13.7611 31.6283 13.8243 31.7582 13.9413C31.8238 13.9989 31.8757 14.0707 31.91 14.1513C31.9443 14.2319 31.9602 14.3193 31.9565 14.407C31.9573 14.5123 31.9345 14.6165 31.8897 14.7117C31.845 14.8068 31.7796 14.8906 31.6983 14.9566C31.5311 15.1094 31.3128 15.1926 31.0873 15.1894H29.0122L28.7586 17.0035H31.1588C31.3384 16.9987 31.5129 17.0646 31.6453 17.1875C31.7077 17.2417 31.7577 17.3088 31.7919 17.3844C31.8262 17.46 31.8438 17.5422 31.8435 17.6253C31.8389 17.7299 31.8118 17.8322 31.764 17.9251C31.7162 18.018 31.649 18.0993 31.5669 18.1632C31.4009 18.3151 31.1844 18.3983 30.9605 18.3961H28.0438C27.9161 18.397 27.7886 18.3845 27.6634 18.3588C27.5507 18.3364 27.4438 18.2904 27.3498 18.2238C27.2652 18.1657 27.1981 18.0851 27.1561 17.9909C27.1152 17.8712 27.1057 17.7428 27.1285 17.6183L28 11.3564C28.0389 11.1444 28.1518 10.9536 28.3182 10.8185C28.4912 10.6549 28.7199 10.5648 28.9569 10.567H31.9358C32.0247 10.5647 32.1132 10.5809 32.1957 10.6145C32.2781 10.6482 32.3529 10.6986 32.4154 10.7626C32.4763 10.8202 32.525 10.8897 32.5583 10.967C32.5916 11.0443 32.6088 11.1277 32.609 11.212C32.6104 11.317 32.5875 11.4209 32.5423 11.5155C32.4971 11.61 32.4307 11.6927 32.3485 11.7569H32.36ZM38.0204 11.7569C37.8506 11.9003 37.6353 11.9771 37.414 11.9735H35.1245L34.8709 13.7643H36.946C37.116 13.764 37.2802 13.827 37.4071 13.9413C37.4727 13.9989 37.5245 14.0707 37.5589 14.1513C37.5932 14.2319 37.6091 14.3193 37.6054 14.407C37.6062 14.5123 37.5833 14.6165 37.5386 14.7117C37.4939 14.8068 37.4284 14.8906 37.3472 14.9566C37.1799 15.1094 36.9617 15.1926 36.7362 15.1894H34.6611L34.4074 17.0035H36.8076C36.9865 16.9993 37.1601 17.0652 37.2918 17.1875C37.3547 17.2412 37.4051 17.3083 37.4394 17.384C37.4736 17.4597 37.491 17.5421 37.4901 17.6253C37.4888 17.7279 37.4656 17.829 37.4223 17.9218C37.3789 18.0146 37.3164 18.0969 37.2388 18.1632C37.0726 18.3147 36.8563 18.3978 36.6324 18.3961H33.7134C33.5865 18.397 33.4597 18.3845 33.3353 18.3588C33.2226 18.3364 33.1158 18.2904 33.0217 18.2238C32.936 18.167 32.8686 18.086 32.8281 17.9909C32.7855 17.8715 32.776 17.7427 32.8004 17.6183L33.6696 11.3564C33.7105 11.1446 33.824 10.9541 33.9901 10.8185C34.1631 10.6549 34.3918 10.5648 34.6288 10.567H37.6123C37.7013 10.5647 37.7897 10.5809 37.8722 10.6145C37.9547 10.6482 38.0295 10.6986 38.0919 10.7626C38.1529 10.8202 38.2015 10.8897 38.2348 10.967C38.2681 11.0443 38.2854 11.1277 38.2856 11.212C38.2845 11.3183 38.2589 11.4229 38.2109 11.5175C38.1629 11.612 38.0937 11.694 38.0089 11.7569H38.0204ZM50.7223 18.3961H43.1298C42.9862 18.396 42.8442 18.3653 42.7131 18.306C42.582 18.2468 42.4648 18.1603 42.3691 18.0522C42.2733 17.944 42.2013 17.8167 42.1575 17.6786C42.1138 17.5404 42.0994 17.3945 42.1153 17.2504L42.7632 11.4752C42.7915 11.2234 42.9105 10.991 43.0976 10.8222C43.2847 10.6534 43.5268 10.5601 43.7777 10.56H45.4078C46.2138 10.5562 47.0126 10.714 47.7578 11.0242C48.5031 11.3344 49.18 11.7908 49.7493 12.367C50.1731 12.8021 50.5696 13.2633 50.9368 13.748C53.0879 16.5797 52.9173 18.3961 50.7223 18.3961Z" fill="#00284F"/>
<path d="M3.05455 15C4.1792 15 5.09092 14.1046 5.09092 13C5.09092 11.8954 4.1792 11 3.05455 11C1.9299 11 1.01819 11.8954 1.01819 13C1.01819 14.1046 1.9299 15 3.05455 15Z" fill="#00284F"/>
<path d="M47.8438 29.5128C47.816 28.9577 47.6878 28.4167 47.4682 27.9278C47.2486 27.4389 46.943 27.0138 46.5729 26.6826C46.0501 26.2313 45.4219 25.9923 44.7792 26.0002C44.1414 26.0216 43.5167 26.2238 42.9556 26.5904C42.3945 26.957 41.9128 27.4778 41.5494 28.1106C41.2928 28.5409 41.091 29.0151 40.9508 29.5175C40.4378 31.3301 40.8148 33.2693 42.01 34.3175C42.5331 34.7678 43.161 35.0066 43.8036 34.9999C44.4415 34.9788 45.0663 34.7768 45.6274 34.4101C46.1885 34.0435 46.6702 33.5225 47.0334 32.8895C47.6281 31.9162 47.9154 30.7189 47.8438 29.5128Z" fill="#00284F"/>
<path d="M22.972 26.6826C22.3745 26.2313 21.6566 25.9923 20.922 26.0002C20.1931 26.0216 19.4791 26.2238 18.8379 26.5904C18.1966 26.957 17.6461 27.4778 17.2307 28.1106C16.9307 28.5522 16.6955 29.0392 16.5333 29.555C15.967 31.3559 16.4001 33.2857 17.7571 34.3175C18.3551 34.7678 19.0727 35.0066 19.8071 34.9999C20.5361 34.9788 21.2502 34.7768 21.8914 34.4101C22.5327 34.0435 23.0832 33.5225 23.4984 32.8895C24.1696 31.926 24.4982 30.7439 24.4267 29.5503C24.3993 28.9887 24.2547 28.4404 24.0032 27.9447C23.7517 27.4489 23.3996 27.0179 22.972 26.6826Z" fill="#00284F"/>
<path d="M25.1803 12.2701C25.0608 12.178 24.9203 12.111 24.7689 12.0738C24.5555 12.0196 24.3343 11.995 24.1127 12.0009H22.7031L22.4 13.9965H23.8875C24.2998 14.021 24.7089 13.9171 25.0469 13.702C25.1825 13.6016 25.2899 13.4735 25.3605 13.3283C25.431 13.1831 25.4627 13.0249 25.4528 12.8665C25.4536 12.7578 25.4338 12.6497 25.3944 12.5469C25.3485 12.4405 25.2751 12.3456 25.1803 12.2701Z" fill="#00284F"/>
</svg>
