<svg width="24" height="24" viewBox="0 0 24 24" fill="none" xmlns="http://www.w3.org/2000/svg">
<path fill-rule="evenodd" clip-rule="evenodd" d="M3.09127 9.3251C5.54033 14.661 9.89837 18.9033 15.316 21.2019L15.3331 21.2092L16.3797 21.676C17.7124 22.2701 19.2789 21.8481 20.1334 20.6648L21.8796 18.2466C21.9863 18.0989 21.9588 17.8936 21.8171 17.7791L18.7686 15.3184C18.6171 15.1961 18.3942 15.2246 18.2783 15.3811L17.0919 16.983C16.8037 17.372 16.2834 17.5072 15.8425 17.3076C11.7915 15.4732 8.53618 12.216 6.70289 8.16267C6.50337 7.72152 6.63847 7.20087 7.02728 6.91256L8.62824 5.72543C8.78468 5.60944 8.81315 5.38647 8.69089 5.23484L6.23125 2.18421C6.11693 2.04243 5.91174 2.01489 5.76412 2.12152L3.33428 3.87667C2.14383 4.73656 1.72459 6.31716 2.33224 7.65454L3.09045 9.32332C3.09073 9.32391 3.091 9.32451 3.09127 9.3251ZM14.5049 23.0916C8.61833 20.5914 3.88364 15.9806 1.22256 10.1814L1.22096 10.1779L0.461158 8.50567C-0.55159 6.2767 0.147136 3.64238 2.13122 2.20921L4.56107 0.45406C5.5944 -0.292342 7.03072 -0.0995678 7.83094 0.892919L10.2906 3.94354C11.1464 5.00496 10.9471 6.56575 9.85201 7.37773L8.93463 8.05798C10.4843 11.0666 12.9403 13.524 15.9471 15.0745L16.627 14.1566C17.4385 13.0609 18.9984 12.8615 20.0592 13.7178L23.1076 16.1785C24.0998 16.9794 24.2922 18.4172 23.5456 19.4511L21.7994 21.8693C20.3753 23.8414 17.7644 24.5447 15.5432 23.5545L14.5049 23.0916Z" fill="#1D1D1B"/>
</svg>
