<svg width="196" height="32" viewBox="0 0 196 32" fill="none" xmlns="http://www.w3.org/2000/svg">
<g clip-path="url(#clip0_525_85)">
<path d="M3.05214 25.7945V5.20649C3.05214 4.54492 3.05214 4.04213 3.01276 3.77089C2.97378 3.48067 2.88728 3.19898 2.75677 2.93732C2.52704 2.36837 1.94943 2.07066 1.01738 2.03759C0.361008 2.03759 0 1.75311 0 1.27017C0 0.787222 0.347879 0.608599 1.05676 0.608599H10.5217C12.5985 0.584748 14.6672 0.874646 16.6588 1.46864C18.3803 1.97253 19.9924 2.79841 21.4109 3.9032C22.692 4.92205 23.7416 6.20561 24.4893 7.66752C25.231 9.15248 25.6091 10.7949 25.592 12.4573C25.592 15.5446 24.4871 17.9196 22.2774 19.5823C20.0676 21.2451 16.941 22.0787 12.8978 22.0831C12.2458 22.0831 11.5894 22.0632 10.9286 22.0235C10.2723 21.9772 9.70778 21.9111 9.22863 21.8317C8.92013 21.7721 8.63132 21.7258 8.36221 21.6993C8.09309 21.6729 7.90275 21.6597 7.7846 21.6597C7.30545 21.6597 7.06259 21.9309 7.06259 22.4668V26.7471C7.06259 27.4087 7.06259 27.9115 7.10854 28.1827C7.13582 28.4549 7.20675 28.7207 7.31857 28.97C7.44698 29.2659 7.68136 29.5021 7.97495 29.6316C8.35066 29.7753 8.74346 29.8687 9.14329 29.9094C9.79967 29.9094 10.1213 30.1939 10.1213 30.6768C10.1213 31.1598 9.76686 31.3384 9.05797 31.3384H1.01738C0.361008 31.3384 0 31.1135 0 30.6768C0 30.2402 0.321621 29.9359 0.971432 29.9094C1.36552 29.8726 1.75234 29.779 2.12009 29.6316C2.41151 29.499 2.64491 29.2637 2.77646 28.97C2.91476 28.7425 3.00212 28.4874 3.03245 28.2224C3.03245 27.9512 3.07183 27.4616 3.07183 26.7471L3.05214 25.7945ZM10.1016 2.18312C9.28421 2.10786 8.46204 2.26124 7.72552 2.62638C7.49308 2.81901 7.31152 3.0666 7.19699 3.34708C7.08247 3.62757 7.03855 3.93225 7.06915 4.23398V17.7763C7.05371 18.1805 7.15139 18.581 7.35102 18.9319C7.55066 19.2829 7.84419 19.5702 8.19811 19.761C9.35103 20.2742 10.6093 20.5011 11.8673 20.4225C13.0823 20.451 14.2959 20.3198 15.4773 20.0322C16.4136 19.7771 17.2919 19.3412 18.0634 18.7488C20.1069 17.2139 21.1265 14.9756 21.1221 12.0339C21.1433 10.6348 20.882 9.24607 20.3542 7.95199C19.8645 6.76113 19.11 5.69959 18.1488 4.84925C17.1307 3.96246 15.9483 3.28789 14.67 2.86455C13.1948 2.38552 11.6512 2.15528 10.1016 2.18312Z" fill="#1D1D1B"/>
<path d="M30.4295 23.3996C30.0882 23.5121 29.9175 23.6378 29.9175 23.7833C29.9821 24.2608 30.1264 24.7238 30.3442 25.1528C30.9763 26.626 31.9869 27.9026 33.2716 28.8509C34.4554 29.7191 35.8837 30.1828 37.3477 30.1741C38.3774 30.1703 39.3924 29.9281 40.3145 29.4662C41.2983 28.9805 42.179 28.3064 42.9072 27.4815C42.9967 27.3554 43.1134 27.2513 43.2485 27.1772C43.3398 27.1277 43.4405 27.0983 43.5439 27.0912C43.9115 27.0912 44.0952 27.2963 44.0952 27.6932C44.08 27.9072 44.0074 28.113 43.8852 28.2886C43.0036 29.4787 41.8232 30.4104 40.4655 30.9878C39.0314 31.6386 37.4764 31.9746 35.9037 31.9735C34.5059 31.9878 33.1195 31.7178 31.8276 31.1797C30.613 30.6763 29.5125 29.9294 28.5929 28.9844C27.6734 28.0393 26.9539 26.9158 26.4782 25.6821C25.4909 23.068 25.463 20.1844 26.3994 17.5514C26.8146 16.3826 27.4548 15.3079 28.2832 14.3891C29.0962 13.5014 30.0784 12.7882 31.1712 12.2919C32.3115 11.7734 33.5501 11.5116 34.801 11.5245C36.1724 11.5099 37.5258 11.8396 38.7392 12.4838C39.9809 13.1596 41.0608 14.1013 41.903 15.2425C42.4952 16.0301 43.0055 16.8769 43.4258 17.7697C43.598 18.1306 43.7004 18.5213 43.7277 18.9208C43.7328 19.0379 43.6977 19.153 43.6283 19.247C43.559 19.341 43.4596 19.4081 43.347 19.4369L30.4295 23.3996ZM29.7075 22.0302C29.8421 22.0128 29.9716 21.9678 30.0882 21.8979L39.3431 19.1656C39.6778 19.0796 39.8485 18.9208 39.8485 18.6959C39.8344 18.471 39.7925 18.2488 39.7238 18.0343C39.6385 17.7366 39.5269 17.3728 39.3825 17.0287C39.044 16.1356 38.5074 15.3323 37.8137 14.6802C37.3157 14.1845 36.7252 13.7931 36.0763 13.5285C35.4274 13.264 34.733 13.1315 34.033 13.1387C33.3496 13.1175 32.6717 13.2686 32.0608 13.5782C31.4499 13.8878 30.9253 14.3461 30.5345 14.9117C29.5917 16.3466 29.1314 18.049 29.2218 19.7676C29.2118 20.3129 29.2535 20.8579 29.3465 21.3951C29.4515 21.8185 29.5959 22.0302 29.7075 22.0302Z" fill="#1D1D1B"/>
<path d="M51.1841 12.4837L51.2235 15.6063C51.2235 15.8048 51.2235 15.904 51.3088 15.904C51.4711 15.7371 51.6123 15.5504 51.7289 15.3483C52.0235 14.8181 52.3853 14.3289 52.8053 13.8929C53.2368 13.4389 53.7192 13.0371 54.2428 12.6954C54.7454 12.3635 55.2852 12.0926 55.8509 11.8883C56.3924 11.6935 56.9628 11.5928 57.5378 11.5906C58.0247 11.589 58.5092 11.6603 58.9753 11.8023C59.4069 11.9378 59.8211 12.1243 60.2093 12.358C60.4062 12.444 60.5046 12.5499 60.5046 12.6624C60.5065 12.8007 60.4627 12.9357 60.3799 13.0461C60.0977 13.7076 59.8482 14.3692 59.6382 14.9911C59.4773 15.4463 59.3414 15.9101 59.2312 16.3804C59.2136 16.6359 59.1249 16.8812 58.9753 17.0882C58.9161 17.1525 58.8438 17.2029 58.7633 17.2361C58.6828 17.2692 58.5961 17.2842 58.5092 17.2801C58.2007 17.2801 58.0301 16.9956 58.0038 16.4267C57.9997 16.147 57.9399 15.8709 57.8281 15.6149C57.7162 15.3589 57.5544 15.1282 57.3525 14.9363C57.1505 14.7445 56.9123 14.5954 56.6522 14.498C56.392 14.4006 56.1151 14.3568 55.8378 14.3692C55.2022 14.3665 54.5757 14.521 54.0131 14.8191C53.443 15.1241 52.944 15.5481 52.5494 16.0628C52.1237 16.6165 51.7932 17.2382 51.5714 17.902C51.3263 18.6236 51.2042 19.3819 51.2103 20.1447V27.5873C51.1466 28.215 51.3046 28.8452 51.6567 29.3669C52.1427 29.7768 52.7443 30.0221 53.3764 30.0682C53.9409 30.1542 54.2231 30.3857 54.2231 30.7297C54.2231 31.0738 53.9277 31.3252 53.3304 31.3252H45.7099C45.0864 31.3252 44.7713 31.1135 44.7713 30.6636C44.7713 30.3527 45.0733 30.141 45.664 30.002C46.0311 29.9566 46.3895 29.8563 46.7273 29.7043C47.0044 29.6031 47.2369 29.4062 47.3837 29.1486C47.6162 28.6403 47.7048 28.0771 47.6397 27.5212V18.2658C47.6802 17.6908 47.5997 17.1137 47.4034 16.5722C47.3044 16.4094 47.1716 16.2701 47.0141 16.1639C46.8566 16.0577 46.6781 15.9871 46.491 15.957L46.1497 15.871C45.9947 15.8487 45.8527 15.7712 45.7493 15.6527C45.6525 15.5487 45.5986 15.4115 45.5984 15.2689C45.6026 15.1544 45.6363 15.0431 45.6962 14.9456C45.756 14.8482 45.8399 14.7681 45.9397 14.7132L50.403 11.8883C50.4748 11.8286 50.566 11.7979 50.659 11.8023C50.9741 11.8222 51.1513 12.0339 51.1841 12.4837Z" fill="#1D1D1B"/>
<path d="M66.1232 0.767336V27.6997C66.1179 28.0296 66.1399 28.3593 66.1888 28.6855C66.221 28.8752 66.2716 29.0614 66.3398 29.2412C66.5046 29.4985 66.7297 29.7109 66.9953 29.8598C67.2609 30.0086 67.5587 30.0893 67.8626 30.0946C68.4599 30.1806 68.7552 30.4122 68.7552 30.7562C68.7552 31.1002 68.4336 31.3516 67.7838 31.3516H60.905C60.2815 31.3516 59.9729 31.1399 59.9729 30.69C59.9729 30.2401 60.2683 30.1343 60.8656 30.0284C61.1578 29.9519 61.4415 29.8455 61.7123 29.7109C61.9518 29.6016 62.1466 29.4123 62.2637 29.175C62.4979 28.6531 62.5864 28.0767 62.5197 27.5079V6.13927C62.5243 5.95947 62.5089 5.77973 62.4737 5.6034C62.4619 5.27646 62.3407 4.96315 62.1297 4.7145C61.9188 4.46585 61.6306 4.29648 61.312 4.23395L61.0232 4.14794C60.9479 4.14543 60.8738 4.12775 60.8054 4.09594C60.737 4.06412 60.6756 4.01882 60.6248 3.96272C60.574 3.90661 60.5349 3.84082 60.5098 3.76924C60.4846 3.69766 60.4739 3.62173 60.4784 3.54593C60.4915 3.428 60.5339 3.31531 60.6016 3.2182C60.6692 3.1211 60.76 3.04269 60.8656 2.9902L65.3618 0.17193C65.3887 0.143406 65.4214 0.120991 65.4576 0.106163C65.4938 0.0913353 65.5328 0.0844313 65.5718 0.085923C65.8869 0.085923 66.0707 0.310855 66.1232 0.767336Z" fill="#1D1D1B"/>
<path d="M82.1978 20.3167L81.7318 17.1545C81.638 16.0163 81.1769 14.9404 80.419 14.0914C79.6038 13.4158 78.5645 13.0777 77.5113 13.1454C76.6042 13.161 75.7103 13.366 74.8858 13.7474C73.9904 14.1467 73.1878 14.7304 72.5294 15.4608C72.1946 15.7982 71.9255 15.9702 71.722 15.9702C71.6471 15.9814 71.5706 15.9747 71.4986 15.9507C71.4267 15.9267 71.3613 15.8861 71.3078 15.8321C71.2542 15.7781 71.2139 15.7122 71.1901 15.6397C71.1663 15.5672 71.1596 15.4901 71.1707 15.4145C71.1855 15.2907 71.2307 15.1725 71.302 15.0705C71.3873 14.9316 71.4726 14.7993 71.558 14.6868C72.4195 13.6771 73.4996 12.8803 74.7151 12.3581C75.9566 11.8088 77.2976 11.525 78.6534 11.5245C80.3459 11.4306 82.0164 11.9465 83.3661 12.98C84.5896 14.0785 85.3484 15.6081 85.4862 17.2537L86.8252 27.0383C86.8819 27.8666 87.1052 28.6747 87.4816 29.4133C87.5947 29.634 87.7648 29.8199 87.9738 29.9514C88.1829 30.083 88.4232 30.1553 88.6696 30.1609C88.8993 30.1671 89.1263 30.1099 89.326 29.9955C89.4933 29.9106 89.6291 29.7738 89.7133 29.6052L89.9233 29.1817C89.9233 29.0957 90.0086 29.0494 90.1793 29.0494C90.3499 29.0494 90.56 29.2479 90.56 29.6515C90.5506 29.9851 90.4578 30.311 90.2903 30.5989C90.1228 30.8869 89.886 31.1276 89.6017 31.2988C88.903 31.7596 88.0797 31.9908 87.2453 31.9603C85.6044 31.9603 84.4732 31.3473 83.8519 30.1212C83.714 29.8102 83.5959 29.6515 83.5105 29.6515L83.3465 29.7375C81.6136 31.1739 79.4331 31.9471 77.1897 31.9206C76.1479 31.9309 75.1126 31.7563 74.1309 31.4046C73.2461 31.0868 72.4272 30.6068 71.7155 29.9889C71.0379 29.3902 70.4885 28.6586 70.1008 27.8388C69.7083 27.0129 69.5063 26.1082 69.5101 25.1925C69.5051 24.3275 69.7078 23.4741 70.1008 22.705C70.4998 21.9342 71.057 21.2576 71.7352 20.7203C72.4759 20.1427 73.3081 19.6954 74.1966 19.3972C75.188 19.0597 76.2286 18.892 77.275 18.901C77.7134 18.9 78.1516 18.922 78.5877 18.9671C78.9626 19.011 79.332 19.0931 79.6904 19.2119C80.0449 19.331 80.4256 19.4766 80.8391 19.6552C81.3038 19.8502 81.7574 20.0711 82.1978 20.3167ZM83.0905 26.3767L82.4341 22.189C81.837 21.5655 81.1375 21.0508 80.3665 20.6674C79.6389 20.3356 78.848 20.1685 78.0495 20.1778C77.3989 20.1562 76.7507 20.2663 76.143 20.5015C75.5353 20.7367 74.9806 21.0923 74.5116 21.5473C74.0448 21.9986 73.6777 22.5443 73.4345 23.1485C73.1913 23.7527 73.0775 24.4019 73.1004 25.0536C73.0959 25.7666 73.2343 26.4732 73.5074 27.1309C73.769 27.7631 74.1528 28.3365 74.6363 28.8179C75.1146 29.2966 75.678 29.6803 76.297 29.9492C76.9443 30.2264 77.6415 30.366 78.3449 30.3593C78.971 30.3636 79.5944 30.2767 80.1958 30.1013C80.7374 29.9583 81.2549 29.7354 81.7318 29.4398C82.1499 29.179 82.5061 28.829 82.7754 28.4143C83.0219 28.0491 83.1565 27.6189 83.1626 27.1772C83.17 27.0494 83.17 26.9213 83.1626 26.7935C83.1364 26.6612 83.1167 26.5355 83.0905 26.3767Z" fill="#1D1D1B"/>
<path d="M100.885 25.7482V5.13373C100.948 4.29874 100.834 3.45981 100.55 2.6727C100.408 2.45265 100.214 2.27234 99.984 2.14856C99.7544 2.02479 99.4976 1.96158 99.2373 1.96483C98.9541 1.96933 98.675 1.89615 98.4299 1.75312C98.3543 1.68344 98.2959 1.59689 98.2595 1.50039C98.223 1.40389 98.2094 1.30013 98.2199 1.19741C98.2199 0.740929 98.5743 0.535843 99.2832 0.535843H106.392C107.101 0.535843 107.455 0.767391 107.455 1.19741C107.467 1.29788 107.453 1.39964 107.415 1.4933C107.377 1.58695 107.316 1.66948 107.238 1.73328C107.004 1.86496 106.744 1.94396 106.477 1.96483C106.193 1.98196 105.913 2.0468 105.65 2.15668C105.433 2.25904 105.259 2.43459 105.158 2.65286C105.027 2.95 104.949 3.26799 104.928 3.59228C104.879 4.08905 104.857 4.58821 104.862 5.08743V12.1927C104.812 12.6249 104.927 13.0603 105.184 13.4099C105.533 13.6645 105.964 13.7778 106.392 13.7275H120.904C121.34 13.7733 121.778 13.6606 122.138 13.4099C122.418 13.0304 122.541 12.5558 122.479 12.0868V5.08743C122.543 4.26052 122.427 3.42955 122.138 2.65286C121.99 2.44264 121.793 2.27237 121.564 2.15701C121.335 2.04166 121.081 1.98474 120.825 1.99129C120.169 1.99129 119.808 1.70681 119.808 1.22387C119.808 0.740924 120.162 0.562301 120.871 0.562301H128.131C128.833 0.562301 129.188 0.79385 129.188 1.22387C129.188 1.65389 128.866 1.96483 128.21 1.99129C127.901 1.97075 127.593 2.04595 127.328 2.20678C127.063 2.36762 126.853 2.60638 126.726 2.89102C126.614 3.14818 126.549 3.42402 126.536 3.70474C126.536 3.98922 126.536 4.47216 126.536 5.16019V26.6744C126.536 27.4153 126.536 27.9115 126.575 28.1496C126.611 28.4184 126.668 28.6839 126.746 28.9435C126.846 29.2171 127.033 29.4496 127.278 29.6051C127.566 29.74 127.874 29.8272 128.19 29.8631C128.846 29.8631 129.168 30.1476 129.168 30.6305C129.168 31.1135 128.827 31.2921 128.151 31.2921H120.832C120.13 31.2921 119.775 31.0605 119.775 30.6305C119.775 30.2005 120.11 29.8896 120.793 29.8631C121.052 29.8616 121.307 29.7964 121.536 29.673C121.765 29.5497 121.96 29.3719 122.105 29.1552C122.409 28.3729 122.532 27.5315 122.466 26.6942V17.2404C122.524 16.7961 122.416 16.3462 122.164 15.9768C121.784 15.7412 121.335 15.6433 120.891 15.6989H106.392C105.967 15.6521 105.539 15.7575 105.184 15.9967C104.926 16.3559 104.814 16.8006 104.869 17.2404V27.5476C104.869 27.7814 104.869 27.9732 104.869 28.1232C104.869 28.282 104.869 28.4143 104.908 28.5334C104.925 28.6508 104.961 28.7647 105.013 28.8708C105.11 29.1579 105.297 29.4056 105.545 29.5763C105.794 29.747 106.091 29.8314 106.392 29.8168C106.674 29.8364 106.949 29.9153 107.199 30.0483C107.275 30.1136 107.334 30.1966 107.37 30.29C107.407 30.3834 107.42 30.4844 107.409 30.5842C107.409 31.0407 107.055 31.2458 106.346 31.2458H99.1716C98.5153 31.2458 98.1477 31.0142 98.1477 30.5842C98.1356 30.4825 98.1471 30.3794 98.1813 30.283C98.2154 30.1866 98.2713 30.0994 98.3446 30.0285C98.5784 29.8815 98.8503 29.8079 99.1257 29.8168C99.3912 29.8257 99.6549 29.7702 99.8948 29.6551C100.135 29.54 100.344 29.3686 100.504 29.1552C100.805 28.4651 100.929 27.7099 100.865 26.9588V25.7548L100.885 25.7482Z" fill="#1D1D1B"/>
<path d="M134.032 23.3137C133.697 23.4262 133.526 23.5585 133.526 23.6974C133.593 24.1711 133.74 24.6297 133.959 25.0536C134.594 26.5255 135.604 27.8016 136.887 28.7518C138.071 29.62 139.499 30.0836 140.963 30.0749C141.995 30.0705 143.012 29.8284 143.936 29.367C144.918 28.881 145.797 28.2069 146.523 27.3823C146.614 27.2576 146.73 27.1539 146.864 27.078C146.955 27.0285 147.056 26.9992 147.159 26.992C147.527 26.992 147.711 27.1971 147.711 27.594C147.695 27.808 147.623 28.0138 147.501 28.1894C146.62 29.3809 145.439 30.3129 144.081 30.8887C142.647 31.5402 141.092 31.8763 139.519 31.8744C138.123 31.8892 136.739 31.6191 135.449 31.0805C134.233 30.5798 133.131 29.8339 132.211 28.8885C131.292 27.9431 130.573 26.8182 130.1 25.5829C129.106 22.9705 129.076 20.0852 130.015 17.4522C130.435 16.2842 131.077 15.21 131.905 14.2899C132.716 13.4025 133.696 12.6891 134.787 12.1928C135.928 11.6779 137.166 11.4162 138.416 11.4253C139.788 11.4099 141.141 11.7396 142.355 12.3846C143.597 13.0587 144.678 14.0006 145.518 15.1433C146.111 15.9316 146.624 16.7784 147.048 17.6705C147.215 18.0328 147.315 18.4229 147.343 18.8217C147.349 18.9389 147.315 19.0548 147.245 19.149C147.176 19.2433 147.076 19.31 146.962 19.3377L134.032 23.3137ZM133.303 21.9443C133.44 21.9272 133.572 21.8822 133.69 21.8119L142.945 19.0995C143.287 19.0135 143.457 18.8547 143.457 18.6298C143.44 18.4048 143.396 18.1826 143.326 17.9682C143.241 17.6705 143.129 17.3067 142.991 16.9627C142.653 16.0678 142.114 15.264 141.416 14.6141C140.918 14.1198 140.329 13.7292 139.681 13.4647C139.033 13.2002 138.34 13.067 137.642 13.0727C136.957 13.0521 136.279 13.2034 135.667 13.5129C135.055 13.8224 134.529 14.2804 134.137 14.8456C133.197 16.2819 132.737 17.9833 132.824 19.7015C132.815 20.247 132.859 20.7921 132.955 21.329C133.06 21.7458 133.172 21.9443 133.303 21.9443Z" fill="#1D1D1B"/>
<path d="M153.513 0.681433V27.5874C153.504 27.9173 153.526 28.2473 153.579 28.5731C153.609 28.7626 153.657 28.9487 153.723 29.1288C153.891 29.3855 154.117 29.5977 154.383 29.7474C154.649 29.8971 154.948 29.9799 155.252 29.9888C155.85 30.0748 156.145 30.2998 156.145 30.6504C156.145 31.001 155.817 31.2524 155.167 31.2524H148.295C147.671 31.2524 147.363 31.0341 147.363 30.5909C147.363 30.1476 147.658 30.0418 148.249 29.9293C148.544 29.8517 148.83 29.743 149.102 29.6051C149.339 29.4919 149.533 29.3038 149.653 29.0693C149.888 28.5474 149.976 27.971 149.909 27.4021V6.05335C149.91 5.87369 149.895 5.69431 149.863 5.51749C149.85 5.19089 149.729 4.8782 149.518 4.62978C149.307 4.38136 149.02 4.21166 148.702 4.14804L148.413 4.06204C148.338 4.06039 148.264 4.04352 148.196 4.01242C148.127 3.98133 148.066 3.93665 148.015 3.88106C147.964 3.82548 147.925 3.76013 147.9 3.68892C147.874 3.61771 147.864 3.5421 147.868 3.46662C147.88 3.34837 147.921 3.23501 147.988 3.13682C148.054 3.03863 148.144 2.95871 148.249 2.9043L152.751 0.0860162C152.778 0.0571424 152.811 0.0344877 152.847 0.0196334C152.883 0.00477914 152.922 -0.00190994 152.962 1.93878e-05C153.27 1.93878e-05 153.454 0.224951 153.513 0.681433Z" fill="#1D1D1B"/>
<path d="M163.103 21.7457L160.982 21.018C158.357 20.1359 157.055 18.6672 157.077 16.6119C157.079 15.923 157.238 15.2438 157.543 14.6272C157.85 14.0065 158.284 13.4586 158.816 13.0196C159.387 12.5607 160.034 12.2069 160.726 11.9744C161.507 11.7102 162.325 11.5805 163.148 11.5907C163.455 11.5907 163.724 11.5907 163.956 11.5907C164.189 11.6038 164.422 11.6325 164.652 11.6767C164.925 11.709 165.197 11.7576 165.465 11.8222L166.634 12.1662L167.205 12.3382C167.295 12.363 167.387 12.3763 167.481 12.3779C167.684 12.3779 167.881 12.1927 168.078 11.8222C168.14 11.672 168.226 11.5333 168.334 11.412C168.424 11.3635 168.527 11.3428 168.629 11.3525C168.77 11.3433 168.911 11.3805 169.03 11.4583C169.198 11.6241 169.336 11.8191 169.437 12.0339L171.727 16.2282L171.878 16.5259C171.913 16.5937 171.933 16.6681 171.937 16.7443C171.937 17.0287 171.786 17.1677 171.471 17.1677C171.284 17.1715 171.099 17.121 170.94 17.0221C170.725 16.8539 170.533 16.6582 170.369 16.4399C169.474 15.3664 168.379 14.4807 167.146 13.8334C166.054 13.2192 164.831 12.881 163.582 12.8476C162.751 12.8245 161.936 13.0805 161.265 13.5754C160.972 13.7742 160.733 14.0421 160.567 14.3558C160.401 14.6695 160.314 15.0193 160.313 15.3748C160.307 15.7004 160.379 16.0225 160.523 16.3142C160.695 16.6331 160.943 16.9037 161.245 17.1015C161.679 17.3976 162.141 17.6502 162.623 17.8557C163.201 18.1071 163.936 18.3982 164.77 18.7091L167.27 19.6088C169.594 20.438 171.242 21.3201 172.213 22.2551C172.698 22.7192 173.079 23.2818 173.331 23.9058C173.584 24.5297 173.701 25.2006 173.677 25.8739C173.685 26.6979 173.52 27.5142 173.191 28.2688C172.875 28.9976 172.404 29.6479 171.813 30.1741C171.195 30.7148 170.483 31.1343 169.712 31.4112C168.87 31.7143 167.981 31.8665 167.087 31.8611C165.677 31.8226 164.278 31.6003 162.925 31.1995L162.184 31.0076C162.131 31.0109 162.08 30.9943 162.039 30.9613C162.006 30.9385 161.968 30.9248 161.928 30.9216C161.731 30.9216 161.508 31.1201 161.271 31.517C161.208 31.6577 161.113 31.7821 160.996 31.8809C160.896 31.9325 160.785 31.9554 160.674 31.9471C160.533 31.9562 160.392 31.9191 160.274 31.8412C160.101 31.684 159.951 31.5037 159.827 31.3054L156.434 26.2576C156.226 26.0515 156.092 25.7815 156.053 25.4902C156.042 25.4146 156.049 25.3375 156.072 25.265C156.096 25.1925 156.137 25.1266 156.19 25.0726C156.244 25.0186 156.309 24.978 156.381 24.954C156.453 24.93 156.529 24.9233 156.604 24.9345C156.854 24.9345 157.169 25.1726 157.536 25.6622C157.973 26.1433 158.449 26.586 158.961 26.9853C159.709 27.616 160.508 28.2423 161.357 28.8642C162.072 29.4124 162.876 29.8331 163.733 30.1079C164.567 30.3862 165.44 30.5313 166.319 30.5379C167.33 30.591 168.321 30.2445 169.082 29.572C169.414 29.2436 169.673 28.8479 169.841 28.4111C170.01 27.9743 170.084 27.5063 170.06 27.0382C170.083 26.5956 170.016 26.153 169.862 25.7376C169.708 25.3223 169.472 24.9431 169.167 24.6235C168.951 24.3969 168.709 24.1971 168.445 24.0281C168.105 23.8125 167.752 23.6181 167.389 23.4459C166.962 23.2475 166.45 23.0358 165.859 22.7844L163.103 21.7457Z" fill="#1D1D1B"/>
<path d="M187.638 20.2307L187.172 17.0684C187.073 15.9315 186.613 14.857 185.859 14.0054C185.034 13.3357 183.988 13.0069 182.932 13.0858C182.024 13.1003 181.13 13.3053 180.306 13.6878C179.411 14.0879 178.609 14.6714 177.95 15.4013C177.608 15.7387 177.339 15.9107 177.142 15.9107C177.067 15.9218 176.991 15.9151 176.919 15.8912C176.847 15.8672 176.782 15.8265 176.728 15.7725C176.675 15.7185 176.634 15.6527 176.61 15.5802C176.587 15.5076 176.58 15.4305 176.591 15.355C176.606 15.2322 176.649 15.1146 176.716 15.011C176.801 14.872 176.886 14.7463 176.972 14.6273C177.837 13.6188 178.919 12.8224 180.135 12.2985C181.387 11.7442 182.74 11.4603 184.106 11.465C185.797 11.3714 187.465 11.8874 188.813 12.9204C190.041 14.0161 190.802 15.5468 190.939 17.1941L192.298 26.9523C192.356 27.7784 192.579 28.5841 192.954 29.3207C193.067 29.5426 193.236 29.7298 193.445 29.8626C193.655 29.9953 193.895 30.0687 194.142 30.0749C194.373 30.0787 194.6 30.0192 194.799 29.9028C194.966 29.8201 195.1 29.6824 195.18 29.5125L195.396 29.0891C195.396 29.0031 195.481 28.9568 195.646 28.9568C195.81 28.9568 196.033 29.1619 196.033 29.5588C196.023 29.8925 195.931 30.2183 195.763 30.5063C195.596 30.7942 195.359 31.0349 195.074 31.2061C194.375 31.6662 193.552 31.8972 192.718 31.8677C191.077 31.8677 189.946 31.2546 189.325 30.0285C189.18 29.7176 189.069 29.5588 188.983 29.5588L188.813 29.6448C187.083 31.0823 184.904 31.8557 182.662 31.828C181.621 31.8388 180.585 31.6641 179.604 31.312C178.719 30.9941 177.9 30.5142 177.188 29.8962C176.509 29.2989 175.96 28.567 175.574 27.7461C175.175 26.9222 174.971 26.0165 174.976 25.0999C174.971 24.2339 175.176 23.3798 175.574 22.6124C175.972 21.8413 176.53 21.1647 177.208 20.6277C177.947 20.0475 178.78 19.5999 179.669 19.3045C180.661 18.9666 181.701 18.7989 182.748 18.8084C183.186 18.8073 183.624 18.8294 184.061 18.8745C184.435 18.9184 184.805 19.0004 185.163 19.1193C185.518 19.2384 185.898 19.3839 186.312 19.5626C186.766 19.7608 187.208 19.9839 187.638 20.2307ZM188.53 26.3039L187.874 22.1162C187.277 21.4927 186.577 20.978 185.806 20.5946C185.077 20.2621 184.284 20.095 183.483 20.105C182.833 20.0849 182.185 20.1957 181.577 20.4308C180.97 20.6659 180.415 21.0207 179.945 21.4745C179.479 21.9264 179.114 22.4723 178.872 23.0765C178.629 23.6807 178.517 24.3296 178.54 24.9808C178.535 25.6797 178.668 26.3728 178.931 27.0192C179.195 27.6656 179.584 28.2524 180.076 28.7451C180.552 29.2273 181.116 29.6116 181.737 29.8764C182.384 30.1536 183.082 30.2933 183.785 30.2866C184.411 30.29 185.034 30.2031 185.636 30.0285C186.176 29.8824 186.693 29.6597 187.172 29.367C187.59 29.1038 187.946 28.7516 188.215 28.3349C188.46 27.9693 188.593 27.5389 188.596 27.0978C188.603 26.97 188.603 26.8419 188.596 26.7141C188.576 26.5818 188.557 26.4495 188.53 26.3039Z" fill="#1D1D1B"/>
</g>
<defs>
<clipPath id="clip0_525_85">
<rect width="196" height="32" fill="white"/>
</clipPath>
</defs>
</svg>
