<svg width="56" height="36" viewBox="0 0 56 36" fill="none" xmlns="http://www.w3.org/2000/svg">
<g clip-path="url(#clip0_525_19)">
<path d="M52.5919 8.41341L45.4918 0.392077C45.3369 0.21806 45.1303 0.0938513 44.8999 0.0361546C44.6695 -0.0215421 44.4262 -0.00996403 44.2028 0.0693169C43.9794 0.148598 43.7866 0.291793 43.6502 0.479667C43.5138 0.667541 43.4405 0.891088 43.4399 1.12029V4.12257H30.1093C30.0593 4.12257 30.0112 4.14157 29.9756 4.17544C29.94 4.20932 29.9197 4.25535 29.9191 4.30354C29.9192 4.34753 29.9357 4.39001 29.9656 4.42324C29.9956 4.45647 30.0369 4.47821 30.0822 4.4845C35.8596 5.28903 40.5364 9.19177 41.961 14.5531H43.4399V17.5532C43.4392 17.783 43.5119 18.0074 43.6481 18.1961C43.7843 18.3848 43.9774 18.5286 44.2013 18.6081C44.4253 18.6876 44.6692 18.6989 44.9 18.6404C45.1308 18.582 45.3374 18.4567 45.4918 18.2815L52.5919 10.2623C52.8201 10.0044 52.9454 9.67664 52.9454 9.33785C52.9454 8.99907 52.8201 8.67135 52.5919 8.41341Z" fill="#00284F"/>
<path d="M14.125 21.7592C14.0989 21.6678 14.0425 21.5871 13.9645 21.5292C13.8864 21.4714 13.7909 21.4396 13.6924 21.4387H12.56V18.443C12.5603 18.2134 12.4873 17.9893 12.3509 17.801C12.2145 17.6126 12.0214 17.4692 11.7975 17.39C11.5737 17.3108 11.33 17.2997 11.0994 17.3581C10.8688 17.4166 10.6624 17.5419 10.5081 17.717L3.40799 25.7361C3.17983 25.9941 3.05453 26.3218 3.05453 26.6606C3.05453 26.9993 3.17983 27.3271 3.40799 27.585L10.5081 35.6042C10.6624 35.7793 10.8688 35.9045 11.0994 35.963C11.33 36.0215 11.5737 36.0104 11.7975 35.9312C12.0214 35.852 12.2145 35.7085 12.3509 35.5202C12.4873 35.3318 12.5603 35.1077 12.56 34.8781V31.8759H25.8883C25.939 31.8759 25.9876 31.8566 26.0237 31.8224C26.0597 31.7881 26.0802 31.7415 26.0808 31.6927C26.0807 31.6484 26.0638 31.6056 26.0334 31.5724C26.003 31.5391 25.9611 31.5175 25.9155 31.5117C20.2399 30.7137 15.6447 26.9593 14.125 21.7592Z" fill="#00284F"/>
<path d="M27.9951 7.16614C26.5185 7.16585 25.0564 7.44557 23.6921 7.98935C22.3279 8.53313 21.0882 9.33031 20.044 10.3353C18.9998 11.3404 18.1715 12.5336 17.6064 13.8469C17.0413 15.1601 16.7504 16.5677 16.7504 17.9892C16.7501 19.1619 16.9482 20.3269 17.337 21.4384C18.0874 23.5875 19.5198 25.4555 21.4321 26.7789C23.3443 28.1023 25.64 28.8142 27.9951 28.8143C30.977 28.8138 33.8365 27.673 35.9448 25.643C38.0531 23.6129 39.2375 20.8598 39.2375 17.9892C39.238 16.821 39.0414 15.6605 38.6555 14.553C37.9069 12.4015 36.475 10.5309 34.5621 9.20539C32.6492 7.87989 30.352 7.16655 27.9951 7.16614ZM27.2069 16.0901H28.6428C29.8374 16.0901 30.983 16.5466 31.8281 17.3594C32.6732 18.1721 33.1486 19.2746 33.1498 20.4245C33.1482 21.4166 32.7935 22.3782 32.1449 23.149C31.4962 23.9199 30.5927 24.4535 29.585 24.6609V25.2517C29.585 25.6565 29.4179 26.0447 29.1206 26.3309C28.8233 26.6171 28.4201 26.778 27.9996 26.778C27.5792 26.778 27.1759 26.6171 26.8786 26.3309C26.5813 26.0447 26.4143 25.6565 26.4143 25.2517V24.7655H24.4371C24.0166 24.7655 23.6134 24.6047 23.3161 24.3185C23.0188 24.0323 22.8517 23.6441 22.8517 23.2393C22.8517 22.8345 23.0188 22.4464 23.3161 22.1601C23.6134 21.8739 24.0166 21.7131 24.4371 21.7131H28.6496C29.002 21.7125 29.3398 21.5775 29.589 21.3376C29.8382 21.0977 29.9785 20.7725 29.9791 20.4333C29.9785 20.0938 29.8383 19.7684 29.5891 19.5282C29.34 19.2879 29.0022 19.1524 28.6496 19.1513H27.2137C26.0564 19.1518 24.9463 18.7101 24.1271 17.9231C23.3079 17.1362 22.8468 16.0683 22.845 14.9542C22.8423 13.9717 23.1972 13.0194 23.848 12.2627C24.4988 11.5059 25.4044 10.9925 26.4075 10.8116V10.6197C26.4075 10.215 26.5745 9.82675 26.8718 9.54053C27.1691 9.25431 27.5724 9.09352 27.9928 9.09352C28.4133 9.09352 28.8165 9.25431 29.1138 9.54053C29.4112 9.82675 29.5782 10.215 29.5782 10.6197V10.7375H31.5644C31.9849 10.7375 32.3881 10.8983 32.6854 11.1845C32.9827 11.4707 33.1498 11.8589 33.1498 12.2637C33.1498 12.6685 32.9827 13.0567 32.6854 13.3429C32.3881 13.6291 31.9849 13.7899 31.5644 13.7899H27.2137C26.898 13.7905 26.5953 13.9115 26.372 14.1264C26.1488 14.3414 26.0231 14.6327 26.0225 14.9367C26.0213 15.2407 26.1452 15.5328 26.3672 15.749C26.5892 15.9651 26.8912 16.0878 27.2069 16.0901Z" fill="#00284F"/>
</g>
<defs>
<clipPath id="clip0_525_19">
<rect width="56" height="36" fill="white"/>
</clipPath>
</defs>
</svg>
