<svg width="56" height="36" viewBox="0 0 56 36" fill="none" xmlns="http://www.w3.org/2000/svg">
<path d="M31.7443 0.792688C30.6878 0.271931 29.5232 0.000854492 28.3425 0.000854492C27.1617 0.000854492 25.9971 0.271931 24.9407 0.792688L15.4268 5.48042C14.1571 6.10517 13.0888 7.06722 12.3421 8.25849C11.5955 9.44975 11.1999 10.823 11.2 12.2241V23.7849C11.2006 25.1841 11.5957 26.5555 12.341 27.7454C13.0864 28.9353 14.1526 29.8967 15.4201 30.5218L24.9339 35.2096C25.9906 35.7293 27.1551 35.9998 28.3357 35.9998C29.5163 35.9998 30.6807 35.7293 31.7375 35.2096L31.8076 35.1761C30.8497 34.2776 30.0869 33.196 29.5658 31.9972C29.0447 30.7983 28.7762 29.5072 28.7765 28.2025C28.7801 25.6474 29.8096 23.198 31.6393 21.3915C33.4689 19.585 35.9494 18.5688 38.5366 18.5659C39.8292 18.5641 41.1091 18.8167 42.3017 19.3088C43.4943 19.8009 44.5757 20.5227 45.4827 21.4321V12.2174C45.4827 10.8163 45.0872 9.44305 44.3405 8.25178C43.5939 7.06052 42.5256 6.09848 41.2558 5.47373L38.279 4.00937L22.348 10.1681C21.8879 10.3466 21.4928 10.6577 21.2142 11.0611C20.9356 11.4644 20.7864 11.9412 20.7861 12.4294V20.8272L18.1325 18.2333L16.2564 19.0458V10.9874C16.2573 10.2807 16.4733 9.59054 16.8764 9.00659C17.2795 8.42263 17.851 7.97182 18.5167 7.71267L33.6995 1.75255" fill="#00284F"/>
<path d="M45.2824 25.4968C44.7372 24.1731 43.8051 23.0398 42.605 22.2415C41.405 21.4432 39.9913 21.016 38.5443 21.0144C36.6161 21.0162 34.7674 21.7733 33.4037 23.1195C32.0401 24.4658 31.2729 26.2913 31.2705 28.1956C31.2709 29.3215 31.5393 30.4316 32.054 31.4363C32.5688 32.441 33.3155 33.3121 34.2338 33.9793C35.4814 34.8904 36.9927 35.3811 38.5443 35.3789C40.4727 35.3766 42.3214 34.619 43.685 33.2724C45.0486 31.9257 45.8157 30.1 45.8181 28.1956C45.8182 27.2702 45.6363 26.3536 45.2824 25.4968ZM37.3011 23.8315C37.3011 23.5059 37.4321 23.1936 37.6652 22.9634C37.8984 22.7331 38.2146 22.6038 38.5443 22.6038C38.874 22.6038 39.1902 22.7331 39.4234 22.9634C39.6565 23.1936 39.7875 23.5059 39.7875 23.8315V26.9567H41.3697C41.6993 26.9573 42.0151 27.0868 42.2482 27.3169C42.4812 27.547 42.6123 27.859 42.6129 28.1844C42.6129 28.51 42.482 28.8223 42.2488 29.0525C42.0157 29.2828 41.6995 29.4121 41.3697 29.4121H38.5443C38.2146 29.4121 37.8984 29.2828 37.6652 29.0525C37.4321 28.8223 37.3011 28.51 37.3011 28.1844V23.8315Z" fill="#00284F"/>
</svg>
