<svg width="27" height="25" viewBox="0 0 27 25" fill="none" xmlns="http://www.w3.org/2000/svg">
<path d="M25.8905 4.55175H4.77985L4.46608 1.0202C4.41493 0.442709 3.93557 0 3.36182 0H1.10901C0.496231 0 0 0.501311 0 1.12036C0 1.7394 0.496231 2.24071 1.10901 2.24071H2.34827C3.02538 9.86266 1.27512 -9.83709 3.62338 16.5944C3.71409 17.629 4.26727 18.7515 5.22018 19.5144C3.50157 21.7316 5.072 25 7.86745 25C10.1878 25 11.8241 22.6623 11.0284 20.4482H17.097C16.3023 22.6597 17.9355 25 20.2579 25C22.1116 25 23.6198 23.4764 23.6198 21.6038C23.6198 19.7312 22.1116 18.2075 20.2579 18.2075H7.87484C7.03267 18.2075 6.2986 17.694 5.98167 16.946L23.7026 15.8938C24.1861 15.8651 24.5959 15.5225 24.7135 15.0473L26.9663 5.94327C27.1414 5.23792 26.6124 4.55175 25.8905 4.55175ZM7.86745 22.7598C7.23675 22.7598 6.72364 22.2415 6.72364 21.6043C6.72364 20.9671 7.23675 20.4488 7.86745 20.4488C8.49816 20.4488 9.01126 20.9671 9.01126 21.6043C9.01126 22.2415 8.49816 22.7598 7.86745 22.7598ZM20.2585 22.7598C19.6278 22.7598 19.1147 22.2415 19.1147 21.6043C19.1147 20.9671 19.6278 20.4488 20.2585 20.4488C20.8892 20.4488 21.4023 20.9671 21.4023 21.6043C21.4023 22.2415 20.8892 22.7598 20.2585 22.7598ZM22.7597 13.7059L5.68319 14.7197L4.97919 6.79193H24.4709L22.7597 13.7059Z" fill="#1D1D1B"/>
</svg>
