<svg width="20" height="14" viewBox="0 0 20 14" fill="none" xmlns="http://www.w3.org/2000/svg">
<g clip-path="url(#clip0_2283_267)">
<path d="M20 0.0130005H0V13.3465H20V0.0130005Z" fill="#F0F0F0"/>
<path d="M11.25 0.0128784H8.75V5.42951H0V7.92951H8.75V13.3461H11.25V7.92951H20V5.42951H11.25V0.0128784Z" fill="#D80027"/>
<path d="M15.3822 8.99835L20 11.5638V8.99835H15.3822Z" fill="#0052B4"/>
<path d="M12.1739 8.99835L20 13.3462V12.1167L14.387 8.99835H12.1739Z" fill="#0052B4"/>
<path d="M17.9154 13.3462L12.1739 10.1562V13.3462H17.9154Z" fill="#0052B4"/>
<path d="M12.1739 8.99835L20 13.3462V12.1167L14.387 8.99835H12.1739Z" fill="#F0F0F0"/>
<path d="M12.1739 8.99835L20 13.3462V12.1167L14.387 8.99835H12.1739Z" fill="#D80027"/>
<path d="M3.52895 8.99829L0 10.9588V8.99829H3.52895Z" fill="#0052B4"/>
<path d="M7.82609 9.55115V13.3461H0.995743L7.82609 9.55115Z" fill="#0052B4"/>
<path d="M5.61301 8.99835L0 12.1167V13.3462L7.82609 8.99835H5.61301Z" fill="#D80027"/>
<path d="M4.61777 4.3607L0 1.79523V4.3607H4.61777Z" fill="#0052B4"/>
<path d="M7.82609 4.36069L0 0.0128784V1.24233L5.61301 4.36069H7.82609Z" fill="#0052B4"/>
<path d="M2.08461 0.0128784L7.82609 3.20288V0.0128784H2.08461Z" fill="#0052B4"/>
<path d="M7.82609 4.36069L0 0.0128784V1.24233L5.61301 4.36069H7.82609Z" fill="#F0F0F0"/>
<path d="M7.82609 4.36069L0 0.0128784V1.24233L5.61301 4.36069H7.82609Z" fill="#D80027"/>
<path d="M16.4711 4.36082L20 2.40027V4.36082H16.4711Z" fill="#0052B4"/>
<path d="M12.1739 3.8079V0.0129395H19.0043L12.1739 3.8079Z" fill="#0052B4"/>
<path d="M14.387 4.36069L20 1.24233V0.0128784L12.1739 4.36069H14.387Z" fill="#D80027"/>
</g>
<defs>
<clipPath id="clip0_2283_267">
<rect width="20" height="14" fill="white"/>
</clipPath>
</defs>
</svg>
