<svg width="409" height="254" viewBox="0 0 409 254" fill="none" xmlns="http://www.w3.org/2000/svg"><path fill="#F7C00D" d="M-174 212.776L383.953-124l24.377 40.386-557.954 336.776z"/><path d="M56.64 98.711l-1.026-1.7c.454-.274.713-.523.778-.748.07-.244-.05-.635-.36-1.175l-5.124-9.18 5.289-3.192L63.38 94.62l-1.904 1.149-6.158-10.203-1.633.986 4.138 7.316c.622 1.109.864 2.022.726 2.74-.14.718-.68 1.36-1.62 1.929l-.29.174zm8.364-12.518l1.73 6.403-1.921 1.16-7.185-11.904 1.667-1.005 4.547 7.532-.901-3.029-1.436-5.838 2.058-1.242 7.184 11.903-1.683 1.016-5.06-8.383 1 3.387zm11.334.606l-4.683-3.646.078 1.437 2.207 3.656-1.87 1.13-7.185-11.904 1.87-1.129 3.13 5.186-.68-6.664 1.87-1.129.6 6.876 6.584 5.027-1.921 1.16zm-1.589-15.28c.963-.582 1.803-.78 2.519-.593.709.175 1.344.728 1.905 1.657l.256.425c.74 1.225.82 2.267.24 3.127 1.149-.199 2.127.371 2.934 1.709l.585.97c.554.917.735 1.767.542 2.549-.19.763-.748 1.426-1.678 1.987l-2.942 1.775-7.184-11.903 2.823-1.703zm3.832 6.618l-.833.503 2.206 3.656 1.072-.647c.329-.198.52-.43.577-.696.05-.277-.056-.631-.316-1.062l-.626-1.037c-.329-.544-.65-.86-.967-.948-.311-.106-.682-.029-1.113.231zm-2.857-4.887l-.901.544 1.898 3.146.732-.442c.374-.226.593-.49.658-.792.077-.309-.022-.69-.296-1.143l-.4-.664c-.493-.816-1.056-1.032-1.691-.65zm10.486.143l1.73 6.403-1.922 1.16-7.184-11.903 1.666-1.006 4.547 7.533-.9-3.03-1.436-5.837 2.057-1.242 7.185 11.903-1.684 1.016-5.06-8.383 1 3.386zm15.291.399l-1.854 1.118-.965-1.598-3.996 2.412.965 1.598-1.82 1.099-1.97-3.265.731-.442c.067-.504-.091-1.112-.475-1.824l-4.82-8.946 5.238-3.161 6.179 10.236.816-.492 1.971 3.265zm-11.425-9.205l3.857 7.16c.413.787.556 1.42.428 1.9l2.448-1.478-5.152-8.536-1.581.954zm8.466-7.43l9.089 10.753-1.887 1.14-1.627-1.965-2.295 1.386.98 2.354-1.717 1.037-5.28-13.053 2.737-1.652zm-.19 2.991l2.733 6.564 1.802-1.088-4.534-5.476zm10.151 7.237l-7.185-11.903 1.87-1.13 6.159 10.203 2.125-1.283-6.158-10.202 1.904-1.15 6.179 10.237.816-.493 1.971 3.265-1.819 1.098-.965-1.598-4.897 2.956zm7.929-12.234l1.73 6.403-1.921 1.16-7.185-11.903 1.667-1.006 4.546 7.533-.9-3.03-1.436-5.837 2.058-1.242 7.184 11.903-1.683 1.016-5.06-8.383 1 3.386zm8.63 2.239l-1.905 1.149c-.055-.4-.278-.922-.668-1.569l-1.108-1.836c-.808-1.338-.904-2.432-.288-3.283-1.049.107-1.943-.451-2.682-1.675l-.565-.936c-.561-.93-.754-1.749-.578-2.458.168-.72.734-1.37 1.698-1.952l2.822-1.704 7.185 11.903-1.871 1.129-2.925-4.846-.646.39c-.431.26-.671.567-.72.921-.055.343.081.787.409 1.331l1.129 1.87c.383.635.621 1.157.713 1.566zm-4.118-11.435l-.901.544c-.635.383-.706.983-.213 1.8l.708 1.173c.274.453.559.721.857.805.309.076.651.001 1.025-.224l.731-.442-2.207-3.656zm13.013.011l1.768-1.068.955 1.582c.581.963.791 1.85.63 2.658-.168.798-.706 1.47-1.613 2.018-.907.547-1.752.71-2.536.487-.791-.234-1.477-.833-2.059-1.797l-3.736-6.19c-.581-.963-.788-1.843-.62-2.641.161-.809.696-1.487 1.602-2.034.907-.548 1.756-.704 2.547-.47.784.222 1.467.816 2.049 1.78l.697 1.155-1.768 1.068-.77-1.276c-.472-.782-1.031-.978-1.677-.588-.646.39-.733.976-.261 1.759l3.879 6.427c.466.771 1.021.962 1.668.572.646-.39.736-.971.271-1.742l-1.026-1.7zm9.85.109l-4.683-3.646.078 1.438 2.207 3.655-1.87 1.13-7.185-11.904 1.871-1.129 3.13 5.187-.682-6.665 1.871-1.129.6 6.876 6.584 5.027-1.921 1.16zm2.256-1.338l-1.027-1.7c.454-.274.713-.524.778-.749.07-.243-.05-.634-.36-1.174l-5.124-9.18 5.289-3.192 7.184 11.903-1.904 1.15-6.159-10.203-1.632.985 4.137 7.316c.623 1.11.865 2.023.726 2.74-.138.718-.678 1.361-1.619 1.93l-.289.174zm5.136-19.363l9.089 10.753-1.887 1.14-1.627-1.965-2.295 1.385.98 2.355-1.717 1.037-5.28-13.053 2.737-1.652zm-.189 2.99l2.732 6.564 1.802-1.088-4.534-5.475zm18.375 4.453l-1.853 1.119-.965-1.599-3.996 2.412.965 1.599-1.82 1.098-1.971-3.265.732-.441c.066-.504-.092-1.113-.475-1.825l-4.82-8.945 5.237-3.162 6.179 10.237.816-.493 1.971 3.265zm-11.425-9.204l3.858 7.16c.413.787.555 1.42.427 1.9l2.449-1.479-5.153-8.536-1.581.955zm8.467-7.43l9.089 10.753-1.888 1.14-1.626-1.965-2.296 1.385.981 2.355-1.718 1.036-5.28-13.052 2.738-1.652zm-.19 2.99l2.732 6.564 1.803-1.088-4.535-5.475zm-70.722 63.01c.964-.581 1.804-.779 2.52-.592.708.175 1.343.728 1.904 1.657l.257.425c.739 1.224.819 2.267.24 3.126 1.148-.198 2.126.372 2.934 1.71l.585.969c.554.918.735 1.768.541 2.55-.188.763-.748 1.425-1.677 1.986l-2.942 1.776-7.184-11.903 2.822-1.704zm3.833 6.619l-.833.503 2.206 3.656 1.072-.647c.328-.198.521-.43.577-.696.049-.277-.056-.631-.316-1.062l-.627-1.037c-.328-.545-.65-.86-.966-.948-.311-.106-.682-.03-1.113.23zm-2.857-4.887l-.902.543 1.9 3.146.73-.441c.375-.226.594-.49.66-.792.075-.309-.023-.69-.297-1.144l-.4-.663c-.493-.816-1.056-1.033-1.691-.65zm8.647-5.22l6.158 10.203-1.871 1.129-7.184-11.903 5.9-3.562 7.185 11.903-1.905 1.15-6.158-10.203-2.125 1.283zm7.729-3.25l3.88 6.427c.472.783 1.031.979 1.678.589.646-.39.733-.976.261-1.759l-3.88-6.427c-.472-.782-1.031-.979-1.677-.589-.647.39-.734.977-.262 1.759zm1.938 7.437l-3.736-6.19c-.575-.951-.776-1.835-.603-2.651.172-.816.718-1.5 1.636-2.055.918-.554 1.779-.718 2.581-.49.802.227 1.491.817 2.065 1.769l3.736 6.19c.575.952.776 1.836.603 2.651-.172.816-.718 1.5-1.636 2.055-.918.554-1.778.718-2.581.49-.802-.227-1.49-.816-2.065-1.769zm8.102-.969l-1.026-1.7c.453-.275.713-.524.778-.749.07-.243-.051-.635-.361-1.174l-5.123-9.18 5.288-3.192 7.185 11.903-1.905 1.15-6.158-10.203-1.632.985 4.137 7.316c.623 1.109.865 2.022.726 2.74-.139.718-.679 1.361-1.62 1.93l-.289.174zm10.927-6.619l-2.755 1.663-7.184-11.903 1.87-1.13 2.7 4.473.884-.534c1.859-1.122 3.38-.703 4.564 1.259l.934 1.547c1.184 1.961.846 3.503-1.013 4.625zm-1.911-1.167l.885-.533c.306-.185.481-.407.526-.666.056-.266-.039-.603-.285-1.01l-1.078-1.786c-.246-.409-.5-.65-.762-.724-.25-.081-.528-.03-.834.156l-.884.533 2.432 4.03zM146.58 67.6l-8.842 5.338-7.184-11.904 1.87-1.128 6.158 10.202 1.616-.975-6.158-10.203 1.87-1.129 6.158 10.203 1.616-.975-6.159-10.203 1.871-1.129L146.58 67.6zm-2.934-12.148l2.002 3.316 2.568-1.55 1.026 1.7-2.568 1.55 2.104 3.486 3.231-1.95 1.026 1.7-5.101 3.08-7.184-11.904 5.101-3.079 1.026 1.7-3.231 1.95z" fill="#000"/><mask id="mask0_707_998" style="mask-type:alpha" maskUnits="userSpaceOnUse" x="-30" y="87" width="88" height="80"><path transform="rotate(-31.115 -29.57 125.6)" fill="#F7C00D" d="M-29.57 125.6h72.807v47.946H-29.57z"/></mask><g mask="url(#mask0_707_998)" fill="#000"><path d="M-21.226 105.057l12.432 1.688 24.42 85.133-12.433-1.688zm19.692-11.886l12.432 1.688 24.42 85.133-12.433-1.688zm20.307-12.257l12.432 1.688 24.42 85.133-12.432-1.688z"/></g><mask id="mask1_707_998" style="mask-type:alpha" maskUnits="userSpaceOnUse" x="177" y="-37" width="88" height="79"><path transform="rotate(-31.115 177.191 .8)" fill="#F7C00D" d="M177.191.8h72.807v47.946h-72.807z"/></mask><g mask="url(#mask1_707_998)" fill="#000"><path d="M185.536-19.742l12.432 1.687 24.42 85.133-12.432-1.687zm19.692-11.886l12.432 1.687 24.42 85.133-12.432-1.687zm20.307-12.258l12.432 1.688 24.42 85.133-12.432-1.688z"/></g></svg>