<svg width="651" height="48" viewBox="0 0 651 48" fill="none" xmlns="http://www.w3.org/2000/svg"><path fill="#F7C00D" d="M0 1h651v46.939H0z"/><path d="M255.63 22.465V20.48c.529 0 .88-.08 1.052-.239.185-.172.284-.569.297-1.191l.358-10.505h6.17v13.9h-2.222V10.532h-1.905l-.238 8.4c-.04 1.27-.304 2.177-.794 2.72-.489.543-1.283.814-2.38.814h-.338zm13.614-6.394l-1.825 6.375h-2.242V8.545h1.945v8.797l.793-3.058 1.786-5.74h2.4v13.902h-1.964v-9.79l-.893 3.415zm9.38 6.375l-2.123-5.54-.674 1.27v4.27h-2.183V8.545h2.183v6.057l2.857-6.057h2.182l-3.036 6.196 3.036 7.705h-2.242zm6.529-13.901c1.124 0 1.944.265 2.46.794.516.516.774 1.317.774 2.403v.496c0 1.43-.47 2.364-1.409 2.8 1.084.424 1.627 1.417 1.627 2.98v1.131c0 1.072-.285 1.893-.853 2.462-.556.557-1.376.835-2.461.835h-3.432V8.545h3.294zm-.139 7.645h-.972v4.27h1.249c.384 0 .668-.1.854-.298.185-.212.277-.57.277-1.072v-1.212c0-.635-.112-1.072-.337-1.31-.212-.252-.569-.378-1.071-.378zm.079-5.66h-1.051v3.674h.853c.436 0 .76-.112.972-.337.225-.225.337-.603.337-1.132v-.775c0-.953-.37-1.43-1.111-1.43zm8.893 5.541l-1.825 6.375h-2.242V8.545h1.944v8.797l.794-3.058 1.786-5.74h2.4v13.902h-1.964v-9.79l-.893 3.415zm12.872 8.241h-2.163v-1.866h-4.662v1.866h-2.123V20.5h.853c.317-.397.496-1 .536-1.807l.496-10.147h6.11V20.5h.953v3.812zm-5.02-13.781l-.397 8.122c-.053.887-.258 1.502-.615 1.847h2.857v-9.97h-1.845zm11.076-1.986l2.223 13.9h-2.203l-.377-2.521h-2.678l-.377 2.522h-2.004l2.222-13.901h3.194zm-1.706 2.462l-1.051 7.03h2.103l-1.052-7.03zm4.945 11.439V8.545h2.182V20.46h2.48V8.545h2.222V20.5h.953v3.812h-2.123v-1.866h-5.714zm13.096-6.375l-1.825 6.375h-2.242V8.545h1.944v8.797l.794-3.058 1.785-5.74h2.401v13.902h-1.964v-9.79l-.893 3.415zm6.225 6.375h-2.222c.158-.371.238-.934.238-1.688v-2.145c0-1.562.483-2.549 1.448-2.959-.952-.45-1.428-1.39-1.428-2.82v-1.092c0-1.086.258-1.887.773-2.403.516-.53 1.336-.794 2.461-.794h3.293v13.9h-2.182v-5.659h-.754c-.503 0-.867.139-1.092.417-.224.265-.337.715-.337 1.35v2.185c0 .741-.066 1.31-.198 1.708zm2.381-11.915h-1.052c-.741 0-1.111.476-1.111 1.43v1.37c0 .53.106.907.317 1.132.225.225.556.337.992.337h.854v-4.27zm11.122 6.732h2.064v1.846c0 1.126-.278 1.993-.834 2.602-.555.596-1.362.894-2.42.894-1.058 0-1.865-.298-2.421-.894-.555-.61-.833-1.476-.833-2.602v-7.228c0-1.125.278-1.986.833-2.582.556-.609 1.363-.913 2.421-.913 1.058 0 1.865.304 2.42.913.556.596.834 1.457.834 2.582v1.35h-2.064v-1.489c0-.914-.377-1.37-1.131-1.37s-1.131.457-1.131 1.37v7.506c0 .9.377 1.35 1.131 1.35s1.131-.45 1.131-1.35v-1.985zm8.368 5.183l-2.123-5.54-.675 1.27v4.27h-2.182V8.545h2.182v6.057l2.857-6.057h2.183l-3.036 6.196 3.036 7.705h-2.242zm2.62.019V20.48c.529 0 .879-.08 1.051-.239.185-.172.285-.569.298-1.191l.357-10.505h6.17v13.9h-2.222V10.532h-1.905l-.238 8.4c-.039 1.27-.304 2.177-.793 2.72-.49.543-1.283.814-2.381.814h-.337zm14.388-13.92l2.222 13.9h-2.203l-.377-2.521h-2.678l-.377 2.522h-2.004l2.222-13.901h3.195zm-1.707 2.462l-1.051 7.03h2.103l-1.052-7.03zm13.417 13.305H383.9v-1.866h-4.662v1.866h-2.123V20.5h.853c.317-.397.496-1 .536-1.807L379 8.545h6.11V20.5h.953v3.812zm-5.02-13.781l-.397 8.122c-.053.887-.258 1.502-.615 1.847h2.857v-9.97h-1.845zm11.076-1.986l2.223 13.9h-2.203l-.377-2.521h-2.678l-.377 2.522h-2.004l2.222-13.901h3.194zm-1.706 2.462l-1.051 7.03h2.103l-1.052-7.03zm-93.006 17.396c1.125 0 1.945.265 2.46.794.516.517.774 1.318.774 2.403v.497c0 1.43-.469 2.363-1.408 2.8 1.084.423 1.626 1.416 1.626 2.979v1.131c0 1.073-.284 1.894-.853 2.463-.555.556-1.375.834-2.46.834h-3.432v-13.9h3.293zm-.139 7.645h-.972v4.27h1.25c.384 0 .668-.1.853-.298.185-.212.278-.57.278-1.072v-1.212c0-.635-.112-1.072-.337-1.31-.212-.252-.569-.378-1.072-.378zm.08-5.66h-1.052v3.675h.853c.437 0 .761-.113.973-.338.224-.225.337-.602.337-1.132v-.774c0-.953-.371-1.43-1.111-1.43zm10.089.001v11.915h-2.183v-13.9h6.885v13.9h-2.222V30.389h-2.48zm8.288 1.211v7.507c0 .913.377 1.37 1.131 1.37s1.131-.457 1.131-1.37V31.6c0-.913-.377-1.37-1.131-1.37s-1.131.457-1.131 1.37zm-2.182 7.368v-7.229c0-1.112.284-1.972.853-2.581.569-.61 1.389-.914 2.46-.914s1.891.305 2.46.914.853 1.47.853 2.581v7.229c0 1.112-.284 1.972-.853 2.581-.569.61-1.389.914-2.46.914s-1.891-.305-2.46-.914-.853-1.47-.853-2.581zm7.43 3.356v-1.986c.529 0 .879-.08 1.051-.238.185-.172.284-.57.298-1.192l.357-10.505h6.17v13.9h-2.222V30.39h-1.905l-.238 8.4c-.039 1.27-.304 2.178-.793 2.72-.49.543-1.283.815-2.381.815h-.337zm12.761-.02h-3.215v-13.9h2.183v5.222h1.032c2.169 0 3.253 1.145 3.253 3.435v1.807c0 2.29-1.084 3.436-3.253 3.436zm-1.032-1.986h1.032c.357 0 .621-.1.793-.298.185-.198.278-.536.278-1.013v-2.085c0-.476-.093-.814-.278-1.012-.172-.2-.436-.298-.793-.298h-1.032v4.706zm15.904 1.986h-10.317v-13.9h2.182v11.914h1.885V28.403h2.182v11.915h1.885V28.403h2.183v13.9zm3.761-11.915v3.872h2.996v1.986h-2.996v4.071h3.77v1.986h-5.952v-13.9h5.952v1.985h-3.77z" fill="#000"/><mask id="mask0_801_15" style="mask-type:alpha" maskUnits="userSpaceOnUse" x="168" y="0" width="73" height="48"><path fill="#F7C00D" d="M168.023.939h72.728v47h-72.728z"/></mask><g mask="url(#mask0_801_15)" fill="#000"><path d="M185.763-12.074l9.76 7.714-23.06 83.816-9.761-7.714zm22.976 0l9.76 7.714-23.06 83.816-9.761-7.714zm23.694 0l9.76 7.714-23.06 83.816-9.761-7.714z"/></g><mask id="mask1_801_15" style="mask-type:alpha" maskUnits="userSpaceOnUse" x="409" y="0" width="73" height="48"><path fill="#F7C00D" d="M409.266.939h72.728v47h-72.728z"/></mask><g mask="url(#mask1_801_15)" fill="#000"><path d="M427.006-12.074l9.76 7.714-23.06 83.817-9.761-7.714zm22.975 0l9.76 7.714-23.06 83.816-9.761-7.714zm23.695 0l9.76 7.714-23.06 83.817-9.761-7.714z"/></g></svg>