<svg width="112" height="56" viewBox="0 0 224 112" xmlns="http://www.w3.org/2000/svg"><g fill="none" fill-rule="evenodd"><g fill="#FFF"><path d="M57.805 26.743l.127.135 23.436 26.9c1.402 1.61.32 4.094-1.769 4.217l-.163.005H76v13.335C76 75.016 72.981 78 69.255 78h-26.51C39.019 78 36 75.016 36 71.335V58h-3.436c-2.14 0-3.31-2.444-2.035-4.096l.103-.126 23.436-26.9a2.564 2.564 0 013.737-.135zm142.796 7.817c.386 0 .706.31.706.692v41.502c0 .376-.32.688-.706.688h-9.094a.7.7 0 01-.706-.688V35.252a.7.7 0 01.706-.692h9.094zm-39.46 0c6.86 0 14.032.314 17.568 3.854 3.48 3.484 3.855 10.42 3.87 17.154v21.186a.7.7 0 01-.706.688h-9.09a.701.701 0 01-.708-.688v-21.55c-.01-3.762-.226-7.628-2.166-9.574-1.67-1.674-4.786-2.058-8.026-2.138h-16.48a.7.7 0 00-.704.688v32.574c0 .376-.32.688-.708.688h-9.098a.697.697 0 01-.702-.688V35.252c0-.382.314-.692.702-.692h26.248zm2.036 16.528c.386 0 .7.31.7.688v24.978a.697.697 0 01-.7.688h-9.552a.7.7 0 01-.708-.688V51.776c0-.378.316-.688.708-.688h9.552zM59.3 54h-6.605c-1.435 0-2.605 1.194-2.69 2.698l-.005.175v6.254c0 1.526 1.117 2.777 2.53 2.868l.165.005H59.3c1.435 0 2.61-1.194 2.695-2.698l.005-.175v-6.254C62 55.288 60.79 54 59.3 54z" id="形状结合"/></g></g></svg>