<svg width="143" height="30" viewBox="0 0 143 30" fill="none" xmlns="http://www.w3.org/2000/svg"><g clip-path="url(#clip0_1_37)"><path d="M89.734 5.145h.606L89.835.05l-.05-.05h-.151v.05l-.555 5.095h.655zm2.876.353v-.05l.857-4.54v-.05l-.151-.05-.05.05-1.867 4.337 1.21.303zm-.908 1.967a.721.721 0 00.706-.706.69.69 0 00-.706-.706.69.69 0 00-.707.706.69.69 0 00.707.706zm-1.968-.252a.721.721 0 00.707-.706.69.69 0 00-.707-.706.69.69 0 00-.706.706c-.05.454.303.706.706.706zM86.86 5.498l1.16-.303h.05L86.154.857l-.05-.05-.101.05-.05.05.857 4.54.05.051zm.152 1.21a.69.69 0 00.706.707.721.721 0 00.706-.706.69.69 0 00-.706-.707c-.353.05-.706.354-.706.707zM6.103 8.727H0s.151 1.463.151 3.985v12.762c0 2.522-.151 3.985-.151 3.985l.05.05h3.985v-.05s-.151-1.463-.151-3.985V21.74l.05-.05c.555.05 1.766.1 2.17.1 4.085 0 7.616-2.471 7.616-6.708-.05-4.035-3.581-6.356-7.617-6.356zm-.201 9.685c-.454 0-1.564-.05-2.018-.151v-6.154h2.32c2.068 0 3.682.807 3.682 2.976S8.474 18.41 5.902 18.41zm19.117-8.02c-.454-1.06-.606-1.665-.606-1.665l-.05-.05h-3.178l-.05.05s-.101.606-.555 1.665l-7.011 16.847c-.606 1.412-1.211 2.22-1.211 2.22v.05h4.086l.05-.05c0-.101.101-.606.605-1.867l1.261-3.178h9.03l1.361 3.178a265.3 265.3 0 00.706 1.866l.05.05h4.087v-.05s-.555-.756-1.21-2.219l-7.365-16.847zm-5.246 10.592l2.925-7.314h.05l3.179 7.314h-6.154zm34.3-12.257l-3.632-.05-.05.05s.15 1.463.15 3.985v10.441h-.05L39.294 8.726h-3.985c.454.959.706 1.614.706 2.068v14.679c0 2.522-.151 3.985-.151 3.985l.05.05h3.632l.05-.05s-.151-1.463-.151-3.985V14.83h.05l11.249 14.627h3.38l.05-.05s-.152-1.463-.152-3.985v-12.71c-.1-2.523.05-3.986.05-3.986zm11.298 0h-6.96l-.05.05s.15 1.463.15 3.986v12.761c0 2.522-.15 3.985-.15 3.985l.05.05h2.118c1.412 0 2.976.202 4.741.202 6.356 0 10.896-4.49 10.896-10.542 0-6.154-4.389-10.492-10.795-10.492zM65.12 26.23c-1.009 0-1.916-.05-2.471-.201-.303-.101-.404-.202-.404-.757V12.106h2.774c4.49 0 7.365 3.026 7.365 7.062 0 3.984-2.875 7.061-7.264 7.061zM89.734 8.424c-6.002 0-10.643 4.64-10.643 10.643 0 6.053 4.64 10.643 10.643 10.643 6.053 0 10.643-4.59 10.643-10.643 0-6.003-4.59-10.643-10.643-10.643zm0 17.906c-3.833 0-6.86-3.127-6.86-7.213s2.976-7.213 6.86-7.213c3.884 0 6.86 3.127 6.86 7.213 0 4.035-2.976 7.213-6.86 7.213zm25.423-3.884c-.505-.807-1.261-1.463-2.068-1.715v-.05c2.168-.454 4.186-2.976 4.186-5.498 0-3.43-2.623-6.457-6.709-6.457h-6.658l-.05.05s.151 1.463.151 3.986v12.761c0 2.522-.151 3.985-.151 3.985l.05.05h3.985l.051-.05s-.152-1.463-.152-3.985v-3.985c1.967 0 2.774.404 3.481 1.514l1.715 2.673c1.412 2.27 1.967 3.682 1.967 3.682l.05.05h4.742v-.05s-1.211-1.463-2.573-3.682l-2.017-3.279zm-5.498-4.237c-.454 0-1.312 0-1.867-.1v-6.003h2.27c2.219 0 3.43 1.463 3.43 3.127 0 1.564-1.211 2.976-3.833 2.976zm32.13 9.03l-7.364-16.848c-.454-1.06-.605-1.665-.605-1.665l-.051-.05h-3.228l-.05.05s-.101.606-.555 1.665l-6.961 16.847c-.605 1.412-1.211 2.22-1.211 2.22v.05h4.086l.051-.05c0-.101.1-.606.605-1.867l1.261-3.178h9.029l1.362 3.178c.454 1.21.706 1.866.706 1.866l.05.05H143v-.05s-.555-.756-1.211-2.219zm-12.61-6.256l2.926-7.314h.05l3.178 7.314h-6.154z" fill="#27251F"/></g><defs><clipPath id="clip0_1_37"><path fill="#fff" d="M0 0h143v29.76H0z"/></clipPath></defs></svg>