<svg width="348" height="348" viewBox="0 0 348 348" fill="none" xmlns="http://www.w3.org/2000/svg">
<path opacity="0.8" d="M174.117 71.9324V3.99976C136.581 3.99976 104.621 14.3947 74.2585 36.4604L114.158 91.4292C130.988 79.1629 151.694 71.9154 174.1 71.9154L174.117 71.9324Z" fill="url(#paint0_radial_31_261)" stroke="#131517" style="stroke:#131517;stroke:color(display-p3 0.0745 0.0824 0.0902);stroke-opacity:1;" stroke-width="6.80007" stroke-linejoin="round"/>
<path opacity="0.8" d="M72.1164 174.01C72.1164 151.587 79.3585 130.865 91.6156 114.022L36.688 74.0759C3.60573 119.654 -4.82635 176.085 13.4998 229.353L77.6754 207.236C74.0884 196.807 72.1164 185.647 72.1164 174.01Z" fill="url(#paint1_radial_31_261)" stroke="#131517" style="stroke:#131517;stroke:color(display-p3 0.0745 0.0824 0.0902);stroke-opacity:1;" stroke-width="6.80007" stroke-linejoin="round"/>
<path opacity="0.8" d="M174.117 3.99976V71.9324C230.456 71.9324 276.118 117.629 276.118 174.01C276.118 230.391 230.456 276.087 174.117 276.087C129.407 276.087 91.4625 247.302 77.6754 207.236L13.4998 229.353C37.929 300.382 99.0616 344.003 174.117 344.003C267.941 344.003 344 267.887 344 173.993C344 80.0986 267.941 3.99976 174.117 3.99976Z" fill="url(#paint2_radial_31_261)" stroke="#131517" style="stroke:#131517;stroke:color(display-p3 0.0745 0.0824 0.0902);stroke-opacity:1;" stroke-width="6.80007" stroke-linejoin="round"/>
<path opacity="0.8" d="M114.175 91.4292L74.2754 36.4604C59.0942 47.5018 47.7211 58.8835 36.688 74.076L91.6156 114.005C97.9056 105.346 105.522 97.724 114.175 91.4292Z" fill="url(#paint3_radial_31_261)" stroke="#131517" style="stroke:#131517;stroke:color(display-p3 0.0745 0.0824 0.0902);stroke-opacity:1;" stroke-width="6.80007" stroke-linejoin="round"/>
<circle cx="174" cy="174" r="86" fill="url(#paint4_linear_31_261)" style=""/>
<circle opacity="0.1" cx="174" cy="174" r="96.5" stroke="#B6C0CA" style="stroke:#B6C0CA;stroke:color(display-p3 0.7125 0.7540 0.7914);stroke-opacity:1;"/>
<circle opacity="0.1" cx="174" cy="174" r="105.5" stroke="#B6C0CA" style="stroke:#B6C0CA;stroke:color(display-p3 0.7125 0.7540 0.7914);stroke-opacity:1;"/>
<g style="mix-blend-mode:color-dodge">
<circle cx="174" cy="174" r="74" fill="url(#paint5_linear_31_261)" style=""/>
</g>
<g filter="url(#filter0_d_31_261)">
<path d="M163.244 134.232C162.891 130.435 164.512 126.996 167.202 124.811C168.25 123.958 169.818 124.688 169.818 126.036C169.818 126.53 169.583 126.986 169.201 127.295C167.295 128.848 166.149 131.297 166.428 134.002C166.79 137.524 169.612 140.375 173.13 140.767C177.72 141.282 181.62 137.686 181.62 133.198C181.62 130.817 180.518 128.686 178.798 127.29C178.416 126.981 178.186 126.526 178.186 126.036C178.186 124.703 179.729 123.949 180.768 124.782C183.227 126.766 184.804 129.798 184.804 133.198C184.804 139.415 179.523 144.427 173.208 143.971C167.986 143.604 163.729 139.444 163.244 134.232ZM173.997 120C173.115 120 172.405 120.715 172.405 121.592V128.926C172.405 129.808 173.12 130.518 173.997 130.518C174.874 130.518 175.589 129.803 175.589 128.926V121.592C175.589 120.715 174.879 120 173.997 120Z" fill="#F4C236" style="fill:#F4C236;fill:color(display-p3 0.9569 0.7608 0.2118);fill-opacity:1;"/>
</g>
<path d="M129.008 155.891V154.359H138.055V155.891H134.422V166H132.648V155.891H129.008ZM142.188 166.18C141.37 166.18 140.656 165.995 140.047 165.625C139.443 165.25 138.971 164.727 138.633 164.055C138.294 163.378 138.125 162.594 138.125 161.703C138.125 160.802 138.294 160.016 138.633 159.344C138.971 158.667 139.443 158.141 140.047 157.766C140.656 157.391 141.37 157.203 142.188 157.203C143.005 157.203 143.719 157.391 144.328 157.766C144.943 158.141 145.417 158.667 145.75 159.344C146.089 160.016 146.258 160.802 146.258 161.703C146.258 162.594 146.089 163.378 145.75 164.055C145.417 164.727 144.943 165.25 144.328 165.625C143.719 165.995 143.005 166.18 142.188 166.18ZM142.188 164.734C142.714 164.734 143.148 164.599 143.492 164.328C143.841 164.052 144.099 163.685 144.266 163.227C144.438 162.763 144.523 162.255 144.523 161.703C144.523 161.141 144.438 160.63 144.266 160.172C144.099 159.708 143.841 159.339 143.492 159.062C143.148 158.786 142.714 158.648 142.188 158.648C141.667 158.648 141.234 158.786 140.891 159.062C140.547 159.339 140.289 159.708 140.117 160.172C139.951 160.63 139.867 161.141 139.867 161.703C139.867 162.26 139.951 162.768 140.117 163.227C140.289 163.685 140.547 164.052 140.891 164.328C141.234 164.599 141.667 164.734 142.188 164.734ZM151.891 157.32V158.711H147.148V157.32H151.891ZM148.438 155.219H150.148V163.656C150.148 164.005 150.221 164.26 150.367 164.422C150.513 164.578 150.755 164.656 151.094 164.656C151.188 164.656 151.307 164.648 151.453 164.633C151.599 164.612 151.724 164.591 151.828 164.57L152.102 165.945C151.924 166.003 151.732 166.042 151.523 166.062C151.315 166.089 151.112 166.102 150.914 166.102C150.122 166.102 149.51 165.904 149.078 165.508C148.651 165.107 148.438 164.539 148.438 163.805V155.219ZM156.094 166.188C155.536 166.188 155.036 166.086 154.594 165.883C154.151 165.68 153.799 165.383 153.539 164.992C153.279 164.596 153.148 164.112 153.148 163.539C153.148 163.049 153.242 162.648 153.43 162.336C153.622 162.018 153.878 161.766 154.195 161.578C154.518 161.391 154.878 161.253 155.273 161.164C155.674 161.07 156.083 160.997 156.5 160.945C157.016 160.883 157.432 160.833 157.75 160.797C158.073 160.755 158.31 160.69 158.461 160.602C158.612 160.513 158.688 160.365 158.688 160.156V160.109C158.688 159.792 158.622 159.521 158.492 159.297C158.367 159.073 158.18 158.901 157.93 158.781C157.685 158.661 157.378 158.602 157.008 158.602C156.638 158.602 156.315 158.661 156.039 158.781C155.768 158.896 155.547 159.044 155.375 159.227C155.208 159.409 155.086 159.602 155.008 159.805L153.391 159.438C153.573 158.911 153.844 158.487 154.203 158.164C154.562 157.836 154.984 157.594 155.469 157.438C155.953 157.281 156.461 157.203 156.992 157.203C157.362 157.203 157.745 157.247 158.141 157.336C158.536 157.424 158.904 157.581 159.242 157.805C159.586 158.023 159.865 158.328 160.078 158.719C160.292 159.109 160.398 159.609 160.398 160.219V166H158.734V164.805H158.656C158.542 165.034 158.372 165.255 158.148 165.469C157.93 165.677 157.651 165.849 157.312 165.984C156.974 166.12 156.568 166.188 156.094 166.188ZM156.469 164.812C156.938 164.812 157.336 164.721 157.664 164.539C157.997 164.357 158.25 164.117 158.422 163.82C158.599 163.518 158.688 163.198 158.688 162.859V161.758C158.63 161.815 158.516 161.87 158.344 161.922C158.177 161.969 157.984 162.013 157.766 162.055C157.547 162.091 157.331 162.125 157.117 162.156C156.909 162.182 156.734 162.203 156.594 162.219C156.271 162.26 155.977 162.331 155.711 162.43C155.445 162.529 155.232 162.669 155.07 162.852C154.914 163.029 154.836 163.268 154.836 163.57C154.836 163.841 154.906 164.07 155.047 164.258C155.188 164.44 155.38 164.578 155.625 164.672C155.87 164.766 156.151 164.812 156.469 164.812ZM164.367 154.359V166H162.656V154.359H164.367ZM173.969 166.18C173.333 166.18 172.768 166.089 172.273 165.906C171.784 165.719 171.38 165.445 171.062 165.086C170.75 164.721 170.547 164.279 170.453 163.758L172.07 163.461C172.185 163.914 172.404 164.25 172.727 164.469C173.049 164.688 173.466 164.797 173.977 164.797C174.529 164.797 174.966 164.682 175.289 164.453C175.617 164.224 175.781 163.948 175.781 163.625C175.781 163.344 175.677 163.115 175.469 162.938C175.266 162.755 174.961 162.617 174.555 162.523L173.094 162.195C172.286 162.013 171.685 161.724 171.289 161.328C170.893 160.927 170.695 160.414 170.695 159.789C170.695 159.273 170.839 158.823 171.125 158.438C171.411 158.047 171.807 157.745 172.312 157.531C172.818 157.312 173.398 157.203 174.055 157.203C174.68 157.203 175.219 157.297 175.672 157.484C176.125 157.672 176.49 157.932 176.766 158.266C177.047 158.599 177.242 158.99 177.352 159.438L175.805 159.742C175.706 159.424 175.518 159.148 175.242 158.914C174.971 158.674 174.581 158.555 174.07 158.555C173.596 158.555 173.201 158.661 172.883 158.875C172.57 159.089 172.414 159.362 172.414 159.695C172.414 159.982 172.521 160.216 172.734 160.398C172.948 160.576 173.286 160.716 173.75 160.82L175.156 161.133C175.964 161.315 176.562 161.602 176.953 161.992C177.344 162.378 177.539 162.875 177.539 163.484C177.539 164.016 177.388 164.484 177.086 164.891C176.784 165.292 176.365 165.607 175.828 165.836C175.292 166.065 174.672 166.18 173.969 166.18ZM182.352 166.117C181.763 166.117 181.242 165.992 180.789 165.742C180.341 165.492 179.992 165.122 179.742 164.633C179.497 164.143 179.375 163.539 179.375 162.82V157.32H181.086V162.609C181.086 163.245 181.25 163.74 181.578 164.094C181.906 164.448 182.354 164.625 182.922 164.625C183.312 164.625 183.659 164.542 183.961 164.375C184.268 164.203 184.508 163.956 184.68 163.633C184.857 163.305 184.945 162.909 184.945 162.445V157.32H186.664V166H185.023L185.016 163.875H185.211C184.951 164.656 184.576 165.227 184.086 165.586C183.602 165.94 183.023 166.117 182.352 166.117ZM188.938 169.266V157.32H190.602V158.719H190.734C190.844 158.521 190.995 158.305 191.188 158.07C191.38 157.836 191.641 157.633 191.969 157.461C192.302 157.289 192.729 157.203 193.25 157.203C193.953 157.203 194.578 157.38 195.125 157.734C195.672 158.089 196.102 158.602 196.414 159.273C196.732 159.94 196.891 160.742 196.891 161.68C196.891 162.607 196.734 163.406 196.422 164.078C196.115 164.75 195.688 165.268 195.141 165.633C194.594 165.992 193.964 166.172 193.25 166.172C192.745 166.172 192.326 166.086 191.992 165.914C191.659 165.742 191.393 165.539 191.195 165.305C191.003 165.065 190.849 164.846 190.734 164.648H190.648V169.266H188.938ZM192.875 164.711C193.37 164.711 193.786 164.578 194.125 164.312C194.464 164.047 194.719 163.685 194.891 163.227C195.062 162.768 195.148 162.247 195.148 161.664C195.148 161.086 195.062 160.573 194.891 160.125C194.719 159.672 194.464 159.315 194.125 159.055C193.792 158.794 193.375 158.664 192.875 158.664C192.385 158.664 191.971 158.789 191.633 159.039C191.299 159.289 191.044 159.638 190.867 160.086C190.695 160.534 190.609 161.06 190.609 161.664C190.609 162.268 190.698 162.799 190.875 163.258C191.052 163.716 191.31 164.073 191.648 164.328C191.987 164.583 192.396 164.711 192.875 164.711ZM198.766 169.266V157.32H200.43V158.719H200.562C200.672 158.521 200.823 158.305 201.016 158.07C201.208 157.836 201.469 157.633 201.797 157.461C202.13 157.289 202.557 157.203 203.078 157.203C203.781 157.203 204.406 157.38 204.953 157.734C205.5 158.089 205.93 158.602 206.242 159.273C206.56 159.94 206.719 160.742 206.719 161.68C206.719 162.607 206.562 163.406 206.25 164.078C205.943 164.75 205.516 165.268 204.969 165.633C204.422 165.992 203.792 166.172 203.078 166.172C202.573 166.172 202.154 166.086 201.82 165.914C201.487 165.742 201.221 165.539 201.023 165.305C200.831 165.065 200.677 164.846 200.562 164.648H200.477V169.266H198.766ZM202.703 164.711C203.198 164.711 203.615 164.578 203.953 164.312C204.292 164.047 204.547 163.685 204.719 163.227C204.891 162.768 204.977 162.247 204.977 161.664C204.977 161.086 204.891 160.573 204.719 160.125C204.547 159.672 204.292 159.315 203.953 159.055C203.62 158.794 203.203 158.664 202.703 158.664C202.214 158.664 201.799 158.789 201.461 159.039C201.128 159.289 200.872 159.638 200.695 160.086C200.523 160.534 200.438 161.06 200.438 161.664C200.438 162.268 200.526 162.799 200.703 163.258C200.88 163.716 201.138 164.073 201.477 164.328C201.815 164.583 202.224 164.711 202.703 164.711ZM210.305 154.359V166H208.594V154.359H210.305ZM212.578 169.156L212.953 167.758L213.227 167.797C213.508 167.865 213.76 167.88 213.984 167.844C214.214 167.807 214.409 167.698 214.57 167.516C214.737 167.333 214.872 167.065 214.977 166.711L215.188 166.031L211.883 157.32H213.727L215.445 162.234C215.633 162.771 215.792 163.307 215.922 163.844C216.052 164.375 216.19 164.904 216.336 165.43H215.82C215.966 164.904 216.107 164.372 216.242 163.836C216.383 163.299 216.547 162.766 216.734 162.234L218.484 157.32H220.312L216.523 167.242C216.352 167.701 216.138 168.083 215.883 168.391C215.628 168.698 215.326 168.93 214.977 169.086C214.628 169.242 214.221 169.32 213.758 169.32C213.503 169.32 213.271 169.302 213.062 169.266C212.854 169.234 212.693 169.198 212.578 169.156Z" fill="#F4C236" style="fill:#F4C236;fill:color(display-p3 0.9569 0.7608 0.2118);fill-opacity:1;"/>
<path d="M131.383 181.359V193H129.938V182.742H129.867L127.047 184.812V183.234L129.617 181.359H131.383ZM135.016 193.102C134.729 193.102 134.482 193 134.273 192.797C134.07 192.594 133.969 192.349 133.969 192.062C133.969 191.771 134.07 191.523 134.273 191.32C134.482 191.117 134.729 191.016 135.016 191.016C135.307 191.016 135.555 191.117 135.758 191.32C135.961 191.523 136.062 191.771 136.062 192.062C136.062 192.349 135.961 192.594 135.758 192.797C135.555 193 135.307 193.102 135.016 193.102ZM140.898 181.359V193H139.453V182.742H139.383L136.562 184.812V183.234L139.133 181.359H140.898ZM143.43 193V191.914L147.328 187.766C147.771 187.302 148.135 186.893 148.422 186.539C148.714 186.185 148.932 185.849 149.078 185.531C149.224 185.208 149.297 184.865 149.297 184.5C149.297 184.083 149.201 183.724 149.008 183.422C148.815 183.12 148.552 182.888 148.219 182.727C147.885 182.565 147.508 182.484 147.086 182.484C146.633 182.484 146.24 182.578 145.906 182.766C145.578 182.948 145.323 183.206 145.141 183.539C144.964 183.872 144.875 184.266 144.875 184.719H143.469C143.469 184.021 143.625 183.409 143.938 182.883C144.255 182.352 144.69 181.94 145.242 181.648C145.794 181.352 146.419 181.203 147.117 181.203C147.815 181.203 148.432 181.349 148.969 181.641C149.505 181.927 149.924 182.318 150.227 182.812C150.534 183.307 150.688 183.862 150.688 184.477C150.688 184.909 150.609 185.328 150.453 185.734C150.302 186.135 150.036 186.586 149.656 187.086C149.276 187.581 148.75 188.182 148.078 188.891L145.461 191.617V191.703H150.875V193H143.43ZM157.008 181.359V193H155.562V182.742H155.492L152.672 184.812V183.234L155.242 181.359H157.008ZM160.641 193.102C160.354 193.102 160.107 193 159.898 192.797C159.695 192.594 159.594 192.349 159.594 192.062C159.594 191.771 159.695 191.523 159.898 191.32C160.107 191.117 160.354 191.016 160.641 191.016C160.932 191.016 161.18 191.117 161.383 191.32C161.586 191.523 161.688 191.771 161.688 192.062C161.688 192.349 161.586 192.594 161.383 192.797C161.18 193 160.932 193.102 160.641 193.102ZM163.758 190.586V189.375L168.906 181.359H169.805V183.188H169.211L165.352 189.203V189.281H172.305V190.586H163.758ZM169.289 193V190.227L169.297 189.656V181.359H170.703V193H169.289ZM174.32 193V191.914L178.219 187.766C178.661 187.302 179.026 186.893 179.312 186.539C179.604 186.185 179.823 185.849 179.969 185.531C180.115 185.208 180.188 184.865 180.188 184.5C180.188 184.083 180.091 183.724 179.898 183.422C179.706 183.12 179.443 182.888 179.109 182.727C178.776 182.565 178.398 182.484 177.977 182.484C177.523 182.484 177.13 182.578 176.797 182.766C176.469 182.948 176.214 183.206 176.031 183.539C175.854 183.872 175.766 184.266 175.766 184.719H174.359C174.359 184.021 174.516 183.409 174.828 182.883C175.146 182.352 175.581 181.94 176.133 181.648C176.685 181.352 177.31 181.203 178.008 181.203C178.706 181.203 179.323 181.349 179.859 181.641C180.396 181.927 180.815 182.318 181.117 182.812C181.424 183.307 181.578 183.862 181.578 184.477C181.578 184.909 181.5 185.328 181.344 185.734C181.193 186.135 180.927 186.586 180.547 187.086C180.167 187.581 179.641 188.182 178.969 188.891L176.352 191.617V191.703H181.766V193H174.32ZM187.766 193.156C186.979 193.156 186.286 193.018 185.688 192.742C185.089 192.461 184.62 192.076 184.281 191.586C183.943 191.096 183.773 190.536 183.773 189.906C183.773 189.411 183.872 188.956 184.07 188.539C184.273 188.117 184.549 187.766 184.898 187.484C185.247 187.203 185.641 187.023 186.078 186.945V186.891C185.505 186.75 185.047 186.44 184.703 185.961C184.365 185.477 184.195 184.922 184.195 184.297C184.195 183.703 184.349 183.174 184.656 182.711C184.964 182.242 185.385 181.875 185.922 181.609C186.458 181.339 187.073 181.203 187.766 181.203C188.448 181.203 189.055 181.339 189.586 181.609C190.122 181.875 190.544 182.242 190.852 182.711C191.164 183.174 191.32 183.703 191.32 184.297C191.32 184.917 191.148 185.469 190.805 185.953C190.466 186.438 190.018 186.75 189.461 186.891V186.945C189.888 187.023 190.273 187.203 190.617 187.484C190.966 187.766 191.242 188.117 191.445 188.539C191.654 188.956 191.758 189.411 191.758 189.906C191.758 190.536 191.586 191.096 191.242 191.586C190.904 192.076 190.435 192.461 189.836 192.742C189.237 193.018 188.547 193.156 187.766 193.156ZM187.766 191.875C188.281 191.875 188.727 191.792 189.102 191.625C189.477 191.453 189.768 191.214 189.977 190.906C190.185 190.599 190.289 190.24 190.289 189.828C190.289 189.396 190.18 189.016 189.961 188.688C189.742 188.354 189.44 188.094 189.055 187.906C188.674 187.714 188.245 187.617 187.766 187.617C187.276 187.617 186.839 187.714 186.453 187.906C186.073 188.094 185.773 188.354 185.555 188.688C185.336 189.016 185.227 189.396 185.227 189.828C185.227 190.24 185.328 190.599 185.531 190.906C185.74 191.214 186.034 191.453 186.414 191.625C186.794 191.792 187.245 191.875 187.766 191.875ZM187.766 186.375C188.177 186.375 188.542 186.294 188.859 186.133C189.177 185.966 189.427 185.734 189.609 185.438C189.797 185.141 189.891 184.797 189.891 184.406C189.891 184.016 189.802 183.677 189.625 183.391C189.448 183.099 189.198 182.875 188.875 182.719C188.557 182.557 188.188 182.477 187.766 182.477C187.339 182.477 186.964 182.557 186.641 182.719C186.323 182.875 186.073 183.099 185.891 183.391C185.714 183.677 185.625 184.016 185.625 184.406C185.625 184.797 185.714 185.141 185.891 185.438C186.073 185.734 186.326 185.966 186.648 186.133C186.977 186.294 187.349 186.375 187.766 186.375ZM194.578 193.102C194.292 193.102 194.044 193 193.836 192.797C193.633 192.594 193.531 192.349 193.531 192.062C193.531 191.771 193.633 191.523 193.836 191.32C194.044 191.117 194.292 191.016 194.578 191.016C194.87 191.016 195.117 191.117 195.32 191.32C195.523 191.523 195.625 191.771 195.625 192.062C195.625 192.349 195.523 192.594 195.32 192.797C195.117 193 194.87 193.102 194.578 193.102ZM201.445 193.156C200.758 193.156 200.141 193.021 199.594 192.75C199.047 192.474 198.609 192.099 198.281 191.625C197.953 191.151 197.776 190.615 197.75 190.016H199.188C199.219 190.37 199.336 190.688 199.539 190.969C199.747 191.245 200.018 191.464 200.352 191.625C200.685 191.781 201.049 191.859 201.445 191.859C201.919 191.859 202.341 191.75 202.711 191.531C203.081 191.307 203.37 191.003 203.578 190.617C203.786 190.227 203.891 189.784 203.891 189.289C203.891 188.789 203.781 188.341 203.562 187.945C203.344 187.544 203.047 187.232 202.672 187.008C202.297 186.779 201.865 186.664 201.375 186.664C200.984 186.664 200.599 186.729 200.219 186.859C199.839 186.99 199.536 187.161 199.312 187.375L197.93 187.219L198.586 181.359H204.773V182.656H199.836L199.453 186.102H199.508C199.763 185.878 200.078 185.701 200.453 185.57C200.828 185.435 201.224 185.367 201.641 185.367C202.172 185.367 202.661 185.464 203.109 185.656C203.557 185.849 203.948 186.122 204.281 186.477C204.615 186.826 204.872 187.237 205.055 187.711C205.237 188.185 205.328 188.703 205.328 189.266C205.328 190.016 205.161 190.685 204.828 191.273C204.495 191.857 204.036 192.318 203.453 192.656C202.87 192.99 202.201 193.156 201.445 193.156ZM207.781 193L212.961 182.742V182.656H206.984V181.359H214.5V182.734L209.336 193H207.781ZM220.273 181.359V193H218.828V182.742H218.758L215.938 184.812V183.234L218.508 181.359H220.273ZM153.719 203.32V204.516H149.203V203.32H153.719ZM150.539 201.219H151.938V209.766C151.938 210.146 152.013 210.424 152.164 210.602C152.32 210.773 152.583 210.859 152.953 210.859C153.042 210.859 153.154 210.852 153.289 210.836C153.43 210.815 153.557 210.794 153.672 210.773L153.93 211.961C153.789 212.008 153.628 212.042 153.445 212.062C153.263 212.083 153.083 212.094 152.906 212.094C152.156 212.094 151.573 211.901 151.156 211.516C150.745 211.125 150.539 210.578 150.539 209.875V201.219ZM158.844 212.188C158.057 212.188 157.367 212 156.773 211.625C156.18 211.25 155.716 210.727 155.383 210.055C155.049 209.383 154.883 208.602 154.883 207.711C154.883 206.805 155.049 206.016 155.383 205.344C155.716 204.667 156.18 204.141 156.773 203.766C157.367 203.391 158.057 203.203 158.844 203.203C159.641 203.203 160.336 203.391 160.93 203.766C161.529 204.141 161.992 204.667 162.32 205.344C162.654 206.016 162.82 206.805 162.82 207.711C162.82 208.602 162.654 209.383 162.32 210.055C161.992 210.727 161.529 211.25 160.93 211.625C160.336 212 159.641 212.188 158.844 212.188ZM158.844 210.938C159.427 210.938 159.906 210.789 160.281 210.492C160.661 210.195 160.943 209.802 161.125 209.312C161.312 208.823 161.406 208.289 161.406 207.711C161.406 207.128 161.312 206.589 161.125 206.094C160.943 205.599 160.661 205.203 160.281 204.906C159.906 204.604 159.427 204.453 158.844 204.453C158.271 204.453 157.797 204.604 157.422 204.906C157.047 205.203 156.766 205.599 156.578 206.094C156.396 206.583 156.305 207.122 156.305 207.711C156.305 208.289 156.396 208.823 156.578 209.312C156.766 209.802 157.047 210.195 157.422 210.492C157.797 210.789 158.271 210.938 158.844 210.938ZM166.117 208.875V207.156H166.359L170.109 203.32H171.844L167.812 207.438H167.656L166.117 208.875ZM164.805 212V200.359H166.203V212H164.805ZM170.328 212L166.984 207.75L167.977 206.766L172.117 212H170.328ZM176.812 212.188C175.969 212.188 175.242 212 174.633 211.625C174.029 211.25 173.562 210.729 173.234 210.062C172.906 209.391 172.742 208.612 172.742 207.727C172.742 206.836 172.904 206.052 173.227 205.375C173.549 204.693 174.005 204.161 174.594 203.781C175.182 203.396 175.87 203.203 176.656 203.203C177.13 203.203 177.591 203.284 178.039 203.445C178.492 203.602 178.901 203.854 179.266 204.203C179.63 204.547 179.919 204.997 180.133 205.555C180.346 206.107 180.453 206.776 180.453 207.562V208.125H173.672V206.945H179.695L179.047 207.375C179.047 206.802 178.956 206.297 178.773 205.859C178.591 205.417 178.323 205.07 177.969 204.82C177.615 204.57 177.177 204.445 176.656 204.445C176.13 204.445 175.68 204.573 175.305 204.828C174.935 205.083 174.651 205.419 174.453 205.836C174.255 206.247 174.156 206.693 174.156 207.172V207.938C174.156 208.578 174.266 209.122 174.484 209.57C174.708 210.018 175.018 210.359 175.414 210.594C175.815 210.828 176.284 210.945 176.82 210.945C177.169 210.945 177.484 210.896 177.766 210.797C178.047 210.693 178.289 210.539 178.492 210.336C178.695 210.133 178.849 209.883 178.953 209.586L180.312 209.922C180.182 210.37 179.953 210.763 179.625 211.102C179.302 211.44 178.901 211.706 178.422 211.898C177.948 212.091 177.411 212.188 176.812 212.188ZM183.812 206.812V212H182.414V203.32H183.766L183.773 205.422H183.555C183.82 204.625 184.198 204.057 184.688 203.719C185.182 203.375 185.758 203.203 186.414 203.203C187.003 203.203 187.518 203.326 187.961 203.57C188.404 203.81 188.75 204.174 189 204.664C189.255 205.148 189.383 205.76 189.383 206.5V212H187.984V206.617C187.984 205.94 187.807 205.414 187.453 205.039C187.104 204.659 186.625 204.469 186.016 204.469C185.599 204.469 185.224 204.56 184.891 204.742C184.557 204.919 184.294 205.182 184.102 205.531C183.909 205.88 183.812 206.307 183.812 206.812ZM194.75 212.188C194.151 212.188 193.617 212.099 193.148 211.922C192.685 211.745 192.302 211.482 192 211.133C191.698 210.784 191.497 210.354 191.398 209.844L192.734 209.562C192.849 210.042 193.078 210.396 193.422 210.625C193.771 210.849 194.208 210.961 194.734 210.961C195.339 210.961 195.82 210.833 196.18 210.578C196.539 210.318 196.719 210.008 196.719 209.648C196.719 209.346 196.612 209.096 196.398 208.898C196.185 208.695 195.865 208.547 195.438 208.453L194 208.109C193.214 207.922 192.625 207.633 192.234 207.242C191.849 206.846 191.656 206.344 191.656 205.734C191.656 205.234 191.794 204.794 192.07 204.414C192.352 204.034 192.734 203.737 193.219 203.523C193.703 203.31 194.253 203.203 194.867 203.203C195.461 203.203 195.969 203.294 196.391 203.477C196.818 203.659 197.161 203.914 197.422 204.242C197.688 204.565 197.88 204.94 198 205.367L196.719 205.656C196.615 205.328 196.419 205.036 196.133 204.781C195.852 204.521 195.432 204.391 194.875 204.391C194.354 204.391 193.922 204.51 193.578 204.75C193.24 204.99 193.07 205.292 193.07 205.656C193.07 205.979 193.188 206.24 193.422 206.438C193.656 206.63 194.021 206.784 194.516 206.898L195.836 207.211C196.628 207.398 197.214 207.688 197.594 208.078C197.974 208.469 198.164 208.964 198.164 209.562C198.164 210.073 198.021 210.526 197.734 210.922C197.448 211.318 197.047 211.628 196.531 211.852C196.016 212.076 195.422 212.188 194.75 212.188Z" fill="#6B747D" style="fill:#6B747D;fill:color(display-p3 0.4192 0.4556 0.4883);fill-opacity:1;"/>
<defs>
<filter id="filter0_d_31_261" x="147" y="105" width="54" height="54" filterUnits="userSpaceOnUse" color-interpolation-filters="sRGB">
<feFlood flood-opacity="0" result="BackgroundImageFix"/>
<feColorMatrix in="SourceAlpha" type="matrix" values="0 0 0 0 0 0 0 0 0 0 0 0 0 0 0 0 0 0 127 0" result="hardAlpha"/>
<feOffset/>
<feGaussianBlur stdDeviation="7.5"/>
<feComposite in2="hardAlpha" operator="out"/>
<feColorMatrix type="matrix" values="0 0 0 0 0.956863 0 0 0 0 0.760784 0 0 0 0 0.211765 0 0 0 0.6 0"/>
<feBlend mode="normal" in2="BackgroundImageFix" result="effect1_dropShadow_31_261"/>
<feBlend mode="normal" in="SourceGraphic" in2="effect1_dropShadow_31_261" result="shape"/>
</filter>
<radialGradient id="paint0_radial_31_261" cx="0" cy="0" r="1" gradientUnits="userSpaceOnUse" gradientTransform="translate(173.998 174.129) rotate(-134.979) scale(169.559 170.461)">
<stop offset="0.65" stop-color="#49006B" stop-opacity="0" style="stop-color:none;stop-opacity:0;"/>
<stop offset="0.85" stop-color="#49006B" stop-opacity="0.5" style="stop-color:#49006B;stop-color:color(display-p3 0.2853 0.0000 0.4196);stop-opacity:0.5;"/>
<stop offset="1" stop-color="#49006B" style="stop-color:#49006B;stop-color:color(display-p3 0.2863 0.0000 0.4196);stop-opacity:1;"/>
</radialGradient>
<radialGradient id="paint1_radial_31_261" cx="0" cy="0" r="1" gradientUnits="userSpaceOnUse" gradientTransform="translate(175.698 172.428) rotate(-180) scale(171.702 168.003)">
<stop offset="0.65" stop-color="#78E6E2" stop-opacity="0" style="stop-color:none;stop-opacity:0;"/>
<stop offset="0.85" stop-color="#78E6E2" stop-opacity="0.5" style="stop-color:#78E6E2;stop-color:color(display-p3 0.4688 0.9000 0.8862);stop-opacity:0.5;"/>
<stop offset="1" stop-color="#78E5E2" style="stop-color:#78E5E2;stop-color:color(display-p3 0.4706 0.8980 0.8863);stop-opacity:1;"/>
</radialGradient>
<radialGradient id="paint2_radial_31_261" cx="0" cy="0" r="1" gradientUnits="userSpaceOnUse" gradientTransform="translate(178.75 174.001) rotate(90) scale(170.002 165.25)">
<stop offset="0.65" stop-color="#F4C236" stop-opacity="0" style="stop-color:none;stop-opacity:0;"/>
<stop offset="0.85" stop-color="#F4C236" stop-opacity="0.5" style="stop-color:#F4C236;stop-color:color(display-p3 0.9569 0.7608 0.2118);stop-opacity:0.5;"/>
<stop offset="1" stop-color="#F4C236" style="stop-color:#F4C236;stop-color:color(display-p3 0.9569 0.7608 0.2118);stop-opacity:1;"/>
</radialGradient>
<radialGradient id="paint3_radial_31_261" cx="0" cy="0" r="1" gradientUnits="userSpaceOnUse" gradientTransform="translate(173.148 174.129) rotate(-90) scale(170.129 170.002)">
<stop offset="0.65" stop-color="#0B7ABF" stop-opacity="0" style="stop-color:none;stop-opacity:0;"/>
<stop offset="0.85" stop-color="#0B7ABF" stop-opacity="0.5" style="stop-color:#0B7ABF;stop-color:color(display-p3 0.0431 0.4784 0.7490);stop-opacity:0.5;"/>
<stop offset="1" stop-color="#0B7ABF" style="stop-color:#0B7ABF;stop-color:color(display-p3 0.0431 0.4784 0.7490);stop-opacity:1;"/>
</radialGradient>
<linearGradient id="paint4_linear_31_261" x1="174" y1="88" x2="174" y2="260" gradientUnits="userSpaceOnUse">
<stop stop-color="#323232" style="stop-color:#323232;stop-color:color(display-p3 0.1944 0.1944 0.1944);stop-opacity:1;"/>
<stop offset="1" stop-color="#181818" style="stop-color:#181818;stop-color:color(display-p3 0.0956 0.0951 0.0951);stop-opacity:1;"/>
</linearGradient>
<linearGradient id="paint5_linear_31_261" x1="174" y1="100" x2="174" y2="248" gradientUnits="userSpaceOnUse">
<stop stop-color="#323232" style="stop-color:#323232;stop-color:color(display-p3 0.1944 0.1944 0.1944);stop-opacity:1;"/>
<stop offset="1" stop-color="#181818" style="stop-color:#181818;stop-color:color(display-p3 0.0956 0.0951 0.0951);stop-opacity:1;"/>
</linearGradient>
</defs>
</svg>
