<?xml version="1.0" standalone="no"?>
<!DOCTYPE svg PUBLIC "-//W3C//DTD SVG 20010904//EN"
 "http://www.w3.org/TR/2001/REC-SVG-20010904/DTD/svg10.dtd">
<svg version="1.0" xmlns="http://www.w3.org/2000/svg"
 width="4870.000000pt" height="4870.000000pt" viewBox="0 0 4870.000000 4870.000000"
 preserveAspectRatio="xMidYMid meet">
<metadata>
Created by potrace 1.14, written by Peter Selinger 2001-2017
</metadata>
<g transform="translate(0.000000,4870.000000) scale(0.100000,-0.100000)"
fill="#000000" stroke="none">
<path d="M1200 48356 c-351 -338 -688 -678 -1018 -1023 l-182 -192 0 -22837 0
-22837 148 -156 c239 -253 778 -795 1055 -1062 l258 -249 22942 0 22942 0 345
338 c190 185 495 490 678 677 l332 339 0 22949 0 22948 -224 232 c-251 261
-906 910 -1097 1090 l-126 117 -22854 0 -22854 0 -345 -334z m23784 -8750
c958 -118 1723 -756 2000 -1667 177 -584 128 -1191 -138 -1734 -310 -630 -871
-1086 -1546 -1255 -246 -62 -274 -64 -975 -66 -709 -2 -940 -12 -1387 -64
-700 -82 -1393 -238 -2103 -475 -1311 -437 -2494 -1118 -3548 -2043 -1644
-1442 -2749 -3254 -3281 -5377 -244 -976 -345 -2071 -285 -3115 69 -1217 334
-2366 796 -3455 100 -236 341 -730 473 -970 829 -1512 1945 -2732 3361 -3675
1295 -862 2617 -1387 4119 -1634 593 -98 1074 -137 1690 -137 763 0 1424 63
2111 201 1163 234 2254 663 3329 1308 996 597 1878 1350 2609 2227 568 680
1082 1489 1469 2310 54 116 102 218 105 227 6 17 -114 18 -2441 18 -2651 0
-2552 -2 -2813 54 -829 176 -1493 776 -1752 1581 -238 742 -107 1536 357 2155
88 118 293 330 406 420 214 171 470 311 716 393 156 52 230 71 389 98 207 36
661 40 4740 36 3681 -2 3906 -4 4010 -20 560 -91 1019 -325 1390 -708 369
-382 589 -848 651 -1385 24 -205 15 -476 -26 -749 -146 -986 -340 -1806 -642
-2710 -615 -1841 -1562 -3514 -2822 -4984 -1560 -1821 -3441 -3212 -5588
-4132 -1719 -737 -3526 -1151 -5408 -1239 -437 -20 -1203 -11 -1680 20 -2744
182 -5244 1032 -7525 2561 -1946 1303 -3523 2982 -4698 4999 -373 642 -709
1322 -973 1976 -582 1441 -949 3008 -1068 4569 -55 719 -55 1483 -1 2245 170
2349 823 4520 1952 6484 875 1523 2068 2958 3417 4115 1763 1511 3859 2582
6211 3174 969 244 2010 392 3090 437 324 14 1156 4 1309 -14z m10546 -1885
c1171 -160 2163 -720 2894 -1635 510 -638 829 -1425 923 -2276 23 -213 23
-667 0 -878 -63 -565 -207 -1054 -451 -1537 -342 -674 -834 -1234 -1456 -1654
-586 -397 -1231 -637 -1950 -727 -198 -24 -686 -30 -898 -10 -1342 128 -2515
827 -3260 1942 -475 710 -732 1562 -732 2424 0 981 334 1947 938 2710 748 944
1817 1531 3018 1655 213 22 769 14 974 -14z"/>
</g>
</svg>
